<svg width="39" height="42" viewBox="0 0 39 42" fill="none" xmlns="http://www.w3.org/2000/svg">
<path d="M17.0774 7.16092C17.0774 5.12261 16.5479 3.51341 15.4888 2.33333C14.4297 1.15326 13.1059 0.56322 11.5173 0.56322C10.0876 0.56322 8.73727 1.0728 7.4664 2.09196C6.19552 3.11111 5.56008 4.58621 5.56008 6.51724C5.56008 8.18008 6.08961 9.86973 7.14868 11.5862C8.20774 13.249 9.53157 14.9387 11.1202 16.6552C13.4501 14.9387 15.0122 13.3295 15.8065 11.8276C16.6538 10.272 17.0774 8.71648 17.0774 7.16092ZM23.2729 17.9425H31.613V18.1839C30.6599 18.1839 29.9185 18.3716 29.389 18.7471C28.9124 19.1226 28.5418 19.6054 28.277 20.1954C28.0652 20.7854 27.9328 21.4291 27.8798 22.1264C27.8269 22.8238 27.8004 23.4943 27.8004 24.1379C27.8004 27.5709 27.4033 30.5479 26.609 33.069C27.4033 33.9272 28.2505 34.8391 29.1507 35.8046C30.1039 36.7701 31.0835 37.6283 32.0896 38.3793C33.1487 39.1303 34.2607 39.7739 35.4257 40.3103C36.5906 40.7931 37.7821 41.0345 39 41.0345V41.8391C37.1996 41.8391 35.6904 41.7854 34.4725 41.6782C33.3075 41.6245 32.222 41.4368 31.2159 41.1149C30.2627 40.7931 29.3096 40.2835 28.3564 39.5862C27.4562 38.8352 26.3707 37.8161 25.0998 36.5287C22.9287 40.1762 19.4073 42 14.5356 42C12.5234 42 10.6171 41.705 8.8167 41.1149C7.06925 40.5249 5.53361 39.7203 4.20978 38.7011C2.9389 37.6284 1.90631 36.3678 1.11202 34.9195C0.370672 33.4176 0 31.8084 0 30.092C0 27.5172 0.794297 25.3448 2.38289 23.5747C3.97149 21.751 5.95723 20.0881 8.34012 18.5862C6.80448 16.7625 5.50713 14.9387 4.44807 13.1149C3.44196 11.2912 2.9389 9.46744 2.9389 7.64368C2.9389 6.40996 3.17719 5.33717 3.65377 4.42529C4.13035 3.45977 4.76578 2.65517 5.56008 2.0115C6.35438 1.36782 7.25458 0.88506 8.26069 0.56322C9.31976 0.18774 10.4318 0 11.5967 0C13.9267 0 15.8595 0.670499 17.3951 2.0115C18.9308 3.29885 19.6986 4.98851 19.6986 7.08046C19.6986 8.15326 19.4868 9.17242 19.0631 10.1379C18.6395 11.1034 18.057 12.0421 17.3157 12.954C16.6273 13.8123 15.8065 14.6437 14.8534 15.4483C13.9532 16.2529 13 16.977 11.9939 17.6207L25.8941 32.3448C26.6354 29.931 27.0061 27.1954 27.0061 24.1379C27.0061 23.4943 26.9796 22.8238 26.9267 22.1264C26.9267 21.4291 26.7943 20.7854 26.5295 20.1954C26.3177 19.6054 25.947 19.1226 25.4175 18.7471C24.9409 18.3716 24.2261 18.1839 23.2729 18.1839V17.9425ZM24.3849 35.8046C21.7902 33.1762 19.222 30.4943 16.6802 27.7586C14.1385 25.023 11.6497 22.2874 9.21385 19.5517C7.67821 20.7854 6.56619 22.1801 5.8778 23.7356C5.18941 25.2375 4.84521 27.1149 4.84521 29.3678C4.84521 32.9617 5.71894 35.8046 7.4664 37.8965C9.21385 39.9349 11.7026 40.954 14.9328 40.954C19.1161 40.954 22.2668 39.2375 24.3849 35.8046Z" fill="#CEC8BA"/>
</svg>
