<svg width="116" height="118" viewBox="0 0 116 118" fill="none" xmlns="http://www.w3.org/2000/svg">
<g filter="url(#filter0_d_40000074_22592)">
<path d="M26.8017 84.278C22.5044 81.9186 18.2941 80.7658 15.4111 77.8184C6.65917 69.2251 7.70173 56.7658 17.4271 50.2348C20.6691 48.0574 20.9347 46.7025 20.9238 43.1823C20.6563 31.0614 26.0402 21.5662 35.2756 18.3486C41.4328 16.2029 46.7473 17.5188 51.1312 21.0859C54.3675 23.8865 56.1795 23.7553 59.377 20.9742C67.8083 13.3225 81.6185 14.63 86.8473 28.2136C88.2128 31.9992 89.388 34.8282 95.1593 35.7461C107.055 37.4352 111.119 51.7088 102.467 61.3192C96.9681 67.5452 92.2366 72.6221 93.8905 82.0935C95.1633 89.6503 87.3375 97.2582 79.1353 97.9732C74.5558 98.4265 69.9477 96.8168 65.2215 96.9168C62.3062 96.8852 58.7267 97.7513 56.2958 99.3842C48.148 104.223 37.6504 103.405 33.0969 92.4436C31.9216 89.6146 29.4354 87.1236 27.1569 84.1319" fill="#464A2D"/>
</g>
<path d="M41.4401 62.3883C41.1293 62.3254 40.8301 62.2838 40.549 62.1854C40.2211 62.0638 39.9095 61.8933 39.6029 61.7334C39.2879 61.571 38.9814 61.3846 38.6717 61.2055C38.6335 61.1842 38.6171 61.1256 38.5923 61.0911C38.6433 61.0982 38.7028 61.0812 38.7403 61.1023C39.0712 61.2698 39.3834 61.4672 39.7219 61.6105C40.153 61.8006 40.6044 61.9531 41.0534 62.1131C41.3047 62.1928 41.5617 62.2569 41.8182 62.32C41.8425 62.3277 41.877 62.3029 41.8987 62.2923C41.8905 62.263 41.8815 62.2335 41.86 62.2175C41.7313 62.0875 41.6136 61.9519 41.4833 61.8297C41.4209 61.7741 41.3343 61.7374 41.2582 61.7224C40.8352 61.6773 40.4372 61.5509 40.0469 61.3738C39.334 61.0583 38.7802 60.5252 38.1469 60.1009C37.7932 59.8637 37.4459 59.6376 37.0326 59.5331C36.3654 59.3571 35.7395 59.4708 35.1775 59.8639C35.1319 59.8944 35.0675 59.9006 35.0163 59.9202C35.037 59.8551 35.0468 59.7691 35.084 59.7359C35.2548 59.6202 35.4167 59.475 35.6128 59.4214C35.8676 59.3507 35.9582 59.1204 36.1583 58.9965C36.115 58.9652 36.0685 58.9147 36.0193 58.8991C35.9141 58.8657 35.7952 58.8729 35.7063 58.8172C35.6174 58.7615 35.5747 58.6413 35.5034 58.5562C35.4653 58.5083 35.3754 58.4531 35.3325 58.4753C34.9358 58.5993 34.5809 58.8173 34.3463 59.1627C34.2038 59.3857 34.1381 59.6506 34.0391 59.9048C34.0875 59.9202 34.1416 59.9466 34.1818 59.9327C34.3855 59.8815 34.5785 59.8087 34.7798 59.7651C34.8284 59.7539 34.8984 59.7853 34.9578 59.795C34.9206 59.8281 34.881 59.8689 34.8381 59.8911C34.5704 59.976 34.2969 60.0767 34.0288 60.134C33.7714 60.1864 33.6397 60.0371 33.6601 59.7762C33.6918 59.3665 33.9108 59.0703 34.2083 58.8074C34.2798 58.7501 34.351 58.6386 34.3418 58.5548C34.2748 58.0338 34.4733 57.6053 34.7694 57.2078C35.2102 56.6064 35.8002 56.2672 36.5396 56.1895C36.604 56.1833 36.6891 56.112 36.7291 56.0439C37.0636 55.5253 37.5714 55.2483 38.1219 55.0308C38.3469 54.9414 38.5578 54.8384 38.7801 54.7574C38.8632 54.7213 38.9651 54.7361 39.0648 54.732C39.0659 54.8123 39.0725 54.9043 39.0737 54.9847C39.0666 55.259 39.0576 55.5419 39.0478 55.8245C39.0458 55.8597 39.0514 55.8973 39.0437 55.9215C39.0307 55.9623 39.007 56.0081 38.9865 56.0466C38.9533 56.0094 38.8992 55.9831 38.877 55.9402C38.7418 55.6915 38.6811 55.4315 38.7905 55.1447C38.8035 55.1038 38.8052 55.0694 38.8106 55.0261C38.7704 55.04 38.725 55.0439 38.6923 55.0602C38.3796 55.2292 38.0838 55.4027 37.7738 55.5633C37.3275 55.7882 36.9305 56.0812 36.7031 56.5455C36.6222 56.7164 36.6006 56.9236 36.5579 57.1158C36.5529 57.1317 36.5775 57.167 36.5858 57.1696C36.6234 57.1641 36.6714 57.1518 36.7065 57.128C36.9119 56.9874 37.1087 56.845 37.3198 56.7154C37.4079 56.6634 37.5267 56.6828 37.634 56.6544C37.7221 56.629 37.8218 56.5982 37.8962 56.5318C38.1196 56.3345 38.3287 56.1243 38.5521 55.927C38.5757 55.9079 38.6351 55.9176 38.6703 55.9196C38.6573 55.9604 38.6552 56.0222 38.629 56.0497C38.3973 56.2444 38.2046 56.4865 38.1086 56.76C38.0289 57.0113 38.0274 57.2965 38.0311 57.5659C38.0458 58.2228 38.3841 58.7317 38.7869 59.2078C39.1973 59.6863 39.7172 60.0479 40.2044 60.4525C40.4465 60.6451 40.6605 60.8738 40.8863 61.0887C40.9138 61.115 40.9167 61.1609 40.9257 61.1904C40.8931 61.18 40.8504 61.1756 40.8205 61.157C40.2051 60.6759 39.5848 60.2108 38.9881 59.6998C38.6232 59.3874 38.3133 59.0125 37.9773 58.6643C37.8022 58.4837 37.58 58.5381 37.3867 58.5567C36.9754 58.6136 36.6421 58.8477 36.3206 59.1022C36.286 59.127 36.2763 59.1864 36.255 59.2246C36.3061 59.2317 36.3553 59.2473 36.3955 59.2334C36.674 59.1435 36.9491 59.1767 37.2274 59.2292C38.0371 59.3788 38.6741 59.8492 39.2976 60.3595C39.6651 60.6636 40.0493 60.9464 40.4488 61.2073C40.6718 61.3497 40.934 61.4238 41.1802 61.5194C41.2128 61.5298 41.2447 61.5132 41.2825 61.5069C41.2743 61.4776 41.2653 61.4481 41.2464 61.4238C40.9855 61.0911 40.7337 60.7612 40.473 60.4278C40.1932 60.0707 39.8921 59.7252 39.623 59.3633C39.162 58.7346 38.8152 58.0531 38.8227 57.2424C38.8289 56.7713 38.9146 56.3336 39.1964 55.9233C39.3648 55.6735 39.5557 55.4659 39.8096 55.3141C39.8761 55.2727 39.9704 55.2852 40.0542 55.2759C40.0069 55.3409 39.9619 55.4249 39.8978 55.4587C39.4574 55.7204 39.3317 56.1453 39.2553 56.6117C39.1146 57.4775 39.4828 58.2017 39.9205 58.9037C40.2346 59.4049 40.562 59.8929 40.8894 60.3808C41.2168 60.8688 41.5652 61.3459 41.9012 61.8357C41.9615 61.9265 42.0142 62.0149 42.0748 62.1049C42.0856 62.1259 42.1315 62.1229 42.1558 62.1306C42.1634 62.1064 42.1738 62.0739 42.1629 62.0529C41.9455 61.5283 41.7497 60.993 41.4272 60.5157C41.2512 60.2541 41.0859 59.9876 40.9232 59.7127C40.901 59.6698 40.9107 59.6104 40.8995 59.5619C40.9479 59.5772 41.013 59.5979 41.0405 59.6241C41.2383 59.901 41.4469 60.173 41.6228 60.4612C41.7937 60.7387 41.9245 61.0301 42.0735 61.319C42.1039 61.3911 42.1132 61.4749 42.142 61.5548C42.1528 61.5757 42.1827 61.5944 42.2043 61.6104C42.212 61.5862 42.2382 61.5587 42.2459 61.5345C42.2674 61.3539 42.2865 61.1809 42.2978 61.0062C42.3048 60.9551 42.2962 60.8982 42.274 60.8554C42.1015 60.4699 41.9397 60.0795 41.7353 59.7105C41.506 59.3071 41.237 58.9185 40.9758 58.5315C40.8409 58.3371 40.6851 58.1535 40.5478 57.9667C40.537 57.9457 40.5256 57.9238 40.5148 57.9028C40.544 57.8946 40.5786 57.8698 40.5952 57.8751C40.652 57.8931 40.7204 57.9323 40.7501 57.9776C41.0192 58.3395 41.2881 58.7023 41.5546 59.0726C41.7276 59.3149 41.9196 59.555 42.0497 59.8195C42.1881 60.0867 42.2652 60.3794 42.366 60.6521C42.3742 60.6814 42.3915 60.7135 42.3997 60.7428C42.4259 60.7153 42.4612 60.6907 42.4815 60.653C42.5817 60.479 42.5362 60.313 42.4637 60.1475C42.2711 59.6574 41.9925 59.2124 41.6906 58.7859C41.3333 58.2793 40.9657 57.7786 40.6293 57.2611C40.244 56.6748 40.0862 56.0175 40.1194 55.3224C40.1255 55.1903 40.1507 55.0558 40.192 54.9257C40.21 54.8689 40.2765 54.8275 40.3297 54.7728C40.3468 54.8315 40.3637 54.8911 40.3699 54.9555C40.3809 55.173 40.3521 55.4055 40.4006 55.6175C40.4956 56.0766 40.6822 56.5016 40.9308 56.902C41.4513 57.737 42.1188 58.4761 42.5173 59.3882C42.6061 59.5863 42.6655 59.7926 42.7443 59.9959C42.7638 60.047 42.7939 60.0916 42.8218 60.1454C42.8589 60.1122 42.8883 60.0774 42.9282 60.0359C43.2489 59.6737 43.6575 59.4544 44.1216 59.3701C44.7099 59.262 45.2576 59.3917 45.7893 59.6588C45.9193 59.7267 46.068 59.7647 46.2114 59.8194C46.4066 59.908 46.5991 60.0049 46.8051 60.0879C46.8778 60.1109 46.9672 60.1126 47.0425 60.1274C47.075 60.1377 47.0973 60.1806 47.1221 60.2151C47.0902 60.2317 47.0582 60.2748 47.0238 60.273C46.455 60.2358 46.1649 60.6168 45.9065 61.0346C45.6905 61.3767 45.5183 61.7511 45.2947 62.0908C45.0076 62.5178 44.6023 62.7815 44.0805 62.8482C43.8576 62.8758 43.6318 62.8841 43.4082 62.9114C43.3706 62.9169 43.3334 62.9501 43.3015 62.9666C43.329 62.9929 43.3563 63.0198 43.3838 63.0461C43.597 63.2745 43.8345 63.484 44.0207 63.7397C44.3147 64.1363 44.5841 64.5525 44.8433 64.9746C45.2123 65.5833 45.5529 66.2003 45.9139 66.8056C46.0246 66.9923 46.027 66.9847 46.164 66.805C46.3836 66.5357 46.6008 66.2739 46.8256 66.0146C46.9344 65.8975 46.9833 65.7697 46.9952 65.6219C47.0984 64.5384 47.6706 63.7463 48.5562 63.1527C49.1216 62.7782 49.7435 62.6191 50.408 62.6068C50.4615 62.6063 50.5165 62.6587 50.5763 62.6961C50.5251 62.7156 50.483 62.7381 50.4287 62.7383C49.3293 62.8533 48.4642 63.3559 47.9076 64.3221C47.4978 65.0226 47.358 65.7729 47.6142 66.5689C47.758 67.0161 48.0531 67.3513 48.3728 67.6669C48.4683 67.7597 48.5664 67.8441 48.6517 67.9429C48.6898 67.9908 48.7127 68.0605 48.7406 68.1143C48.6704 68.1096 48.5924 68.1298 48.5383 68.1034C48.2668 67.9456 47.9978 67.7803 47.7263 67.6225C47.6663 67.5859 47.5963 67.5545 47.5318 67.5607C47.3492 67.5744 47.1718 67.598 46.9941 67.6224C46.9565 67.628 46.9193 67.6612 46.8874 67.6777C46.9066 67.7013 46.9129 67.7391 46.9371 67.7468C47.3192 67.8947 47.576 68.2087 47.8493 68.4737C48.4528 69.0759 49.0006 69.7146 49.4494 70.4369C49.6336 70.7278 49.8026 71.0405 49.9769 71.3365C49.996 71.3601 50.0123 71.3928 50.013 71.4196C50.0192 71.4841 50.0095 71.5435 50.0024 71.5945C49.9692 71.5573 49.9234 71.5336 49.9012 71.4908C49.7773 71.2907 49.6687 71.0688 49.5346 70.8746C49.1938 70.3999 48.8637 69.9202 48.4991 69.4655C47.9597 68.8028 47.3055 68.2736 46.5829 67.8209C46.553 67.8023 46.5052 67.8138 46.4727 67.8034C46.4782 67.841 46.4762 67.8762 46.4852 67.9057C46.8056 68.6414 47.1336 69.3794 47.4514 70.1234C47.6658 70.6288 47.8591 71.1458 48.0735 71.6511C48.3386 72.3067 48.6063 72.954 48.882 73.6046C49.0826 74.0698 49.2829 74.5357 49.4834 75.0009C49.7453 75.6113 50.004 76.2291 50.2662 76.8387C50.3975 77.157 50.5389 77.4701 50.6703 77.7884C50.6842 77.8286 50.698 77.8688 50.696 77.904C50.691 77.9199 50.6807 77.9524 50.6488 77.969C50.6488 77.969 50.6003 77.9536 50.5971 77.9351C50.4225 77.5848 50.2563 77.2371 50.0815 76.8876C50.0677 76.8474 50.0428 76.8128 50.0206 76.77C49.7182 76.1742 49.4086 75.5752 49.1255 74.9764C48.8557 74.391 48.6051 73.8025 48.3573 73.2056C48.2348 72.9169 47.9876 72.7668 47.7537 72.6034C47.4983 72.424 47.2588 72.4463 46.9807 72.5904C46.433 72.8539 46.0704 73.3194 45.6729 73.7555C45.644 73.7913 45.6089 73.8152 45.5744 73.84C45.5579 73.8081 45.533 73.7736 45.5275 73.736C45.5047 73.6396 45.4639 73.6267 45.3924 73.6839C45.0759 73.9225 44.7584 74.1616 44.4387 74.3817C44.2545 74.5106 44.0575 74.6272 43.8537 74.705C43.6178 74.8 43.4626 74.6433 43.5105 74.4086C43.5182 74.3844 43.5151 74.3651 43.5153 74.3384C43.4777 74.344 43.4398 74.3503 43.3996 74.3642C43.1613 74.4668 42.9266 74.6156 42.6749 74.679C42.3261 74.7648 41.9604 74.7912 41.6034 74.8478C41.2464 74.9044 40.9333 75.0458 40.6594 75.2895C40.6331 75.317 40.5896 75.3124 40.5494 75.3262C40.5465 75.2803 40.5236 75.2106 40.5423 75.1807C40.7068 75.0272 40.8771 74.858 41.0663 74.7398C41.4053 74.5167 41.7973 74.4628 42.198 74.4651C42.6098 74.4617 43.0044 74.3995 43.3677 74.1841C43.4315 74.1511 43.4903 74.1073 43.5684 74.0871C43.6245 74.0782 43.7056 74.0773 43.7463 74.1169C43.7762 74.1356 43.7562 74.2275 43.7484 74.2783L43.6454 74.603C43.7068 74.5775 43.766 74.5613 43.8116 74.5308C44.3105 74.1977 44.8084 73.8651 45.299 73.5294C45.3124 73.5161 45.3335 73.5045 45.3502 73.5098C45.7269 73.4778 45.8485 73.1498 46.0629 72.923C46.3067 72.6614 46.584 72.4362 46.9682 72.4065C47.0141 72.4036 47.0699 72.3672 47.1127 72.3449C47.0694 72.3137 47.0205 72.2707 46.9713 72.2551C46.5708 72.1104 46.2305 72.1982 45.9467 72.5279C45.8775 72.6043 45.8008 72.6782 45.7266 72.7438C45.7004 72.7713 45.6486 72.764 45.6167 72.7805C45.6111 72.7429 45.5939 72.6842 45.6092 72.6624C45.7602 72.4962 45.9198 72.332 46.0784 72.1682C46.102 72.1491 46.1263 72.1301 46.1499 72.111C46.1224 72.0847 46.0902 72.047 46.0551 72.045C45.8369 72.0291 45.6184 72.0139 45.4058 72.0355C45.2877 72.043 45.1676 72.1115 45.0659 72.1775C44.7089 72.4307 44.4337 72.7624 44.1855 73.1218C44.1778 73.146 44.1543 73.1652 44.1299 73.1841C44.0954 73.2089 44.0552 73.2228 44.0206 73.2477C44.0177 73.2018 43.9948 73.132 44.0135 73.1021C44.111 72.9365 44.2103 72.7631 44.3353 72.6237C44.473 72.4708 44.6489 72.3392 44.8005 72.1999C44.8267 72.1724 44.8504 72.1266 44.8717 72.0884C44.8392 72.0781 44.7908 72.0627 44.7589 72.0792C44.5283 72.131 44.306 72.212 44.0779 72.2563C43.7956 72.3007 43.6535 72.4964 43.5137 72.7111C43.3297 73.01 43.1483 73.3006 42.9559 73.597C42.9247 73.6403 42.8493 73.6522 42.7954 73.6801C42.7976 73.6183 42.7773 73.5403 42.801 73.4945C42.9715 73.2095 43.1612 72.9215 43.3409 72.6387C43.3622 72.6005 43.3825 72.5628 43.4038 72.5246C43.3636 72.5385 43.3099 72.5397 43.2755 72.5638C42.8228 72.8933 42.3724 73.2151 41.9246 73.5553C41.7377 73.6926 41.5765 73.8646 41.4012 74.0231C41.3776 74.0422 41.3398 74.0486 41.3022 74.0541C41.3126 74.0216 41.2904 73.9787 41.3064 73.9571C41.3859 73.8483 41.4512 73.7266 41.5523 73.6337C41.8652 73.3224 42.1865 73.0137 42.5136 72.7152C42.5668 72.6604 42.6473 72.6326 42.7137 72.5913C42.7373 72.5721 42.756 72.5422 42.7829 72.5149C42.7421 72.502 42.6963 72.4783 42.6694 72.4789C42.4203 72.5606 42.1737 72.6339 41.9276 72.7349C41.7941 72.7908 41.6687 72.876 41.5344 72.9316C41.4916 72.9538 41.4238 72.9415 41.3704 72.942C41.3941 72.8962 41.409 72.8202 41.4519 72.798C41.6577 72.685 41.8656 72.5628 42.0853 72.4901C42.4418 72.38 42.8121 72.3101 43.166 72.2084C43.4018 72.1399 43.6291 72.043 43.8624 71.9563C43.8834 71.9454 43.902 71.9155 43.9263 71.8966C43.8855 71.8836 43.8531 71.8467 43.8179 71.8447C43.166 71.8435 42.5036 71.794 41.8776 72.0501C41.8483 72.0583 41.8188 72.0673 41.7946 72.0596L41.7136 72.0339C41.7296 72.0123 41.74 71.9798 41.7692 71.9716C42.0476 71.8817 42.3181 71.7618 42.5971 71.7254C42.9814 71.6691 43.3798 71.679 43.7674 71.6679C43.8477 71.6667 43.9424 71.6518 44.0041 71.6805C44.2941 71.8351 44.5836 71.7129 44.8791 71.7084C44.987 71.7068 45.0916 71.7134 45.1995 71.7118C45.2238 71.7195 45.2534 71.6839 45.2743 71.6731C45.2551 71.6495 45.2388 71.6168 45.2146 71.6091C44.9683 71.5401 44.7287 71.4815 44.4824 71.4125C44.4498 71.4022 44.4174 71.3652 44.3901 71.3383C44.4247 71.3134 44.4433 71.2835 44.4809 71.2779C44.5295 71.2667 44.5856 71.2579 44.634 71.2732C45.0071 71.3917 45.3649 71.5319 45.7354 71.6587C45.8898 71.7077 46.0537 71.7239 46.1998 71.7702C46.4835 71.8603 46.768 71.9773 47.0491 72.0757C47.0816 72.086 47.1294 72.0745 47.1646 72.0765C47.1481 72.0446 47.1418 72.0068 47.1202 71.9908C46.6731 71.599 46.237 71.2015 45.7766 70.8229C45.4283 70.5424 45.0188 70.3683 44.5617 70.4014C44.5158 70.4044 44.4711 70.4351 44.4308 70.449C44.4717 70.462 44.5201 70.4774 44.5533 70.5146C44.638 70.5864 44.7119 70.6632 44.7851 70.7397C44.7934 70.7424 44.7754 70.7991 44.7644 70.8048C44.7351 70.813 44.6999 70.811 44.6784 70.795C43.9475 70.3131 43.1529 70.2841 42.3403 70.5085C42.0267 70.5963 41.7521 70.8132 41.4613 70.9708C41.4404 70.9817 41.44 71.0091 41.4247 71.0309L41.4898 71.0515C41.6053 71.0524 41.7183 71.0349 41.8262 71.06C41.8829 71.078 41.9434 71.1422 42 71.1868C41.9628 71.22 41.9308 71.2631 41.8887 71.2856C41.5065 71.4767 41.1243 71.6677 40.8462 72.0084C40.7008 72.1855 40.5822 72.3886 40.4426 72.5767C40.4213 72.6149 40.3735 72.6264 40.3465 72.6537C40.3243 72.6108 40.2695 72.5576 40.2823 72.5175C40.3337 72.3556 40.3578 72.1666 40.4526 72.0359C40.7006 71.6773 41.039 71.4274 41.4675 71.3135C41.5077 71.2996 41.5532 71.2691 41.5878 71.2442L41.1905 71.1181C41.2347 71.0339 41.2681 70.9287 41.3347 70.8607C41.898 70.3248 42.5529 70.0328 43.3434 70.1588C43.5808 70.1984 43.8218 70.284 44.0541 70.3394C44.1109 70.3575 44.1889 70.3373 44.2342 70.3075C44.4812 70.091 44.7715 70.0765 45.0664 70.1343C45.6118 70.245 46.0125 70.5862 46.3732 70.9956C46.7339 71.405 47.1089 71.8006 47.494 72.1911C47.6359 72.3344 47.8021 72.4588 47.9603 72.5798C47.9819 72.5958 48.0407 72.5787 48.0758 72.5807C48.0676 72.5514 48.067 72.5246 48.0505 72.4927C47.835 71.9328 47.6303 71.368 47.4156 70.8084C47.2001 70.2485 46.9768 69.687 46.7504 69.1328C46.5886 68.7424 46.4134 68.3653 46.2492 67.9824C46.1909 67.8565 46.1113 67.7687 45.9613 67.7927C45.9051 67.8016 45.8483 67.8102 45.7889 67.8005C45.6567 67.7943 45.5349 67.7557 45.557 67.6019C45.5798 67.475 45.523 67.457 45.4337 67.4287C44.8495 67.2432 44.2589 67.1357 43.652 67.0505C43.0962 66.9724 42.5327 66.9185 41.9761 66.9559C41.4653 66.9903 40.9601 67.0624 40.4576 67.1261C40.3553 67.1386 40.2971 67.2093 40.2452 67.3177C40.0363 67.7787 40.0492 68.2735 40.0103 68.7609C39.9879 69.057 39.9301 69.3519 39.856 69.6407C39.7868 69.9137 39.7134 70.2027 39.5984 70.452C39.3347 71.0022 39.0025 71.5132 38.5456 71.9396C38.4049 72.0732 38.2723 72.2102 38.1181 72.3312C37.8788 72.5234 37.875 72.8163 37.7783 73.063C37.7553 73.1356 37.721 73.2147 37.6904 73.285C37.6433 73.2076 37.586 73.1361 37.5685 73.0497C37.4731 72.6179 37.3837 72.1963 37.3076 71.7615C37.2342 71.3184 37.123 70.8816 37.1216 70.4346C37.1077 69.6622 37.4102 68.9902 37.9791 68.4652C38.2793 68.194 38.6181 67.9716 38.9456 67.7274C38.9801 67.7025 39.0071 67.6753 39.0416 67.6504C39.0896 67.6123 39.1377 67.5735 39.1856 67.5354C39.1212 67.5416 39.0508 67.5375 38.9896 67.5623C38.5619 67.7839 38.1485 68.0183 37.7208 68.2399C37.5796 68.32 37.4243 68.3866 37.2821 68.4672C36.9062 68.6961 36.5187 68.9304 36.1461 69.1778C36.0317 69.2573 35.9253 69.3668 35.8541 69.4783C35.8151 69.5459 35.819 69.6729 35.8443 69.761C36.0072 70.4024 35.8997 70.9931 35.6472 71.5918C35.4263 72.1198 35.0631 72.5318 34.7274 72.97C34.5557 73.2012 34.3164 73.3935 34.1008 73.5925C33.8328 73.8464 33.662 74.1587 33.4915 74.4703C33.4338 74.5678 33.3836 74.6685 33.3101 74.7609C33.2179 74.8833 33.1233 74.8716 32.9793 74.79C32.6644 74.601 32.3069 74.6566 31.9653 74.6647C31.7126 74.6737 31.4469 74.7234 31.2065 74.6646C30.7905 74.5684 30.4127 74.2969 30.3376 73.7724C30.3113 73.6033 30.2394 73.4913 30.1017 73.4476C29.7176 73.3348 29.5791 72.871 29.5962 72.5366C29.6156 72.1946 29.5998 71.8771 29.3804 71.5842C29.1335 71.2651 29.1575 70.8796 29.1631 70.4973C29.1659 70.3466 29.1479 70.2068 29.1432 70.0537C29.1425 70.0268 29.1638 69.9886 29.1825 69.9587C29.2067 69.9664 29.2551 69.9818 29.2584 70.0003C29.3172 70.1797 29.398 70.3478 29.4114 70.5312C29.4421 70.9699 29.5823 71.3443 29.9196 71.6305C29.9471 71.6567 29.9821 71.6595 30.0122 71.6774C30.0225 71.6448 30.0379 71.5964 30.0373 71.5695C29.9602 71.2768 29.9291 70.9812 30.0143 70.6867C30.0246 70.6542 29.9806 70.5961 29.945 70.5665C29.6801 70.3041 29.4018 70.055 29.3399 69.6596C29.3066 69.4258 29.3191 69.3315 29.5982 69.2685C29.9762 69.1744 30.3632 69.1098 30.7299 68.9938C30.9765 68.9205 31.1952 68.7667 31.4304 68.6714C31.7998 68.5204 32.1684 68.3434 32.5491 68.241C33.0371 68.1102 33.5408 68.1268 34.0429 68.2062C34.5609 68.2906 35.0481 68.472 35.4198 68.8757C35.453 68.9128 35.4795 68.9396 35.5103 68.9843C35.6309 69.1659 35.7497 69.1853 35.9313 69.0647C36.3308 68.79 36.7333 68.5062 37.1528 68.2554C37.5825 67.9986 38.0262 67.7554 38.4805 67.5339C39.2155 67.1867 39.9924 66.9068 40.7946 66.7416C41.4174 66.6086 42.0488 66.5325 42.6844 66.556C43.1772 66.5783 43.6756 66.6115 44.1586 66.6932C44.6174 66.7672 45.0606 66.8904 45.5167 66.9994C45.5576 67.0123 45.6034 67.036 45.6518 67.0514C45.6927 67.0644 45.7437 67.0714 45.787 67.0768C45.7731 67.0366 45.7692 66.9912 45.7453 66.9561C45.4782 66.559 45.2221 66.1561 44.9533 65.7668C44.491 65.0844 44.0769 64.3632 43.4874 63.7745C43.236 63.5248 42.9826 63.2836 42.7393 63.0373C42.6246 62.9209 42.5932 62.9909 42.5682 63.0987C42.5225 63.2716 42.5009 63.4522 42.4386 63.6199C42.2656 64.1097 41.9754 64.5174 41.5131 64.7639C40.9499 65.0766 40.358 65.3352 39.7891 65.6369C39.2311 65.9329 38.8735 66.3825 38.8081 67.0398C38.801 67.1175 38.7432 67.1892 38.7009 67.2649C38.6705 67.1927 38.6208 67.1236 38.6172 67.0509C38.6185 66.569 38.6116 66.0845 38.6581 65.5994C38.6908 65.2708 38.7696 64.9384 38.8867 64.6274C39.0633 64.1837 39.2804 63.7519 39.686 63.4608C39.7096 63.4417 39.7225 63.4008 39.7412 63.3709C39.7003 63.3579 39.6679 63.321 39.6327 63.319C39.1752 63.2987 38.7447 63.1354 38.3327 62.9688C37.6421 62.6962 36.9913 62.3556 36.4059 61.8932C36.0625 61.6234 35.7199 61.3539 35.356 61.1226C35.1171 60.9751 34.8272 61.0172 34.5607 61.0667C34.4936 61.0812 34.4266 61.0958 34.3595 61.1103C34.3034 61.1191 34.2515 61.1118 34.198 61.1124C34.1975 61.0589 34.183 60.9918 34.2062 60.945C34.3757 60.579 34.6166 60.2714 34.9471 60.0465C34.9816 60.0216 35.044 60.0506 35.0978 60.0493C35.0848 60.0902 35.0853 60.1437 35.0564 60.1795C34.8868 60.3755 34.7036 60.5589 34.5347 60.7552C34.5111 60.7744 34.514 60.8203 34.4953 60.8502C34.5305 60.8522 34.5655 60.855 34.595 60.846C35.0655 60.6022 35.5164 60.7012 35.9211 60.9721C36.4105 61.2882 36.8596 61.6448 37.3483 61.9607C37.6305 62.1395 37.9449 62.2751 38.2458 62.4239C38.4625 62.5285 38.6851 62.6433 38.9146 62.7078C39.215 62.8032 39.5333 62.8684 39.8491 62.9154C40.0354 62.9478 40.2314 62.9209 40.428 62.9208C40.4549 62.9202 40.4894 62.8953 40.5111 62.8847C40.4836 62.8585 40.4697 62.8183 40.4348 62.8155C40.3213 62.7795 40.2051 62.7518 40.0915 62.7424C39.614 62.6983 39.1993 62.4592 38.7657 62.2766C38.7332 62.2662 38.7244 62.2101 38.7021 62.1672C38.7481 62.1643 38.7928 62.1335 38.8337 62.1465C39.1666 62.2522 39.4859 62.3985 39.8241 62.4876C40.1455 62.5721 40.4748 62.6316 40.8036 62.6377C41.0161 62.6427 41.2252 62.5483 41.4398 62.4915C41.469 62.4833 41.5069 62.4769 41.5361 62.4687C41.5949 62.4516 41.6461 62.432 41.6973 62.4124C41.6405 62.3944 41.5838 62.3764 41.5077 62.3614M34.8531 70.4509C34.5866 70.8128 34.2405 71.087 33.8258 71.2677C33.7829 71.2899 33.7179 71.2693 33.6644 71.2698C33.6957 71.2264 33.7114 71.1506 33.7618 71.1308C34.2988 70.8456 34.6041 70.3352 34.9823 69.9022C35.0112 69.8663 35.005 69.8019 35.0128 69.7511C34.9616 69.7706 34.9055 69.7795 34.8626 69.8017C34.6515 69.9313 34.4604 70.0847 34.2361 70.2009C33.9874 70.3361 33.7254 70.432 33.4659 70.5462C33.3214 70.6078 33.1855 70.6713 33.0376 70.7409C32.7545 70.8743 32.5032 71.0178 32.3244 71.3001C32.1719 71.5549 32.0517 71.8208 32.0427 72.1037C32.029 72.6533 32.1286 73.1847 32.3859 73.6679C32.5186 73.9241 32.6814 74.1723 32.8324 74.426C32.8516 74.4496 32.8705 74.4739 32.8897 74.4975C32.9159 74.47 32.9453 74.4352 32.9556 74.4027C33.0333 74.2132 33.0817 74.0054 33.1736 73.8288C33.3937 73.4163 33.7697 73.1608 34.1622 72.9372C34.5949 72.6997 34.8724 72.3321 35.0542 71.8984C35.1789 71.5898 35.2392 71.2607 35.3229 70.9391C35.3539 70.8415 35.3521 70.7343 35.3479 70.6346C35.3468 70.5543 35.3242 70.4838 35.312 70.4092C35.289 70.4818 35.26 70.5443 35.2291 70.6153L35.2188 70.6478C35.093 71.0993 34.8623 71.4901 34.5981 71.8711C34.2976 72.3113 33.9123 72.6538 33.4973 72.9769C33.4468 73.0233 33.3665 73.0245 33.3043 73.0497C33.3333 72.9873 33.3507 72.9037 33.4012 72.8573C33.7763 72.5207 34.167 72.1899 34.4375 71.7576C34.6189 71.467 34.7685 71.1663 34.92 70.857C34.9693 70.7568 34.9652 70.6306 35.0015 70.5163C35.0298 70.427 35.1608 70.3528 35.054 70.2381C34.9874 70.3061 34.9133 70.3717 34.8255 70.4513M33.4518 69.7195L33.3625 69.6912C33.3937 69.6478 33.4227 69.5854 33.4739 69.5658C33.8451 69.3804 34.2338 69.253 34.6602 69.2901C34.7112 69.2971 34.7675 69.2617 34.8187 69.2421C34.767 69.2082 34.7232 69.1493 34.6638 69.1396C34.4858 69.1098 34.3077 69.1066 34.1295 69.0775C33.226 68.969 32.3618 69.1328 31.5489 69.5262C31.3801 69.6067 31.2255 69.7001 31.06 69.7725C31.0281 69.789 30.9823 69.7653 30.9472 69.7633C30.9601 69.7225 30.9729 69.6824 30.9915 69.6525C31.0204 69.6166 31.063 69.5952 31.1059 69.573C31.6346 69.2851 32.1753 69.0461 32.7629 68.9111C33.3798 68.7679 33.9873 68.6833 34.6039 68.9057C34.6448 68.9187 34.6842 68.9046 34.7277 68.9092C34.7029 68.8747 34.6807 68.8318 34.6432 68.8107C34.4226 68.6607 34.1746 68.5995 33.9124 68.5255C33.4265 68.3978 32.9502 68.4341 32.4672 68.549C31.9174 68.6777 31.4232 68.9407 30.9207 69.201C30.7712 69.2785 30.6107 69.3616 30.4472 69.3989C30.133 69.4599 29.8105 69.4917 29.494 69.5336C29.4481 69.5365 29.406 69.559 29.3657 69.5729C29.3796 69.6131 29.3935 69.6533 29.421 69.6796C29.7081 69.9848 30.0316 70.2307 30.4193 70.3896C30.9039 70.5793 31.4138 70.6603 31.9359 70.6478C32.4497 70.6326 32.9467 70.5313 33.4006 70.2822C33.8333 70.0447 34.2604 69.7963 34.6931 69.5588C34.7141 69.548 34.7327 69.5181 34.7571 69.4991C34.7162 69.4862 34.6781 69.4382 34.6486 69.4472C34.2646 69.5311 33.8782 69.6225 33.4601 69.7038M39.5211 67.4494C39.4175 67.524 39.305 67.5949 39.2097 67.6721C38.7679 67.9959 38.3228 68.3011 37.957 68.7214C37.5575 69.1927 37.3388 69.7397 37.3155 70.3487C37.2849 71.0354 37.4962 71.6923 37.5679 72.3665C37.5629 72.3823 37.5928 72.401 37.6034 72.4227C37.6243 72.4118 37.6406 72.3895 37.6623 72.3789C37.8269 72.1988 37.9633 71.9921 38.1526 71.8473C38.757 71.3786 39.2011 70.7957 39.4946 70.0942C39.6849 69.6364 39.7499 69.1481 39.7889 68.6607C39.8283 68.2267 39.7576 67.7752 40.0099 67.3738C40.0176 67.3496 40.0037 67.3094 40.0057 67.2742C39.9738 67.2908 39.936 67.2971 39.92 67.3186C39.8481 67.4033 39.783 67.4984 39.7028 67.5804C39.3046 67.9896 39.14 68.4822 39.1046 69.0424C39.0934 69.1904 39.0898 69.3409 39.0708 69.4873C39.0662 69.5308 39.0239 69.5799 38.9946 69.6147C38.9697 69.5802 38.929 69.5406 38.9226 69.5027C38.9101 69.4005 38.8927 69.2875 38.9075 69.1856C38.929 69.005 38.9672 68.8297 38.997 68.6517C39.01 68.6108 38.9875 68.5687 38.9763 68.5202C38.9501 68.5477 38.9072 68.5699 38.8886 68.5998C38.802 68.7597 38.6802 68.9177 38.6345 69.0906C38.5571 69.3342 38.4149 69.5565 38.4594 69.8389C38.4807 70.0239 38.4565 70.2128 38.4407 70.4044C38.436 70.4479 38.3798 70.4833 38.3485 70.5267C38.3263 70.4838 38.2965 70.4386 38.3009 70.3958C38.2968 70.2962 38.3092 70.2018 38.3133 70.1049C38.3153 70.0697 38.2988 70.0378 38.2906 70.0085C38.2644 70.036 38.2215 70.0582 38.2112 70.0908C38.1932 70.1475 38.1967 70.2203 38.187 70.2797C38.1767 70.3122 38.1398 70.3446 38.1128 70.3719C38.0989 70.3317 38.074 70.2971 38.076 70.2619C38.0885 70.1676 38.0919 70.0704 38.1285 69.9837C38.2218 69.7451 38.3215 69.5177 38.4228 69.2824C38.4305 69.2582 38.4325 69.223 38.4326 69.1964C38.4033 69.2046 38.3708 69.1943 38.347 69.2142C38.3124 69.2391 38.2831 69.2739 38.2599 69.3207C38.0991 69.5462 37.9382 69.7725 37.7767 69.9978C37.7478 70.0336 37.6969 70.0525 37.6623 70.0773C37.6618 70.0238 37.639 69.9541 37.6603 69.9159C37.9643 69.3518 38.3774 68.8665 38.8094 68.4056C39.0771 68.124 39.3312 67.8298 39.5854 67.5356C39.5854 67.5356 39.5632 67.4928 39.5231 67.48M44.0531 59.8957C43.763 59.9644 43.5009 60.0869 43.2535 60.2758C42.7213 60.6875 42.4519 61.2267 42.3855 61.8845C42.3763 61.9974 42.3669 62.111 42.3744 62.2292C42.3799 62.2668 42.4241 62.2983 42.4565 62.3352C42.4695 62.2944 42.5007 62.251 42.5061 62.2077C42.552 62.0082 42.5456 61.7737 42.6432 61.6081C42.9767 61.0351 43.4826 60.6509 44.1265 60.4804C44.3412 60.4236 44.5723 60.3987 44.7951 60.3711C44.8513 60.3623 44.917 60.4098 44.9794 60.4388C44.9339 60.4693 44.8886 60.4991 44.8382 60.5189C44.4527 60.6914 44.0491 60.8399 43.6828 61.036C43.2072 61.2957 42.8769 61.6906 42.742 62.2284C42.6833 62.4422 42.769 62.621 42.9884 62.6907C43.2079 62.7603 43.4245 62.6683 43.6282 62.6172C44.1002 62.5079 44.4953 62.276 44.7829 61.8767C44.9809 61.5913 45.165 61.2924 45.3679 61.0178C45.6031 60.6993 45.8377 60.3539 46.2858 60.2912C46.3043 60.2879 46.3254 60.2504 46.3497 60.2315C46.3255 60.2238 46.309 60.1919 46.2821 60.1926C46.0307 60.1394 45.7858 60.0975 45.5395 60.0285C45.0637 59.8949 44.5917 59.8076 44.0729 59.8936M40.9436 62.8554C40.8209 62.9323 40.6923 62.9989 40.5779 63.0784C39.8496 63.5436 39.4183 64.228 39.1306 65.0214C39.045 65.2624 38.9894 65.5213 38.9287 65.7703C38.9184 65.8028 38.9323 65.8431 38.9303 65.8782C38.9648 65.8534 39.005 65.8395 39.0237 65.8096C39.0793 65.7473 39.1103 65.6497 39.1684 65.6056C39.4908 65.3773 39.8054 65.1473 40.147 64.9425C40.4885 64.7377 40.8687 64.5818 41.21 64.3778C41.5388 64.1872 41.7928 63.9197 41.9653 63.5729C42.0622 63.3805 42.1452 63.1744 42.2338 62.9792C42.2441 62.9467 42.2538 62.8873 42.2346 62.8637C42.2071 62.8375 42.1453 62.8354 42.116 62.8436C41.6724 63.0601 41.2258 63.2574 40.8063 63.5082C40.5205 63.6766 40.2817 63.9223 40.106 64.2239C40.0823 64.2697 40.005 64.2901 39.9512 64.318C39.9533 64.2562 39.9361 64.1975 39.9458 64.1381C39.9612 64.0896 40.0034 64.0406 40.0298 63.9865C40.2762 63.5199 40.6512 63.1833 41.1158 62.9559C41.4444 62.792 41.8039 62.7012 42.1749 62.6582C42.2208 62.6553 42.2682 62.6162 42.3218 62.589L42.1515 62.535C42.1273 62.5273 42.0954 62.5438 42.0686 62.5444C41.6816 62.5824 41.3225 62.7008 40.9507 62.8593M35.37 57.1211C35.175 57.4257 34.9746 57.7186 34.7963 58.0285C34.7174 58.1642 34.6684 58.3186 34.6196 58.4722C34.6119 58.4965 34.6341 58.5393 34.6321 58.5745C34.6614 58.5663 34.6833 58.5549 34.7126 58.5467C34.9375 58.4574 35.1542 58.3654 35.3848 58.287C35.4947 58.2502 35.5586 58.2172 35.6271 58.114C35.7483 57.9292 35.9019 57.7547 36.053 57.5886C36.204 57.4225 36.4475 57.3298 36.3972 57.0106C36.3734 56.8598 36.4624 56.6923 36.4982 56.5246C36.5112 56.4837 36.4914 56.4333 36.4884 56.3873C36.4616 56.388 36.4266 56.3852 36.4028 56.4052C36.0399 56.5932 35.6512 56.7472 35.3737 57.1147M36.4893 57.4764C36.4707 57.4796 36.4382 57.4693 36.4248 57.4826C36.2123 57.7008 35.9846 57.9143 35.8868 58.2223C35.8198 58.4334 35.9112 58.6232 36.1795 58.5651C36.6086 58.478 36.9941 58.3055 37.2746 57.9572C37.409 57.7858 37.5743 57.6325 37.5729 57.3822C37.5738 57.2667 37.5915 57.1557 37.6083 57.0452C37.6153 56.9941 37.6392 56.9476 37.6546 56.8991C37.5928 56.897 37.5035 56.8687 37.458 56.8992C37.3115 56.996 37.1728 57.0944 37.0538 57.2174C36.8177 57.4548 36.8069 57.6305 36.9779 57.908C36.997 57.9316 37.0057 57.9618 37.0223 57.9937C37.0859 58.1031 37.0456 58.117 36.935 58.1268C36.5392 58.1353 36.3804 57.9058 36.495 57.4873M30.241 72.4339C30.2215 72.3827 30.221 72.3292 30.1904 72.2837C30.1159 72.1801 30.0397 72.0843 29.9517 71.9939C29.9242 71.9676 29.8491 71.9788 29.801 71.991C29.7825 71.9943 29.778 72.0637 29.7809 72.1096C29.7804 72.2527 29.7987 72.3918 29.7975 72.5347C29.8077 72.8411 29.8791 73.1229 30.2865 73.2172C30.4026 73.2449 30.5168 73.3078 30.5964 73.3955C30.7963 73.6106 31.0284 73.6668 31.2991 73.6011C31.425 73.5694 31.554 73.5304 31.6825 73.4904C31.8008 73.4563 31.8072 73.3784 31.7628 73.2926C31.724 73.2179 31.7115 73.1156 31.5621 73.1664C31.4126 73.2173 31.2159 73.244 31.0832 73.1844C30.7364 73.0385 30.4479 72.7953 30.2434 72.4263M32.2185 74.3919C32.272 74.3914 32.3208 74.3794 32.3742 74.3789C32.3437 74.3334 32.3163 74.2805 32.2858 74.235C32.1866 74.0961 32.0613 73.958 31.9839 73.8085C31.9147 73.6616 31.8503 73.6678 31.7217 73.7344C31.3368 73.9338 30.9555 74.0093 30.5907 73.6969C30.5691 73.6809 30.5422 73.6816 30.5123 73.6629C30.5046 73.6871 30.5053 73.714 30.5135 73.7432C30.5972 74.1538 30.9964 74.3605 31.4674 74.3676C31.715 74.3746 31.9525 74.3875 32.2211 74.3836M30.2291 71.0098C30.1966 70.9995 30.164 70.9892 30.1341 70.9705C30.1264 70.9947 30.1078 71.0246 30.1084 71.0515C30.1179 71.1345 30.1271 71.2182 30.1525 71.3062C30.2862 71.8401 30.6211 72.2497 30.9902 72.6351C31.031 72.6746 31.096 72.6953 31.1475 72.73C31.1496 72.6682 31.162 72.6004 31.1448 72.5417C30.9377 71.9845 30.7067 71.4472 30.2401 71.0041M31.2309 71.5961C31.2117 71.5725 31.1901 71.5565 31.1712 71.5321C31.0535 71.3965 30.9384 71.2525 30.8098 71.1225C30.7823 71.0963 30.7288 71.0968 30.677 71.0895C30.6852 71.1188 30.6805 71.1623 30.6997 71.1859C31.0564 71.6656 31.2983 72.1972 31.3636 72.8077C31.3665 72.8536 31.4079 72.9201 31.4355 72.9197C31.4764 72.9326 31.5697 72.8906 31.5773 72.8664C31.5968 72.721 31.6459 72.5666 31.5983 72.4357C31.5001 72.1546 31.3616 71.8875 31.2309 71.5961ZM31.4543 71.3987C31.5278 71.6187 31.6005 71.8383 31.6815 72.0606C31.6897 72.0899 31.717 72.1169 31.7361 72.1405C31.7548 72.1106 31.7893 72.0857 31.7914 72.0505C31.8268 71.6869 32.0082 71.3963 32.2655 71.1473C32.2917 71.1198 32.3044 71.0797 32.3231 71.0498C32.2796 71.0451 32.2371 71.04 32.1909 71.0436C31.9571 71.0769 31.7319 71.112 31.4981 71.1453C31.4337 71.1515 31.3749 71.1686 31.3105 71.1748C31.3459 71.2311 31.3714 71.2925 31.4069 71.3487C31.4069 71.3487 31.4201 71.3621 31.445 71.3966M37.646 58.3617C37.6806 58.3368 37.7151 58.312 37.758 58.2898C37.7142 58.2309 37.6619 58.1701 37.6154 58.1196C37.5413 58.1852 37.4127 58.2518 37.4079 58.3219C37.4071 58.4374 37.5291 58.3337 37.5916 58.3627C37.5999 58.3654 37.6158 58.3704 37.645 58.3622L37.646 58.3617Z" fill="#C0C69F"/>
<path d="M43.3535 42.0099C43.2593 41.2386 43.1885 40.4748 43.0705 39.7234C42.9487 38.9526 42.712 38.2077 42.4434 37.4793C42.2134 36.8524 41.9839 36.2264 41.7622 35.6021C41.7427 35.5509 41.7312 35.5031 41.7385 35.4513C41.7462 35.4271 41.7668 35.362 41.791 35.3697C42.1925 35.3988 42.5862 35.4521 42.9417 35.6549C43.2215 35.8154 43.5244 35.9291 43.7959 36.0869C44.3471 36.4051 44.808 36.8372 45.232 37.3016C45.6153 37.7265 45.9478 38.1986 46.2855 38.654C46.4171 38.8299 46.5361 39.0192 46.635 39.2114C46.9175 39.7834 47.2302 40.3466 47.4705 40.941C47.7051 41.5245 47.9128 42.1352 48.051 42.7414C48.2372 43.5327 48.3487 44.3361 48.4787 45.1362C48.5228 45.391 48.5315 45.6445 48.5513 45.8915C48.552 45.9184 48.5307 45.9566 48.5045 45.9841C48.4853 45.9605 48.4554 45.9419 48.4472 45.9126C48.351 45.5963 48.2631 45.2827 48.1752 44.9691C47.9116 44.0282 47.6767 43.0782 47.3836 42.1463C47.2312 41.6423 46.9898 41.1641 46.776 40.6856C46.6198 40.3328 46.4562 39.9768 46.2605 39.6381C45.7218 38.6899 45.1384 37.7725 44.3681 36.9924C43.9364 36.5521 43.4601 36.1685 42.8908 35.907C42.6007 35.7791 42.3061 35.6681 42.0133 35.5485C41.9725 35.5355 41.922 35.5554 41.8761 35.5583C41.89 35.5985 41.9065 35.6304 41.9287 35.6733C42.1695 36.1246 42.4369 36.576 42.6567 37.0381C42.859 37.4688 43.0221 37.9129 43.1952 38.3519C43.4549 39.0241 43.5974 39.7299 43.6664 40.439C43.7479 41.2238 43.8212 42.0059 43.84 42.7891C43.8606 43.6795 43.8358 44.5737 43.8034 45.4656C43.789 45.7918 43.7079 46.105 43.6586 46.4284C43.5892 46.8437 43.5255 47.27 43.4476 47.6834C43.3881 48.0127 43.3009 48.3424 43.2516 48.6658C43.1561 49.3052 43.0866 49.9438 43.129 50.6003C43.197 51.5957 43.5438 52.5004 44.035 53.3436C44.3941 53.9574 44.8247 54.5139 45.3134 55.0264C45.8712 55.605 46.4389 56.1784 47.0209 56.738C47.6702 57.3639 48.3548 57.9653 49.0017 58.5988C49.6899 59.2729 50.3328 59.9768 50.8636 60.7792C51.0067 61.0029 51.1503 61.2275 51.2958 61.4436C51.3123 61.4756 51.3455 61.5127 51.3454 61.5394C51.3483 61.5853 51.3303 61.642 51.3149 61.6905C51.2791 61.6616 51.2307 61.6462 51.206 61.6109C51.0579 61.4031 50.9224 61.1818 50.7609 60.9873C50.4924 60.6522 50.2132 60.322 49.9178 60.0141C49.5486 59.6287 49.1667 59.2575 48.7713 58.8996C48.2861 58.4599 47.7716 58.055 47.2728 57.6293C46.8996 57.3142 46.5474 56.9884 46.1769 56.665C45.4897 56.072 44.8859 55.4155 44.3393 54.6889C44.1199 54.396 43.9215 54.0922 43.7342 53.7821C43.4088 53.2589 43.1696 52.6924 43.0096 52.0968C42.8137 51.3915 42.739 50.6714 42.8118 49.9357C42.8708 49.3563 42.9701 48.7889 43.0457 48.2148C43.131 47.5813 43.2349 46.9445 43.3037 46.305C43.3686 45.7358 43.4166 45.1621 43.4187 44.5913C43.4147 43.7328 43.3673 42.869 43.3307 42.0002L43.3549 42.0079L43.3535 42.0099Z" fill="#C0C69F"/>
<path d="M64.924 49.5627C64.6927 49.9266 64.4414 50.2667 64.2451 50.6334C63.998 51.0731 63.7951 51.5443 63.5707 51.9995L63.5603 52.032C63.3639 52.6219 63.1545 53.1977 62.9664 53.7903C62.8043 54.3011 62.6827 54.8256 62.5475 55.3358C62.4016 55.8793 62.2586 56.4136 62.1052 56.9547C61.9253 57.5765 61.7647 58.1953 61.553 58.807C61.3671 59.3377 61.1322 59.8521 60.9053 60.3699C60.7621 60.7084 60.6029 61.0419 60.4354 61.3727C60.0607 62.1018 59.6184 62.7919 59.0952 63.4297C58.6854 63.9335 58.2265 64.3951 57.7012 64.7823C57.5732 64.8758 57.4396 64.9584 57.3067 65.0411C57.2748 65.0576 57.2286 65.0613 57.1884 65.0752C57.2064 65.0185 57.2029 64.9457 57.2398 64.9133C57.3968 64.7573 57.5667 64.6155 57.718 64.4486C58.3805 63.7393 58.9807 62.9743 59.461 62.1355C59.742 61.6441 60.0011 61.1374 60.2438 60.6247C60.453 60.1913 60.6483 59.7443 60.8192 59.2896C61.0403 58.735 61.2282 58.1691 61.4326 57.6092C61.5799 57.2003 61.7277 56.7924 61.8591 56.3785C62.2274 55.2184 62.5631 54.0479 62.9397 52.8904C63.0941 52.4039 63.3296 51.943 63.5334 51.4712C63.8719 50.6857 64.3272 49.9547 64.848 49.272C65.3105 48.66 65.8488 48.1161 66.4367 47.6155C67.0246 47.1149 67.6534 46.6797 68.343 46.3363C68.9707 46.0175 69.5932 45.6886 70.2133 45.3673C71.1409 44.8937 72.0624 44.4365 72.9816 43.9603C73.4522 43.7165 73.9111 43.4515 74.3509 43.1629C75.039 42.7116 75.7181 42.2308 76.3955 41.7577C77.062 41.2904 77.624 40.7008 78.1834 40.1195C78.4618 39.833 78.7269 39.5331 79.0079 39.2383C79.0341 39.2108 79.091 39.2022 79.1312 39.1883C79.1266 39.2318 79.1464 39.2822 79.1251 39.3205C78.6979 40.1045 78.1477 40.7962 77.4993 41.4034C77.0264 41.8514 76.5051 42.2574 75.9723 42.6422C75.4976 42.983 74.9934 43.2777 74.4832 43.5623C73.8075 43.9459 73.1266 44.3195 72.44 44.6822C71.9888 44.923 71.5126 45.1292 71.05 45.348C70.5578 45.5758 70.0683 45.7953 69.5762 46.0231C69.1133 46.2427 68.6374 46.4481 68.1861 46.6889C67.5079 47.0542 66.8918 47.5017 66.3179 48.016C65.7946 48.4838 65.3227 48.9862 64.9057 49.5677L64.9242 49.5645L64.924 49.5627Z" fill="#C0C69F"/>
<path d="M49.9267 69.4933C49.6499 69.1555 49.3815 68.8204 49.1106 68.4928C49.0973 68.4794 49.0748 68.464 49.0642 68.4423C49.042 68.3994 49.0221 68.349 49.0026 68.2978C49.0536 68.3048 49.1315 68.2854 49.1646 68.3225C49.3259 68.4629 49.4863 68.6029 49.6313 68.7656C50.1015 69.2813 50.5138 69.8404 50.8317 70.4686C51.134 71.0644 51.4254 71.6658 51.7268 72.2621C52.1725 73.1358 52.7967 73.8696 53.5195 74.5189C54.1168 75.0567 54.7403 75.567 55.4618 75.9393C55.8444 76.1407 56.2267 76.3428 56.6329 76.4985C57.1902 76.7112 57.7458 76.9317 58.3185 77.0693C58.934 77.2114 59.5595 77.2667 60.1907 77.3329C60.8838 77.4013 61.5681 77.4394 62.2578 77.4893C62.6759 77.5237 63.0875 77.5469 63.5053 77.5821C63.6023 77.5862 63.7026 77.6089 63.7995 77.6396C64.0641 77.7061 64.318 77.7775 64.5802 77.8516C64.621 77.8646 64.6611 77.8773 64.686 77.9119C64.7135 77.9381 64.7357 77.981 64.7605 78.0155C64.723 78.0211 64.6825 78.0357 64.64 78.0305C63.7339 77.9037 62.821 77.9088 61.9115 77.9058C61.3031 77.9093 60.6855 77.829 60.0793 77.7707C59.6101 77.7292 59.1386 77.6953 58.6901 77.5888C58.0746 77.4467 57.4552 77.2593 56.8628 77.0446C56.4213 76.8869 56.0065 76.6745 55.5948 76.4546C55.1906 76.2372 54.7808 76.0088 54.4132 75.7314C53.7953 75.2587 53.1935 74.7636 52.6095 74.2392C51.9714 73.6618 51.5137 72.9359 51.1552 72.1523C50.8023 71.3798 50.4573 70.6088 50.1018 69.8446C50.0492 69.7296 49.9722 69.6335 49.9037 69.5134L49.9273 69.4943L49.9267 69.4933Z" fill="#C0C69F"/>
<path d="M70.4572 52.1665C71.0468 51.7997 71.6368 51.4605 72.2078 51.097C72.8343 50.6978 73.4619 50.2981 74.0636 49.8643C74.6207 49.4606 75.1606 49.0247 75.6737 48.5628C76.3487 47.9557 76.961 47.2654 77.4608 46.5044C77.7165 46.1216 77.9608 45.7168 78.1708 45.3095C78.4193 44.8078 78.6434 44.2983 78.8541 43.7763C79.0128 43.3893 79.155 42.9963 79.2653 42.5939C79.4239 42.0104 79.5442 41.4055 79.4897 40.7901C79.4488 40.3573 79.3693 39.9305 79.3016 39.4984C79.2983 39.4798 79.2904 39.4498 79.2954 39.4339C79.3108 39.3855 79.3181 39.3336 79.3232 39.2911C79.3481 39.3257 79.4022 39.352 79.4078 39.3896C79.5132 39.7896 79.6291 40.1829 79.6969 40.5885C79.8077 41.1684 79.7597 41.7421 79.6546 42.3252C79.5251 43.0429 79.2979 43.7297 79.0463 44.4095C78.8233 44.9993 78.5058 45.5508 78.2093 46.1173C77.7088 47.0746 77.0127 47.8899 76.2372 48.6167C75.7431 49.0763 75.2002 49.4929 74.6597 49.9019C74.2817 50.1926 73.8789 50.4488 73.4703 50.6939C72.7205 51.1431 71.9598 51.5714 71.1924 51.9892C70.6849 52.2655 70.1639 52.5291 69.6507 52.7943C69.5893 52.8198 69.5165 52.8234 69.4494 52.8379C69.4916 52.7888 69.5206 52.7264 69.5761 52.6907C69.8536 52.5197 70.147 52.3538 70.4296 52.1669L70.4564 52.1663L70.4572 52.1665Z" fill="#C0C69F"/>
<path d="M50.6579 41.6225C50.8509 42.5051 50.9442 43.3919 50.9221 44.2779C50.9104 44.7923 50.8619 45.3125 50.791 45.8165C50.7182 46.3556 50.6209 46.8879 50.5128 47.425C50.4325 47.846 50.3253 48.2676 50.2267 48.6912C50.1964 48.8156 50.1736 48.9425 50.1408 49.0746C50.1331 49.0988 50.0929 49.1127 50.0793 49.1267C50.0685 49.1057 50.0412 49.0788 50.0406 49.0519C50.0642 48.8095 50.0897 48.5585 50.1217 48.3188C50.1824 47.8466 50.2429 47.3752 50.3003 46.9111C50.3531 46.4638 50.4304 46.0235 50.4483 45.5736C50.4727 45.019 50.4891 44.4611 50.4592 43.9069C50.4182 43.304 50.361 42.697 50.2453 42.1063C50.1269 41.5239 49.9726 40.9393 49.7762 40.3772C49.5913 39.8628 49.3685 39.3548 49.0869 38.8905C48.803 38.4072 48.4409 37.9707 48.0929 37.5212C48.0051 37.4042 47.8688 37.2985 47.7363 37.2381C47.6663 37.2067 47.5104 37.2464 47.4739 37.3064C47.3554 37.4829 47.2502 37.6727 47.1699 37.8705C47.0716 38.125 47.0051 38.3896 46.9227 38.6492C46.9047 38.7059 46.8382 38.7473 46.785 38.8021C46.7595 38.7407 46.7082 38.6794 46.7096 38.6173C46.7177 38.45 46.7373 38.278 46.7887 38.116C46.8815 37.8239 46.9851 37.5261 47.1021 37.2417C47.323 36.7137 47.7112 36.7295 48.1382 37.0166C48.5485 37.2985 48.8558 37.6818 49.1227 38.0797C49.4309 38.5441 49.7417 39.0267 49.9864 39.5234C50.2943 40.1568 50.4896 40.8352 50.6557 41.5218C50.6639 41.5511 50.6645 41.578 50.6784 41.6182L50.6599 41.6215L50.6579 41.6225Z" fill="#C0C69F"/>
<path d="M52.7803 52.7439C52.6931 52.877 52.6278 52.9987 52.5539 53.1185C52.5436 53.1511 52.495 53.1623 52.4714 53.1815C52.4659 53.1439 52.4486 53.1118 52.4589 53.0792C52.5675 52.7921 52.6826 52.5163 52.7995 52.2319C52.8569 52.0801 52.9274 51.9418 52.9845 51.7908C53.0802 51.5446 53.1768 51.2979 53.2566 51.0466C53.481 50.3948 53.7171 49.7375 53.9175 49.0773C54.043 48.6531 54.0961 48.2052 54.1916 47.7623C54.323 47.1518 54.3488 46.5352 54.3135 45.9168C54.2808 45.3166 54.1992 44.7284 53.925 44.1857C53.7923 43.9295 53.6405 43.6756 53.4758 43.4359C53.3493 43.2441 53.2549 43.2316 53.088 43.3927C52.7507 43.723 52.4381 44.0886 52.0933 44.4165C51.8884 44.6105 51.7065 44.8476 51.4142 44.8973C51.3656 44.9085 51.304 44.8798 51.2495 44.8808C51.2891 44.8401 51.3213 44.7962 51.3609 44.7554C51.6316 44.4932 51.908 44.2419 52.1654 43.9662C52.4331 43.6846 52.668 43.3669 52.944 43.088C53.1854 42.8339 53.4571 42.8493 53.7055 43.0798C54.2295 43.5677 54.5234 44.1874 54.6892 44.8748C54.8326 45.4651 54.8629 46.0728 54.8388 46.6816C54.8283 47.0531 54.7607 47.434 54.6801 47.8008C54.554 48.3947 54.4145 48.976 54.2393 49.5543C54.0718 50.0817 53.8635 50.5962 53.632 51.1025C53.3969 51.6176 53.1162 52.1083 52.8492 52.6133C52.8362 52.6542 52.8235 52.6943 52.7996 52.7409L52.781 52.7441L52.7803 52.7439Z" fill="#C0C69F"/>
<path d="M77.2484 51.2778C76.6981 51.9695 76.0991 52.5916 75.4286 53.1293C75.0935 53.3977 74.7226 53.6374 74.3626 53.8713C74.0824 54.0506 73.8051 54.2208 73.5085 54.3682C73.148 54.5486 72.7704 54.6962 72.3959 54.863C72.0643 55.0077 71.7434 55.1474 71.4144 55.2837C71.3313 55.3198 71.2482 55.3559 71.1685 55.3839C71.1392 55.3921 71.0932 55.3692 71.0583 55.3664C71.0769 55.3365 71.0923 55.2881 71.1242 55.2715C71.5921 55.0361 72.0626 54.8189 72.5246 54.5732C73.4196 54.0892 74.3113 53.5868 75.0849 52.921C75.6139 52.4642 76.1216 51.9906 76.5578 51.4327C76.9517 50.9238 77.3675 50.4302 77.7389 49.9058C77.9844 49.5548 78.1782 49.1698 78.3955 48.7923C78.6688 48.3251 78.8124 47.8175 78.9313 47.3013C79.0422 46.8101 79.0623 46.2983 79.0982 45.7916C79.1181 45.503 79.0927 45.2184 79.0967 44.9248C79.0956 44.8444 79.1457 44.7704 79.1715 44.6894C79.1943 44.7592 79.2357 44.8256 79.2476 44.901C79.3397 45.5109 79.3784 46.1212 79.3198 46.7282C79.2915 47.0141 79.2549 47.2974 79.1951 47.5725C79.1319 47.8556 79.0741 48.1505 78.9598 48.4266C78.7882 48.8544 78.5923 49.2746 78.3666 49.6761C78.0542 50.2375 77.68 50.7709 77.2509 51.2778L77.2484 51.2778Z" fill="#C0C69F"/>
<path d="M55.7648 49.6993C55.6784 49.2971 55.5998 48.8964 55.4789 48.519C55.3655 48.144 55.1937 47.7854 55.062 47.4129C55.0226 47.3113 55.0211 47.2033 55.001 47.0986C55.0799 47.1595 55.1774 47.2171 55.2245 47.2945C55.4203 47.6066 55.6211 47.9294 55.785 48.258C56.1565 49.0007 56.3048 49.7983 56.3117 50.6218C56.3125 51.2385 56.2784 51.8524 56.1497 52.4547C56.0541 52.8975 55.9495 53.3374 55.848 53.77C55.7891 54.0104 55.7394 54.2537 55.6564 54.4864C55.509 54.9219 55.3513 55.3634 55.1665 55.7778C54.9816 56.1923 54.7658 56.5886 54.5594 56.9871C54.5464 57.0279 54.5011 57.0577 54.4723 57.0935C54.4693 57.0476 54.4522 56.9889 54.4651 56.948C54.7041 56.14 54.9692 55.3312 55.1918 54.5172C55.3433 53.9847 55.4514 53.4475 55.5511 52.9077C55.6431 52.3921 55.7351 51.8766 55.7658 51.3599C55.7954 50.8153 55.7664 50.2613 55.7666 49.6991L55.7648 49.6993Z" fill="#C0C69F"/>
<path d="M67.1809 75.229C67.046 75.0346 66.9194 74.8428 66.8039 74.6454C66.7817 74.6025 66.7594 74.5596 66.748 74.5118C66.7398 74.4826 66.7633 74.4634 66.7653 74.4282C66.7896 74.4359 66.8355 74.433 66.8463 74.4539C67.151 74.8455 67.429 75.2636 67.7572 75.636C68.1952 76.1141 68.6642 76.5762 69.1554 76.9995C69.5833 77.3677 70.04 77.7002 70.5102 78.0193C70.9945 78.3514 71.5075 78.6483 72.0096 78.9509C72.4601 79.2189 72.9217 79.4812 73.3856 79.7359C73.6839 79.8931 73.9982 80.0287 74.2965 80.1859C74.7741 80.4266 75.2533 80.6595 75.7282 80.9085C76.119 81.1126 76.5039 81.333 76.8919 81.5462C76.9301 81.5675 76.9575 81.6203 76.9823 81.6549C76.9262 81.6637 76.8724 81.6916 76.824 81.6762C76.3908 81.5212 75.9606 81.3572 75.5301 81.1939C75.2272 81.0802 74.9161 80.9632 74.6201 80.825C74.2707 80.6608 73.9259 80.4797 73.5708 80.3045C73.24 80.137 72.9065 79.9779 72.5809 79.7937C72.1035 79.5264 71.6153 79.264 71.1611 78.9498C70.5795 78.5595 70.0053 78.1456 69.4659 77.7062C68.6844 77.0741 68.0083 76.333 67.3964 75.5315C67.3194 75.4354 67.2532 75.3344 67.163 75.225L67.1789 75.23L67.1809 75.229Z" fill="#C0C69F"/>
<path d="M62.8237 81.1954C62.7047 80.7828 62.5615 80.3891 62.4485 79.9867C62.3011 79.4668 62.1806 78.9462 62.0518 78.423C62.0436 78.3938 62.0347 78.3643 62.0424 78.34C62.0654 78.2674 62.0861 78.2023 62.1177 78.1315C62.1615 78.1904 62.2189 78.2353 62.236 78.2941C62.4798 78.9879 62.7053 79.6842 62.9683 80.375C63.1781 80.9239 63.409 81.4612 63.6834 81.9772C64.0931 82.7412 64.5872 83.4337 65.2443 84.0088C65.6914 84.4006 66.1705 84.7493 66.731 84.9805C66.9446 85.0658 67.1538 85.168 67.37 85.2192C67.6505 85.2907 67.9473 85.3133 68.2331 85.3682C68.2899 85.3862 68.3416 85.4201 68.3957 85.4465C68.3502 85.477 68.308 85.5261 68.2568 85.5457C67.9379 85.6502 67.6221 85.6032 67.3097 85.5482C67.1476 85.5234 66.9887 85.4913 66.8453 85.4366C66.1284 85.1916 65.4823 84.8074 64.9045 84.3208C64.3702 83.8654 63.9133 83.3364 63.5762 82.7112C63.3132 82.2171 63.0721 81.7116 62.8327 81.1983L62.8244 81.1956L62.8237 81.1954Z" fill="#C0C69F"/>
<path d="M75.2982 57.1688C75.6098 56.9195 75.9185 56.7051 76.211 56.4581C76.7005 56.042 77.0619 55.5228 77.4036 54.9791C77.5324 54.77 77.648 54.5477 77.7685 54.336C77.7735 54.3201 77.7891 54.2709 77.7808 54.2683C77.7399 54.2553 77.6915 54.2399 77.6456 54.2429C77.3155 54.2988 76.9852 54.3814 76.6577 54.4291C75.7791 54.5517 74.8997 54.6216 74.0158 54.5642C73.9029 54.5551 73.797 54.5214 73.6891 54.4964C73.6649 54.4887 73.6374 54.4625 73.6185 54.4381C73.6504 54.4216 73.6774 54.3943 73.7066 54.3861C73.8248 54.3787 73.9435 54.3722 74.0647 54.384C74.9078 54.4284 75.744 54.3814 76.5682 54.1783C77.0024 54.0753 77.4319 53.9609 77.8668 53.8583C77.9715 53.8382 78.0705 53.8071 78.1719 53.9101C78.2648 54.0112 78.2799 54.1052 78.2388 54.2346C78.0303 54.8914 77.645 55.4572 77.2173 55.9912C76.8208 56.4817 76.3639 56.9081 75.8384 57.2411C75.4548 57.4942 75.0208 57.678 74.6064 57.8864C74.0209 58.1828 73.3854 58.3293 72.7523 58.4948C72.3825 58.5915 71.9979 58.6485 71.6143 58.705C71.136 58.7764 70.6527 58.8371 70.1685 58.8983C70.1124 58.9072 70.0582 58.8808 70.0064 58.8735C70.0543 58.8354 70.1075 58.7807 70.1637 58.7718C70.4669 58.7165 70.7709 58.688 71.0661 58.6293C71.9762 58.4625 72.8811 58.2858 73.7399 57.942C74.2696 57.7353 74.7748 57.44 75.2925 57.1578L75.2982 57.1688Z" fill="#C0C69F"/>
<path d="M57.1044 54.1162C57.1066 53.5188 57.02 52.9466 56.8295 52.3946C56.8067 52.3249 56.7736 52.2611 56.7591 52.194C56.7509 52.1647 56.7639 52.1239 56.7659 52.0887C56.8068 52.1017 56.8545 52.0902 56.8928 52.1115C56.9253 52.1218 56.9475 52.1647 56.9724 52.1992C57.3537 52.8559 57.5463 53.5692 57.5761 54.3201C57.6085 55.0893 57.5956 55.8623 57.6204 56.6291C57.6357 57.1163 57.7635 57.585 57.9798 58.0293C58.1543 58.3796 58.3264 58.7375 58.501 59.0878C58.5758 59.2456 58.6828 59.3862 58.76 59.5365C58.863 59.7475 58.965 59.9589 59.057 60.1756C59.0652 60.2048 59.0522 60.2457 59.0585 60.2835C59.026 60.2732 58.9749 60.2662 58.9533 60.2501C58.7588 59.9918 58.5659 59.7256 58.3823 59.4616C58.1019 59.0511 57.8132 58.6379 57.5463 58.2141C57.1497 57.5793 57.0155 56.8761 57.0477 56.1266C57.0815 55.4584 57.0961 54.7933 57.1132 54.1199L57.1049 54.1172L57.1044 54.1162Z" fill="#C0C69F"/>
<path d="M68.5257 81.5145C68.4902 81.4583 68.4594 81.4135 68.4289 81.368C68.4773 81.3834 68.5391 81.3855 68.5859 81.4087C69.1288 81.7243 69.6669 82.0551 70.2251 82.3489C70.5993 82.5476 71.0029 82.7116 71.3956 82.8812C72.0076 83.1471 72.652 83.2267 73.3048 83.309C73.8039 83.3691 74.2986 83.3562 74.7852 83.2874C75.535 83.1772 76.2359 82.9083 76.8371 82.421C76.8716 82.3962 76.9062 82.3713 76.9381 82.3548C76.959 82.3439 76.9866 82.3435 77.0135 82.3429C77.0217 82.3721 77.039 82.4043 77.023 82.4259C76.9864 82.4859 76.9467 82.5533 76.9018 82.6107C76.393 83.1455 75.7811 83.4961 75.0626 83.6787C74.454 83.8245 73.8429 83.8629 73.2232 83.8179C72.9347 83.7979 72.6542 83.7264 72.376 83.6739C72.184 83.6304 71.9899 83.5963 71.8056 83.5287C71.1514 83.3118 70.5355 83.0005 69.9756 82.5995C69.4863 82.2568 69.0181 81.9024 68.5282 81.5328L68.5249 81.5143L68.5257 81.5145Z" fill="#C0C69F"/>
<path d="M73.9343 61.3522C73.9709 61.2656 74.0016 61.1953 74.0472 61.1382C74.0811 61.0865 74.1373 61.051 74.1855 61.0122C74.2134 61.066 74.2733 61.1292 74.2603 61.17C74.1898 61.505 74.1411 61.8552 74.0139 62.1722C73.8712 62.5376 73.6492 62.8695 73.3633 63.1536C73.0504 63.4649 72.7259 63.7551 72.3938 64.0428C71.8934 64.4646 71.3112 64.753 70.7174 65.0201C69.9339 65.3787 69.0997 65.587 68.2655 65.7954C68.0619 65.8465 67.858 65.8984 67.6486 65.9386C67.5815 65.9531 67.5006 65.9274 67.4304 65.9226C67.4893 65.8789 67.5342 65.8215 67.5954 65.7967C67.9462 65.6757 68.3 65.5739 68.6508 65.4529C69.0418 65.3179 69.4355 65.1747 69.824 65.0214C70.1423 64.89 70.4587 64.7672 70.7545 64.5937C71.4859 64.1737 72.1817 63.6981 72.7839 63.0946C73.1155 62.7534 73.4088 62.3908 73.6539 61.9863C73.7667 61.7988 73.8444 61.5828 73.9409 61.3627L73.9353 61.3517L73.9343 61.3522Z" fill="#C0C69F"/>
<path d="M69.697 66.544C69.1393 66.8943 68.5869 67.2279 68.0378 67.5801C67.6113 67.8554 67.1815 68.1388 66.774 68.4384C66.3775 68.7324 66.1032 69.1451 65.8264 69.5396C65.7655 69.6185 65.7238 69.7211 65.6636 69.8003C65.6324 69.8437 65.5653 69.8582 65.5224 69.8804C65.5136 69.8243 65.4883 69.7621 65.5094 69.7247C65.8762 68.8498 66.3686 68.0598 67.182 67.5233C67.5655 67.2702 67.9501 67.0166 68.3476 66.7771C68.8438 66.479 69.368 66.208 69.8582 65.8996C70.1946 65.6849 70.508 65.427 70.8302 65.1994C70.8891 65.1556 70.9747 65.1378 71.0468 65.1074C71.0261 65.1725 71.0138 65.2402 70.9851 65.3019C70.7283 65.801 70.2889 66.1172 69.8514 66.4248C69.8059 66.4553 69.758 66.4934 69.6999 66.5375L69.6972 66.5458L69.697 66.544Z" fill="#C0C69F"/>
<path d="M70.3518 85.2461C70.1055 85.1771 69.8764 85.1402 69.6604 85.0624C69.0085 84.838 68.4298 84.4936 67.9014 84.0484C67.2314 83.4876 66.6728 82.8279 66.1537 82.1275C66.0494 81.9786 65.9477 81.8214 65.8538 81.6658C65.8289 81.6313 65.8496 81.5662 65.8467 81.5203C65.8875 81.5332 65.936 81.5486 65.9608 81.5832C66.3491 81.9921 66.7238 82.4151 67.125 82.8099C67.4172 83.0992 67.7203 83.3829 68.0521 83.6314C68.4197 83.9089 68.7975 84.1804 69.2176 84.3763C69.6294 84.5695 70.0889 84.6703 70.5294 84.8019C70.9108 84.9229 71.3144 84.8903 71.7007 84.8254C71.9261 84.7896 72.1458 84.7168 72.3688 84.6627C72.4249 84.6538 72.4843 84.6635 72.5361 84.6708C72.5361 84.6708 72.5539 84.7564 72.532 84.7678C72.0452 85.1755 71.4577 85.2839 70.8493 85.2874C70.6879 85.2895 70.5258 85.2647 70.3535 85.2458L70.3518 85.2461Z" fill="#C0C69F"/>
<path d="M54.1996 64.4467C53.8641 64.1261 53.5682 63.7906 53.2359 63.4885C52.7832 63.0857 52.2542 62.8104 51.6627 62.6767C51.4306 62.6206 51.1931 62.6077 50.9558 62.5681L50.8581 62.5371C50.8844 62.5096 50.9054 62.4722 50.9323 62.4715C51.1097 62.4479 51.3 62.41 51.4699 62.4364C51.8042 62.4801 52.1359 62.5321 52.4522 62.6325C53.0255 62.8236 53.5334 63.1365 53.9728 63.5525C54.467 64.0217 54.9365 64.5107 55.4197 64.9856C55.8017 65.3567 56.2833 65.5005 56.8001 65.5312C56.9481 65.5424 57.0968 65.5804 57.2479 65.6109C57.2721 65.6186 57.297 65.6531 57.3242 65.6801C57.3007 65.6993 57.2737 65.7265 57.2444 65.7347C56.7052 65.8851 56.1579 65.9796 55.6345 65.7418C55.3527 65.6165 55.0909 65.3993 54.8622 65.1935C54.6198 64.9732 54.4193 64.7047 54.1788 64.4492L54.1974 64.446L54.1996 64.4467Z" fill="#C0C69F"/>
<path d="M73.3615 60.9922C73.0916 61.139 72.841 61.3093 72.5732 61.4209C72.1023 61.6104 71.6312 61.8008 71.1349 61.9289C70.4751 62.0944 69.7982 62.201 69.1326 62.3296C69.1033 62.3378 69.0675 62.309 69.035 62.2986C69.0612 62.2711 69.0715 62.2386 69.1015 62.2306C69.5119 62.0926 69.9271 61.9654 70.3391 61.8196C70.8693 61.6397 71.4022 61.4515 71.9216 61.2507C72.227 61.1336 72.526 61.0052 72.8068 60.8528C73.4775 60.4851 74.1034 60.059 74.6036 59.4672C74.9422 59.0749 75.2301 58.6482 75.433 58.1769C75.4979 58.0276 75.5467 57.874 75.618 57.7359C75.6334 57.6874 75.6974 57.6536 75.7427 57.6238C75.7456 57.6697 75.7737 57.7228 75.7608 57.7637L75.4595 58.7127C75.3205 59.1508 75.0489 59.5286 74.7383 59.859C74.4277 60.1894 74.0799 60.4714 73.7361 60.7646C73.6274 60.855 73.4931 60.9107 73.3602 60.9935L73.3615 60.9922Z" fill="#C0C69F"/>
<path d="M64.1623 56.2146C64.3196 55.3807 64.532 54.5726 64.8219 53.7983C64.9826 53.3761 65.2083 52.9746 65.4157 52.5757C65.4863 52.4373 65.5894 52.3093 65.6767 52.1762C65.6953 52.1463 65.7355 52.1324 65.7591 52.1132C65.7647 52.1508 65.7845 52.2012 65.7666 52.2314C65.5338 52.684 65.2682 53.1269 65.0756 53.5922C64.9092 54.0034 64.8134 54.447 64.6928 54.8819C64.6414 55.0438 64.603 55.2199 64.5683 55.3871C64.4912 55.8267 64.4166 56.2586 64.3393 56.6989C64.3024 56.9279 64.257 57.1551 64.1983 57.3689C64.0326 58.0035 63.8668 58.6389 63.6686 59.2633C63.4961 59.8066 63.1769 60.2767 62.8585 60.7471C62.7061 60.9753 62.5611 61.2066 62.4079 61.4346C62.4002 61.4588 62.3517 61.47 62.3305 61.4816C62.3192 61.4331 62.2779 61.3666 62.2965 61.3367C62.3664 61.1715 62.459 61.0218 62.5455 60.8618C62.7419 60.4952 62.9547 60.1345 63.1351 59.7628C63.261 59.5079 63.3803 59.2425 63.4577 58.9722C63.5685 58.6234 63.6357 58.2699 63.7222 57.9133C63.7706 57.7321 63.8138 57.5409 63.8622 57.3596C63.9537 56.9872 64.0482 56.6057 64.1475 56.209L64.1633 56.214L64.1623 56.2146Z" fill="#C0C69F"/>
<path d="M66.5724 74.0802C66.6874 74.7598 66.8312 75.4302 66.8306 76.1089C66.8327 76.2704 66.8003 76.43 66.7865 76.5864C66.7788 76.6106 66.7602 76.6405 66.7449 76.6623C66.7257 76.6388 66.6875 76.6175 66.6793 76.5882C66.5902 76.2209 66.4961 75.8428 66.4079 75.475C66.1865 74.485 66.102 73.4577 65.7759 72.4879C65.6605 72.1481 65.5397 71.7965 65.3841 71.4706C65.2007 71.0642 64.9745 70.68 64.7778 70.2868C64.7612 70.2549 64.7683 70.2038 64.7544 70.1636C64.8028 70.179 64.8673 70.1728 64.9004 70.21C64.9744 70.2867 65.043 70.3802 65.1007 70.4793C65.3276 70.8903 65.5671 71.2879 65.7644 71.7079C66.1028 72.4134 66.3402 73.1585 66.5174 73.9203C66.5263 73.9764 66.5458 74.0276 66.5687 74.0974L66.5737 74.0815L66.5724 74.0802Z" fill="#C0C69F"/>
<path d="M44.3765 51.5593C44.4473 51.7875 44.4934 52.0071 44.5771 52.2211C44.7445 52.649 44.9605 53.0392 45.2798 53.3821C45.313 53.4193 45.3159 53.4652 45.3381 53.5081C45.2846 53.5086 45.2175 53.5231 45.19 53.4969C45.0073 53.3406 44.8143 53.1902 44.6743 53.0116C44.0846 52.253 43.865 51.3703 43.9103 50.4117C43.9332 49.9458 44.0238 49.4923 44.1463 49.0488C44.2798 48.5731 44.4126 48.0971 44.4784 47.609C44.5468 47.1126 44.518 46.6128 44.5346 46.1091C44.5393 46.0656 44.563 46.0198 44.576 45.979C44.6091 46.0161 44.6523 46.0482 44.6581 46.085C44.6863 46.3347 44.7301 46.5902 44.7198 46.8459C44.6874 47.4255 44.5883 47.9921 44.4617 48.5592C44.3119 49.1989 44.1843 49.8556 44.2234 50.5194C44.2475 50.8661 44.3167 51.2096 44.3707 51.5749L44.3757 51.559L44.3765 51.5593Z" fill="#C0C69F"/>
<path d="M73.2713 70.1166C73.3729 69.8806 73.4665 69.6696 73.5628 69.4502C73.5808 69.3935 73.6125 69.3227 73.6604 69.2846C73.7083 69.2465 73.7837 69.2346 73.8425 69.2174C73.857 69.2845 73.8984 69.351 73.8887 69.4104C73.8403 69.5916 73.7729 69.7751 73.7162 69.9537C73.6261 70.2375 73.7418 70.8282 73.9954 71.0161C74.0687 71.0661 74.1503 71.1186 74.1998 71.1885C74.2684 71.2819 74.2152 71.3366 74.1158 71.3401C73.9568 71.3346 73.7947 71.3098 73.6359 71.3035C73.2829 71.2898 73.038 71.4711 72.916 71.7714C72.783 72.0774 72.7125 72.4124 72.6095 72.737C72.5064 73.0617 72.597 72.8314 72.5708 72.8589C72.5285 72.9079 72.4621 72.9493 72.4059 72.9848C72.3804 72.9234 72.3233 72.8511 72.3304 72.8C72.3726 72.5544 72.444 72.3005 72.4786 72.0524C72.5501 71.5753 72.4895 71.1179 72.1427 70.7487L72.1268 70.7437C72.0931 70.653 72.0596 70.5616 72.026 70.4709C72.1173 70.4641 72.2246 70.4357 72.3055 70.4614C72.6704 70.5506 73.046 70.4907 73.2914 70.1138M73.2607 70.5147C73.1541 70.57 73.058 70.6469 72.9533 70.667C72.7925 70.696 72.6169 70.6852 72.4501 70.7039C72.4233 70.7045 72.3996 70.7503 72.3734 70.7778C72.5859 70.9794 72.6843 71.2339 72.6802 71.5275C72.6725 71.5517 72.7107 71.573 72.7299 71.5966C72.7508 71.5857 72.7671 71.5634 72.7831 71.5418C72.8093 71.5143 72.8304 71.4768 72.849 71.4469C72.9748 71.2186 73.3225 71.0524 73.5791 71.0889C73.6033 71.0966 73.6326 71.0884 73.6594 71.0878C73.6512 71.0585 73.6449 71.0207 73.6284 70.9888C73.5751 70.8469 73.5192 70.7134 73.4745 70.5734C73.4574 70.5146 73.4512 70.4502 73.4426 70.3933C73.3863 70.4288 73.3416 70.4596 73.2634 70.5064L73.2607 70.5147Z" fill="#C0C69F"/>
<path d="M37.6742 47.4667C37.5773 47.1235 37.4417 46.8214 37.1287 46.6238C37.0255 46.5552 37.04 46.4257 37.1652 46.3671C37.3526 46.2833 37.5536 46.2405 37.7434 46.1491C38.0162 46.0217 38.1739 45.7769 38.3025 45.5136C38.3994 45.3211 38.4963 45.1286 38.5982 44.9469C38.6195 44.9087 38.678 44.8923 38.7235 44.8617C38.724 44.9152 38.7436 44.9664 38.7282 45.0148C38.4984 45.7099 38.6207 46.3377 39.0755 46.9019C39.1276 46.9634 39.14 47.0923 39.1086 47.1623C39.0932 47.2107 38.9475 47.2186 38.8698 47.2114C38.6131 47.1749 38.3498 47.1622 38.1997 47.4094C38.0842 47.6052 38.0012 47.8379 37.9318 48.0566C37.8724 48.2435 37.8516 48.4509 37.8 48.6395C37.7847 48.6879 37.7066 48.7081 37.6587 48.7462C37.6391 48.6951 37.5924 48.6453 37.5922 48.591C37.6009 48.4505 37.6337 48.3185 37.6432 48.1782C37.6559 47.9415 37.6688 47.704 37.6784 47.448M38.3218 47.03C38.3998 47.0098 38.472 46.9794 38.5549 46.9699C38.6838 46.9575 38.7082 46.9385 38.6525 46.8043C38.5574 46.5683 38.4924 46.3244 38.4191 46.0779C38.4109 46.0487 38.3936 46.0165 38.3854 45.9872C38.3508 46.0121 38.3106 46.026 38.2919 46.0559C38.1099 46.3196 37.8594 46.4634 37.5425 46.5327C37.5049 46.5383 37.4728 46.5556 37.4409 46.5721C37.4574 46.604 37.4686 46.6525 37.4904 46.6678C37.7273 46.8505 37.8166 47.102 37.872 47.3787C37.8802 47.408 37.8999 47.4325 37.9191 47.4561C37.9453 47.4286 37.978 47.4123 37.9883 47.3798C38.0265 47.2045 38.1734 47.1353 38.3309 47.0329L38.3225 47.0302L38.3218 47.03Z" fill="#C0C69F"/>
<path d="M53.8831 73.3479C54.2536 73.6713 54.6007 74.013 54.9893 74.2796C55.3695 74.5436 55.7795 74.7712 56.1997 74.9671C56.6766 75.1809 57.1715 75.338 57.6697 75.5137C57.84 75.5677 58.0025 75.646 58.2033 75.5489C58.2571 75.521 58.436 75.632 58.4557 75.709C58.5006 75.8482 58.3555 75.883 58.2485 75.884C58.0629 75.8784 57.877 75.8735 57.7017 75.8354C57.4019 75.7669 57.1021 75.6984 56.815 75.5897C56.282 75.3847 55.7693 75.142 55.3042 74.8069C54.8773 74.4932 54.4526 74.1701 54.0806 73.7938C53.7145 73.4277 53.4125 73.0011 53.092 72.6045C53.0588 72.5673 53.0745 72.4915 53.0732 72.4377C53.1091 72.4666 53.1658 72.4846 53.1904 72.5199C53.4175 72.7886 53.6529 73.0599 53.8833 73.3471L53.8831 73.3479Z" fill="#C0C69F"/>
<path d="M60.3971 47.9287C60.2091 47.789 60.2901 47.5915 60.3009 47.4158C60.3243 47.0034 60.3166 46.6078 60.0927 46.2426C60.0264 46.1416 59.9471 46.0531 59.8599 45.963C59.6799 45.7717 59.7005 45.7067 59.9471 45.6333C60.2716 45.5397 60.5936 45.4545 60.8399 45.2112C60.9563 45.0965 61.0442 44.9903 61.0573 44.807C61.0705 44.6238 61.1548 44.4448 61.2274 44.2713C61.2428 44.2228 61.3209 44.2026 61.3763 44.1669C61.3852 44.223 61.3997 44.2901 61.3924 44.3419C61.3122 44.7363 61.2103 45.1413 61.3719 45.5325C61.4357 45.696 61.5703 45.8362 61.6718 45.9942C61.7156 46.0531 61.746 46.1252 61.7798 46.1893C61.705 46.228 61.625 46.2834 61.5472 46.3028C61.413 46.3319 61.2784 46.3333 61.1442 46.3624C60.8997 46.4005 60.781 46.5778 60.6741 46.7754C60.522 47.0578 60.5716 47.3501 60.5334 47.6412C60.5183 47.7439 60.4633 47.8331 60.4138 47.934M61.1411 45.7266C61.1184 45.6303 61.1032 45.5363 61.0781 45.4475C61.0725 45.41 61.0579 45.3695 61.0497 45.3402C61.0152 45.3651 60.9749 45.379 60.9404 45.4038C60.6732 45.5423 60.4143 45.6833 60.1498 45.8134C60.1179 45.83 60.0717 45.8336 60.0315 45.8475C60.0537 45.8904 60.0652 45.9382 60.0951 45.9569C60.2907 46.0989 60.3776 46.3056 60.4294 46.5361C60.4376 46.5654 60.4648 46.5923 60.4738 46.6218C60.4898 46.6003 60.5134 46.5811 60.532 46.5512C60.6641 46.3607 60.8178 46.1863 61.0477 46.1076C61.1174 46.0848 61.1952 46.0653 61.2623 46.0508C61.2345 45.9703 61.1984 45.8873 61.1697 45.8073C61.1664 45.7888 61.1531 45.7754 61.1309 45.7325L61.1419 45.7269L61.1411 45.7266Z" fill="#C0C69F"/>
<path d="M78.3919 46.6659C78.4091 46.7247 78.4342 46.8135 78.4105 46.8593C77.8297 47.8178 77.1201 48.6729 76.3047 49.4412C75.7467 49.9605 75.1722 50.4479 74.5958 50.9438C74.2899 51.2041 73.9708 51.451 73.6592 51.7003C73.6247 51.7251 73.5977 51.7524 73.5632 51.7772C73.5422 51.7881 73.507 51.7861 73.4775 51.795C73.4795 51.7599 73.4573 51.717 73.4733 51.6954C73.5369 51.6081 73.6077 51.524 73.6853 51.4503C74.4081 50.8317 75.1402 50.2153 75.8657 49.5884C76.7241 48.8522 77.4665 48.0066 78.1098 47.077C78.2046 46.9463 78.2945 46.8049 78.4026 46.661L78.3917 46.6667L78.3919 46.6659Z" fill="#C0C69F"/>
<path d="M64.6066 81.065C64.8003 81.4389 64.9698 81.8051 65.1736 82.1472C65.5847 82.8491 66.0943 83.4665 66.7261 83.9795C66.7477 83.9955 66.7778 84.0134 66.8077 84.032C66.8022 83.9944 66.8066 83.9517 66.7903 83.919C66.667 83.7458 66.5294 83.5863 66.3978 83.4104C66.3673 83.3649 66.3611 83.3005 66.3415 83.2493C66.3982 83.2673 66.482 83.258 66.5201 83.306C66.8143 83.5601 67.1058 83.8226 67.39 84.0819C67.4258 84.1108 67.432 84.1752 67.4618 84.2205C67.4134 84.2051 67.3642 84.1895 67.3208 84.1582C67.1954 84.0468 67.07 83.9353 66.9444 83.8247C66.9228 83.8086 66.8927 83.7907 66.8628 83.7721C66.8683 83.8097 66.8639 83.8524 66.8802 83.8851C66.9654 84.0104 67.0641 84.1217 67.1517 84.2395C67.1766 84.274 67.2038 84.301 67.2287 84.3356C67.2452 84.3675 67.2406 84.411 67.2461 84.4486C67.2085 84.4541 67.1581 84.4739 67.128 84.456C66.968 84.3695 66.7945 84.2969 66.6532 84.1804C66.0836 83.723 65.5835 83.1886 65.2245 82.5482C64.9374 82.0463 64.6847 81.5196 64.4194 81.0064C64.3972 80.9636 64.3858 80.9158 64.3828 80.8699C64.3822 80.843 64.4035 80.8048 64.4244 80.7939C64.4454 80.7831 64.4921 80.8063 64.5054 80.8196C64.5441 80.8944 64.5643 80.9725 64.608 81.058L64.6054 81.0663L64.6066 81.065Z" fill="#C0C69F"/>
<path d="M62.5791 61.847C62.3805 62.0789 62.1657 62.2781 61.8902 62.4139C61.8499 62.4278 61.8262 62.4735 61.7917 62.4984L61.9219 62.5397C61.9945 62.5628 62.0813 62.5728 62.1566 62.5876C62.1282 62.6769 62.1158 62.7712 62.0742 62.8471C61.9766 63.0128 61.8632 63.1733 61.758 63.3366C61.7394 63.3665 61.6992 63.3803 61.6646 63.4052C61.6507 63.365 61.6126 63.3171 61.6203 63.2928C61.6986 63.1303 61.7935 62.973 61.8827 62.8047C61.8931 62.7722 61.9117 62.7423 61.9296 62.7121L61.832 62.6811C61.7324 62.6853 61.6303 62.6971 61.5307 62.7013C61.4689 62.6992 61.4089 62.6626 61.3521 62.6446C61.3784 62.5905 61.3934 62.5144 61.4413 62.4763C61.6172 62.3447 61.8149 62.2284 61.9908 62.0968C62.4167 61.768 62.7749 61.3719 63.0312 60.9001C63.0416 60.8676 63.0678 60.8401 63.0921 60.8212C63.146 60.7933 63.1962 60.7742 63.25 60.7463C63.2479 60.8081 63.2681 60.8862 63.2444 60.932C63.0311 61.2391 62.8092 61.5444 62.5793 61.8463L62.5791 61.847Z" fill="#C0C69F"/>
<path d="M54.7536 49.1114C54.7341 49.2568 54.739 49.3833 54.7003 49.5051C54.572 49.9642 54.4685 50.432 54.3002 50.8784C54.1055 51.3788 53.8481 51.8511 53.6157 52.3313C53.5638 52.4397 53.5278 52.5533 53.4692 52.6513C53.4562 52.6921 53.3977 52.7086 53.3605 52.7417C53.3493 52.6932 53.3211 52.6401 53.3341 52.5992C53.4144 52.4015 53.5064 52.1983 53.595 52.0031C53.7048 51.7698 53.8363 51.5525 53.9217 51.3122C54.0927 50.8575 54.2588 50.3921 54.3999 49.9187C54.508 49.5782 54.5437 49.2138 54.6268 48.8654C54.6602 48.7602 54.7237 48.6729 54.773 48.5727C54.7772 48.6724 54.784 48.7637 54.7799 48.8606C54.7751 48.9308 54.7604 49.0061 54.7404 49.098L54.7536 49.1114Z" fill="#C0C69F"/>
<path d="M40.208 73.9452C40.2563 74.2995 40.3204 74.6331 40.3654 74.9689C40.3766 75.0175 40.332 75.0741 40.3164 75.1233C40.2832 75.0861 40.2291 75.0598 40.2152 75.0195C40.0714 74.5724 39.8664 74.15 39.9341 73.6533C39.9811 73.3375 40.0844 73.0671 40.2856 72.8269C40.3727 72.7205 40.4795 72.6386 40.5666 72.5321C40.6385 72.4475 40.6952 72.4655 40.7575 72.5211C40.7659 72.5237 40.7318 72.602 40.7003 72.6462C40.4504 73.04 40.1921 73.4312 40.1997 73.9425L40.208 73.9452Z" fill="#C0C69F"/>
<path d="M49.6501 64.6279C49.7774 64.5076 49.9117 64.4519 50.0704 64.4848C50.2566 64.5172 50.368 64.6151 50.4116 64.8163C50.4525 65.0259 50.3396 65.24 50.1907 65.3443C49.9719 65.4981 49.7642 65.423 49.6571 65.309C49.482 65.1285 49.4737 64.9026 49.6268 64.7013C49.6345 64.6771 49.6421 64.6529 49.6608 64.623L49.6498 64.6287L49.6501 64.6279Z" fill="#C0C69F"/>
<path d="M68.6231 82.2241C69.0306 82.6567 69.4847 82.9974 69.9845 83.281C70.2718 83.4439 70.5778 83.5768 70.8795 83.7259C70.9121 83.7362 70.9555 83.7675 70.9847 83.7593C71.0887 83.7123 71.1065 83.798 71.1313 83.8591C71.0725 83.8763 71.0004 83.9067 70.9486 83.8994C70.2633 83.7802 69.7269 83.3867 69.1964 82.9767C68.8288 82.6992 68.4856 82.4029 68.248 81.9967C68.248 81.9967 68.2396 81.9941 68.2447 81.9782C68.2385 81.9138 68.224 81.8467 68.2178 81.7822C68.2668 81.8245 68.3376 81.8561 68.3757 81.904C68.4602 82.0025 68.5431 82.1087 68.6309 82.2258L68.6226 82.2231L68.6231 82.2241Z" fill="#C0C69F"/>
<path d="M59.9798 74.3719C59.7825 74.3451 59.5995 74.3312 59.4106 74.307C59.3671 74.3024 59.3136 74.3029 59.2701 74.2982C59.3033 74.3354 59.3331 74.3807 59.3713 74.402C59.4745 74.4706 59.588 74.5066 59.6786 74.5887C59.7409 74.6443 59.7644 74.7408 59.8031 74.8156C59.736 74.8301 59.6639 74.8606 59.5935 74.8565C59.122 74.8227 58.6805 74.665 58.2715 74.4369C58.2332 74.4156 58.2219 74.3412 58.1913 74.2957C58.2558 74.2895 58.3172 74.264 58.3637 74.2879C58.6801 74.3883 58.9913 74.5046 59.3024 74.6217C59.3183 74.6267 59.34 74.6161 59.3611 74.6045C59.3503 74.5836 59.3389 74.5616 59.3174 74.5456C59.2275 74.4638 59.1244 74.3952 59.0364 74.3049C58.9957 74.2653 58.9596 74.1822 58.9801 74.1437C58.9931 74.1028 59.0894 74.0801 59.1437 74.0798C59.2649 74.0916 59.3867 74.1303 59.5055 74.1497C59.6751 74.1769 59.8372 74.2017 60.0068 74.2289C60.0553 74.2443 60.1147 74.2539 60.1663 74.262C60.1291 74.2952 60.0838 74.3249 60.0466 74.3581C60.0333 74.3714 60.0147 74.3747 59.9769 74.381L59.9795 74.3726L59.9798 74.3719Z" fill="#C0C69F"/>
<path d="M56.8672 74.6071C56.7992 74.5406 56.7359 74.4855 56.6974 74.41C56.6782 74.3864 56.6938 74.3372 56.6982 74.2944C56.7308 74.3048 56.7709 74.3175 56.8008 74.3361C57.2422 74.717 57.7476 75.0116 58.3145 75.1649C58.6685 75.2597 59.0453 75.2535 59.4089 75.289C59.4414 75.2993 59.4816 75.2854 59.5085 75.2848C59.5736 75.3054 59.6387 75.3261 59.7003 75.3548C59.6306 75.3777 59.5717 75.4215 59.4971 75.4336C58.949 75.5279 58.4075 75.4626 57.9007 75.2301C57.543 75.0632 57.2188 74.817 56.8581 74.6043L56.8665 74.6069L56.8672 74.6071Z" fill="#C0C69F"/>
<path d="M71.2646 62.2553C71.682 62.0662 72.0774 61.8885 72.4897 61.7154C72.5326 61.6931 72.5976 61.7404 72.6543 61.7584C72.6255 61.7943 72.5961 61.8291 72.5615 61.8539C72.0318 62.0873 71.5075 62.3324 70.9729 62.555C70.9007 62.5854 70.8038 62.5813 70.7257 62.6015C70.6855 62.6154 70.6618 62.6612 70.6272 62.686C70.6598 62.6964 70.6999 62.7091 70.7351 62.7111C70.7593 62.7188 70.7885 62.7106 70.8028 62.7234C70.8353 62.7338 70.8519 62.7657 70.8791 62.7926C70.8555 62.8118 70.8369 62.8417 70.8076 62.8499C70.6631 62.9115 70.5105 62.9697 70.3603 63.0203C70.3311 63.0285 70.2851 63.0056 70.2525 62.9953C70.2761 62.9761 70.2947 62.9462 70.3191 62.9273C70.3829 62.8942 70.4477 62.8606 70.5115 62.8276C70.4362 62.8128 70.3578 62.8054 70.2798 62.799C70.2473 62.7887 70.2044 62.8109 70.1802 62.8032C70.1393 62.7902 70.1069 62.7533 70.0713 62.7237C70.1059 62.6988 70.1404 62.6739 70.1723 62.6574C70.4644 62.5535 70.7664 62.4445 71.0584 62.3406C71.1198 62.3151 71.1791 62.2989 71.2515 62.2678L71.2648 62.2545L71.2646 62.2553Z" fill="#C0C69F"/>
<path d="M46.549 55.3478C46.3976 55.1215 46.2597 54.9078 46.1168 54.6833C46.1003 54.6514 46.1157 54.603 46.1094 54.5652C46.1502 54.5782 46.1987 54.5935 46.2262 54.6198C46.6746 55.2619 47.2341 55.806 47.8014 56.3518C47.8777 56.421 47.9569 56.4811 48.0196 56.5643C48.0471 56.5906 48.0291 56.6473 48.0403 56.6959C48.0078 56.6856 47.9651 56.6811 47.9352 56.6625C47.4133 56.3094 46.9599 55.8798 46.595 55.3708C46.595 55.3708 46.5708 55.3631 46.5568 55.3495L46.5485 55.3468L46.549 55.3478Z" fill="#C0C69F"/>
<path d="M47.4591 39.9102C47.4148 39.7978 47.3644 39.7019 47.3336 39.6021C47.3254 39.5729 47.3408 39.5244 47.3428 39.4893C47.381 39.5106 47.4404 39.5202 47.446 39.5578C47.6579 40.0449 47.8902 40.5202 48.0726 41.0163C48.1987 41.3512 48.2655 41.7022 48.3538 42.0435C48.3709 42.1022 48.3855 42.1693 48.3833 42.2311C48.3813 42.2663 48.352 42.3011 48.3314 42.3396C48.2956 42.3107 48.2388 42.2927 48.2333 42.2551C48.182 42.0781 48.1391 41.9037 48.0886 41.7269C47.9368 41.2497 47.7898 40.784 47.6297 40.3042C47.5904 40.176 47.5212 40.0557 47.4572 39.9188L47.4598 39.9104L47.4591 39.9102Z" fill="#C0C69F"/>
<path d="M72.8162 59.1396C72.6475 59.1935 72.4814 59.2391 72.3256 59.2788C72.307 59.2821 72.2688 59.2608 72.2446 59.2531C72.2606 59.2315 72.2709 59.199 72.2919 59.1881C72.5597 59.0765 72.8268 58.9647 73.0919 58.8615C73.389 58.7417 73.6837 58.6295 73.9782 58.518C74.1603 58.4509 74.3423 58.3837 74.5244 58.3166C74.5537 58.3084 74.5971 58.3396 74.6379 58.3526C74.6193 58.3825 74.6013 58.4393 74.5637 58.4448C74.1304 58.6288 73.6888 58.8102 73.2556 58.9942C73.1137 59.0475 72.9718 59.1007 72.8109 59.1563L72.816 59.1404L72.8162 59.1396Z" fill="#C0C69F"/>
<path d="M75.0562 55.2344C74.822 55.24 74.6009 55.2332 74.3777 55.2331C74.3425 55.2311 74.3126 55.2124 74.2827 55.1938C74.3089 55.1663 74.3383 55.1315 74.3652 55.1308C74.5528 55.1013 74.7445 55.0905 74.9405 55.0635C75.4374 54.9889 75.9317 54.8959 76.4285 54.8212C76.5142 54.8034 76.5983 54.8218 76.6896 54.8149C76.6205 54.8646 76.5596 54.9436 76.4842 54.9555C76.0148 55.0564 75.5422 55.1388 75.0562 55.2344Z" fill="#C0C69F"/>
<path d="M51.2499 45.7484C51.2483 45.6405 51.2441 45.5408 51.2722 45.4523C51.2929 45.3872 51.3544 45.3351 51.3991 45.2785C51.4186 45.3297 51.4543 45.3851 51.4554 45.4396C51.4593 45.9049 51.4361 46.3715 51.3272 46.8275C51.2736 47.0513 51.215 47.2651 51.1536 47.4872C51.1459 47.5114 51.1031 47.5336 51.0795 47.5528C51.0713 47.5235 51.0464 47.489 51.0458 47.4621C51.0873 47.1896 51.1455 46.9223 51.1795 46.6474C51.2185 46.3565 51.2327 46.057 51.2502 45.7502L51.2499 45.7484Z" fill="#C0C69F"/>
<path d="M74.0402 82.8811C73.7901 82.8817 73.55 82.8771 73.3106 82.8728L73.2213 82.8445C73.1914 82.8258 73.1665 82.7912 73.139 82.765C73.1683 82.7568 73.2088 82.7422 73.2354 82.7423C73.5207 82.7437 73.8143 82.7478 74.0998 82.7485C74.5843 82.7415 75.062 82.6432 75.5195 82.4669C75.5707 82.4473 75.635 82.4677 75.6919 82.4591C75.6496 82.5082 75.6239 82.5892 75.5754 82.6004C75.2132 82.6995 74.8459 82.7887 74.4755 82.8586C74.333 82.885 74.1849 82.8738 74.0209 82.8842L74.0394 82.8809L74.0402 82.8811Z" fill="#C0C69F"/>
<path d="M55.8186 54.9856L56.0968 54.1093C56.1071 54.0767 56.1116 54.034 56.1302 54.0041C56.1591 53.9683 56.21 53.9494 56.2446 53.9246C56.2475 53.9705 56.2699 54.0126 56.2653 54.0561C56.1654 54.4259 56.0551 54.8024 55.9476 55.1698L55.7982 55.6405C55.7828 55.6889 55.7214 55.7144 55.6842 55.7476C55.673 55.6991 55.6532 55.6486 55.6578 55.6051C55.7037 55.4056 55.7597 55.2001 55.8127 54.9754L55.8184 54.9863L55.8186 54.9856Z" fill="#C0C69F"/>
<path d="M73.9651 51.6639C74.0445 51.5816 74.1111 51.5136 74.1852 51.448C74.2224 51.4149 74.276 51.3877 74.3215 51.3572C74.3167 51.4273 74.3345 51.5129 74.303 51.5571C74.1654 51.71 74.0353 51.8653 73.8654 51.9804C73.6148 52.1508 73.3502 52.2809 73.0804 52.4276C73.0485 52.4442 72.9891 52.4345 72.9456 52.4298C72.9768 52.3865 73.0032 52.3323 73.0487 52.3018C73.3205 52.1199 73.5929 51.9389 73.8731 51.7596C73.9076 51.7348 73.9346 51.7075 73.9742 51.6668L73.9658 51.6641L73.9651 51.6639Z" fill="#C0C69F"/>
<path d="M43.7749 78.8015C43.6359 78.9007 43.5072 78.8865 43.406 78.7827C43.3131 78.6816 43.33 78.5445 43.4088 78.4354C43.483 78.3432 43.5893 78.2603 43.7277 78.3309C43.8528 78.3881 43.9037 78.5925 43.8191 78.7173C43.8031 78.7388 43.7928 78.7714 43.7666 78.7989L43.7749 78.8015Z" fill="#C0C69F"/>
<path d="M76.6695 76.9019C76.5534 76.8742 76.4161 76.884 76.3615 76.8042C76.277 76.7057 76.3181 76.5763 76.4161 76.4641C76.5166 76.3444 76.6251 76.3964 76.725 76.4464C76.866 76.5086 76.8454 76.7703 76.6805 76.8963L76.6695 76.9019Z" fill="#C0C69F"/>
<path d="M61.9262 63.2915C61.9953 63.2417 62.0459 63.1953 62.1047 63.1515C62.0976 63.2292 62.1208 63.3266 62.0812 63.3673C61.861 63.6098 61.6197 63.8372 61.3862 64.0663C61.36 64.0938 61.2982 64.0917 61.2553 64.1139C61.2707 64.0655 61.2704 64.0113 61.299 63.9762C61.4637 63.796 61.6332 63.6266 61.7976 63.4472C61.8399 63.3982 61.8745 63.3467 61.927 63.2917L61.9262 63.2915Z" fill="#C0C69F"/>
<path d="M67.8737 39.7643C67.799 39.9997 67.5741 40.089 67.4481 39.9241C67.396 39.8626 67.3535 39.7158 67.385 39.6717C67.4432 39.601 67.5609 39.5401 67.6605 39.5359C67.7711 39.526 67.8716 39.6029 67.8764 39.756L67.8737 39.7643Z" fill="#C0C69F"/>
<path d="M75.2135 82.3871C75.0418 82.4217 74.8807 82.4514 74.7143 82.4693C74.6767 82.4749 74.6333 82.4436 74.5924 82.4307C74.6296 82.3975 74.656 82.3434 74.7037 82.3319C74.8513 82.2896 75.004 82.2573 75.1489 82.2233C75.3048 82.1836 75.4542 82.1328 75.61 82.0931C75.6476 82.0875 75.691 82.1188 75.7319 82.1318C75.7132 82.1617 75.7029 82.1942 75.682 82.2051C75.5267 82.2716 75.3766 82.3222 75.2135 82.3871Z" fill="#C0C69F"/>
<path d="M58.1751 80.8716C58.3462 80.8102 58.4577 80.8814 58.5003 81.0282C58.5287 81.1355 58.4817 81.2547 58.3611 81.2697C58.2857 81.2816 58.1671 81.2615 58.1124 81.2083C57.9977 81.0919 58.0523 80.9751 58.1829 80.8733L58.1746 80.8706L58.1751 80.8716Z" fill="#C0C69F"/>
<path d="M52.2956 36.0963C52.1994 35.9766 52.2361 35.89 52.3454 35.8264C52.4464 35.7602 52.557 35.7503 52.6389 35.8571C52.7102 35.9422 52.7602 36.0655 52.67 36.1527C52.5906 36.2349 52.4616 36.2739 52.3553 36.1602C52.342 36.1468 52.3194 36.1313 52.3005 36.107L52.2948 36.096L52.2956 36.0963Z" fill="#C0C69F"/>
<path d="M32.8418 51.9975C32.9857 51.909 33.1152 51.9235 33.1928 52.0464C33.2648 52.1584 33.2151 52.2859 33.0869 52.3251C33.0171 52.348 32.8935 52.3437 32.8445 52.3015C32.7598 52.2297 32.7179 52.1097 32.8343 51.9951L32.8426 51.9977L32.8418 51.9975Z" fill="#C0C69F"/>
<path d="M80.9993 59.942C80.8583 59.8798 80.7896 59.7863 80.8635 59.6665C80.9024 59.5989 81.0367 59.5432 81.1018 59.5639C81.1669 59.5846 81.2328 59.7129 81.2347 59.7935C81.2338 59.909 81.1677 60.0046 81 59.9423L80.9993 59.942Z" fill="#C0C69F"/>
<path d="M60.1274 55.7544C60.0899 55.76 60.0714 55.7633 60.0472 55.7556C59.9174 55.7144 59.8679 55.6189 59.9008 55.4864C59.9111 55.454 59.9616 55.4076 60.0066 55.4045C60.122 55.3788 60.2429 55.3906 60.2794 55.5268C60.3134 55.6448 60.247 55.7126 60.1247 55.7627L60.1274 55.7544Z" fill="#C0C69F"/>
<path d="M61.5317 64.2734C61.4043 64.3938 61.2823 64.4975 61.1592 64.6017C61.1247 64.6266 61.0788 64.6295 61.0386 64.6434C61.0456 64.5923 61.0262 64.5145 61.0633 64.4813C61.1797 64.3666 61.3077 64.2732 61.4307 64.1689C61.4441 64.1557 61.4626 64.1524 61.4846 64.141C61.5358 64.1215 61.5919 64.1126 61.6506 64.0955C61.6167 64.1472 61.5904 64.2013 61.5504 64.2694L61.5319 64.2727L61.5317 64.2734Z" fill="#C0C69F"/>
<path d="M48.7229 43.5264C48.7409 43.6663 48.7533 43.7952 48.7472 43.9273C48.7452 43.9625 48.7242 44 48.7112 44.0409C48.6837 44.0146 48.6296 43.9883 48.6289 43.9614C48.6117 43.7061 48.6004 43.4609 48.5915 43.2082C48.5992 43.184 48.6178 43.1541 48.6331 43.1322C48.6523 43.1558 48.698 43.1795 48.6987 43.2064C48.7112 43.3086 48.712 43.4164 48.7278 43.5372L48.7221 43.5262L48.7229 43.5264Z" fill="#C0C69F"/>
<path d="M48.6263 57.2746C48.6881 57.2767 48.7611 57.2724 48.8126 57.3071C48.9648 57.4179 49.0959 57.5403 49.2348 57.6643C49.2564 57.6803 49.2603 57.7257 49.2685 57.755C49.2416 57.7556 49.2097 57.7722 49.1957 57.7586C49.0054 57.5998 48.8169 57.4326 48.629 57.2663L48.6263 57.2746Z" fill="#C0C69F"/>
<path d="M73.3642 55.2419C73.5087 55.1803 73.6396 55.1327 73.7821 55.1063C73.8306 55.0951 73.8956 55.1424 73.958 55.1713C73.9151 55.1936 73.8756 55.2343 73.8353 55.2482C73.6961 55.2931 73.5652 55.3407 73.4201 55.3754C73.3908 55.3836 73.355 55.3548 73.3198 55.3528C73.3301 55.3202 73.3405 55.2877 73.3642 55.2419Z" fill="#C0C69F"/>
<path d="M49.2812 57.3839C49.4121 57.3363 49.7271 57.4987 49.7614 57.6162C49.7696 57.6455 49.7649 57.689 49.7542 57.6939C49.725 57.7021 49.6788 57.7058 49.6572 57.6898C49.5266 57.595 49.3985 57.4919 49.2731 57.3805L49.2814 57.3831L49.2812 57.3839Z" fill="#C0C69F"/>
<path d="M60.3298 74.0815C60.1651 74.0651 60.0114 74.0429 59.8603 74.0124C59.8277 74.0021 59.8055 73.9592 59.778 73.933C59.8126 73.9082 59.8605 73.8701 59.8847 73.8778C60.0466 73.9292 60.1933 74.0024 60.34 74.0756L60.329 74.0813L60.3298 74.0815Z" fill="#C0C69F"/>
<path d="M70.5453 63.0542C70.6021 63.0722 70.648 63.0693 70.6907 63.0737C70.6672 63.0928 70.6459 63.1311 70.6242 63.1417C70.5118 63.186 70.3909 63.2284 70.2817 63.2654C70.2607 63.2762 70.2332 63.25 70.2064 63.2506C70.2141 63.2264 70.227 63.1855 70.2404 63.1723C70.3361 63.1227 70.4361 63.0911 70.556 63.0492L70.5451 63.0549L70.5453 63.0542Z" fill="#C0C69F"/>
<path d="M71.2018 59.6095C71.0921 59.6461 70.9794 59.6635 70.8592 59.6785C70.8433 59.6735 70.821 59.6573 70.8102 59.6364C70.8045 59.6254 70.8122 59.6013 70.8255 59.5881C70.9181 59.4928 71.0851 59.5009 71.2101 59.6121L71.2018 59.6095Z" fill="#C0C69F"/>
<path d="M55.7278 56.1444C55.7479 56.2488 55.7547 56.3398 55.7722 56.426C55.7347 56.4316 55.697 56.4379 55.6543 56.4335C55.6501 56.3341 55.6486 56.2264 55.6442 56.1278C55.6683 56.1354 55.6975 56.1273 55.7276 56.1451L55.7278 56.1444Z" fill="#C0C69F"/>
<path d="M72.6987 55.3697C72.7815 55.3603 72.865 55.3511 72.935 55.3558L72.9412 55.4201C72.8534 55.4454 72.7652 55.498 72.6794 55.4883C72.6019 55.4811 72.6056 55.4117 72.6968 55.3783L72.6995 55.37L72.6987 55.3697Z" fill="#C0C69F"/>
<path d="M55.776 56.5529C55.8175 56.4771 55.8547 56.4175 55.8914 56.5272C55.9059 56.5941 55.8802 56.6749 55.8653 56.7507L55.8093 56.7595C55.7922 56.7009 55.786 56.6366 55.7742 56.5614L55.7768 56.5531L55.776 56.5529Z" fill="#C0C69F"/>
<path d="M49.9188 57.2835C49.876 57.3056 49.8124 57.3386 49.7716 57.3257C49.7309 57.3127 49.7062 57.2517 49.684 57.2089C49.684 57.2089 49.7478 57.1494 49.7553 57.1518C49.8069 57.1856 49.8639 57.2312 49.9188 57.2835Z" fill="#C0C69F"/>
<path d="M40.1696 57.3048C40.1743 57.2614 40.187 57.2214 40.1973 57.189C40.2353 57.2368 40.2842 57.2789 40.3204 57.3352C40.3312 57.3561 40.3024 57.3918 40.2921 57.4243C40.2623 57.4057 40.2246 57.3855 40.1974 57.3585C40.1816 57.3535 40.181 57.3267 40.1621 57.3024L40.1704 57.3051L40.1696 57.3048Z" fill="#C0C69F"/>
<path d="M75.536 81.9896C75.48 81.9984 75.4316 82.0096 75.3855 82.0133C75.4143 81.9776 75.4406 81.9236 75.4807 81.9097C75.5016 81.8989 75.5506 81.941 75.5889 81.9615C75.578 81.9672 75.5571 81.978 75.5328 81.9969L75.5355 81.9886L75.536 81.9896Z" fill="#C0C69F"/>
<path d="M50.7411 48.6676C50.6748 48.5128 50.7982 48.5428 50.8649 48.5291C50.8655 48.5559 50.885 48.6069 50.8717 48.6202C50.8346 48.6532 50.7945 48.6671 50.746 48.6783L50.7404 48.6674L50.7411 48.6676Z" fill="#C0C69F"/>
<path d="M40.6655 59.2572C40.6247 59.2176 40.6025 59.1747 40.572 59.1292C40.6012 59.121 40.6364 59.123 40.6659 59.1141C40.6688 59.16 40.6728 59.2054 40.6655 59.2572Z" fill="#C0C69F"/>
<path d="M32.9703 71.5406C33.0181 71.5026 33.0495 71.4586 33.087 71.453C33.1355 71.4418 33.1894 71.4681 33.2461 71.4861C33.2248 71.5242 33.2046 71.5618 33.1777 71.589C33.1189 71.6327 33.047 71.663 32.9831 71.6967C32.9719 71.6483 32.9679 71.603 32.9677 71.5489L32.9703 71.5406Z" fill="#C0C69F"/>
<path d="M32.2852 70.1885C32.2764 70.1324 32.2645 70.057 32.2857 70.0454C32.4379 69.9596 32.604 69.8874 32.7612 69.8123C32.7821 69.8015 32.8288 69.8513 32.8458 69.8842C32.8515 69.8951 32.8228 69.9568 32.7849 69.9631C32.6161 70.0437 32.4507 70.1161 32.2769 70.1859L32.2852 70.1885Z" fill="#C0C69F"/>
<path d="M37.9666 71.3049C37.9257 71.2919 37.864 71.2631 37.8634 71.2363C37.8835 71.1177 37.9139 70.9932 37.9526 70.8714C37.9552 70.8631 38.0038 70.8518 38.0196 70.8569C38.0355 70.8619 38.0502 70.9024 38.0451 70.9183C38.025 71.0368 37.9946 71.1613 37.9702 71.296L37.9676 71.3043L37.9666 71.3049Z" fill="#C0C69F"/>
<defs>
<filter id="filter0_d_40000074_22592" x="9.44238" y="16.3047" width="105.654" height="93.8999" filterUnits="userSpaceOnUse" color-interpolation-filters="sRGB">
<feFlood flood-opacity="0" result="BackgroundImageFix"/>
<feColorMatrix in="SourceAlpha" type="matrix" values="0 0 0 0 0 0 0 0 0 0 0 0 0 0 0 0 0 0 127 0" result="hardAlpha"/>
<feOffset dx="4" dy="4"/>
<feGaussianBlur stdDeviation="2"/>
<feComposite in2="hardAlpha" operator="out"/>
<feColorMatrix type="matrix" values="0 0 0 0 0 0 0 0 0 0 0 0 0 0 0 0 0 0 0.25 0"/>
<feBlend mode="normal" in2="BackgroundImageFix" result="effect1_dropShadow_40000074_22592"/>
<feBlend mode="normal" in="SourceGraphic" in2="effect1_dropShadow_40000074_22592" result="shape"/>
</filter>
</defs>
</svg>
