<svg xmlns="http://www.w3.org/2000/svg" width="116" height="118" fill="none" viewBox="0 0 116 118"><g filter="url(#a)"><path fill="#464a2d" d="M26.802 84.278c-4.298-2.36-8.508-3.512-11.39-6.46-8.753-8.593-7.71-21.052 2.015-27.583 3.242-2.178 3.508-3.532 3.497-7.053-.268-12.12 5.116-21.616 14.352-24.833 6.157-2.146 11.471-.83 15.855 2.737 3.236 2.8 5.048 2.67 8.246-.112 8.431-7.651 22.241-6.344 27.47 7.24 1.366 3.785 2.541 6.614 8.312 7.532 11.896 1.69 15.96 15.963 7.308 25.573-5.499 6.226-10.23 11.303-8.576 20.775 1.272 7.556-6.553 15.164-14.756 15.88-4.58.453-9.187-1.157-13.913-1.057-2.916-.032-6.495.834-8.926 2.467-8.148 4.839-18.646 4.021-23.2-6.94-1.174-2.83-3.66-5.32-5.94-8.312"/></g><path fill="#c0c69f" d="M41.44 62.388c-.31-.063-.61-.104-.891-.203-.328-.121-.64-.292-.946-.452-.315-.162-.622-.348-.931-.527-.038-.022-.055-.08-.08-.115.051.007.11-.01.148.011.331.168.643.365.982.509.431.19.882.342 1.331.502.252.08.509.144.765.207.025.008.059-.017.08-.028-.008-.029-.017-.059-.038-.075-.129-.13-.246-.265-.377-.387a.5.5 0 0 0-.225-.108 3.9 3.9 0 0 1-1.211-.348c-.713-.316-1.267-.849-1.9-1.273-.354-.237-.701-.463-1.114-.568a2.15 2.15 0 0 0-1.855.33c-.046.031-.11.038-.162.057.021-.065.03-.15.068-.184.17-.116.333-.261.529-.315.255-.07.345-.3.545-.425-.043-.03-.09-.081-.139-.097-.105-.033-.224-.026-.313-.082s-.131-.176-.203-.26c-.038-.049-.128-.104-.17-.082-.397.124-.752.342-.987.688-.142.223-.208.488-.307.742.048.015.103.042.143.028.203-.051.396-.124.598-.168.048-.011.118.02.178.03-.037.033-.077.074-.12.096-.268.085-.541.186-.81.243-.257.052-.388-.097-.368-.358.032-.41.25-.706.548-.969.072-.057.143-.168.134-.252-.067-.521.131-.95.427-1.347a2.42 2.42 0 0 1 1.77-1.018c.065-.007.15-.078.19-.146.335-.519.842-.796 1.393-1.013.225-.09.436-.193.658-.274.083-.036.185-.02.285-.025 0 .08.008.172.009.253-.007.274-.016.557-.026.84-.002.035.003.072-.004.096a1 1 0 0 1-.057.126c-.034-.038-.088-.064-.11-.107-.135-.248-.196-.508-.087-.795.014-.041.015-.076.02-.119-.04.014-.085.018-.118.034-.312.17-.608.343-.918.503-.447.225-.843.518-1.07.982-.082.171-.103.379-.146.57-.005.017.02.052.028.055a.3.3 0 0 0 .12-.042c.206-.14.403-.283.614-.413.088-.052.207-.032.314-.06a.7.7 0 0 0 .262-.123c.224-.197.433-.408.656-.605.024-.02.083-.01.118-.007-.013.04-.015.102-.041.13a1.7 1.7 0 0 0-.52.71c-.08.251-.082.537-.078.806.015.657.353 1.166.756 1.642.41.478.93.84 1.417 1.245.242.192.456.42.682.636.028.026.03.072.04.101-.033-.01-.076-.014-.105-.033-.616-.481-1.236-.946-1.833-1.457-.365-.313-.675-.687-1.01-1.036-.176-.18-.398-.126-.591-.107-.412.057-.745.29-1.066.545-.035.025-.045.084-.066.123.051.007.1.022.14.008.279-.09.554-.056.832-.004.81.15 1.447.62 2.07 1.13q.552.457 1.152.848c.223.143.485.217.731.312.033.01.065-.006.102-.012a.2.2 0 0 0-.036-.083c-.26-.333-.512-.663-.773-.996-.28-.357-.58-.703-.85-1.065-.461-.628-.808-1.31-.8-2.12.006-.472.092-.91.373-1.32.169-.25.36-.457.614-.609.066-.041.16-.029.244-.038-.047.065-.092.149-.156.183-.44.261-.566.686-.643 1.153-.14.865.228 1.59.665 2.292.315.5.642.989.97 1.477s.675.965 1.011 1.455c.06.09.113.179.174.269.01.02.056.018.08.026.008-.025.019-.057.008-.078-.217-.525-.413-1.06-.736-1.537a16 16 0 0 1-.504-.803c-.022-.043-.012-.103-.023-.151a.4.4 0 0 1 .14.062c.198.277.407.549.583.837.17.278.302.57.45.858.03.072.04.156.069.236.01.02.04.04.062.055.008-.024.034-.051.042-.075.021-.181.04-.354.052-.529a.26.26 0 0 0-.024-.15c-.172-.386-.334-.776-.539-1.145-.229-.404-.498-.792-.76-1.18-.134-.194-.29-.377-.427-.564l-.033-.064c.029-.008.064-.033.08-.028a.3.3 0 0 1 .155.103q.405.54.805 1.095c.173.242.365.482.495.746.138.268.215.56.316.833.008.03.026.062.034.09.026-.027.061-.051.081-.089.1-.174.055-.34-.017-.505-.193-.49-.471-.936-.773-1.362-.358-.507-.725-1.007-1.062-1.525-.385-.586-.543-1.244-.51-1.939q.011-.2.073-.396c.018-.057.084-.099.138-.153a1 1 0 0 1 .04.182c.01.218-.018.45.03.663.096.459.282.884.53 1.284.521.835 1.189 1.574 1.587 2.486.09.198.148.405.227.608.02.051.05.096.078.15.037-.034.066-.069.106-.11a2.05 2.05 0 0 1 1.194-.666c.588-.108 1.136.022 1.667.289.13.068.279.106.422.16.196.089.388.186.594.269.073.023.162.025.237.04.033.01.055.053.08.087-.032.017-.064.06-.098.058-.569-.037-.86.344-1.117.762-.216.342-.389.716-.612 1.056a1.67 1.67 0 0 1-1.215.757c-.222.028-.448.036-.672.063-.037.006-.075.04-.107.056l.083.08c.213.228.45.437.637.693.294.396.563.812.822 1.235.37.608.71 1.225 1.07 1.83.112.187.114.18.251 0 .22-.27.437-.531.662-.79a.62.62 0 0 0 .17-.393c.102-1.084.675-1.876 1.56-2.47.566-.374 1.188-.533 1.852-.545.053 0 .108.052.168.09-.05.019-.093.041-.147.041-1.1.115-1.965.618-2.521 1.584-.41.7-.55 1.45-.294 2.247.144.447.44.782.759 1.098.095.093.193.177.279.276.038.048.06.118.089.171-.07-.004-.149.016-.203-.01-.271-.158-.54-.324-.812-.481-.06-.037-.13-.069-.194-.062-.183.013-.36.037-.538.061-.038.006-.075.04-.107.056.02.023.026.061.05.069.382.148.639.462.912.727.604.602 1.152 1.24 1.6 1.963.185.29.354.603.528.9a.15.15 0 0 1 .036.083c.006.064-.003.123-.01.174-.034-.037-.08-.06-.102-.103-.124-.2-.232-.422-.366-.616-.341-.475-.671-.955-1.036-1.41-.54-.662-1.194-1.191-1.916-1.644-.03-.019-.078-.007-.11-.018.005.038.003.073.012.103.32.735.649 1.473.966 2.217.215.506.408 1.023.623 1.528.265.656.532 1.303.808 1.954L49.483 75c.262.61.521 1.228.783 1.838.132.318.273.631.404.95.014.04.028.08.026.115-.005.016-.015.048-.047.065 0 0-.049-.015-.052-.034-.175-.35-.34-.698-.516-1.047-.013-.04-.038-.075-.06-.118-.303-.596-.612-1.195-.895-1.794a53 53 0 0 1-.769-1.77c-.122-.29-.37-.44-.603-.603-.256-.179-.495-.157-.773-.013-.548.264-.91.73-1.308 1.165-.029.036-.064.06-.099.085-.016-.032-.041-.066-.046-.104-.023-.096-.064-.11-.136-.052-.316.239-.634.478-.953.698a2.8 2.8 0 0 1-.585.323c-.236.095-.391-.062-.343-.296.007-.025.004-.044.004-.07a.6.6 0 0 0-.115.025c-.239.103-.473.252-.725.315-.349.086-.715.112-1.072.169-.357.056-.67.198-.944.442-.026.027-.07.022-.11.036-.002-.046-.025-.115-.007-.145.165-.154.335-.323.524-.441.34-.223.731-.277 1.132-.275.412-.003.806-.066 1.17-.28.063-.034.122-.078.2-.098.056-.009.138-.01.178.03.03.019.01.11.002.161l-.103.325c.062-.025.121-.042.167-.072q.749-.499 1.487-1.002c.013-.013.035-.025.051-.02.377-.031.498-.36.713-.586.244-.262.521-.487.905-.517.046-.002.102-.039.145-.061-.044-.031-.093-.074-.142-.09-.4-.145-.74-.057-1.024.273a3 3 0 0 1-.22.216c-.027.027-.078.02-.11.037-.006-.038-.023-.097-.008-.119q.228-.248.47-.494l.07-.057c-.027-.026-.059-.064-.094-.066a4 4 0 0 0-.65-.01c-.117.008-.237.077-.34.142-.356.254-.631.585-.88.945-.007.024-.03.043-.055.062-.035.025-.075.039-.11.064-.002-.046-.025-.116-.007-.146.098-.166.197-.339.322-.478.138-.153.314-.285.465-.424.027-.028.05-.073.072-.112-.033-.01-.081-.025-.113-.009-.23.052-.453.133-.681.177-.282.045-.425.24-.564.455-.184.299-.366.59-.558.886-.031.043-.107.055-.16.083.002-.062-.019-.14.005-.186.17-.284.36-.573.54-.855l.063-.114c-.04.013-.094.015-.129.039-.452.33-.903.651-1.35.991-.187.138-.348.31-.524.468-.023.02-.061.026-.099.031.01-.032-.012-.075.004-.097.08-.109.145-.23.246-.323q.47-.47.962-.919c.053-.055.133-.082.2-.124.023-.019.042-.049.069-.076-.04-.013-.087-.037-.114-.036-.249.082-.495.155-.741.256-.134.056-.26.141-.394.197-.042.022-.11.01-.164.01.024-.046.039-.122.082-.144.206-.113.414-.235.633-.308.357-.11.727-.18 1.081-.282.236-.068.463-.165.696-.252.021-.01.04-.04.064-.06-.04-.012-.073-.05-.108-.051-.652-.001-1.314-.051-1.94.205-.03.008-.06.017-.083.01l-.081-.026c.016-.022.026-.054.055-.062.279-.09.55-.21.828-.247.384-.056.783-.046 1.17-.057.08-.001.175-.016.237.012.29.155.58.033.875.028.108-.001.213.005.32.004.025.007.054-.028.075-.039-.019-.023-.035-.056-.06-.064-.246-.069-.485-.127-.732-.197-.032-.01-.065-.047-.092-.074.035-.025.053-.054.09-.06a.3.3 0 0 1 .154-.005c.373.119.73.259 1.101.386.155.049.319.065.465.111.283.09.568.207.85.306.032.01.08-.001.115 0-.017-.031-.023-.07-.045-.085-.447-.392-.883-.79-1.343-1.168-.349-.28-.758-.455-1.215-.422-.046.003-.09.034-.131.048.04.013.09.028.122.066.085.071.159.148.232.225.008.002-.01.06-.02.065-.03.008-.065.006-.087-.01-.73-.482-1.525-.51-2.338-.287-.313.088-.588.305-.879.463-.02.01-.021.038-.036.06l.065.02c.115.001.228-.016.336.009.057.018.117.082.174.127-.037.033-.07.076-.111.099-.383.19-.765.382-1.043.722-.145.178-.264.38-.403.569-.022.038-.07.05-.096.077-.023-.043-.078-.096-.065-.136.052-.162.076-.351.17-.482a1.76 1.76 0 0 1 1.016-.722.5.5 0 0 0 .12-.07l-.398-.126c.045-.084.078-.19.145-.257.563-.536 1.218-.828 2.008-.702.238.04.479.125.711.18a.24.24 0 0 0 .18-.031c.247-.217.538-.232.832-.174.546.111.947.452 1.307.862q.542.612 1.121 1.195c.142.143.308.268.466.389.022.016.08-.001.116 0-.008-.029-.009-.055-.026-.087-.215-.56-.42-1.125-.634-1.685a89 89 0 0 0-.666-1.675c-.161-.39-.337-.768-.5-1.15-.06-.127-.139-.214-.289-.19a.5.5 0 0 1-.172.007c-.132-.006-.254-.044-.232-.198.023-.127-.034-.145-.123-.173-.584-.186-1.175-.293-1.782-.379-.556-.078-1.12-.132-1.676-.094-.51.034-1.016.106-1.518.17-.103.013-.16.083-.213.192-.209.46-.196.956-.235 1.443a5 5 0 0 1-.154.88c-.07.273-.143.562-.258.811-.263.55-.596 1.061-1.052 1.488-.141.133-.274.27-.428.391-.24.192-.243.485-.34.732a2 2 0 0 1-.088.222c-.047-.077-.104-.149-.121-.235a30 30 0 0 1-.261-1.288c-.074-.444-.185-.88-.186-1.327-.014-.773.288-1.445.857-1.97.3-.271.64-.493.967-.738.034-.025.061-.052.096-.077l.144-.115c-.065.007-.135.002-.196.027-.428.222-.842.456-1.27.678-.14.08-.296.147-.438.227-.376.23-.763.463-1.136.71-.114.08-.22.19-.292.301-.039.068-.035.195-.01.283.163.641.056 1.232-.197 1.83-.22.529-.584.94-.92 1.379-.171.231-.41.424-.626.623-.268.253-.439.566-.61.877-.057.098-.107.198-.18.29-.093.123-.188.112-.332.03-.315-.189-.672-.133-1.014-.125-.252.009-.518.058-.759 0-.415-.097-.793-.368-.868-.893-.027-.169-.099-.28-.236-.324-.384-.113-.523-.577-.506-.911.02-.342.004-.66-.216-.953-.246-.319-.223-.704-.217-1.087.003-.15-.015-.29-.02-.443 0-.027.02-.065.04-.095.024.007.072.023.075.041.06.18.14.348.153.531.031.439.171.813.509 1.1.027.026.062.028.092.046.01-.032.026-.08.025-.108-.077-.292-.108-.588-.023-.882.01-.033-.033-.09-.069-.12-.265-.263-.543-.512-.605-.907-.033-.234-.02-.328.258-.391.378-.095.765-.16 1.132-.275.247-.073.465-.227.7-.323.37-.15.738-.328 1.12-.43.487-.13.99-.114 1.493-.035.518.085 1.005.266 1.377.67.033.037.06.064.09.108.12.182.24.201.421.08.4-.274.802-.558 1.222-.809.43-.256.873-.5 1.328-.721a10.3 10.3 0 0 1 2.314-.792 7.7 7.7 0 0 1 1.89-.186c.492.022.99.056 1.474.137.458.074.902.197 1.358.306.04.013.086.037.135.052.04.013.092.02.135.026-.014-.04-.018-.086-.042-.12-.267-.398-.523-.8-.792-1.19-.462-.683-.876-1.404-1.466-1.992-.251-.25-.504-.491-.748-.738-.114-.116-.146-.046-.17.062-.047.173-.068.353-.13.52-.173.49-.464.898-.926 1.145-.563.313-1.155.571-1.724.873-.558.296-.916.745-.98 1.403-.008.078-.066.15-.108.225-.03-.072-.08-.141-.084-.214.002-.482-.005-.966.041-1.452.033-.328.112-.66.229-.972.176-.443.393-.875.799-1.166.024-.02.036-.06.055-.09-.04-.013-.073-.05-.108-.052-.458-.02-.888-.184-1.3-.35-.69-.273-1.342-.613-1.927-1.076-.343-.27-.686-.54-1.05-.77-.239-.148-.529-.106-.795-.056l-.202.043c-.056.01-.108.002-.161.002 0-.053-.015-.12.008-.167.17-.366.41-.674.741-.898.035-.025.097.004.15.002-.012.041-.012.095-.04.13-.17.197-.353.38-.522.576-.024.02-.021.065-.04.095.036.002.07.005.1-.004.47-.244.921-.145 1.326.126.49.316.939.673 1.427.989.282.178.597.314.898.463.216.105.44.22.669.284.3.095.618.16.934.207.186.033.382.006.579.006.027 0 .061-.026.083-.036-.027-.026-.041-.067-.076-.07a1.6 1.6 0 0 0-.343-.073c-.478-.044-.893-.283-1.326-.465-.033-.01-.042-.067-.064-.11.046-.003.09-.034.132-.02.333.105.652.252.99.34.322.085.65.145.98.15.212.006.421-.089.636-.145.029-.009.067-.015.096-.023q.086-.026.161-.057a1.4 1.4 0 0 0-.19-.05m-6.654 8.089a2.5 2.5 0 0 1-1.027.817c-.043.022-.108.001-.162.002.032-.044.047-.12.098-.14.537-.284.842-.795 1.22-1.228.03-.036.023-.1.03-.15-.05.019-.106.028-.15.05-.21.13-.402.283-.626.399-.249.135-.51.231-.77.345-.145.062-.28.125-.428.195-.283.133-.535.277-.714.56-.152.254-.272.52-.281.803-.014.55.086 1.08.343 1.564.133.256.295.504.446.758l.058.072a.3.3 0 0 0 .066-.095c.077-.19.126-.398.218-.574.22-.413.596-.668.988-.892.433-.237.71-.605.892-1.039.125-.308.185-.637.269-.959a.9.9 0 0 0 .025-.304c-.001-.08-.024-.151-.036-.226-.023.073-.052.135-.083.206l-.01.033c-.126.451-.357.842-.62 1.223-.301.44-.687.783-1.102 1.106-.05.046-.13.047-.193.073.03-.063.047-.146.097-.193.375-.336.766-.667 1.036-1.1.182-.29.332-.59.483-.9.05-.1.045-.226.081-.34.029-.09.16-.164.053-.279-.067.068-.14.134-.229.213m-1.373-.731-.09-.029c.032-.043.06-.106.112-.125.371-.186.76-.313 1.186-.276.051.007.108-.028.159-.048-.052-.034-.096-.093-.155-.102-.178-.03-.356-.033-.535-.062a4.6 4.6 0 0 0-2.58.448c-.169.08-.323.174-.489.246-.032.017-.078-.007-.113-.009a.5.5 0 0 1 .044-.11.4.4 0 0 1 .115-.08c.529-.288 1.07-.527 1.657-.662.617-.143 1.224-.228 1.84-.005.042.013.081-.001.125.003-.025-.034-.047-.077-.085-.098-.22-.15-.468-.212-.73-.286-.486-.127-.963-.09-1.446.024-.55.129-1.044.392-1.546.652-.15.078-.31.16-.474.198-.314.06-.636.093-.953.135-.046.002-.088.025-.128.039.014.04.027.08.055.107.287.305.61.55.998.71.485.19.995.27 1.517.258.514-.015 1.01-.117 1.465-.366.432-.237.86-.486 1.292-.723.021-.011.04-.04.064-.06-.04-.013-.079-.06-.108-.052-.384.084-.77.175-1.189.257m6.061-2.255c-.104.075-.216.146-.311.223-.442.324-.887.63-1.253 1.05a2.62 2.62 0 0 0-.642 1.627c-.03.686.181 1.343.253 2.017-.005.016.025.035.035.057.021-.011.038-.034.06-.044.164-.18.3-.387.49-.532a4.26 4.26 0 0 0 1.342-1.753c.19-.458.255-.946.294-1.433.04-.434-.031-.886.22-1.287.009-.024-.005-.065-.003-.1-.032.017-.07.023-.086.045-.072.084-.137.18-.217.261-.398.41-.563.902-.598 1.462-.012.148-.015.299-.034.445-.005.044-.047.093-.076.128-.025-.035-.066-.074-.072-.112-.013-.103-.03-.216-.016-.317.022-.181.06-.356.09-.534.013-.041-.01-.083-.02-.132-.027.028-.07.05-.088.08-.087.16-.209.318-.255.49-.077.244-.22.466-.175.749.022.185-.003.374-.018.565-.005.044-.061.08-.093.123-.022-.043-.051-.088-.047-.131-.004-.1.008-.194.012-.291.002-.035-.014-.067-.022-.097-.027.028-.07.05-.08.083-.018.056-.014.13-.024.189-.01.032-.047.065-.074.092-.014-.04-.039-.075-.037-.11.013-.094.016-.192.053-.278.093-.239.193-.466.294-.702a.3.3 0 0 0 .01-.086c-.03.009-.062-.002-.086.018a.3.3 0 0 0-.087.107l-.483.677c-.03.036-.08.054-.115.08 0-.054-.023-.124-.002-.162.304-.564.717-1.05 1.15-1.51.267-.282.521-.576.775-.87 0 0-.022-.043-.062-.056m4.53-7.584c-.29.068-.552.19-.8.38-.532.411-.801.95-.867 1.608a2 2 0 0 0-.012.345c.006.038.05.07.082.106.013-.04.045-.084.05-.127.046-.2.04-.434.137-.6.334-.573.84-.957 1.483-1.128.215-.056.446-.081.67-.109.055-.009.121.039.183.068a1 1 0 0 1-.14.08c-.386.172-.79.32-1.156.517-.476.26-.806.655-.941 1.192-.059.214.027.393.246.463.22.07.437-.023.64-.074.472-.11.867-.341 1.155-.74.198-.286.382-.585.585-.86.235-.318.47-.663.918-.726.018-.003.04-.04.064-.06-.025-.007-.041-.04-.068-.038-.251-.054-.496-.096-.742-.164-.476-.134-.948-.221-1.467-.135m-3.13 2.961c-.122.077-.25.144-.365.223-.728.466-1.16 1.15-1.447 1.943-.086.241-.142.5-.202.75-.01.032.003.072.001.107.035-.025.075-.038.094-.068.055-.063.086-.16.144-.204.323-.229.637-.459.979-.663s.722-.361 1.063-.565a1.9 1.9 0 0 0 .755-.805c.097-.193.18-.399.269-.594.01-.032.02-.092 0-.115-.027-.026-.089-.029-.118-.02-.444.216-.89.413-1.31.664a2 2 0 0 0-.7.716c-.024.046-.101.066-.155.094.002-.062-.015-.12-.005-.18.015-.048.057-.097.084-.152a2.37 2.37 0 0 1 1.086-1.03 3.2 3.2 0 0 1 1.059-.298c.046-.003.093-.042.147-.069l-.17-.054c-.025-.008-.057.009-.083.01-.387.037-.747.156-1.118.314M35.37 57.12c-.195.305-.395.598-.574.907-.079.136-.128.29-.176.444-.008.024.014.067.012.102.03-.008.051-.02.08-.027.225-.09.442-.182.673-.26.11-.037.174-.07.242-.173.121-.185.275-.36.426-.525s.395-.26.344-.578c-.024-.151.065-.319.101-.486.013-.041-.007-.092-.01-.138-.026.001-.061-.002-.085.018-.363.188-.752.342-1.03.71m1.116.361c-.018.004-.05-.007-.064.007-.213.218-.44.431-.538.74-.067.21.024.4.292.342.43-.087.815-.26 1.096-.608.134-.171.3-.325.298-.575 0-.115.019-.226.035-.337.007-.05.031-.097.047-.146-.062-.002-.151-.03-.197 0a2.4 2.4 0 0 0-.404.318c-.236.238-.247.413-.076.691.019.024.028.054.044.086.064.11.024.123-.087.133-.396.008-.555-.221-.44-.64m-6.254 14.947c-.02-.051-.02-.105-.05-.15a2.4 2.4 0 0 0-.24-.29c-.027-.026-.102-.015-.15-.003-.018.003-.023.073-.02.119 0 .143.018.282.017.425.01.306.081.588.489.682a.6.6 0 0 1 .31.178c.2.216.431.272.702.206a7 7 0 0 0 .384-.11c.118-.035.124-.113.08-.198-.039-.075-.052-.177-.2-.127-.15.051-.347.078-.48.018a1.68 1.68 0 0 1-.84-.758m1.976 1.966c.053 0 .102-.013.155-.013-.03-.046-.058-.099-.088-.144-.1-.139-.225-.277-.302-.427-.07-.146-.134-.14-.262-.074-.385.2-.767.275-1.131-.037-.022-.016-.049-.015-.079-.034a.14.14 0 0 0 .002.08c.083.41.482.618.953.625.248.007.486.02.754.016M30.23 71.01c-.032-.01-.065-.02-.095-.04-.008.025-.026.055-.026.082.01.082.02.166.044.254.134.534.47.944.838 1.33.041.039.106.06.158.094.002-.062.014-.13-.003-.188-.207-.558-.438-1.095-.905-1.538m.99.592c-.018-.023-.04-.04-.059-.064-.117-.135-.233-.28-.361-.41-.028-.026-.081-.025-.133-.032.008.029.003.072.023.096.356.48.598 1.011.664 1.622.002.046.044.112.072.112.04.013.134-.03.141-.054.02-.145.069-.3.021-.43-.098-.281-.236-.549-.367-.84m.224-.197c.074.22.146.44.227.662.009.029.036.056.055.08.019-.03.053-.055.055-.09.036-.364.217-.655.475-.904.026-.027.038-.067.057-.097-.043-.005-.086-.01-.132-.006-.234.033-.46.068-.693.101-.064.007-.123.024-.187.03.035.056.06.118.096.174 0 0 .013.013.038.048m6.201-13.035a1 1 0 0 1 .112-.072 2 2 0 0 0-.143-.17c-.074.065-.202.132-.207.202 0 .115.121.012.184.04a.1.1 0 0 0 .053 0zm5.706-16.352c-.095-.771-.166-1.535-.283-2.287-.122-.77-.359-1.515-.628-2.244-.23-.627-.46-1.253-.68-1.877a.3.3 0 0 1-.024-.15c.007-.025.028-.09.052-.082.402.029.795.082 1.15.285.28.16.583.274.855.432.551.318 1.012.75 1.436 1.215.383.425.716.897 1.053 1.352.132.176.251.365.35.557.282.572.595 1.136.836 1.73.234.584.442 1.194.58 1.8.186.792.298 1.595.428 2.395.044.255.053.508.072.755.001.027-.02.066-.047.093-.019-.023-.049-.042-.057-.071q-.142-.474-.272-.944c-.263-.94-.498-1.89-.791-2.823-.153-.504-.394-.982-.608-1.46-.156-.353-.32-.71-.516-1.048-.538-.948-1.122-1.865-1.892-2.646-.432-.44-.908-.823-1.477-1.085-.29-.128-.585-.239-.878-.358-.04-.014-.091.006-.137.01a1 1 0 0 0 .053.114c.24.452.508.903.728 1.365.202.43.365.875.538 1.314.26.672.402 1.378.471 2.087.082.785.155 1.567.174 2.35.02.89-.004 1.785-.037 2.677-.014.326-.095.639-.144.962-.07.416-.133.842-.211 1.255-.06.33-.147.66-.196.983-.096.64-.165 1.278-.123 1.934.068.996.415 1.9.906 2.744.36.613.79 1.17 1.278 1.682a64 64 0 0 0 1.708 1.712c.65.626 1.334 1.227 1.98 1.86.689.675 1.332 1.379 1.863 2.181q.214.338.432.665c.016.032.05.069.05.095a.5.5 0 0 1-.031.151c-.036-.028-.084-.044-.109-.08-.148-.207-.284-.428-.445-.623a15 15 0 0 0-.843-.973q-.554-.578-1.147-1.114c-.485-.44-1-.845-1.498-1.27-.373-.316-.726-.642-1.096-.965a12.6 12.6 0 0 1-1.838-1.976c-.22-.293-.417-.597-.605-.907a6.3 6.3 0 0 1-.724-1.685 5.9 5.9 0 0 1-.198-2.161c.059-.58.158-1.147.234-1.721.085-.634.189-1.27.258-1.91.065-.57.113-1.143.115-1.714-.004-.858-.052-1.722-.088-2.59l.024.007zm21.57 7.553c-.231.364-.483.704-.679 1.07-.247.44-.45.911-.674 1.366l-.01.033c-.197.59-.407 1.166-.595 1.758-.162.511-.283 1.036-.419 1.546a102 102 0 0 1-.442 1.619c-.18.622-.34 1.24-.552 1.852-.186.53-.42 1.045-.648 1.563q-.216.507-.47 1.003a11.5 11.5 0 0 1-1.34 2.057c-.41.504-.868.965-1.394 1.352-.128.094-.261.176-.394.26-.032.016-.078.02-.119.033.018-.056.015-.13.052-.162.157-.156.327-.297.478-.464.662-.71 1.263-1.475 1.743-2.313.281-.492.54-.999.783-1.511.209-.434.404-.88.575-1.335.221-.555.41-1.12.614-1.68.147-.41.295-.818.426-1.231.368-1.16.704-2.331 1.08-3.489.155-.486.39-.947.594-1.419.339-.785.794-1.516 1.315-2.199.463-.612 1-1.156 1.589-1.657a9.4 9.4 0 0 1 1.906-1.279c.628-.319 1.25-.647 1.87-.969.928-.473 1.85-.93 2.769-1.407.47-.243.93-.508 1.369-.797.688-.451 1.367-.932 2.044-1.405.667-.468 1.229-1.057 1.788-1.639.279-.286.544-.586.825-.88.026-.028.083-.037.123-.05-.004.043.015.093-.006.132a8.3 8.3 0 0 1-1.626 2.082 15 15 0 0 1-1.527 1.24c-.474.34-.979.635-1.489.92q-1.013.574-2.043 1.12c-.451.24-.927.446-1.39.665-.492.228-.982.447-1.474.675-.463.22-.939.425-1.39.666a9.7 9.7 0 0 0-1.868 1.327c-.523.468-.995.97-1.412 1.552l.018-.003z"/><path fill="#c0c69f" d="M49.927 69.493c-.277-.337-.545-.673-.816-1-.014-.014-.036-.029-.047-.05a1 1 0 0 1-.061-.145c.05.007.129-.013.162.025.16.14.321.28.466.443a7.7 7.7 0 0 1 1.2 1.703c.303.595.594 1.197.896 1.793.446.874 1.07 1.608 1.793 2.257.597.538 1.22 1.048 1.942 1.42.382.202.765.404 1.17.56.558.212 1.114.433 1.687.57.615.142 1.24.198 1.872.264.693.068 1.377.106 2.067.156.418.035.83.058 1.247.093.097.004.198.027.294.058.265.066.519.138.781.212.041.013.081.025.106.06.027.026.05.069.074.103-.037.006-.078.02-.12.016-.906-.127-1.819-.122-2.729-.125-.608.003-1.226-.077-1.832-.135-.469-.042-.94-.076-1.389-.182a16 16 0 0 1-1.827-.544 9.5 9.5 0 0 1-1.268-.59c-.404-.218-.814-.446-1.182-.724a30 30 0 0 1-1.803-1.492c-.639-.577-1.096-1.303-1.455-2.087-.353-.772-.698-1.543-1.053-2.307-.053-.115-.13-.212-.198-.332l.023-.019m20.53-17.327c.59-.367 1.18-.706 1.75-1.07.627-.4 1.255-.799 1.857-1.233.557-.403 1.097-.84 1.61-1.301a10.7 10.7 0 0 0 1.787-2.059c.255-.382.5-.787.71-1.194a22 22 0 0 0 .683-1.534c.159-.387.301-.78.411-1.182.159-.584.28-1.188.225-1.804-.041-.433-.12-.86-.188-1.292-.004-.018-.012-.048-.007-.064a1 1 0 0 0 .028-.143c.025.035.08.061.085.099.105.4.221.793.289 1.199.11.58.063 1.153-.042 1.736-.13.718-.357 1.405-.609 2.084-.223.59-.54 1.142-.837 1.708-.5.958-1.196 1.773-1.972 2.5-.494.46-1.037.876-1.577 1.285-.378.29-.781.547-1.19.792-.75.45-1.51.877-2.278 1.295-.507.277-1.028.54-1.541.805-.062.026-.135.03-.202.044.043-.05.072-.112.127-.147.278-.171.571-.337.854-.524zM50.658 41.623c.193.882.286 1.769.264 2.655a13 13 0 0 1-.131 1.538c-.073.54-.17 1.072-.278 1.609-.08.421-.188.843-.286 1.266-.03.125-.053.252-.086.384-.008.024-.048.038-.062.052-.01-.021-.038-.048-.038-.075.023-.242.049-.493.08-.733q.092-.71.18-1.408c.052-.447.13-.888.147-1.337.025-.555.041-1.113.011-1.667a15 15 0 0 0-.214-1.8 13 13 0 0 0-.469-1.73 8.3 8.3 0 0 0-.69-1.486c-.283-.484-.645-.92-.993-1.37a1 1 0 0 0-.357-.283c-.07-.031-.226.008-.262.068a3 3 0 0 0-.304.565c-.098.254-.165.519-.247.778-.018.057-.085.098-.138.153-.025-.061-.077-.123-.075-.185.008-.167.027-.339.079-.501.093-.292.196-.59.313-.874.221-.528.61-.512 1.036-.225.41.281.718.665.985 1.063.308.464.619.947.863 1.443.308.634.504 1.312.67 1.999.008.03.008.056.022.096l-.018.003zm2.122 11.121c-.087.133-.152.255-.226.374-.01.033-.059.044-.083.063-.005-.037-.022-.07-.012-.102.108-.287.224-.563.34-.847.058-.152.128-.29.185-.441.096-.246.193-.493.273-.744.224-.652.46-1.31.66-1.97.126-.424.18-.872.275-1.315.131-.61.157-1.227.121-1.845-.032-.6-.114-1.189-.388-1.731a7 7 0 0 0-.45-.75c-.126-.192-.22-.204-.387-.043-.337.33-.65.696-.995 1.023-.205.195-.387.432-.679.481-.048.011-.11-.017-.165-.016.04-.04.072-.085.112-.126.27-.262.547-.513.804-.789.268-.281.503-.6.779-.878.241-.254.513-.239.761-.008.525.488.818 1.107.984 1.795.144.59.174 1.198.15 1.807-.01.371-.078.752-.159 1.119a21 21 0 0 1-.44 1.753 14 14 0 0 1-.608 1.548c-.235.516-.516 1.006-.783 1.511-.013.041-.025.081-.05.128z"/><path fill="#c0c69f" d="M77.248 51.278a11.6 11.6 0 0 1-1.82 1.851c-.334.269-.705.508-1.065.742a9 9 0 0 1-.855.497c-.36.18-.738.328-1.112.495a54 54 0 0 1-1.228.52c-.029.01-.075-.014-.11-.017.019-.03.034-.078.066-.094.468-.236.939-.453 1.4-.699.896-.484 1.787-.986 2.56-1.652.53-.457 1.038-.93 1.474-1.488.394-.51.81-1.003 1.18-1.527.246-.351.44-.736.657-1.114.274-.467.417-.974.536-1.49.111-.492.131-1.004.167-1.51.02-.289-.005-.574-.001-.867-.001-.08.049-.155.075-.236.022.07.064.137.076.212.092.61.13 1.22.072 1.827-.028.286-.065.57-.125.844-.063.284-.12.578-.235.855a10 10 0 0 1-1.709 2.851zM55.765 49.7c-.087-.403-.165-.804-.286-1.181-.114-.375-.285-.734-.417-1.106-.04-.102-.04-.21-.061-.314.079.06.176.118.224.196.195.312.396.634.56.963.372.743.52 1.54.527 2.364 0 .617-.034 1.23-.162 1.833-.096.443-.2.882-.302 1.315-.059.24-.109.484-.192.716-.147.436-.305.877-.49 1.292-.184.414-.4.81-.607 1.21-.013.04-.058.07-.087.105-.003-.045-.02-.104-.007-.145.24-.808.504-1.617.727-2.43.151-.533.26-1.07.36-1.61.091-.516.183-1.031.214-1.548.03-.545 0-1.099 0-1.66zM67.18 75.229a9 9 0 0 1-.376-.584c-.022-.042-.045-.085-.056-.133-.008-.03.015-.049.017-.084.025.008.07.005.081.026.305.392.583.81.911 1.182.438.478.907.94 1.398 1.364.428.368.885.7 1.355 1.02.484.331.997.628 1.5.93.45.269.912.531 1.376.786.298.157.612.293.91.45.478.24.957.473 1.432.722.391.205.776.425 1.164.638.038.021.066.074.09.109-.056.009-.11.037-.158.021-.433-.155-.863-.319-1.294-.482a13 13 0 0 1-.91-.369c-.35-.164-.694-.345-1.05-.52-.33-.168-.663-.327-.99-.511-.477-.268-.965-.53-1.419-.844a23 23 0 0 1-1.695-1.244c-.782-.632-1.458-1.373-2.07-2.175-.077-.096-.143-.197-.233-.306l.016.005zm-4.356 5.966c-.12-.412-.262-.806-.375-1.208-.148-.52-.268-1.04-.397-1.564-.008-.03-.017-.059-.01-.083.023-.073.044-.138.076-.209.043.06.1.104.118.163.244.694.47 1.39.732 2.081.21.549.441 1.086.715 1.602.41.764.904 1.457 1.561 2.032.447.392.927.74 1.487.972.214.085.423.187.639.238.28.072.577.094.863.15.057.017.109.051.163.078-.046.03-.088.08-.14.099-.318.104-.634.057-.946.002a2.3 2.3 0 0 1-.465-.111 6 6 0 0 1-1.94-1.116 5.6 5.6 0 0 1-1.329-1.61c-.263-.494-.504-1-.743-1.513zm12.474-24.026c.312-.25.62-.464.913-.71.49-.417.85-.936 1.193-1.48.128-.209.244-.431.365-.643.004-.016.02-.065.012-.068a.4.4 0 0 0-.135-.025c-.33.056-.66.138-.988.186-.879.123-1.758.193-2.642.135-.113-.009-.219-.043-.327-.068a.2.2 0 0 1-.07-.058c.031-.016.058-.044.088-.052a2 2 0 0 1 .358-.002c.843.044 1.679-.003 2.503-.206.434-.103.864-.217 1.299-.32.105-.02.203-.05.305.052.093.101.108.195.067.325-.209.656-.594 1.222-1.022 1.756-.396.49-.853.917-1.379 1.25-.383.253-.817.437-1.232.645-.585.297-1.22.443-1.854.609-.37.097-.754.154-1.138.21-.478.071-.961.132-1.446.193-.056.01-.11-.017-.162-.025.048-.038.102-.092.158-.101.303-.055.607-.084.902-.143.91-.166 1.815-.343 2.674-.687.53-.207 1.035-.502 1.553-.784zm-18.194-3.053a5.2 5.2 0 0 0-.274-1.721c-.023-.07-.056-.134-.07-.201-.01-.03.004-.07.006-.105.04.013.089.001.127.023.032.01.054.053.08.087.38.657.573 1.37.603 2.121.032.77.02 1.542.044 2.31.016.486.144.955.36 1.4.174.35.346.707.521 1.058.075.158.182.298.259.448.103.212.205.423.297.64.008.029-.005.07.002.107-.033-.01-.084-.017-.106-.033a26 26 0 0 1-.57-.788c-.281-.41-.57-.824-.837-1.248-.396-.635-.53-1.338-.498-2.087.033-.669.048-1.334.065-2.007l-.008-.003m11.421 27.398c-.036-.057-.067-.102-.097-.147.048.015.11.017.157.04.543.316 1.08.647 1.64.94.373.2.777.364 1.17.533.612.266 1.256.346 1.909.428.499.06.994.047 1.48-.022.75-.11 1.45-.379 2.052-.866a1 1 0 0 1 .101-.066c.021-.011.049-.011.075-.012.009.03.026.061.01.083-.037.06-.076.127-.121.185a3.76 3.76 0 0 1-1.84 1.068 6 6 0 0 1-1.839.139c-.288-.02-.569-.092-.847-.144-.192-.044-.386-.078-.57-.145a6.8 6.8 0 0 1-1.83-.93c-.49-.342-.958-.697-1.448-1.066l-.003-.019m5.409-20.162a1 1 0 0 1 .113-.214c.034-.051.09-.087.139-.126.027.054.087.117.074.158-.07.335-.119.685-.246 1.002a2.8 2.8 0 0 1-.65.982 19 19 0 0 1-.97.889c-.5.422-1.083.71-1.677.977-.783.359-1.617.567-2.451.775-.204.052-.408.103-.617.144-.067.014-.148-.012-.219-.016.06-.044.104-.102.165-.126.351-.121.705-.223 1.056-.344.39-.135.785-.278 1.173-.432.318-.131.635-.254.93-.427.732-.42 1.428-.896 2.03-1.5.331-.34.625-.703.87-1.108.113-.187.19-.403.287-.623l-.006-.011m-4.238 5.192c-.558.35-1.11.684-1.66 1.036a26 26 0 0 0-1.263.858c-.397.294-.67.707-.948 1.102-.06.078-.102.181-.162.26-.032.044-.099.058-.142.08-.008-.056-.034-.118-.013-.155.367-.875.86-1.665 1.673-2.202.383-.253.768-.506 1.166-.746.496-.298 1.02-.569 1.51-.877.337-.215.65-.473.972-.7.06-.044.145-.062.217-.093-.02.066-.033.133-.062.195-.257.499-.696.815-1.134 1.123q-.066.046-.151.112l-.003.009zm.655 18.702c-.246-.069-.476-.106-.692-.184a5.5 5.5 0 0 1-1.759-1.014c-.67-.56-1.228-1.22-1.747-1.92a8 8 0 0 1-.3-.462c-.025-.035-.004-.1-.007-.146.04.013.089.029.114.063.388.41.763.832 1.164 1.227.292.29.595.573.927.821.368.278.745.55 1.166.745.411.194.87.294 1.311.426.382.12.785.088 1.172.023.225-.035.445-.108.668-.162.056-.01.115 0 .167.008 0 0 .018.085-.004.097-.487.407-1.074.516-1.683.52-.161.002-.323-.023-.496-.042zM54.2 64.447c-.336-.32-.632-.656-.964-.959a3.5 3.5 0 0 0-1.573-.811c-.232-.056-.47-.07-.707-.109l-.098-.03c.026-.028.047-.066.074-.066.178-.024.368-.062.538-.036.334.044.666.096.982.197a4.1 4.1 0 0 1 1.52.92c.495.469.965.958 1.448 1.433.382.37.863.514 1.38.545.148.011.297.05.448.08.024.008.049.042.076.07-.023.018-.05.046-.08.054-.539.15-1.086.245-1.61.007-.281-.126-.543-.343-.772-.549-.242-.22-.443-.488-.683-.744l.018-.003zm19.162-3.455c-.27.147-.521.317-.789.429-.47.19-.942.38-1.438.508-.66.165-1.337.272-2.002.4-.03.009-.066-.02-.098-.03.026-.028.037-.06.067-.068.41-.138.825-.266 1.237-.411a39 39 0 0 0 1.583-.57c.305-.116.604-.245.885-.397.67-.368 1.296-.794 1.797-1.386.338-.392.626-.819.829-1.29.065-.15.114-.303.185-.441.015-.049.08-.082.125-.112.003.046.03.099.018.14l-.301.949c-.14.438-.411.816-.722 1.146-.31.33-.658.612-1.002.906-.109.09-.243.146-.376.228zm-9.2-4.777c.158-.834.37-1.642.66-2.417.16-.422.386-.823.594-1.222.07-.139.173-.267.26-.4.02-.03.06-.044.083-.063.006.038.025.088.008.118-.233.453-.499.896-.691 1.361-.167.411-.263.855-.383 1.29a5 5 0 0 0-.125.505c-.077.44-.151.872-.229 1.312a6 6 0 0 1-.14.67c-.166.635-.332 1.27-.53 1.894-.173.544-.492 1.014-.81 1.484-.153.228-.298.46-.451.688-.008.024-.056.035-.078.047-.01-.049-.052-.115-.033-.145.07-.166.162-.315.248-.475.197-.367.41-.727.59-1.1a5 5 0 0 0 .323-.79c.11-.349.178-.702.264-1.059.049-.18.092-.372.14-.553l.285-1.151.016.005m2.409 17.866c.115.68.26 1.35.259 2.029.002.161-.03.321-.044.477a.3.3 0 0 1-.042.076c-.02-.023-.058-.044-.066-.074-.089-.367-.183-.745-.271-1.113-.222-.99-.306-2.017-.632-2.987a9 9 0 0 0-.392-1.017c-.183-.407-.41-.791-.606-1.184-.017-.032-.01-.083-.024-.123.049.015.113.009.146.046.074.077.143.17.2.27.228.41.467.808.664 1.228.339.705.576 1.45.753 2.212.01.056.029.108.052.177l.005-.015zM44.377 51.56c.07.227.116.447.2.661.168.428.384.818.703 1.161.033.037.036.083.058.126-.053 0-.12.015-.148-.011-.183-.156-.376-.307-.516-.485-.59-.759-.809-1.642-.764-2.6.023-.466.114-.92.236-1.363.134-.476.267-.952.332-1.44.069-.496.04-.996.057-1.5.004-.043.028-.09.041-.13.033.037.076.07.082.106.028.25.072.505.062.76a10.6 10.6 0 0 1-.258 1.714c-.15.64-.278 1.297-.239 1.96.025.347.094.69.148 1.056l.005-.016m28.895 18.558c.102-.236.195-.447.292-.667a.36.36 0 0 1 .097-.165c.048-.038.124-.05.183-.068.014.067.055.134.046.193-.049.182-.116.365-.173.544-.09.284.026.874.28 1.062.073.05.154.103.204.172.068.094.015.149-.084.152-.16-.005-.321-.03-.48-.037a.706.706 0 0 0-.72.468c-.133.306-.203.641-.306.966-.104.325-.013.094-.04.122-.041.049-.108.09-.164.126-.026-.062-.083-.134-.076-.185.043-.246.114-.5.149-.748.071-.477.01-.934-.336-1.303l-.016-.005-.101-.273c.091-.007.199-.035.28-.01.364.09.74.03.985-.347m-.03.4c-.107.056-.203.133-.308.153-.16.029-.336.018-.503.037-.027 0-.05.046-.077.074a.97.97 0 0 1 .307.75c-.008.024.03.045.05.069.02-.011.037-.034.053-.055.026-.028.047-.065.066-.095.126-.228.474-.395.73-.358.024.008.054 0 .08-.001-.008-.03-.014-.067-.03-.1-.054-.141-.11-.275-.154-.415-.018-.058-.024-.123-.032-.18-.057.036-.101.067-.18.113zM37.674 47.467c-.097-.343-.232-.646-.545-.843-.103-.069-.089-.198.036-.257.188-.084.389-.127.578-.218.273-.127.43-.372.56-.635.096-.193.193-.385.295-.567.022-.038.08-.055.126-.085 0 .053.02.104.004.153-.23.695-.107 1.323.347 1.887.053.061.065.19.034.26-.016.049-.162.057-.24.05-.256-.037-.52-.05-.67.197a3.2 3.2 0 0 0-.267.648c-.06.186-.08.394-.132.582-.015.049-.093.07-.141.107-.02-.05-.067-.1-.067-.155.009-.14.042-.273.051-.413.013-.236.026-.474.035-.73m.644-.418c.078-.02.15-.05.233-.06.129-.012.153-.032.098-.166-.096-.236-.16-.48-.234-.726-.008-.03-.025-.062-.034-.09-.034.024-.074.038-.093.068-.182.264-.433.407-.75.477a.3.3 0 0 0-.101.04c.016.031.028.08.05.095.236.182.326.434.381.71.008.03.028.054.047.078.026-.027.059-.044.07-.076.038-.175.184-.245.342-.347zm15.561 26.318c.37.323.718.665 1.106.932.38.264.79.491 1.21.687.478.214.973.371 1.47.547.171.054.334.132.534.035.054-.028.233.083.253.16.045.14-.1.174-.208.175-.185-.006-.371-.01-.546-.049-.3-.068-.6-.137-.887-.245-.533-.205-1.046-.448-1.51-.783-.428-.314-.852-.637-1.224-1.013-.367-.366-.669-.793-.989-1.19-.033-.037-.017-.112-.019-.166.036.029.093.047.117.082.227.269.463.54.693.827m6.514-25.418c-.188-.14-.107-.337-.096-.513.023-.413.016-.808-.208-1.173a2 2 0 0 0-.233-.28c-.18-.191-.16-.256.087-.33.325-.093.647-.178.893-.422.116-.114.204-.22.217-.404.014-.183.098-.362.17-.536.016-.048.094-.068.15-.104.008.056.023.123.015.175-.08.394-.182.8-.02 1.19.064.164.198.304.3.462.044.06.074.131.108.195-.075.039-.155.094-.233.114-.134.029-.269.03-.403.06-.244.038-.363.215-.47.412-.152.283-.102.575-.14.866-.016.103-.07.192-.12.293m.727-2.207c-.023-.097-.038-.19-.063-.28-.006-.037-.02-.078-.028-.107-.035.025-.075.039-.11.064-.267.138-.526.28-.79.41-.032.016-.078.02-.118.033.022.043.033.091.063.11.196.142.283.349.334.58.009.028.036.055.045.085.016-.022.04-.04.058-.07.132-.191.286-.366.516-.444.07-.023.147-.043.214-.057-.028-.08-.064-.164-.092-.244-.004-.018-.017-.032-.04-.075z"/><path fill="#c0c69f" d="M78.392 46.666c.017.059.042.148.019.193a12.3 12.3 0 0 1-2.106 2.582c-.558.52-1.133 1.007-1.71 1.503-.305.26-.624.507-.936.756-.034.025-.061.052-.096.077-.02.011-.056.01-.085.018.002-.035-.02-.078-.005-.1a2 2 0 0 1 .212-.245c.723-.618 1.455-1.235 2.18-1.862a13 13 0 0 0 2.245-2.511c.095-.13.184-.272.293-.416zM64.607 81.065c.193.374.363.74.567 1.082.41.702.92 1.32 1.552 1.832q.035.025.082.053c-.006-.038-.001-.08-.018-.113-.123-.173-.26-.333-.392-.509-.03-.045-.037-.11-.056-.16.056.017.14.008.178.056.294.254.586.517.87.776.036.029.042.093.072.139a.5.5 0 0 1-.141-.063l-.377-.333c-.021-.016-.051-.034-.081-.053.005.038 0 .08.017.113.085.125.184.237.272.355.025.034.052.061.077.096.016.032.012.075.017.113-.037.005-.088.025-.118.007-.16-.087-.334-.16-.475-.276-.57-.457-1.07-.991-1.428-1.632-.288-.502-.54-1.028-.806-1.542a.4.4 0 0 1-.036-.136c0-.027.02-.065.041-.076s.068.012.081.026c.04.074.06.153.103.238l-.003.008zM62.58 61.847c-.2.232-.414.431-.69.567-.04.014-.064.06-.098.084l.13.042c.073.023.16.033.235.048-.029.089-.041.183-.083.26-.097.165-.21.325-.316.489-.019.03-.059.043-.093.068-.014-.04-.052-.088-.045-.112.079-.163.174-.32.263-.488.01-.033.029-.063.047-.093l-.098-.03c-.1.003-.202.015-.301.02-.062-.003-.122-.04-.179-.057.026-.055.041-.13.09-.169.175-.131.373-.248.549-.38a3.8 3.8 0 0 0 1.04-1.196.2.2 0 0 1 .061-.079c.054-.028.104-.047.158-.075-.002.062.018.14-.006.186q-.32.46-.665.914zm-7.826-12.736c-.02.146-.015.272-.054.394-.128.46-.232.927-.4 1.373-.194.5-.452.973-.684 1.453-.052.109-.088.222-.147.32-.013.041-.071.058-.108.09-.012-.048-.04-.1-.027-.142.08-.197.172-.4.261-.596.11-.233.241-.45.327-.69.17-.456.337-.92.478-1.394.108-.34.144-.705.227-1.054.033-.105.097-.192.146-.292.004.1.011.19.007.288-.005.07-.02.145-.04.237zM40.208 73.945c.048.355.112.688.157 1.024.012.049-.033.105-.049.154-.033-.037-.087-.063-.1-.104-.145-.447-.35-.869-.282-1.366a1.6 1.6 0 0 1 .352-.826c.087-.106.194-.188.28-.295.072-.084.13-.066.191-.01.009.002-.025.08-.057.124-.25.394-.508.785-.5 1.296zm9.442-9.317c.127-.12.262-.176.42-.143.187.032.298.13.342.331a.55.55 0 0 1-.221.528c-.22.154-.427.079-.534-.035-.175-.18-.183-.406-.03-.608.008-.024.015-.048.034-.078zm18.973 17.596c.408.433.862.773 1.361 1.057.288.163.594.296.895.445.033.01.076.041.106.033.104-.047.121.039.146.1-.058.017-.13.048-.182.04-.686-.119-1.222-.512-1.753-.922-.367-.278-.71-.574-.948-.98 0 0-.008-.003-.003-.019-.007-.064-.021-.131-.027-.196.049.043.12.074.158.122q.125.148.255.322zm-8.643-7.852c-.197-.027-.38-.04-.57-.065-.043-.005-.096-.004-.14-.009.033.037.063.083.101.104.103.069.217.105.308.187.062.055.085.152.124.227-.067.014-.14.045-.21.04a3.2 3.2 0 0 1-1.322-.42c-.038-.02-.05-.095-.08-.14.065-.007.126-.032.173-.008.316.1.627.217.938.334.016.005.038-.006.06-.017a.2.2 0 0 0-.045-.06c-.09-.081-.193-.15-.28-.24-.041-.04-.077-.123-.057-.161.013-.041.11-.064.164-.064.12.012.243.05.361.07l.502.079c.048.015.108.025.16.033-.038.033-.083.063-.12.096-.014.013-.032.017-.07.023zm-3.113.235c-.068-.066-.131-.121-.17-.197-.019-.024-.003-.073.001-.116.033.01.073.023.103.042.441.381.947.676 1.514.829.354.095.73.088 1.094.124.032.01.073-.004.1-.004q.099.028.191.07c-.07.023-.128.066-.203.079a2.7 2.7 0 0 1-1.596-.204c-.358-.167-.682-.413-1.043-.626zm14.398-12.352a46 46 0 0 1 1.225-.54c.043-.022.108.025.164.043a.5.5 0 0 1-.093.096c-.53.233-1.054.478-1.588.701-.072.03-.17.026-.247.047-.04.013-.064.06-.099.084.033.01.073.023.108.025.024.008.053 0 .068.012.032.01.049.043.076.07-.023.019-.042.049-.071.057a6 6 0 0 1-.448.17c-.029.008-.075-.014-.108-.025.024-.019.043-.049.067-.068l.192-.1a2 2 0 0 0-.231-.028c-.033-.01-.076.012-.1.004-.04-.013-.073-.05-.109-.08.035-.024.07-.05.101-.066.292-.103.594-.212.886-.316.062-.026.121-.042.193-.073zm-24.716-6.907a34 34 0 0 1-.432-.665c-.017-.032-.001-.08-.008-.118.041.013.09.029.117.055.449.642 1.008 1.186 1.575 1.732.077.069.156.13.219.212.027.027.01.083.02.132-.032-.01-.075-.015-.105-.033a5.3 5.3 0 0 1-1.34-1.292s-.024-.008-.038-.022l-.009-.002zm.911-15.438c-.045-.112-.096-.208-.126-.308-.009-.03.007-.078.009-.113.038.022.097.031.103.069.212.487.444.962.627 1.458.126.335.193.686.28 1.028a.6.6 0 0 1 .03.187c-.002.035-.031.07-.052.109-.035-.03-.092-.047-.098-.085-.051-.177-.094-.351-.144-.528-.152-.477-.3-.943-.46-1.423-.039-.128-.108-.248-.172-.385zm25.356 19.23c-.169.053-.335.1-.49.139-.019.003-.057-.018-.081-.026.016-.022.026-.054.047-.065.268-.111.535-.223.8-.327.297-.12.592-.231.886-.343l.546-.201c.03-.009.073.023.114.036-.019.03-.037.086-.074.092-.434.184-.875.365-1.308.55-.142.053-.284.106-.445.161zm2.24-3.906c-.234.006-.455 0-.678 0-.035-.003-.065-.022-.095-.04.026-.028.055-.062.082-.063.188-.03.38-.04.576-.068.496-.074.99-.167 1.487-.242.086-.018.17 0 .262-.006-.07.05-.13.129-.206.14-.47.101-.942.184-1.428.28M51.25 45.748c-.002-.107-.006-.207.022-.296.02-.065.082-.117.127-.173.02.05.055.106.056.16.004.466-.019.932-.128 1.389a20 20 0 0 1-.173.66c-.008.023-.05.046-.075.065-.008-.03-.033-.064-.033-.09.041-.273.1-.54.133-.816.04-.29.054-.59.071-.897zm22.79 37.133c-.25 0-.49-.004-.73-.008l-.089-.029c-.03-.018-.055-.053-.082-.079.03-.008.07-.023.096-.023.286.002.58.006.865.007a4.1 4.1 0 0 0 1.42-.282c.05-.02.115 0 .172-.008-.042.05-.068.13-.117.141q-.544.152-1.1.259c-.142.026-.29.015-.454.025zM55.819 54.986l.278-.877c.01-.032.015-.075.033-.105.03-.036.08-.055.115-.08.003.047.025.089.02.132-.1.37-.21.746-.317 1.114l-.15.47c-.015.049-.077.074-.114.108-.011-.049-.03-.1-.026-.143.046-.2.102-.405.155-.63zm18.146-3.322c.08-.082.146-.15.22-.216.037-.033.091-.06.136-.09-.004.07.014.155-.018.2-.138.152-.268.307-.438.422-.25.17-.515.3-.785.448-.031.016-.09.007-.134.002.03-.044.057-.098.103-.128q.405-.273.824-.542a1 1 0 0 0 .101-.093zm-30.19 27.138c-.14.099-.268.084-.369-.02-.093-.1-.076-.237.003-.347.074-.092.18-.175.319-.104.125.057.176.261.091.386-.016.022-.026.054-.052.082zm32.895-1.9c-.117-.028-.254-.018-.308-.098-.085-.098-.044-.228.054-.34.1-.12.21-.068.309-.018.141.063.12.324-.044.45zm-14.744-13.61c.07-.05.12-.097.179-.14-.007.077.016.175-.024.215-.22.243-.461.47-.695.7-.026.027-.088.025-.13.047.015-.049.014-.103.043-.138.165-.18.334-.35.499-.529.042-.049.076-.1.129-.155m5.947-23.528c-.075.236-.3.325-.426.16-.052-.061-.094-.208-.063-.252a.42.42 0 0 1 .275-.136c.111-.01.212.067.216.22zm7.34 42.623a6 6 0 0 1-.5.082c-.037.006-.08-.025-.122-.038.038-.034.064-.088.112-.1.147-.041.3-.074.445-.108.156-.04.305-.09.461-.13.038-.005.081.026.122.039-.019.03-.03.062-.05.073-.155.067-.305.117-.469.182m-17.038-1.515c.171-.062.283.01.325.156.029.107-.018.227-.139.242-.075.012-.194-.008-.249-.062-.114-.116-.06-.233.07-.335zm-5.879-44.775c-.097-.12-.06-.206.05-.27.1-.066.211-.076.293.031.071.085.121.209.031.296-.08.082-.208.12-.315.007-.013-.013-.036-.029-.054-.053zM32.842 51.998c.144-.089.273-.075.35.048.073.112.023.24-.105.28-.07.022-.194.018-.243-.025-.084-.071-.126-.191-.01-.306zM81 59.942c-.142-.062-.21-.156-.136-.276.038-.067.173-.123.238-.102.065.02.13.149.133.23-.001.115-.067.21-.235.148m-20.873-4.188c-.037.006-.056.01-.08.002-.13-.042-.18-.137-.146-.27a.14.14 0 0 1 .106-.081c.115-.026.236-.014.272.122.034.118-.032.186-.154.236zm1.405 8.519c-.128.12-.25.225-.373.329-.034.025-.08.027-.12.041.007-.05-.013-.129.024-.162.117-.114.245-.208.368-.312.013-.013.032-.017.054-.028.05-.02.107-.028.166-.046-.034.052-.06.106-.1.174zM48.723 43.526c.018.14.03.27.024.401-.002.035-.023.073-.036.114-.027-.026-.081-.053-.082-.08a23 23 0 0 1-.037-.753.3.3 0 0 1 .041-.076c.02.024.065.047.066.074.012.103.013.21.029.331zm-.097 13.749c.062.002.135-.003.187.032.152.11.283.233.422.357.021.016.025.062.034.091-.027 0-.06.017-.073.004q-.286-.241-.567-.493zm24.738-2.033c.145-.062.276-.11.418-.136.049-.01.114.036.176.065-.043.023-.082.063-.123.077-.139.045-.27.093-.415.127-.03.009-.065-.02-.1-.022a.6.6 0 0 1 .044-.111m-24.083 2.142c.131-.048.446.115.48.232.009.03.004.073-.007.078-.029.008-.075.012-.097-.004a5 5 0 0 1-.384-.31zM60.33 74.082a5 5 0 0 1-.47-.07c-.032-.01-.054-.053-.082-.079.035-.025.083-.063.107-.055.162.051.308.124.455.198zm10.215-11.028c.057.018.103.015.146.02-.024.019-.045.057-.067.068a8 8 0 0 1-.342.123c-.021.011-.049-.015-.076-.014.008-.025.021-.066.034-.079.096-.05.196-.08.316-.123zm.657-3.444c-.11.036-.223.053-.343.069a.1.1 0 0 1-.049-.043c-.005-.01.002-.035.016-.048.092-.095.26-.087.384.024zm-15.474-3.466c.02.105.027.196.044.282a.5.5 0 0 1-.118.008c-.004-.1-.005-.208-.01-.306.024.007.053 0 .084.017m16.971-.775c.082-.01.166-.019.236-.014l.006.064c-.088.025-.176.078-.262.068-.077-.007-.073-.076.018-.11zm-16.923 1.183c.041-.076.079-.136.115-.026.015.067-.01.148-.026.224l-.056.009c-.017-.06-.023-.123-.035-.199zm-5.857.731c-.043.022-.107.055-.147.042-.041-.013-.066-.074-.088-.117 0 0 .064-.06.071-.057q.08.053.164.131m-9.749.022a.6.6 0 0 1 .027-.116c.038.048.087.09.123.146.011.021-.018.057-.028.09-.03-.02-.067-.04-.095-.066-.015-.006-.016-.032-.035-.057zM75.536 81.99c-.056.008-.104.02-.15.023.028-.035.055-.09.095-.103.02-.011.07.031.108.052q-.018.007-.056.035l.002-.008zM50.741 48.668c-.066-.155.057-.125.124-.139 0 .027.02.078.007.091a.3.3 0 0 1-.126.058zM40.666 59.257c-.041-.04-.063-.082-.094-.128.03-.008.064-.006.094-.015.003.046.007.091 0 .143M32.97 71.54c.048-.037.08-.081.117-.087.048-.011.102.015.16.033-.022.038-.042.076-.07.103-.058.044-.13.074-.194.108a.6.6 0 0 1-.015-.148zm-.685-1.351c-.009-.057-.02-.132 0-.144.153-.085.319-.158.476-.233.021-.01.068.04.085.072.006.011-.023.073-.061.08-.169.08-.334.152-.508.222zm5.682 1.116c-.041-.013-.103-.042-.104-.069.02-.118.05-.243.09-.365.002-.008.05-.02.067-.014.015.005.03.045.025.061-.02.119-.05.243-.075.378z"/><defs><filter id="a" width="105.654" height="93.9" x="9.442" y="16.305" color-interpolation-filters="sRGB" filterUnits="userSpaceOnUse"><feFlood flood-opacity="0" result="BackgroundImageFix"/><feColorMatrix in="SourceAlpha" result="hardAlpha" values="0 0 0 0 0 0 0 0 0 0 0 0 0 0 0 0 0 0 127 0"/><feOffset dx="4" dy="4"/><feGaussianBlur stdDeviation="2"/><feComposite in2="hardAlpha" operator="out"/><feColorMatrix values="0 0 0 0 0 0 0 0 0 0 0 0 0 0 0 0 0 0 0.25 0"/><feBlend in2="BackgroundImageFix" result="effect1_dropShadow_40000074_22592"/><feBlend in="SourceGraphic" in2="effect1_dropShadow_40000074_22592" result="shape"/></filter></defs></svg>