<svg width="116" height="141" viewBox="0 0 116 141" fill="none" xmlns="http://www.w3.org/2000/svg">
<g filter="url(#filter0_d_16_19451)">
<path fill-rule="evenodd" clip-rule="evenodd" d="M55.2794 0.00683594C56.7968 0.0664595 58.2192 0.560256 59.418 1.49707C60.5377 2.37221 61.2302 3.45144 61.6758 4.33301L61.9258 4.85156C62.1619 5.36353 62.3658 5.87662 62.542 6.38867C63.4639 6.2038 64.4256 6.14871 65.4229 6.23926L65.8516 6.28711L65.8731 6.29004C66.4744 6.37207 67.1997 6.48277 67.8887 6.67676C68.6024 6.87772 69.58 7.24743 70.4854 8.03613C71.5277 8.9442 72.0645 10.063 72.3545 11.0107C72.648 11.2846 72.8933 11.5093 73.1426 11.7275C74.2552 12.067 77.178 12.8917 78.8047 15.7598C90.8219 22.738 100.032 32.4772 106.02 45.1943L106.306 45.8105V45.8115C108.628 50.8722 109.653 56.1271 110.172 61.2344C112.009 79.321 106.578 95.1882 95.5801 109.043L95.5811 109.044C91.4647 114.232 86.5252 118.774 80.3965 122.008L79.7999 122.316C78.6292 122.91 77.3988 123.268 76.2569 123.457H76.252C76.248 123.458 76.2434 123.459 76.2393 123.46V123.459C75.3889 123.601 74.5584 123.694 73.8506 123.771C73.4951 123.809 73.1707 123.844 72.8653 123.879C72.1456 125.459 70.9565 127.19 68.8692 128.131C67.8487 128.591 66.8307 128.764 65.8624 128.76C65.539 130.007 65.0064 131.218 64.3243 132.281L64.3194 132.29C63.0393 134.275 60.8611 135.728 58.2256 135.677C55.6279 135.626 53.5363 134.132 52.3028 132.209L52.3008 132.208C51.7932 131.416 51.3581 130.596 50.9922 129.754C48.8261 130.326 46.8245 130.001 45.5303 129.74C44.3482 129.502 42.7402 128.893 41.6133 127.194C41.3175 126.748 41.0948 126.272 40.9249 125.819C40.6435 125.615 40.3577 125.408 40.0616 125.193C35.9387 125.061 32.5854 123.265 30.0128 121.662L30.0108 121.661C22.099 116.728 14.5423 110.658 9.36724 101.888C2.77052 90.7068 -0.756341 78.3507 0.136775 65.1143C1.0656 51.3312 5.71613 38.6106 15.1319 27.8623C20.5393 21.6885 26.8317 16.4085 34.7051 12.9551C35.877 12.4414 37.3992 11.7298 38.8184 11.1572C38.8237 11.1551 38.8298 11.1535 38.835 11.1514C39.4013 10.9255 39.9389 10.8235 40.3545 10.7754C41.2416 9.19121 42.6443 7.42462 44.9669 6.66992C45.8799 6.37331 46.7687 6.28657 47.6114 6.33789C47.9067 5.52808 48.2706 4.7458 48.6954 3.99219C49.4309 2.68683 51.2828 0.02544 54.9219 0L55.2794 0.00683594ZM55.0987 4.57617C53.8981 4.52867 53.2052 5.30278 52.6788 6.2373C51.8566 7.69572 51.3778 9.26178 51.2891 10.9404C51.2654 11.4463 51.1824 11.9526 51.1114 12.6133C50.5734 12.2622 50.2308 12.0169 49.8702 11.8086C46.9895 10.1716 45.403 10.7142 43.9952 13.6904C43.5811 14.5593 42.8181 15.1848 41.7774 15.2861C41.3635 15.3277 40.9019 15.2509 40.5294 15.3994C39.1867 15.9411 37.8729 16.5602 36.542 17.1436C29.4439 20.2569 23.6703 25.0551 18.5713 30.877C9.89368 40.7828 5.56885 52.5167 4.69928 65.4229C3.87711 77.6087 7.10748 89.0564 13.3067 99.5635C17.9502 107.433 24.8118 113.03 32.4307 117.78C35.0866 119.435 37.8552 120.786 41.1085 120.613C41.4038 120.601 41.705 120.679 41.6114 120.667C42.8653 121.578 43.824 122.275 44.9004 123.055C45.2316 124.614 45.4571 125.06 46.4327 125.257C48.0592 125.584 49.6804 125.722 51.1827 124.716C52.0167 124.156 52.9104 123.674 53.9278 123.066C54.0578 123.709 54.1693 124.168 54.2403 124.632C54.5242 126.465 55.1518 128.181 56.1514 129.74C57.293 131.52 59.3399 131.573 60.4756 129.812C60.9606 129.056 61.3274 128.168 61.5108 127.293C61.8065 125.882 61.9016 124.429 62.0909 122.888C62.6289 123.144 63.1495 123.429 63.6934 123.655C66.4499 124.81 67.965 124.102 68.9825 121.298C69.3493 120.298 70.1416 119.643 71.212 119.482C72.6372 119.268 74.0807 119.185 75.5001 118.947C76.263 118.822 77.0385 118.589 77.7305 118.238C83.4209 115.351 88.0585 111.166 91.9981 106.201C102.338 93.1759 107.326 78.4719 105.622 61.6963C105.131 56.8626 104.184 52.1537 102.149 47.7188C96.5121 35.4435 87.7215 26.1204 76.0743 19.4648C75.7256 19.2626 75.2291 19.0367 75.128 18.7217C74.5957 16.9895 73.1642 16.5247 71.6915 16.0664C71.3129 15.9474 70.8984 15.8154 70.5967 15.5654C69.822 14.9286 69.1063 14.2201 68.1778 13.375C67.9057 11.4225 67.5676 11.1368 65.2549 10.8213C63.9895 10.6547 62.8538 10.8981 61.754 11.5049C60.9318 11.9573 60.0793 12.3509 59.1153 12.833C58.926 10.4342 58.5825 8.35086 57.5948 6.39844C57.0506 5.32106 56.3229 4.62395 55.0987 4.57617ZM37.5948 18.5361C37.6717 19.554 37.6548 20.3465 37.8145 21.1084C37.9743 21.8702 38.311 22.5971 38.5889 23.3887C21.2098 33.2648 12.4724 48.3851 11.7862 68.3516C12.3677 79.9621 15.4925 89.9683 21.6163 98.1299C20.0318 95.1704 18.7088 91.9908 17.6866 88.6377C15.8141 84.2972 14.5762 79.6227 13.8096 74.7031C12.047 63.3627 14.4835 52.7658 20.1622 43.0088C24.0958 36.2463 29.3138 30.5021 36.211 26.5791C42.209 23.1681 48.633 20.9594 55.5596 20.751C59.8304 20.62 63.9774 21.4833 67.9288 23.293C71.9333 25.1265 75.7193 27.3529 79.1856 30.0078C87.4255 36.318 93.7315 44.1822 97.0323 54.2129C98.4578 58.5467 98.7307 63.0719 98.8135 68.5605L98.8194 68.5723C98.8147 76.3824 96.6743 84.0618 92.7325 91.2383C91.5272 94.5748 90.0183 97.7163 88.2461 100.613C90.3737 97.9258 92.237 94.9877 93.921 91.8896C99.9249 80.8468 101.575 69.066 99.0909 56.7314C97.9137 50.8737 95.1338 45.7419 91.7266 40.9141C89.1771 37.3065 86.2665 33.9958 82.8711 31.2217C79.6888 28.6204 76.2109 26.3877 72.9044 24.0186C73.3953 23.3817 74.028 22.6015 74.6075 21.7803C75.4176 20.6377 75.6963 20.5839 76.7608 21.3516C78.5827 22.6671 80.5465 23.8051 82.2442 25.2695C85.2313 27.853 88.2661 30.4367 90.9161 33.3535C94.3942 37.1872 97.3165 41.4735 99.6885 46.1406C102.368 51.409 103.676 56.9872 104.179 62.833C105.563 78.9895 100.529 93.0691 90.5147 105.499C86.7348 110.19 82.3618 114.226 76.837 116.815C76.0741 117.178 75.2927 117.5 74.1573 118C74.7945 116.732 75.0362 115.754 74.921 114.577C74.5495 114.819 74.1734 115.053 73.795 115.281C73.7338 116.622 72.8527 117.772 71.3428 118.256C71.1607 117.808 70.9802 117.362 70.7969 116.909C70.4241 117.09 70.0492 117.266 69.671 117.434C69.6773 117.964 69.4604 118.417 68.9581 119.048C68.5932 118.758 68.2287 118.468 67.8624 118.177C67.6002 118.276 67.3368 118.373 67.0723 118.466C67.548 118.987 67.9175 119.687 68.0948 120.34C68.5796 122.096 67.3074 123.441 65.5508 123.061C64.5751 122.846 63.4989 122.465 62.7833 121.811C62.1599 121.24 61.5614 120.641 60.9649 120.017C60.5257 120.086 60.0842 120.146 59.6407 120.198C59.8055 120.411 59.9638 120.627 60.1094 120.852C60.5116 121.471 60.6241 122.322 60.7305 123.09C60.9967 125.06 60.718 126.989 59.8721 128.781C59.6178 129.311 59.014 129.841 58.4639 130.008C57.79 130.216 57.2642 129.656 56.8917 129.037C55.7442 127.12 55.1816 125.019 54.9922 122.816C54.9627 122.424 55.0453 121.948 55.2462 121.614C55.4867 121.216 55.7353 120.824 55.9893 120.431C55.8745 120.432 55.7596 120.434 55.6446 120.434C55.3114 120.434 54.9788 120.429 54.6475 120.419C53.4006 122.011 51.8363 123.215 49.8926 124.025C49.0173 124.394 47.8813 124.21 46.876 124.15C46.2317 124.109 45.9122 123.477 46.042 122.936C46.2609 122.013 46.4741 120.947 47.0713 120.292C47.3108 120.028 47.56 119.773 47.8145 119.523C47.4467 119.437 47.081 119.344 46.7169 119.245C46.0335 120.031 45.3353 120.833 44.6104 121.668C43.8713 121.638 43.3155 121.012 43.002 120.078C42.7599 119.354 42.696 118.624 42.7989 117.934C42.479 117.805 42.161 117.672 41.8448 117.534C41.7132 118.126 41.693 118.744 41.8008 119.405C40.2748 119.423 39.2567 118.952 38.9727 118C38.7678 117.317 38.7488 116.681 38.8848 116.083C38.5464 115.898 38.2114 115.706 37.878 115.51C37.6082 116.518 37.6462 117.645 37.9503 118.94C36.9864 118.417 36.3884 118.078 35.7794 117.769C29.3967 114.554 23.9417 110.077 19.168 104.814C17.0978 102.535 15.3355 99.9028 13.8331 97.2002C8.66903 87.8956 6.08388 77.8287 6.20806 67.1729C6.29093 60.0829 8.00056 53.2066 10.7393 46.7119C15.5781 35.2346 23.3097 26.1981 34.253 20.126C35.2881 19.5486 36.4 19.1016 37.5948 18.5361ZM71.0401 17.3037C72.5126 17.3514 73.5018 17.9346 73.8096 18.8867C74.2236 20.1606 73.5187 21.8938 72.2588 22.9297C70.8703 24.0711 69.9772 22.8308 68.6426 22.3535C70.2196 20.8963 71.3001 19.3794 71.0401 17.3037ZM41.753 16.375C41.5992 18.3931 42.4761 19.9767 43.9786 21.5186C42.624 22.0126 41.4103 22.4593 40.2628 22.876V22.8701C37.8792 20.3164 38.5651 17.3455 41.753 16.375ZM67.8702 14.9111C68.8815 14.7803 69.408 15.316 69.7452 16.0898C70.5553 17.9351 69.662 20.602 67.8877 21.4951C67.5329 21.6735 66.9589 21.5958 66.545 21.459C65.3976 21.084 64.2853 20.608 62.9014 20.0723C64.8947 18.5127 66.8054 17.1076 67.8702 14.9111ZM43.9952 15.5596C45.2137 17.524 46.8943 18.8996 48.8995 20.1318V20.1377C47.7521 20.4413 46.604 20.7454 45.5098 21.0371C42.9368 18.9417 42.5638 17.6847 43.9952 15.5596ZM61.7003 12.8037C62.9246 12.1906 64.108 11.7202 65.5098 12.0059C66.9231 12.2916 67.308 12.7619 66.9473 14.1367C66.7995 14.714 66.5682 15.3809 66.1544 15.7441C64.6105 17.0894 62.989 18.3516 61.3565 19.5957C61.114 19.7859 60.6652 19.7925 60.3223 19.7568C58.8909 19.614 57.4647 19.4289 55.8145 19.2324V19.2266C57.2341 16.3753 58.9853 14.1788 61.7003 12.8037ZM44.8233 14.8037C44.4152 12.9881 45.7469 11.6123 47.5333 12.0527C48.3376 12.2551 49.2192 12.56 49.8106 13.0957C51.6795 14.804 53.188 16.8334 54.8204 19.1309H54.8145C51.6677 19.6487 49.2072 18.6727 46.8116 17.5C45.7291 16.9702 45.0836 15.9764 44.8233 14.8037ZM55.1045 5.58203C56.027 5.59419 56.4127 6.29704 56.7794 7.04102C57.6901 8.88627 58.0148 10.8689 58.1036 12.8867C58.1272 13.4224 57.8076 14.0354 57.4942 14.5176C56.7962 15.5772 56.0034 16.578 55.1338 17.7686C54.3767 16.7685 53.6257 15.8095 52.9337 14.8154C52.6972 14.4823 52.5319 14.054 52.4844 13.6494C52.2123 11.3636 52.4075 9.14235 53.4307 7.04102C53.7855 6.31496 54.1644 5.57032 55.1045 5.58203Z" fill="#F4F1E9"/>
<path d="M55.098 4.57728C56.3223 4.62499 57.0496 5.32205 57.5938 6.39948C58.5816 8.35204 58.9253 10.4355 59.1145 12.8345C60.0786 12.3524 60.9304 11.959 61.7526 11.5066C62.8527 10.8995 63.9884 10.6559 65.2541 10.8225C67.567 11.138 67.9043 11.4238 68.1764 13.3764C69.1051 14.2217 69.8208 14.9301 70.5956 15.5671C70.8973 15.8171 71.312 15.9482 71.6906 16.0673C73.1634 16.5256 74.595 16.9902 75.1273 18.7224C75.2281 19.0377 75.7245 19.2638 76.0734 19.4661C87.7207 26.1216 96.5111 35.4446 102.148 47.7199C104.183 52.1548 105.13 56.8638 105.621 61.6976C107.324 78.4732 102.338 93.1771 91.9976 106.202C88.058 111.167 83.4202 115.352 77.7296 118.239C77.0375 118.591 76.2625 118.823 75.4995 118.948C74.0799 119.186 72.6367 119.27 71.2112 119.484C70.1406 119.645 69.3479 120.299 68.9811 121.3C67.9637 124.103 66.4489 124.812 63.6924 123.657C63.1483 123.431 62.628 123.145 62.0898 122.889C61.9005 124.431 61.8057 125.884 61.5099 127.295C61.3265 128.17 60.9595 129.057 60.4745 129.813C59.3387 131.575 57.2921 131.521 56.1505 129.741C55.1508 128.182 54.5237 126.467 54.2397 124.634C54.1687 124.169 54.0565 123.71 53.9263 123.067C52.9089 123.675 52.0159 124.157 51.1819 124.717C49.6794 125.723 48.058 125.585 46.4313 125.258C45.4556 125.062 45.2306 124.615 44.8994 123.055C43.8229 122.276 42.8648 121.579 41.6108 120.668C41.705 120.68 41.4033 120.603 41.1076 120.615C37.8543 120.787 35.0858 119.437 32.4298 117.782C24.8109 113.031 17.9492 107.435 13.3056 99.5649C7.10635 89.0577 3.87631 77.6098 4.69855 65.4238C5.56813 52.5176 9.89271 40.7838 18.5705 30.8779C23.6695 25.056 29.4427 20.2578 36.541 17.1444C37.8719 16.561 39.1857 15.9421 40.5285 15.4003C40.9011 15.2517 41.3622 15.3288 41.7761 15.2872C42.817 15.186 43.5802 14.561 43.9943 13.692C45.4021 10.7155 46.988 10.1732 49.8688 11.8103C50.2295 12.0186 50.5723 12.2631 51.1104 12.6142C51.1814 11.9535 51.2646 11.4475 51.2883 10.9416C51.377 9.26294 51.8559 7.69712 52.678 6.2387C53.2045 5.30407 53.8971 4.52966 55.098 4.57728ZM57.6482 117.913C56.8038 119.202 55.9894 120.385 55.2453 121.615C55.0443 121.948 54.962 122.425 54.9915 122.817C55.1808 125.02 55.7428 127.122 56.8904 129.039C57.263 129.658 57.789 130.217 58.4632 130.009C59.0134 129.842 59.6172 129.312 59.8716 128.783C60.7174 126.991 60.9953 125.062 60.7291 123.091C60.6226 122.323 60.5105 121.472 60.1083 120.853C59.4282 119.805 58.5057 118.913 57.6482 117.913ZM52.0394 116.192C51.7673 116.192 51.4417 116.335 51.2288 116.519C49.8151 117.745 48.3247 118.912 47.0707 120.293C46.4733 120.948 46.2601 122.014 46.0413 122.936C45.9112 123.478 46.2304 124.109 46.875 124.151C47.8805 124.211 49.0164 124.395 49.8919 124.026C53.2341 122.633 55.4587 120.079 56.8666 116.382H56.8606C55.1452 116.311 53.5892 116.227 52.0394 116.192ZM66.6684 118.091C64.1484 116.114 61.3203 115.364 57.7948 116.615H57.8007C59.5813 118.502 61.0902 120.264 62.782 121.812C63.4978 122.466 64.5744 122.847 65.5503 123.061C67.3071 123.442 68.5789 122.097 68.0938 120.341C67.869 119.513 67.3367 118.608 66.6684 118.091ZM45.8991 114.859C45.4555 114.763 44.8165 114.918 44.4498 115.198C42.9061 116.359 42.3854 118.24 43.0006 120.08C43.3141 121.014 43.8705 121.639 44.6099 121.669C46.3726 119.639 47.9756 117.799 49.5964 115.936V115.93C48.4074 115.573 47.1709 115.138 45.8991 114.859ZM43.835 114.221C42.3325 114.043 41.321 112.656 40.0611 114.013C38.9905 115.162 38.5109 116.466 38.9721 118.001C39.256 118.954 40.2738 119.424 41.7999 119.407C41.4805 117.448 42.2615 115.87 43.8409 114.221H43.835ZM69.6138 116.96C69.3654 115.823 68.0401 114.43 67.2475 114.579C66.2597 114.763 65.2956 115.067 64.2842 115.335C65.9345 116.645 67.443 117.847 68.9573 119.049C69.602 118.24 69.7794 117.722 69.6138 116.96ZM37.5942 18.5378C36.3994 19.1034 35.2872 19.5496 34.252 20.1271C23.3086 26.1992 15.5771 35.236 10.7383 46.7135C7.99957 53.2082 6.29024 60.0839 6.20737 67.1738C6.08315 77.8298 8.66783 87.8969 13.8319 97.2015C15.3344 99.9042 17.0972 102.536 19.1675 104.816C23.9412 110.078 29.3953 114.555 35.778 117.77C36.3873 118.079 36.9851 118.418 37.9493 118.942C37.3407 116.35 37.7998 114.434 39.6517 112.786C21.297 103.535 12.7853 88.3132 11.7856 68.3529C12.4718 48.3863 21.2087 33.2658 38.588 23.3896C38.31 22.598 37.9728 21.8715 37.8131 21.1096C37.6534 20.3477 37.6711 19.5557 37.5942 18.5378ZM69.59 113.93C70.2288 115.507 70.7795 116.876 71.3415 118.257C73.8139 117.465 74.6063 114.888 72.8615 112.608C71.7317 113.061 70.5896 113.525 69.59 113.93ZM76.7597 21.353C75.6951 20.5852 75.4166 20.6388 74.6063 21.7818C74.0266 22.6032 73.3941 23.3831 72.9032 24.0201C76.2098 26.3893 79.6878 28.6219 82.8702 31.2233C86.2656 33.9974 89.1764 37.3074 91.7259 40.9149C95.1331 45.7429 97.9127 50.8748 99.0899 56.7327C101.574 69.0673 99.9243 80.8483 93.9203 91.8912C89.4483 100.118 83.7162 107.22 75.1094 111.483C74.8078 111.632 74.5533 111.888 74.3107 112.066C75.1862 114.662 75.1859 115.953 74.1567 118.001C75.2923 117.501 76.0734 117.18 76.8364 116.817C82.3613 114.227 86.7334 110.191 90.5133 105.5C100.528 93.0704 105.562 78.9909 104.178 62.8342C103.675 56.9883 102.367 51.4103 99.6876 46.1418C97.3156 41.4747 94.3935 37.1881 90.9153 33.3544C88.2653 30.4375 85.2306 27.8542 82.2434 25.2706C80.5457 23.8061 78.5816 22.6686 76.7597 21.353ZM67.9278 23.2943C63.9764 21.4846 59.8296 20.6213 55.5587 20.7523C48.632 20.9607 42.2078 23.1689 36.2097 26.5799C29.3125 30.503 24.0949 36.2477 20.1612 43.0103C14.4825 52.7673 12.0461 63.364 13.8088 74.7046C15.613 86.2833 20.0136 96.5109 29.206 104.196C32.5777 107.018 36.0502 109.721 40.1377 111.394C49.9691 115.412 59.9424 115.99 69.9867 112.233C74.5651 110.519 78.9245 108.316 82.4027 104.768C84.7393 102.381 87.0286 99.8923 88.9747 97.1836C95.2982 88.385 98.8123 78.5863 98.8182 68.5733L98.8122 68.5613C98.7294 63.0727 98.4573 58.5483 97.0317 54.2145C93.7309 44.1835 87.4249 36.3195 79.1848 30.0092C75.7185 27.3542 71.9325 25.1279 67.9278 23.2943ZM71.0393 17.3052C71.2993 19.3809 70.2188 20.8976 68.6417 22.3549C69.9763 22.8321 70.8692 24.0726 72.2578 22.9311C73.5178 21.8952 74.2224 20.1624 73.8083 18.8884C73.5006 17.9361 72.5121 17.3528 71.0393 17.3052ZM41.7523 16.3762C38.5641 17.3466 37.8782 20.3177 40.262 22.8715V22.8775C41.4096 22.4608 42.6226 22.0139 43.9772 21.5198C42.4747 19.9779 41.5985 18.3943 41.7523 16.3762ZM69.7441 16.0911C69.4069 15.3172 68.8805 14.7811 67.869 14.912C66.8043 17.1086 64.8938 18.5138 62.9004 20.0735C64.2844 20.6092 65.3966 21.0852 66.544 21.4602C66.9581 21.5971 67.532 21.6745 67.8869 21.4959C69.6612 20.6029 70.5543 17.9365 69.7441 16.0911ZM43.9943 15.5611C42.5629 17.6862 42.936 18.9427 45.5091 21.0382C46.6033 20.7465 47.7507 20.4425 48.8982 20.139V20.133C46.8929 18.9007 45.2128 17.5256 43.9943 15.5611ZM65.5086 12.0068C64.1067 11.7211 62.9234 12.1916 61.699 12.8047C58.984 14.1799 57.2329 16.3765 55.8133 19.2279V19.2338C57.4637 19.4303 58.8896 19.615 60.3212 19.7578C60.6642 19.7935 61.1133 19.7874 61.3558 19.5971C62.9884 18.3529 64.6094 17.091 66.1533 15.7457C66.5673 15.3826 66.7981 14.7153 66.946 14.1379C67.3067 12.7629 66.9223 12.2925 65.5086 12.0068ZM47.5322 12.0544C45.7458 11.6139 44.4146 12.9892 44.8228 14.8048C45.083 15.9776 45.7277 16.9718 46.8102 17.5017C49.2059 18.6744 51.6667 19.6505 54.8136 19.1326H54.8196C53.187 16.8348 51.6784 14.805 49.8093 13.0965C49.2178 12.5608 48.3367 12.2568 47.5322 12.0544ZM55.1039 5.58366C54.1635 5.57176 53.7847 6.3157 53.4298 7.04187C52.4065 9.14331 52.2109 11.3644 52.483 13.6503C52.5304 14.055 52.6961 14.4835 52.9326 14.8168C53.6247 15.8109 54.3758 16.7696 55.1329 17.7696C56.0025 16.579 56.7953 15.5787 57.4933 14.519C57.8068 14.0368 58.1266 13.4238 58.103 12.8881C58.0142 10.87 57.689 8.88733 56.778 7.04187C56.4113 6.29785 56.0265 5.59573 55.1039 5.58366Z" fill="#4B3A2A"/>
</g>
<path d="M47.3226 42.6949C45.2307 42.6949 43.3052 43.0515 41.5462 43.7646C39.8346 44.4302 38.3608 45.3573 37.1247 46.5459C35.8886 47.7344 34.9377 49.1607 34.2722 50.8247C33.6066 52.4412 33.2738 54.1765 33.2738 56.0306C33.2738 57.6471 33.5115 59.1922 33.9869 60.666C34.4623 62.0923 35.0804 63.3522 35.8411 64.4456C36.6017 65.5391 37.4813 66.4187 38.4797 67.0843C39.5256 67.7023 40.5715 68.0113 41.6175 68.0113V68.3679C38.242 68.3679 35.532 67.3457 33.4877 65.3014C31.4434 63.2095 30.4212 60.4045 30.4212 56.8864C30.4212 54.7945 30.8253 52.8453 31.6335 51.0387C32.3942 49.232 33.5115 47.6631 34.9853 46.3319C36.4116 45.0008 38.1469 43.9548 40.1912 43.1941C42.2831 42.4335 44.6364 42.0531 47.2513 42.0531C49.771 42.0531 52.1244 42.4097 54.3113 43.1228C56.5458 43.836 58.4713 44.8343 60.0878 46.118C61.7517 47.3541 63.0592 48.8517 64.01 50.6108C64.9609 52.3223 65.4363 54.224 65.4363 56.3159C65.4363 57.7897 65.1748 59.2397 64.6518 60.666C64.1764 62.0448 63.4633 63.2809 62.5124 64.3743C61.5616 65.4678 60.3968 66.3949 59.018 67.1556C57.6869 67.8687 56.1893 68.3441 54.5253 68.5819C55.7614 68.8671 56.8786 69.3188 57.877 69.9368C58.8754 70.5073 59.6599 71.3393 60.2304 72.4328L66.1494 83.7717C67.1954 85.7685 68.1938 87.4562 69.1446 88.835C70.143 90.2137 71.1414 91.331 72.1398 92.1867C73.1857 93.0425 74.2554 93.6368 75.3489 93.9696C76.4424 94.3499 77.631 94.5401 78.9146 94.5401C80.436 94.5401 81.8622 94.2073 83.1934 93.5417C84.5246 92.9236 85.737 91.6162 86.8304 89.6194H87.187C85.5706 94.8491 82.1237 97.464 76.8465 97.464C74.089 97.464 71.5693 96.7033 69.2872 95.1819C67.0527 93.6605 64.9846 91.0932 63.0829 87.48L55.2384 72.5041C54.8105 71.6959 54.4064 71.0541 54.0261 70.5786C53.6457 70.0557 53.1703 69.6753 52.5998 69.4376C52.0768 69.1524 51.435 68.9622 50.6743 68.8671C49.9612 68.772 49.0341 68.7245 47.8931 68.7245V79.7781C47.8931 80.3486 47.9169 80.9429 47.9644 81.561C48.0119 82.179 48.1308 82.7495 48.321 83.2725C48.5587 83.7955 48.8915 84.2234 49.3194 84.5561C49.7948 84.8889 50.4604 85.0553 51.3162 85.0553V85.2693H40.1199V85.0553C40.9756 85.0553 41.6412 84.8889 42.1167 84.5561C42.5921 84.2234 42.9249 83.7955 43.1151 83.2725C43.3528 82.7495 43.4716 82.179 43.4716 81.561C43.5192 80.9429 43.5429 80.3486 43.5429 79.7781V55.1035C43.5429 54.533 43.5192 53.9387 43.4716 53.3207C43.4716 52.7026 43.3528 52.1321 43.1151 51.6092C42.9249 51.0862 42.5921 50.6583 42.1167 50.3255C41.6412 49.9927 40.9756 49.8263 40.1199 49.8263V49.6124H51.3162V49.8263C50.4604 49.8263 49.7948 49.9927 49.3194 50.3255C48.8915 50.6583 48.5587 51.0862 48.321 51.6092C48.1308 52.1321 48.0119 52.7026 47.9644 53.3207C47.9169 53.9387 47.8931 54.533 47.8931 55.1035V68.0113H52.1719C53.5507 68.0113 54.763 67.7023 55.8089 67.0843C56.8549 66.4662 57.7344 65.6342 58.4475 64.5883C59.1607 63.5423 59.6836 62.33 60.0164 60.9513C60.3968 59.525 60.5869 58.0512 60.5869 56.5298C60.5869 54.6757 60.3017 52.9166 59.7312 51.2526C59.2082 49.5886 58.3762 48.1148 57.2352 46.8311C56.1417 45.5475 54.763 44.5491 53.099 43.836C51.4826 43.0753 49.5571 42.6949 47.3226 42.6949Z" fill="#4B3A2A"/>
<defs>
<filter id="filter0_d_16_19451" x="0" y="0" width="115.523" height="140.678" filterUnits="userSpaceOnUse" color-interpolation-filters="sRGB">
<feFlood flood-opacity="0" result="BackgroundImageFix"/>
<feColorMatrix in="SourceAlpha" type="matrix" values="0 0 0 0 0 0 0 0 0 0 0 0 0 0 0 0 0 0 127 0" result="hardAlpha"/>
<feOffset dx="3" dy="3"/>
<feGaussianBlur stdDeviation="1"/>
<feComposite in2="hardAlpha" operator="out"/>
<feColorMatrix type="matrix" values="0 0 0 0 0 0 0 0 0 0 0 0 0 0 0 0 0 0 0.15 0"/>
<feBlend mode="normal" in2="BackgroundImageFix" result="effect1_dropShadow_16_19451"/>
<feBlend mode="normal" in="SourceGraphic" in2="effect1_dropShadow_16_19451" result="shape"/>
</filter>
</defs>
</svg>
