<svg width="100" height="100" viewBox="0 0 100 100" fill="none" xmlns="http://www.w3.org/2000/svg">
<g clip-path="url(#clip0_16_17922)">
<path d="M52.9422 50.3412C51.9904 50.4048 51.082 50.8082 50.1817 51.1177C49.9485 51.1978 50.0813 51.546 50.3118 51.4797C51.223 51.2116 52.183 51.0182 53.0019 50.5236C53.0968 50.4656 53.048 50.3357 52.9422 50.3412Z" fill="#4B3A2A"/>
<path d="M96.8941 43.6404C96.3246 42.9827 95.7904 42.629 94.9308 42.8059C91.6631 41.007 88.3304 39.595 85.2743 37.3707C82.1612 35.1076 79.5498 32.3334 77.1065 29.3574C75.3438 27.2104 73.1202 23.7536 69.961 25.453C67.0757 27.0059 65.4107 29.9017 62.9051 31.789C61.6956 29.1225 59.5859 26.9147 56.6843 26.3345C56.4891 26.2958 56.2965 26.2654 56.1067 26.2405C55.9982 26.1991 55.8843 26.1659 55.765 26.141C55.6837 25.8813 55.4695 25.6602 55.1793 25.6989C54.3929 25.8012 53.658 25.9863 53.0967 26.4091C52.3157 26.6246 51.5564 26.9755 50.8134 27.4867C48.4976 29.0866 47.3152 32.2505 44.6198 33.1678C44.4516 32.9634 44.1642 32.8473 43.8659 32.9993C42.7324 33.5796 41.3711 32.1786 40.5603 31.5901C39.801 31.0402 38.7705 30.6865 37.8485 30.6091C35.4568 30.4102 33.3416 31.1673 31.4434 32.6373C27.8991 35.3784 26.6815 40.2693 27.2727 44.5881C23.0478 45.9172 19.2351 43.3309 14.9939 43.8504C11.4469 44.2842 11.55 48.4179 11.2978 51.2032C10.9507 55.0689 10.3541 58.8656 9.0579 62.5296C7.78609 66.13 5.83635 69.222 4.15506 72.5986C3.34967 72.9523 3.10833 73.5519 3.00799 74.4223C2.97545 74.6987 3.20324 74.9197 3.45543 74.9473C5.32383 75.1684 6.91833 74.6323 8.28505 73.6293C8.29861 73.6873 8.32573 73.7426 8.37183 73.7758C9.26128 74.4638 10.7392 74.0548 11.7534 73.5796C11.7995 73.6486 11.8754 73.7011 11.9893 73.715C14.118 74.0106 15.9051 73.3613 17.326 72.1676C17.3667 72.1869 17.4101 72.2007 17.4616 72.198C19.0154 72.1123 20.3957 71.4823 21.5211 70.5179C21.5048 70.681 21.616 70.8689 21.795 70.8606C23.3813 70.7998 24.8267 70.0482 25.9494 68.9208C25.9738 69.0645 26.0904 69.1833 26.2829 69.1419C27.6578 68.8324 28.6448 67.8653 29.4177 66.7268C30.9607 65.9587 33.0596 64.8396 33.7023 63.154C33.7131 63.1264 33.7212 63.1015 33.7294 63.0739C34.5131 62.9468 35.1449 61.8084 35.4866 61.0347C36.3137 61.1756 37.0838 59.7691 37.3875 59.1474C37.4363 59.0479 37.477 58.9484 37.5177 58.849C39.7413 60.3853 42.1358 61.6674 44.5167 62.9247C47.0088 64.24 49.6609 66.0803 52.4621 66.55C53.376 66.702 54.1326 66.4035 54.7617 65.8924C54.9163 65.7984 55.0681 65.6934 55.2091 65.5663C55.2498 65.5304 55.2552 65.4779 55.2498 65.4254C55.5074 65.1435 55.7379 64.8285 55.9467 64.5025C56.1176 64.4859 56.2776 64.3726 56.2531 64.1598C56.2477 64.1129 56.2396 64.0686 56.2342 64.0217C56.2586 63.9775 56.283 63.9333 56.3074 63.889C56.9148 62.7644 57.449 61.5762 57.9426 60.3632C57.9588 60.3687 57.9724 60.3715 57.9887 60.3743C58.0212 60.3743 58.0537 60.377 58.0863 60.3798C58.352 60.3936 58.512 60.2085 58.5093 59.9487V59.7857C58.5093 59.6199 58.4334 59.4928 58.3195 59.4071C58.352 59.3242 58.3846 59.2413 58.4171 59.1585C58.4334 59.1419 58.4442 59.1225 58.4442 59.0977C58.4442 59.0949 58.4442 59.0921 58.4442 59.0894C58.8727 57.9565 59.274 56.8153 59.6699 55.6824C59.754 55.6243 59.7784 55.5359 59.7513 55.4502C59.9032 55.0137 60.0577 54.5743 60.2096 54.1433C60.4292 53.5271 60.6462 52.9053 60.8658 52.2809C60.874 52.2809 60.8821 52.2809 60.8902 52.2809C61.2509 52.3085 61.3268 51.8277 61.0855 51.637C61.099 51.5928 61.1153 51.5514 61.1289 51.5072C61.7173 51.7199 62.36 51.8277 62.7152 51.474C63.4311 51.9106 64.5836 52.4798 65.2995 52.1316C65.3212 52.1482 65.3429 52.1648 65.3673 52.1814C66.8371 53.1927 69.1882 52.8971 70.8857 52.6318C72.1575 53.1181 73.5107 53.3419 74.8123 52.7976C74.994 52.723 75.0239 52.5544 74.9642 52.4218C76.518 52.6981 78.1261 52.477 79.463 51.6066C79.6148 51.5072 79.6013 51.2889 79.4982 51.1645C80.9599 51.3055 82.4486 51.0208 83.7747 50.1919C83.8181 50.1643 83.8479 50.1283 83.8696 50.0869C85.7054 50.2444 87.5359 49.7387 89.1222 48.2632C89.2063 48.1858 89.2388 48.0974 89.2388 48.0145C90.3398 47.8155 91.7825 47.2933 92.1296 46.2156C92.1485 46.1604 92.1404 46.0968 92.1187 46.0443C93.8027 46.0747 95.4135 45.5939 96.8263 44.3256C97.0161 44.1543 97.0812 43.8421 96.8995 43.6321L96.8941 43.6404ZM58.4578 36.8484C59.0001 36.6633 59.5506 36.5058 60.1093 36.3593C60.1364 36.6716 60.1608 36.9838 60.1798 37.2961C59.8489 37.39 59.5235 37.5088 59.209 37.6553C59.049 37.7299 59.1384 37.9509 59.3039 37.9095C59.6103 37.8349 59.9086 37.7907 60.2042 37.7603C60.2204 38.0836 60.2313 38.4069 60.2394 38.7329C60.2313 38.7992 60.2204 38.8628 60.2123 38.9291C59.7025 39.0507 59.2008 39.1971 58.7019 39.3629C58.7127 39.3408 58.7263 39.3242 58.7235 39.2938C58.7181 38.4677 58.6178 37.6525 58.4578 36.8484ZM59.4449 42.5931C59.4828 42.2145 59.5181 41.836 59.5533 41.4602C59.6727 41.4298 59.7947 41.4049 59.914 41.3745C59.8679 41.7752 59.8191 42.1759 59.7676 42.5738C59.6591 42.5793 59.5533 42.582 59.4449 42.5903V42.5931ZM59.6618 43.364C59.6022 43.7702 59.5371 44.1736 59.4693 44.5798C59.3906 44.5798 59.312 44.5798 59.2334 44.5798C59.2795 44.1764 59.3228 43.7757 59.3635 43.3723C59.4611 43.3668 59.5615 43.3668 59.6618 43.3613V43.364ZM59.5967 40.9739C59.6266 40.6506 59.6537 40.3273 59.6808 40.004C59.8164 39.9708 59.952 39.9377 60.0876 39.9045C60.0496 40.2085 60.0143 40.5152 59.9791 40.8219C59.8516 40.8744 59.7242 40.9214 59.5967 40.9739ZM59.1222 45.4585C59.19 45.4585 59.2551 45.4558 59.3228 45.453C59.2795 45.7155 59.2388 45.978 59.1981 46.2433C59.1384 46.246 59.0788 46.2488 59.0218 46.2516C59.0571 45.9863 59.0896 45.721 59.1222 45.4585ZM59.0815 47.1496C59.0381 47.5337 59.0083 47.9178 58.9947 48.2991C58.9405 48.3295 58.889 48.3709 58.8456 48.4262C58.8022 48.4207 58.7588 48.429 58.7235 48.4566C58.7046 48.4594 58.6856 48.4649 58.6666 48.4677C58.7452 48.0311 58.8158 47.5945 58.8835 47.1579C58.9486 47.1524 59.0137 47.1524 59.0815 47.1496ZM61.4082 40.156C61.3594 40.0095 61.3078 39.8658 61.2617 39.7194C61.2536 39.6973 61.2428 39.6807 61.2319 39.6641C61.2916 39.6531 61.3512 39.6448 61.4082 39.6337C61.4326 39.7139 61.457 39.794 61.4814 39.8714C61.457 39.9653 61.4326 40.0592 61.4082 40.156ZM61.5709 31.2751C61.6658 31.4519 61.7444 31.637 61.8285 31.8222C61.8014 31.8222 61.777 31.8387 61.7526 31.8443C61.7065 31.778 61.6604 31.7089 61.6116 31.6426C61.5736 31.5652 61.5356 31.4878 61.5004 31.4077C61.5248 31.3635 61.5492 31.3193 61.5736 31.2751H61.5709ZM59.8706 34.5273C59.8788 34.5577 59.8896 34.5881 59.8977 34.6185C59.9411 34.9087 59.9872 35.1988 60.0198 35.4889C59.4313 35.652 58.8483 35.8343 58.2788 36.0554C58.1839 35.6796 58.0782 35.3093 57.9643 34.9391C58.5066 34.6959 59.0734 34.4693 59.6374 34.2704C59.716 34.356 59.792 34.4417 59.8733 34.5273H59.8706ZM57.4572 35.1712C57.5521 35.5387 57.6416 35.9089 57.7283 36.2764C57.4517 36.3925 57.1779 36.5141 56.9067 36.6467C56.8389 36.2847 56.7467 35.9255 56.6355 35.5718C56.8958 35.442 57.1724 35.3066 57.4572 35.1712ZM56.443 34.986C56.2559 34.4942 56.0227 34.03 55.7623 33.5906C56.1148 33.3917 56.4647 33.1982 56.8091 33.0076C56.9935 33.5326 57.1562 34.0631 57.3026 34.5964C57.0151 34.7208 56.7277 34.8479 56.4403 34.986H56.443ZM57.1995 32.7976C57.4843 32.6456 57.7609 32.5019 58.0321 32.3638C58.4171 32.8611 58.8157 33.3475 59.2306 33.82C58.7669 34.0051 58.3385 34.1875 57.9914 34.3173C57.9236 34.3422 57.8558 34.3726 57.788 34.4002C57.6063 33.8586 57.4056 33.3253 57.1995 32.7976ZM59.114 32.4273C59.1384 32.2256 59.1574 32.0239 59.1629 31.8249C59.1927 31.8111 59.2225 31.8001 59.2496 31.789C59.274 31.8194 59.2984 31.8498 59.3201 31.8802C59.4232 32.2449 59.5127 32.6124 59.594 32.9799C59.4313 32.7976 59.2713 32.6152 59.1113 32.4301L59.114 32.4273ZM59.5561 28.802C59.5506 28.8241 59.5561 28.849 59.5561 28.8738C59.4666 28.8821 59.3771 28.8959 59.2876 28.907C59.1927 28.8241 59.0951 28.7384 59.0001 28.6555C58.7886 28.4455 58.5771 28.2355 58.3602 28.0255C58.7832 28.2576 59.19 28.5119 59.5561 28.8048V28.802ZM57.3162 30.1035C57.7988 30.3715 58.2436 30.7058 58.6422 31.0954C58.6503 31.1369 58.6585 31.1811 58.6666 31.2226C58.5283 31.2751 58.3954 31.3386 58.2571 31.3939C57.9236 30.9766 57.6009 30.5511 57.2917 30.1118C57.2999 30.1118 57.308 30.1062 57.3162 30.1035ZM56.0281 30.5843C56.085 30.7197 56.1393 30.8551 56.2043 30.9877C56.2721 31.1258 56.508 31.0816 56.5297 30.9297C56.5379 30.8772 56.5352 30.8219 56.5379 30.7666C56.6274 30.7556 56.7087 30.7141 56.7765 30.6533C57.026 31.0098 57.2836 31.3635 57.5412 31.7144C56.7928 32.0764 56.0579 32.4936 55.3366 32.9496C55.2281 32.8031 55.1223 32.6539 55.003 32.5185C55.0356 32.4992 55.0627 32.4715 55.0681 32.4245C55.1495 31.952 55.1684 31.4768 55.1332 31.0126C55.4261 30.8606 55.7216 30.7169 56.0254 30.5843H56.0281ZM54.9868 29.4016C55.1576 29.6531 55.3474 29.8852 55.5644 30.1062C55.3908 30.1946 55.2173 30.2858 55.0464 30.3825C54.9786 30.0316 54.8783 29.689 54.7454 29.3602C54.8268 29.3795 54.9054 29.3933 54.9868 29.4016ZM53.3272 29.6724C53.5034 29.642 53.677 29.6061 53.8505 29.5674C54.0187 29.9791 54.1759 30.3964 54.317 30.8219C53.9346 31.0651 53.5577 31.322 53.1889 31.5928C53.1726 31.0651 53.0696 30.5069 52.9068 29.9515C53.0424 29.8548 53.1889 29.7664 53.3272 29.6724ZM52.7604 31.9161C52.416 32.1814 52.0771 32.4549 51.7435 32.734C51.8764 32.1427 51.9062 31.4464 51.8086 30.7804C51.8981 30.7086 51.9876 30.6395 52.0771 30.5677C52.256 31.0651 52.4838 31.5237 52.7604 31.9161ZM51.7164 29.8575C51.7652 29.8575 51.8113 29.8492 51.8601 29.8465C51.8818 29.9239 51.8927 30.0012 51.9171 30.0786C51.8466 30.1421 51.7788 30.2057 51.7083 30.2693C51.6703 30.12 51.6215 29.9791 51.57 29.8382C51.6188 29.8465 51.6649 29.8603 51.7164 29.8575ZM50.2005 30.3881C50.3361 30.2527 50.4717 30.12 50.6073 29.9846C50.6453 29.9542 50.6859 29.9239 50.7239 29.8935C50.7917 30.1504 50.8595 30.4102 50.911 30.6699C50.9327 30.7832 50.949 30.8965 50.968 31.0098C50.7591 31.2391 50.5639 31.4685 50.3904 31.6978C50.3307 31.7752 50.4364 31.8719 50.5097 31.8139C50.6859 31.6757 50.8568 31.5376 51.0303 31.3994C51.1117 31.9824 51.1686 32.5682 51.2554 33.1513C50.7917 33.5547 50.3415 33.9636 49.9049 34.3698C50.0026 33.7675 50.027 33.1292 49.9592 32.5019C49.9673 32.477 49.9809 32.4522 49.989 32.4273C50.008 32.372 49.9809 32.3306 49.9429 32.3085C49.8833 31.8664 49.7802 31.4381 49.6365 31.0429C49.8453 30.8385 50.0378 30.6229 50.2032 30.3908L50.2005 30.3881ZM48.9775 31.6564C49.0074 31.999 49.0453 32.3416 49.0724 32.6815C49.0806 32.781 49.086 32.8805 49.0941 32.9772C48.9477 33.1153 48.7986 33.2535 48.6521 33.3944C48.5979 33.4469 48.5382 33.4939 48.4813 33.5436C48.4162 33.2314 48.3267 32.9219 48.221 32.6124C48.5274 32.3334 48.785 32.0156 48.9748 31.6591L48.9775 31.6564ZM46.0407 33.8117C46.0543 33.9857 46.0678 34.1598 46.0841 34.3367C45.7641 34.3643 45.4414 34.414 45.1214 34.4389C44.9343 34.4527 44.7472 34.4527 44.5574 34.4472C44.5303 34.3533 44.5059 34.2593 44.476 34.1654C44.9723 34.1018 45.5092 33.9885 46.0407 33.8144V33.8117ZM44.1099 34.1792C44.1154 34.2565 44.1181 34.3367 44.1235 34.414C43.912 34.3947 43.7005 34.3643 43.4917 34.3256C43.695 34.3035 43.8984 34.2565 44.1099 34.1792ZM44.1696 35.1573C44.1805 35.337 44.194 35.5166 44.2021 35.6989C44.1343 35.6851 44.0638 35.6741 43.9988 35.6575C43.7493 35.5884 43.5079 35.4972 43.272 35.395C43.2368 35.2043 43.1907 35.0137 43.1283 34.834C43.4537 34.975 43.8089 35.0883 44.1696 35.1601V35.1573ZM34.4995 61.7807C34.467 61.7476 34.4154 61.7337 34.3721 61.7752C34.2744 61.8774 34.1795 61.9769 34.0819 62.0792C34.0738 62.0874 34.0683 62.093 34.0629 62.1013C34.0738 62.0626 34.0846 62.0239 34.0955 61.9852C34.3151 61.8084 34.4968 61.5541 34.6405 61.3193C34.7137 61.1977 34.7978 61.0789 34.8547 60.949C34.9334 60.7777 34.9605 60.5898 35.0527 60.4268C35.1151 60.319 34.9605 60.2306 34.8927 60.33C34.7788 60.4958 34.589 60.6008 34.4724 60.7694C34.4046 60.8689 34.3368 60.9683 34.2717 61.0706C34.288 60.9241 34.3016 60.7777 34.3097 60.6312C34.4046 60.5097 34.4995 60.3853 34.5863 60.2637C34.7653 60.0123 34.8846 59.7498 35.0419 59.4845C35.0825 59.4154 34.9876 59.3242 34.9225 59.3767C34.7192 59.5398 34.5158 59.6779 34.3205 59.8465C34.3178 59.7553 34.3097 59.6614 34.3043 59.5674C34.6459 59.1778 34.8547 58.6417 35.1097 58.2079C35.1612 58.1223 35.031 58.0173 34.9686 58.1001C34.7517 58.3875 34.4805 58.6777 34.2582 58.9899C34.2527 58.9374 34.25 58.8849 34.2446 58.8324C34.2338 58.7219 34.0656 58.7246 34.0738 58.8407C34.0792 58.9263 34.0738 59.012 34.0738 59.0949C34.0331 58.907 33.9897 58.7219 33.93 58.534C33.9002 58.44 33.7538 58.4621 33.7619 58.5644C33.8107 59.1059 33.8487 59.7083 33.8351 60.3218C33.6968 60.4682 33.5667 60.6257 33.4663 60.7998C33.366 60.9766 33.5287 61.1507 33.6968 61.1673C33.5043 61.7144 33.2548 62.2367 32.9647 62.7092C32.5606 63.3696 32.124 64.0134 31.5329 64.5191C31.4461 64.5937 31.3674 64.6572 31.2942 64.7208C31.2752 64.7014 31.2481 64.6904 31.2183 64.7014C31.2074 64.7042 31.1993 64.7097 31.1885 64.7125C31.24 64.6738 31.2888 64.6351 31.3322 64.6019C31.8067 64.2372 32.0969 63.8061 32.4955 63.3751C32.5742 63.2894 32.4467 63.1596 32.3681 63.2452C31.9505 63.6984 31.2997 64.0769 30.7709 64.3947C30.7573 64.403 30.7437 64.4085 30.7302 64.4168C30.8793 64.1377 31.0258 63.8504 31.1641 63.5602C31.4379 63.5022 31.7064 63.3032 31.9044 63.1347C32.2216 62.8639 32.4494 62.5931 32.6121 62.2063C32.6528 62.1095 32.5498 62.0322 32.4711 62.0985C32.2162 62.3085 31.9667 62.5323 31.7064 62.734C31.6251 62.7948 31.5356 62.8528 31.4434 62.9136C31.5654 62.5986 31.6657 62.2809 31.7308 61.9603C32.1701 61.7144 32.4955 61.2612 32.8589 60.9297C32.9294 60.8633 32.8291 60.7528 32.7531 60.8026C32.4576 60.9987 32.1105 61.1535 31.8067 61.3635C31.8149 61.1756 31.8067 60.9849 31.7823 60.797C32.2921 60.6561 32.642 60.0123 32.7775 59.5481C32.8101 59.4375 32.6447 59.4044 32.6094 59.5094C32.5118 59.7995 32.3301 60.0123 32.1023 60.214C31.983 60.3162 31.8501 60.3991 31.72 60.482C31.6468 60.1864 31.5274 59.8935 31.3403 59.6061C31.2834 59.5204 31.1532 59.5729 31.1776 59.6779C31.663 61.6868 30.5919 63.5602 29.6265 65.2568C29.0625 66.2516 28.455 67.0888 27.6442 67.7271C27.6442 67.7216 27.6469 67.7161 27.6496 67.7133C27.6578 67.6884 27.6551 67.6691 27.6469 67.6497C27.7473 67.589 27.8422 67.5226 27.9289 67.4453C28.1622 67.2353 28.3086 67.0142 28.1405 66.7158C28.1025 66.6467 27.9913 66.6605 27.975 66.7407C27.9289 66.97 27.4164 67.1137 27.2456 67.2049C27.3486 67.0225 27.4463 66.8401 27.5357 66.6495C27.6713 66.5942 27.8015 66.5334 27.9289 66.4643C28.2245 66.2985 28.3981 66.0885 28.6394 65.8564C28.6964 65.8039 28.6232 65.6934 28.5527 65.7293C28.3194 65.8509 28.0537 65.9338 27.7988 66.025C27.8666 65.8454 27.9317 65.663 27.9859 65.4779C28.1215 65.4033 28.2516 65.3121 28.3438 65.2485C28.6313 65.0496 28.8374 64.8368 29.0435 64.5522C29.1058 64.4638 28.973 64.3809 28.9025 64.4444C28.6611 64.6572 28.3872 64.8589 28.1079 65.0164C28.1594 64.7954 28.2055 64.5715 28.2354 64.3477C28.4225 64.2234 28.6015 64.088 28.7886 63.9692C28.9947 63.8393 29.198 63.7067 29.4041 63.5768C29.4991 63.516 29.4096 63.3696 29.3146 63.4276C28.9757 63.6348 28.615 63.8255 28.2706 64.0327C28.2842 63.8807 28.3005 63.7315 28.3059 63.5796C28.5065 63.5188 28.7045 63.4359 28.8726 63.3088C29.114 63.1264 29.2848 62.8915 29.4665 62.6511C29.5289 62.5682 29.4177 62.4715 29.3472 62.5461C29.0896 62.8224 28.6855 63.0159 28.3059 63.1375C28.3005 62.991 28.2923 62.8473 28.2788 62.7036C28.5337 62.5434 28.7642 62.3831 29.0082 62.1842C29.2577 61.9797 29.5587 61.7973 29.7133 61.5044C29.7512 61.4353 29.6699 61.3358 29.5967 61.358C29.2767 61.4464 29.0299 61.7116 28.7723 61.9134C28.5987 62.0488 28.4252 62.1869 28.2571 62.3251C28.2489 62.3306 28.2408 62.3417 28.2327 62.3499C28.1947 62.1178 28.1486 61.8857 28.0862 61.6564C28.0564 61.5486 27.891 61.5984 27.9208 61.7089C27.9995 61.9935 28.0347 62.2836 28.0456 62.5793C28.0293 62.5986 28.0157 62.618 27.9995 62.6345C27.9398 62.6981 27.9778 62.8169 28.051 62.8252C28.0483 62.9606 28.0374 63.096 28.0211 63.2314C27.9045 63.2977 27.9018 63.4552 27.9778 63.5492C27.8096 64.5301 27.3812 65.5 26.9066 66.34C26.8931 66.3455 26.8795 66.3483 26.8659 66.3538C26.7358 66.398 26.6924 66.5445 26.7222 66.6605C26.5948 66.8733 26.47 67.0778 26.3453 67.2657C25.9439 67.8791 25.5535 68.6113 24.946 69.0341C24.1786 69.5702 23.3786 69.7664 22.5624 70.015C22.8309 69.8741 23.0885 69.7056 23.3569 69.5591C23.4329 69.5177 23.4085 69.3712 23.3136 69.3823C23.0587 69.4127 22.8037 69.4237 22.5543 69.4541C22.557 69.4486 22.5624 69.4458 22.5651 69.4431C22.8417 69.3961 23.1102 69.222 23.3597 69.1059C23.6796 68.9595 23.9698 68.7578 24.2844 68.6058C24.3766 68.5616 24.3115 68.4069 24.2139 68.44C23.8505 68.5671 23.4708 68.6362 23.1075 68.7716C23.0831 68.7799 23.0559 68.7909 23.0288 68.7992C23.1183 68.6638 23.2078 68.5257 23.2891 68.3848C23.5359 68.3682 23.7854 68.23 23.9996 68.1112C24.401 67.8901 24.6721 67.6028 24.9921 67.2767C25.0762 67.1911 24.9514 67.075 24.8647 67.1468C24.542 67.4176 24.0972 67.6415 23.7149 67.8045C23.6661 67.8238 23.6173 67.8432 23.5685 67.8598C23.7068 67.5862 23.8315 67.3043 23.94 67.017C24.1569 66.865 24.3522 66.6688 24.5555 66.4947C24.7508 66.3262 24.9514 66.1714 25.1548 66.0139C25.2389 65.9504 25.1548 65.8122 25.0653 65.873C24.824 66.0416 24.5827 66.2046 24.3332 66.3621C24.2627 66.4063 24.1894 66.4478 24.1189 66.492C24.2003 66.2295 24.2762 65.9642 24.3332 65.6962C24.6233 65.605 24.8403 65.3701 25.0681 65.1684C25.4152 64.8617 25.765 64.566 26.1311 64.2842C26.2151 64.2206 26.1283 64.0797 26.0416 64.1433C25.7135 64.3781 25.3853 64.6075 25.0436 64.8175C24.843 64.9418 24.6179 65.0606 24.4281 65.2126C24.4715 64.9446 24.5013 64.6738 24.5203 64.4002C24.542 64.4002 24.561 64.3919 24.5827 64.3809C24.8267 64.2593 25.0545 64.1156 25.2741 63.9526C25.4884 63.7923 25.6674 63.5381 25.8463 63.3392C25.9223 63.2563 25.8002 63.1375 25.7216 63.2176C25.3962 63.5519 24.9596 63.8144 24.5338 64.0217C24.5393 63.7813 24.5366 63.5409 24.5203 63.3032C24.8159 63.2038 25.1142 62.944 25.3311 62.7617C25.6348 62.5047 25.8382 62.2339 26.0687 61.9134C26.1311 61.8249 26.0199 61.7061 25.9439 61.7918C25.6945 62.0791 25.3691 62.3499 25.0599 62.5682C24.8864 62.6926 24.6694 62.7782 24.4796 62.8915C24.4525 62.6732 24.4199 62.4522 24.3766 62.2366C24.3549 62.1316 24.2003 62.1842 24.2193 62.2892C24.2681 62.5268 24.2925 62.77 24.3061 63.0131C24.2789 63.0352 24.2518 63.0518 24.2274 63.0767C24.1325 63.1734 24.1813 63.3254 24.3142 63.3364C24.3088 65.2568 23.3786 67.3292 22.3563 68.8241C21.6513 69.852 20.7808 70.3604 19.8235 70.7501C19.9022 70.6754 19.7964 70.5677 19.7096 70.6036C19.3408 70.7583 18.9504 70.8357 18.5653 70.9241C18.6277 70.8799 18.6873 70.8302 18.7443 70.7611C18.8066 70.6893 18.8663 70.6174 18.9205 70.5428C18.9476 70.6147 19.01 70.6727 19.1022 70.6672C19.7747 70.6312 20.3442 69.9985 20.8079 69.5674C20.8811 69.4983 20.7808 69.3602 20.6994 69.4237C20.4364 69.631 20.1001 69.794 19.7937 69.9377C19.5551 70.0482 19.2703 70.1173 19.0453 70.261C19.0398 70.2472 19.0344 70.2361 19.0236 70.225C19.1998 69.9625 19.3653 69.689 19.5225 69.4099C19.7557 69.3381 19.97 69.1806 20.1896 69.0645C20.374 68.965 20.5638 68.8738 20.7347 68.7523C20.892 68.639 21.0248 68.5008 21.1984 68.4096C21.2987 68.3571 21.2065 68.2107 21.1089 68.2604C20.892 68.3709 20.6425 68.3875 20.4201 68.4953C20.2303 68.5892 20.0405 68.6832 19.8507 68.7799C19.9184 68.639 19.9917 68.498 20.054 68.3544C20.6642 68.4179 21.3069 67.8487 21.7326 67.4867C21.8085 67.4232 21.7028 67.2961 21.6241 67.3513C21.3096 67.5724 20.9489 67.7078 20.5937 67.8487C20.4689 67.8984 20.3388 67.9316 20.214 67.9758C20.3469 67.647 20.4716 67.3154 20.5801 66.9755C20.8133 67.0115 21.0194 66.8236 21.2174 66.7103C21.4072 66.6025 21.5346 66.4146 21.7218 66.3041C21.8194 66.2488 21.7272 66.0996 21.6323 66.1549C21.5102 66.2267 21.3747 66.2433 21.2472 66.2985C21.1008 66.3593 20.976 66.4257 20.8404 66.5058C20.7943 66.5334 20.751 66.5555 20.7076 66.5804C20.7808 66.3317 20.8459 66.0775 20.9055 65.826C21.0981 65.768 21.277 65.6464 21.4533 65.5497C21.7163 65.406 21.9387 65.2071 22.2017 65.0689C22.2994 65.0164 22.2099 64.87 22.1123 64.9197C21.8492 65.0579 21.5509 65.1297 21.2825 65.2651C21.1903 65.3121 21.0926 65.3535 21.0004 65.4005C21.0492 65.1656 21.0926 64.9308 21.1279 64.6959C21.3421 64.6323 21.5482 64.5135 21.7516 64.4196C22.0011 64.3063 22.2478 64.1875 22.4919 64.0659C22.5461 64.0383 22.5082 63.9443 22.4512 63.9664C22.1638 64.0769 21.879 64.1875 21.5943 64.3035C21.4506 64.3615 21.3014 64.4141 21.1604 64.4804C21.2065 64.1543 21.2418 63.8283 21.2635 63.5077C21.494 63.563 21.7272 63.4165 21.9306 63.3088C22.1638 63.1844 22.3373 63.0407 22.5326 62.8667C22.6139 62.792 22.5082 62.6843 22.4241 62.723C22.18 62.8335 21.936 62.9357 21.6892 63.038C21.5563 63.0932 21.4018 63.1264 21.2852 63.2121C21.3014 62.8528 21.3069 62.4964 21.296 62.151C21.2933 62.0405 21.136 62.057 21.1306 62.162C21.0791 63.8614 20.5421 65.5 19.9754 67.0861C19.4819 68.4649 18.9504 69.9156 17.8711 70.938C16.3878 72.3389 14.6983 72.9496 12.7567 73.0242C12.8191 72.9855 12.8815 72.9413 12.9411 72.8998C13.3452 73.0103 13.7818 72.8031 14.1668 72.6567C14.6441 72.4771 15.0753 72.2753 15.5227 72.0405C15.6013 71.999 15.5742 71.8526 15.4793 71.8636C14.956 71.9216 14.4543 71.9935 13.9472 72.1317C14.0692 72.0239 14.1912 71.9134 14.3106 71.7973C14.6143 71.8277 14.9261 71.6978 15.2109 71.5956C15.4115 71.5238 15.6149 71.4519 15.8047 71.3524C15.9973 71.2502 16.1491 71.0955 16.3417 70.996C16.4311 70.949 16.3633 70.8081 16.2711 70.8385C16.0813 70.8993 15.8725 70.8855 15.6773 70.9269C15.4441 70.9794 15.2109 71.0402 14.9776 71.0899C15.0319 71.0264 15.0888 70.9683 15.1404 70.9048C15.6664 70.7639 16.16 70.435 16.6562 70.2499C16.7593 70.2112 16.7105 70.0427 16.6047 70.0814C16.2847 70.2002 15.9376 70.2499 15.5905 70.3024C15.6963 70.1504 15.7966 69.9929 15.8942 69.8327C16.1166 69.7691 16.3145 69.6531 16.5315 69.5646C16.8108 69.4514 17.0901 69.3408 17.3694 69.2275C17.4752 69.1861 17.4291 69.0092 17.3206 69.0507C17.0277 69.1612 16.7349 69.2745 16.442 69.3823C16.3227 69.4265 16.2061 69.4596 16.0922 69.4956C16.2413 69.2331 16.3796 68.9623 16.5098 68.6859C16.6589 68.6473 16.8054 68.5837 16.9382 68.534C17.3667 68.3709 17.7111 68.1416 18.0907 67.8901C18.1721 67.8349 18.0853 67.7161 18.0012 67.7658C17.6243 67.9896 17.1335 68.1609 16.705 68.2687C16.8027 68.0421 16.8976 67.8128 16.9843 67.5807C17.2257 67.5392 17.467 67.4646 17.6948 67.379C18.0094 67.2574 18.2155 67.0916 18.4894 66.9009C18.568 66.8457 18.5192 66.6937 18.4189 66.7351C18.0175 66.9064 17.5809 67.0115 17.1525 67.1165C17.223 66.9092 17.2935 66.6992 17.3586 66.4892C17.844 66.3372 18.3267 66.0499 18.7795 65.8537C18.8798 65.8095 18.8337 65.6464 18.728 65.6851C18.3375 65.8316 17.8765 65.9504 17.467 66.1245C17.5402 65.8675 17.6108 65.6077 17.6758 65.348C18.1965 65.2568 18.6575 65.0662 19.0995 64.7512C19.1754 64.6959 19.1239 64.555 19.029 64.5937C18.6222 64.7622 18.1965 64.8866 17.768 64.9805C17.8223 64.7456 17.8765 64.5108 17.9226 64.2759C18.0934 64.251 18.267 64.1322 18.4216 64.0604C18.6873 63.9415 18.9232 63.7757 19.189 63.6542C19.2839 63.61 19.2378 63.4552 19.1375 63.4939C18.8337 63.6155 18.5192 63.6873 18.2155 63.8117C18.145 63.8393 18.0717 63.8642 17.9985 63.8918C18.0745 63.4967 18.145 63.1015 18.2073 62.7092C18.2724 62.8003 18.3836 62.8556 18.5165 62.8003C18.7036 62.723 18.8961 62.6401 19.0914 62.5848C19.3219 62.5213 19.5822 62.4909 19.7422 62.2947C19.7937 62.2339 19.7666 62.1344 19.7069 62.0902C19.3381 61.8194 18.6439 62.1538 18.2941 62.3306C18.2806 62.3361 18.2751 62.3472 18.2643 62.3555C18.3077 62.0653 18.3511 61.778 18.389 61.4934C18.3999 61.4215 18.2833 61.3939 18.2643 61.4657C17.9497 62.6705 17.665 63.9277 17.3097 65.1629C17.3097 65.1684 17.307 65.1712 17.307 65.1767C16.9708 66.34 16.564 67.4757 16.0054 68.5229C16.0054 68.5229 16.0054 68.5229 16.0027 68.5257V68.5312C15.6095 69.269 15.1349 69.957 14.5546 70.5787C14.5492 70.5787 14.5438 70.5815 14.5383 70.5843C14.4895 70.6091 14.4624 70.6451 14.4489 70.6865C14.3756 70.7639 14.3051 70.844 14.2292 70.9186C13.4075 71.7034 12.4666 72.4384 11.3819 72.7948C10.8666 72.9634 10.3243 73.0021 9.79007 73.0628C9.85515 73.0435 9.92024 73.0214 9.9799 73.0021C10.4219 72.8528 10.8151 72.6235 11.249 72.4577C11.3548 72.4163 11.3141 72.2505 11.2002 72.2809C10.6795 72.4328 10.0748 72.4605 9.52975 72.5213C9.62737 72.419 9.7277 72.3195 9.82261 72.2145C10.1751 72.2864 10.5575 72.1289 10.8829 71.9907C11.2219 71.8498 11.569 71.7199 11.9052 71.5735C12.0164 71.5237 11.9242 71.3635 11.8157 71.4077C11.3737 71.5901 10.9778 71.6895 10.506 71.7282C10.4084 71.7365 10.3107 71.742 10.2158 71.7531C10.3487 71.5873 10.4816 71.4215 10.609 71.2474C11.2653 71.2087 11.9595 70.8302 12.5018 70.5152C12.5994 70.4599 12.5072 70.3135 12.4123 70.366C12.0951 70.5345 11.7724 70.6727 11.4198 70.7528C11.249 70.7915 11.0754 70.8136 10.9019 70.8385C11.0076 70.6865 11.1107 70.5318 11.2137 70.3743C11.9351 70.225 12.5859 69.8714 13.2204 69.4983C13.3018 69.4514 13.234 69.3077 13.1499 69.3491C12.6184 69.6089 12.0598 69.7636 11.4985 69.9183C11.6449 69.6752 11.7913 69.432 11.9296 69.1806C12.6537 69.1336 13.4618 68.6362 14.0367 68.3046C14.137 68.2466 14.0475 68.0919 13.9472 68.1471C13.4726 68.4013 12.9737 68.5948 12.4449 68.697C12.3527 68.7136 12.2605 68.7302 12.1683 68.744C12.2849 68.5257 12.3961 68.3074 12.5072 68.0836C12.5208 68.0863 12.5316 68.0891 12.5452 68.0919C12.7594 68.1084 12.9384 67.9869 13.1391 67.915C13.4943 67.7907 13.8523 67.6663 14.1994 67.5171C14.476 67.3983 14.8502 67.2518 14.7227 66.8871C14.6902 66.7959 14.5655 66.8539 14.5899 66.9424C14.617 67.0336 13.4048 67.343 13.2747 67.3845C13.0984 67.4425 12.9276 67.495 12.7594 67.5613C12.876 67.3154 12.9872 67.0667 13.0984 66.818C13.413 66.8263 13.733 66.6605 14.0177 66.5362C14.4678 66.34 14.9017 66.1079 15.3112 65.8343C15.4034 65.7735 15.3166 65.6271 15.2217 65.6851C14.8556 65.9117 14.4787 66.1162 14.0692 66.2488C13.8143 66.3317 13.5241 66.3593 13.2638 66.4395C13.4021 66.1162 13.535 65.7956 13.6597 65.4724C13.939 65.5083 14.1885 65.3231 14.4516 65.1933C14.9126 64.9695 15.3654 64.7318 15.8264 64.5135C15.9159 64.4721 15.8454 64.3201 15.7559 64.356C15.2841 64.5356 14.8041 64.6959 14.3295 64.8727C14.1641 64.9335 13.9797 64.9777 13.8224 65.0551C13.9309 64.776 14.034 64.4969 14.1343 64.2234C15.0048 64.1377 15.7641 63.505 16.5044 63.0877C16.5884 63.0407 16.5261 62.8943 16.4339 62.9302C15.7234 63.2093 14.8827 63.3806 14.2617 63.8586C14.3892 63.505 14.5085 63.154 14.6251 62.8114C15.1973 62.6926 15.7613 62.4715 16.3037 62.2532C16.4013 62.2145 16.3362 62.0432 16.2359 62.0792C15.7396 62.256 15.2407 62.3665 14.7336 62.4881C14.9587 61.8111 15.162 61.1728 15.3437 60.5898C15.3736 60.4931 15.2163 60.4268 15.1783 60.5235C14.2075 62.9081 13.253 65.3591 11.973 67.5972C10.3189 70.4875 7.65322 74.041 4.09269 73.994C4.20387 73.6514 4.36658 73.306 4.49945 72.9855C4.52386 72.9275 4.52657 72.8639 4.51301 72.8031C6.80715 70.1781 8.36641 66.4975 9.5189 63.2286C10.7446 59.7553 11.6124 56.141 11.9595 52.4605C12.1384 50.576 12.1195 48.4511 12.7188 46.6439C13.5865 44.0272 16.6589 44.4168 18.8012 44.834C21.5455 45.3701 24.6803 46.2212 27.3324 44.9556C27.3378 44.986 27.3405 45.0192 27.3459 45.0496C28.2001 50.0979 31.6576 54.2344 35.5137 57.3375C35.7822 58.8766 35.3971 60.4958 34.5076 61.7697L34.4995 61.7807ZM36.7231 59.0286C36.4872 59.4513 36.2188 59.8603 35.8554 60.1808C35.8337 60.2002 35.8147 60.2168 35.793 60.2333C36.0561 59.3657 36.0859 58.5008 35.8798 57.647C36.1049 57.8238 36.3299 57.9951 36.5577 58.1637C36.696 58.2659 36.837 58.3654 36.978 58.4649C36.9075 58.6583 36.8262 58.849 36.7259 59.0286H36.7231ZM51.5483 64.2096C51.3937 63.9388 51.2364 63.6707 51.09 63.3889C50.9517 63.1209 50.8188 62.8446 50.6886 62.5682C50.7537 62.6511 50.8486 62.7119 50.9598 62.7036C51.372 62.6815 51.7842 62.6484 52.1964 62.6124C52.3048 62.9938 52.416 63.3723 52.5299 63.7509C52.2289 63.9277 51.9035 64.0797 51.5483 64.2068V64.2096ZM53.3326 59.1723C53.2621 58.9595 52.9394 59.0507 53.0018 59.269C53.0967 59.5978 53.1807 59.9266 53.2702 60.2582C52.8716 60.366 52.4757 60.4848 52.0825 60.6119C51.9089 60.1062 51.7354 59.6033 51.5618 59.1004C52.4431 59.0009 53.319 58.8821 54.1949 58.755C54.3088 59.1474 54.4092 59.5425 54.5122 59.9377C54.2275 60.0068 53.9427 60.0786 53.6607 60.1532C53.5495 59.8271 53.4356 59.5038 53.3272 59.175L53.3326 59.1723ZM53.5875 61.4298C53.2024 61.5016 52.8201 61.5818 52.4377 61.6702C52.3862 61.5182 52.3374 61.3662 52.2859 61.2115C52.6357 61.1618 53.0479 61.101 53.4817 61.0319C53.517 61.1645 53.5522 61.2944 53.5875 61.427V61.4298ZM53.0072 63.4304C52.915 63.1402 52.8255 62.8528 52.7306 62.5627C52.8553 62.5517 52.9801 62.5406 53.1075 62.5268C53.3489 62.5019 53.5983 62.4549 53.8505 62.408C53.8641 62.4605 53.8804 62.513 53.8939 62.5655C53.6282 62.8943 53.3353 63.1817 53.0072 63.4304ZM54.6207 61.2668C54.4363 61.2916 54.2546 61.3137 54.0702 61.3441C54.0268 61.217 53.9834 61.0899 53.94 60.9628C54.2112 60.9214 54.4851 60.8772 54.7563 60.8302C54.7644 60.8578 54.7698 60.8882 54.778 60.9158C54.7237 61.0319 54.6749 61.1507 54.6207 61.264V61.2668ZM54.8946 63.7481C54.8756 63.6901 54.8566 63.6348 54.8376 63.5768C54.9732 63.3171 55.0979 63.0546 55.2281 62.7921C55.2525 62.8971 55.2796 63.0021 55.304 63.1071C55.1793 63.3392 55.0437 63.5575 54.8973 63.7481H54.8946ZM55.304 59.7525C55.2661 59.7608 55.2281 59.7691 55.1901 59.7774C55.0573 59.4044 54.919 59.0369 54.7671 58.6694C54.8837 58.6528 55.0003 58.6362 55.1169 58.6196C55.2715 58.5948 55.4288 58.5754 55.5861 58.5561C55.5996 58.6003 55.6105 58.6417 55.6213 58.6859C55.6403 58.7467 55.6566 58.8158 55.6728 58.8766C55.5508 59.1695 55.4261 59.4596 55.2986 59.7525H55.304ZM55.9033 57.3734C55.7976 57.0695 55.6918 56.7683 55.5806 56.4671C55.7949 56.4339 56.0118 56.4035 56.226 56.3704C56.1176 56.7047 56.0091 57.0391 55.9006 57.3734H55.9033ZM56.9338 59.3298C56.885 59.3408 56.8389 59.3546 56.7928 59.3685C56.8416 59.2331 56.8877 59.0977 56.9338 58.9623C57.0179 58.7495 57.0992 58.5367 57.1806 58.324C57.2375 58.3129 57.2945 58.3046 57.3487 58.2908C57.2104 58.639 57.0748 58.9844 56.9338 59.3325V59.3298ZM57.2511 53.2176C55.1223 53.4138 53.0533 54.0548 51.0764 54.9004C50.8269 55.0081 51.0005 55.3646 51.2446 55.2817C53.0262 54.6765 54.8186 54.3698 56.6409 54.1681C56.687 54.3311 56.7331 54.4969 56.7792 54.66C56.7006 54.9059 56.6192 55.1546 56.5406 55.4005C56.4647 55.4143 56.386 55.4281 56.3101 55.442C55.9576 55.4972 55.6105 55.5608 55.2661 55.6243C55.1983 55.4447 55.1278 55.2623 55.0573 55.0827C54.9759 54.8755 54.6749 54.9556 54.7264 55.1795C54.7671 55.3563 54.8105 55.5304 54.8512 55.7045C53.6634 55.9421 52.5001 56.2405 51.3449 56.6439C51.1035 56.7268 51.2554 57.075 51.4778 57.0474C52.6764 56.9092 53.8641 56.7268 55.0546 56.5445C55.1522 56.9368 55.2525 57.3292 55.3556 57.7216C55.0518 57.7879 54.7481 57.857 54.4471 57.9233C54.3224 57.647 54.1976 57.3734 54.0648 57.1026C53.9726 56.9175 53.6824 57.0612 53.7448 57.2518C53.8288 57.5088 53.9021 57.7686 53.9807 58.0283C53.1211 58.2217 52.2615 58.4207 51.4073 58.6307C51.3937 58.592 51.3801 58.5505 51.3666 58.5119C51.3123 58.3544 51.0493 58.4317 51.0927 58.5948C51.1035 58.6307 51.1117 58.6666 51.1225 58.7025C51.0954 58.708 51.071 58.7136 51.0439 58.7219C50.7673 58.7909 50.8649 59.1833 51.1388 59.1529C51.174 59.1502 51.2066 59.1446 51.2391 59.1419C51.3829 59.6807 51.5293 60.2168 51.6757 60.7556C51.4967 60.8164 51.3151 60.8716 51.1388 60.938C50.9381 61.0126 51.0168 61.3718 51.2283 61.3552C51.3232 61.3469 51.5347 61.322 51.8222 61.2833C51.8683 61.4519 51.9171 61.6205 51.9659 61.7863C51.5754 61.883 51.1876 61.9852 50.8025 62.0902C50.6317 62.1372 50.5856 62.2809 50.6181 62.4163C50.0893 61.2889 49.6229 60.1007 49.3328 58.9153C49.2812 58.7025 48.926 58.7854 48.9667 59.0009C49.2433 60.4572 49.5009 61.8636 50.0622 63.2397C50.2575 63.7177 50.4581 64.2262 50.7076 64.6987C50.4744 64.613 50.2385 64.5135 49.9999 64.3975C49.8344 64.3146 49.6609 64.2289 49.4955 64.146C48.3538 61.637 47.0061 59.374 46.4502 56.6025C46.4014 56.3566 46.0271 56.3925 46.0651 56.6495C46.3878 58.9346 46.9139 61.4547 48.1504 63.4746C47.6705 63.2342 47.1905 62.9938 46.7024 62.7478C46.8217 62.7423 46.9329 62.6456 46.8732 62.5019C46.4285 61.4132 45.6394 60.4599 45.1133 59.3961C44.5221 58.2024 44.1018 56.9507 43.8957 55.6299C43.8632 55.4254 43.5703 55.4945 43.592 55.6934C43.8279 57.9786 44.4679 61.1673 46.442 62.6124C45.6692 62.2201 44.8936 61.8194 44.1154 61.4049C43.5215 60.167 42.7025 59.0617 42.1439 57.7879C41.5853 56.5141 41.1297 55.1629 40.8884 53.7896C40.8531 53.5851 40.5223 53.6486 40.5413 53.8531C40.7636 56.0803 41.268 58.65 42.5887 60.5677C42.049 60.2665 41.5094 59.9653 40.9779 59.6475C39.8932 57.0004 38.5834 54.5439 37.9678 51.6785C37.919 51.4547 37.599 51.5569 37.637 51.7752C38.0573 54.135 38.559 56.6301 39.6274 58.8103C39.0092 58.4151 38.399 58.0034 37.8024 57.5807C37.8078 57.4508 37.8051 57.3209 37.7943 57.1911C37.9461 57.4011 38.1034 57.6055 38.277 57.799C38.4749 58.0228 38.7488 57.7133 38.6376 57.4867C37.458 55.0247 36.2296 52.8667 35.8852 50.0869C35.8635 49.9211 35.6168 49.9404 35.6303 50.109C35.793 52.2809 36.235 54.6323 37.3631 56.5389C37.3441 56.76 37.3197 56.9838 37.2872 57.2049C36.8289 56.8678 36.376 56.5224 35.9394 56.1659C36.0994 56.141 36.2377 56.0029 36.1699 55.8095C35.2398 53.2093 34.0005 50.7887 33.3253 48.0808C33.2874 47.9316 33.0406 47.9924 33.0677 48.1444C33.5612 50.739 34.1497 53.5243 35.5164 55.8177C34.8276 55.232 34.166 54.624 33.545 53.983C33.629 54.0382 33.7158 54.0963 33.8053 54.1433C33.9083 54.1985 34.0005 54.088 33.9545 53.9885C33.5721 53.1209 32.8914 52.4218 32.4521 51.5707C31.9478 50.5925 31.644 49.5398 31.5112 48.4455C31.4895 48.2687 31.1912 48.2908 31.2047 48.4704C31.2942 49.7139 31.6115 51.3718 32.3382 52.6318C31.88 52.0764 31.4407 51.5044 31.0447 50.9048C30.7654 49.805 30.3153 48.7357 29.9953 47.6553C29.4963 45.9531 29.2279 44.1958 28.756 42.4881C28.7018 42.2947 28.4144 42.3389 28.4198 42.5406C28.4415 43.469 28.5282 44.519 28.6882 45.5967C28.5743 45.1518 28.4713 44.6987 28.3927 44.2317C28.1839 42.9938 28.1893 41.7227 28.3872 40.4848C28.7208 41.8443 28.9675 43.2121 29.6482 44.4638C29.7214 44.5992 29.9329 44.5605 29.9139 44.3919C29.7458 42.7506 29.0435 41.3303 28.5228 39.7995C28.6557 39.2054 28.8347 38.6224 29.0543 38.0559C29.2496 38.9678 29.6048 39.9073 30.1444 40.5594C30.2421 40.6754 30.4671 40.6644 30.4861 40.482C30.5946 39.3187 30.1444 37.9205 29.5831 36.8899C29.8272 36.4201 30.1092 35.9752 30.4156 35.547C30.5105 36.7572 30.8576 38.0587 31.4217 39.1087C31.5003 39.2524 31.7173 39.2027 31.7254 39.0369C31.7796 37.752 31.4895 36.3317 30.9959 35.1463C30.9634 35.0662 30.9119 35.0164 30.8522 34.986C31.1614 34.613 31.4976 34.2621 31.8556 33.936C31.88 35.1877 32.1376 36.5776 32.6962 37.6857C32.7748 37.8432 32.9809 37.7686 32.9999 37.6138C33.1436 36.3345 32.8589 34.9004 32.4196 33.7011C32.3952 33.6348 32.3518 33.5851 32.3003 33.5519C32.6067 33.3032 32.9348 33.0794 33.2711 32.8694C33.2711 32.8694 33.2711 32.8722 33.2711 32.8749C33.2684 33.0076 33.1952 33.1181 33.2169 33.2507C33.2575 33.4911 33.3199 33.7067 33.3958 33.936C33.526 34.3229 33.7511 34.6904 33.9653 35.0358C34.0521 35.1739 34.2256 35.0496 34.2202 34.9225C34.2039 34.5218 34.1687 34.1101 34.0765 33.7205C34.0304 33.5271 33.9734 33.3364 33.8894 33.1568C33.808 32.9799 33.7023 32.9357 33.5911 32.781C33.5694 32.7506 33.5423 32.7313 33.5124 32.7202C33.9192 32.4853 34.3477 32.2809 34.7978 32.1123C35.0093 32.0322 35.2154 31.9714 35.4188 31.9189C35.2832 32.267 35.1747 32.6649 35.1069 33.0739C35.1015 32.9219 35.0663 32.781 35.0283 32.6318C34.9741 32.4218 34.6459 32.513 34.7137 32.7064C34.7761 32.8832 34.8249 33.0518 34.9388 33.1982C34.9795 33.2507 35.0527 33.2369 35.088 33.1899C35.0012 33.7675 35.0012 34.3615 35.1422 34.8783C35.1883 35.0413 35.4079 35.0385 35.4812 34.9004C35.9042 34.0825 36.1076 33.0159 36.2621 32.1123C36.2866 31.9741 36.2432 31.8609 36.1699 31.778C36.4384 31.7476 36.6987 31.7448 36.9564 31.7559C36.8831 32.3361 37.0079 32.9606 37.0052 33.5464C37.0052 34.1046 36.913 34.6821 37.1082 35.2154C37.1624 35.3646 37.3414 35.3701 37.439 35.2679C37.8811 34.8037 37.9353 34.1101 37.957 33.4939C37.9733 32.9799 37.9624 32.3748 37.778 31.8691C38.1224 31.941 38.4614 32.046 38.7922 32.1759C38.4695 32.723 38.5915 33.5298 38.5698 34.1433C38.5481 34.8479 38.559 35.5442 38.7705 36.2239C38.8193 36.3814 39.0254 36.3925 39.0824 36.2322C39.3481 35.4779 39.359 34.6931 39.3617 33.9001C39.3617 33.4138 39.4403 32.8611 39.2939 32.3941C39.7061 32.5876 40.1128 32.8224 40.5169 33.0739C40.4355 33.4027 40.5359 33.7757 40.5494 34.1322C40.5793 34.9252 40.6091 35.7763 40.807 36.5528C40.845 36.702 41.0375 36.7213 41.0972 36.5749C41.4036 35.8177 41.4172 34.9612 41.3494 34.1543C41.3331 33.9775 41.325 33.7785 41.2979 33.5851C41.3494 33.621 41.4009 33.6542 41.4524 33.6901C41.7263 33.8807 41.9948 34.0272 42.266 34.135C42.3066 34.3975 42.369 34.6544 42.4314 34.9142C42.209 34.7594 41.9948 34.5909 41.7995 34.3919C41.6531 34.2427 41.3955 34.4693 41.5257 34.6351C41.8456 35.0413 42.2009 35.3784 42.5968 35.6658C42.6049 35.7017 42.6131 35.7404 42.6185 35.7763C42.6971 36.2516 42.7324 36.7434 42.8381 37.2132C42.8734 37.3734 43.0822 37.3734 43.1391 37.2297C43.272 36.8926 43.3344 36.503 43.3371 36.0996C43.4293 36.1438 43.5134 36.1935 43.6083 36.2322C43.7981 36.3096 44.0177 36.3787 44.2482 36.4284C44.2889 37.1054 44.3459 37.7824 44.4625 38.4538C44.4869 38.5892 44.6984 38.6307 44.7391 38.4842C44.9289 37.8045 44.9804 37.1468 44.9425 36.4947C45.2055 36.4837 45.4577 36.4256 45.6665 36.293C45.7885 36.2156 45.7722 36.0581 45.6448 36.0001C45.4062 35.8896 45.1404 35.8399 44.8719 35.7984C44.8421 35.6077 44.7987 35.4171 44.7581 35.2264C45.2435 35.2568 45.7207 35.1933 46.1465 35.0081C46.2115 35.6989 46.2929 36.387 46.4258 37.0418C46.4556 37.1883 46.6671 37.2132 46.7159 37.0639C47.063 35.9808 46.9519 34.7097 46.5803 33.6044C47.0495 33.411 47.4969 33.1706 47.8901 32.8777C47.9525 33.2176 47.9932 33.5602 48.0176 33.9084C47.9416 33.9636 47.8684 34.0217 47.7898 34.0742C47.5864 34.2123 47.5186 34.4113 47.3369 34.5577C47.204 34.6627 47.3288 34.8423 47.4725 34.8009C47.7111 34.7318 47.863 34.7484 48.0555 34.6738C48.0691 35.1104 48.0772 35.547 48.0962 35.9752C48.1016 36.0941 48.2806 36.1438 48.3267 36.0222C48.5491 35.4475 48.6196 34.8838 48.5897 34.3256C48.7145 34.2289 48.8338 34.1267 48.9531 34.0244C49.0263 33.9609 49.0887 33.889 49.1538 33.82C49.189 34.3339 49.2351 34.8479 49.3273 35.3591C49.3626 35.5525 49.6094 35.4972 49.6609 35.3535C49.7314 35.1601 49.7856 34.9529 49.8344 34.7429C51.3829 33.469 52.877 32.2836 54.4851 31.358C54.5854 31.7034 54.6803 32.0487 54.759 32.4052C54.759 32.4107 54.7644 32.4135 54.7671 32.419C54.6668 32.4494 54.5936 32.5544 54.6397 32.6843C54.7075 32.8749 54.778 33.0628 54.8512 33.2507C53.1346 34.3754 51.494 35.6437 49.951 36.6412C49.7558 36.7683 49.9402 37.0612 50.1382 36.9479C50.751 36.5997 52.877 35.2485 55.1223 33.9471C55.3095 34.4168 55.4911 34.8865 55.6593 35.3646C53.6228 36.4422 51.7299 37.868 50.187 39.5398C50.1056 39.6282 50.2195 39.7967 50.3226 39.7166C51.9008 38.4815 53.4628 37.3016 55.2064 36.3234C55.3935 36.2184 55.6132 36.0968 55.8572 35.967C55.8681 36.0029 55.8816 36.036 55.8898 36.0692C55.982 36.387 56.0552 36.7103 56.1203 37.0336C54.8403 37.7216 53.6309 38.5505 52.5245 39.4983C52.3265 39.6669 52.5597 39.9764 52.7686 39.8216C53.8966 38.9816 55.0546 38.2936 56.2477 37.7271C56.302 38.0394 56.3508 38.3488 56.4023 38.6611C55.8491 38.8683 55.304 39.1059 54.759 39.3353C54.6098 39.3988 54.6776 39.6503 54.8403 39.6144C55.3962 39.4928 55.9576 39.3878 56.5081 39.2386C56.5297 39.3629 56.5514 39.4845 56.5758 39.6088C56.6219 39.8244 56.9202 39.841 56.9609 39.6116C56.9907 39.4486 57.0016 39.2745 57.0179 39.1059C57.4219 39.0009 57.8205 38.8821 58.127 38.5865C58.2354 38.4842 58.1459 38.2936 58.0131 38.2715C57.6768 38.219 57.3704 38.3074 57.0612 38.4151C57.0667 38.078 57.0504 37.7354 57.0124 37.39C57.308 37.2629 57.6117 37.1579 57.9127 37.0446C58.0863 37.8017 58.2571 38.5616 58.4524 39.3187C58.4632 39.3629 58.4849 39.3933 58.5147 39.4127C56.6952 40.0371 54.9407 40.9131 53.254 41.7862C53.1292 41.8498 53.2295 42.057 53.357 42.0101C55.2579 41.2916 57.0992 40.6589 58.9839 40.167C58.9025 40.5566 58.8239 40.9435 58.7452 41.3358C58.5554 41.4215 58.3629 41.5044 58.1758 41.5983C58.0619 41.6536 58.1405 41.8415 58.2598 41.8056C58.3981 41.7641 58.5364 41.731 58.6747 41.6923C58.6097 42.0156 58.5473 42.3389 58.4822 42.6649C58.1595 42.6981 57.8368 42.734 57.5141 42.7782C57.5304 42.256 57.5385 41.7365 57.5358 41.2253C57.5358 40.786 56.8253 40.7998 56.7874 41.2253C56.7358 41.789 56.668 42.3499 56.5921 42.9136C55.5833 43.0767 54.5827 43.2894 53.5929 43.5492C53.3977 43.6017 53.4573 43.8863 53.6553 43.8586C54.6098 43.7288 55.5562 43.6293 56.5053 43.5492C56.4375 44.0244 56.3643 44.4969 56.2884 44.9694C55.2851 45.2237 54.3007 45.5967 53.357 46.1134C53.216 46.1908 53.2757 46.456 53.4465 46.4035C54.3522 46.1189 55.2552 45.8951 56.1637 45.7321C56.0959 46.1438 56.0281 46.5583 55.963 46.97C55.2661 47.2518 54.5936 47.6083 53.9482 48.0311C53.7556 48.1582 53.9238 48.4234 54.1244 48.3323C54.6939 48.0753 55.2688 47.868 55.8491 47.694C55.7542 48.3046 55.6674 48.9153 55.5888 49.526C55.3122 49.6696 55.0437 49.8189 54.7915 49.9791C54.6586 50.062 54.702 50.3162 54.881 50.2693C55.0925 50.2112 55.3067 50.1587 55.5183 50.1007C55.4803 50.4323 55.445 50.7611 55.4179 51.0927C55.4098 51.1922 55.4722 51.2612 55.5535 51.2972C54.0756 51.5182 52.6357 51.9576 51.3666 52.5876C51.1632 52.687 51.2527 53.049 51.4859 52.9855C53.5089 52.4356 55.3908 52.2063 57.3216 52.1648C57.3216 52.2726 57.3134 52.3803 57.3107 52.4881C57.3107 52.5765 57.3568 52.6401 57.4165 52.6788C57.3595 52.8556 57.3026 53.0297 57.2456 53.2065L57.2511 53.2176ZM57.3568 51.1479C56.8389 51.159 56.3209 51.1977 55.8057 51.2668C55.8193 51.253 55.8328 51.2364 55.841 51.217C56.0389 50.786 56.2125 50.3383 56.3698 49.8852C56.7304 49.794 57.0938 49.7111 57.4572 49.631C57.4138 50.1366 57.3785 50.6423 57.3568 51.1479ZM57.5439 48.744C57.2348 48.8379 56.9284 48.9402 56.6328 49.059C56.7901 48.5174 56.9229 47.9647 57.0314 47.4066C57.2592 47.3596 57.487 47.3209 57.7175 47.285C57.6524 47.7713 57.5955 48.2576 57.5466 48.7467L57.5439 48.744ZM57.8368 46.4201C57.6144 46.4643 57.3948 46.5141 57.1779 46.5749C57.2294 46.2405 57.2728 45.9062 57.3134 45.5691C57.5358 45.5442 57.7582 45.5304 57.9778 45.511C57.929 45.815 57.8829 46.1162 57.8368 46.4201ZM57.3975 44.7484C57.4355 44.3229 57.4626 43.9001 57.4843 43.4773C57.769 43.458 58.0537 43.4442 58.3385 43.4276C58.2626 43.8365 58.1866 44.2455 58.1161 44.6544C57.8748 44.6793 57.6361 44.7097 57.3975 44.7484ZM61.9261 50.9849C61.7282 50.9628 61.5356 50.9158 61.3458 50.8578C61.3865 50.7362 61.4272 50.6147 61.4678 50.4931C61.6333 50.6699 61.8095 50.8385 62.0048 50.9932C61.9776 50.9932 61.9532 50.9877 61.9261 50.9849ZM64.4453 51.5182C64.3097 51.4906 64.1742 51.463 64.0359 51.4353C63.9789 51.4243 63.941 51.4657 63.9355 51.5127C63.0623 51.1894 62.2705 50.6561 61.6414 49.9708C61.7282 49.7056 61.8149 49.4375 61.9017 49.1695C62.2081 49.3325 62.5281 49.5011 62.8563 49.5812C62.9051 49.6614 62.9512 49.7415 63 49.8189C62.7478 49.794 62.501 49.7995 62.2434 49.7829C62.162 49.7774 62.1322 49.9073 62.2054 49.9404C62.482 50.0675 62.7288 50.2112 63.0135 50.3162C63.1545 50.366 63.301 50.4129 63.4447 50.4599C63.5342 50.576 63.6264 50.6893 63.7213 50.7998C63.6101 50.7528 63.4989 50.7114 63.3878 50.6672C63.1979 50.5925 62.9837 50.6174 62.7966 50.5483C62.6854 50.5069 62.6095 50.6699 62.718 50.7197C62.8861 50.7998 63.0135 50.9379 63.1735 51.0347C63.2928 51.1065 63.4284 51.1562 63.5586 51.2143C63.8081 51.3248 64.0982 51.4298 64.3775 51.4464C64.4074 51.4712 64.4399 51.4989 64.4697 51.5237C64.4616 51.5237 64.4508 51.521 64.4426 51.5182H64.4453ZM85.719 43.2314C83.4167 42.1344 81.2636 40.6727 79.1322 39.2745C79.0481 39.2192 78.9532 39.3629 79.0345 39.4237C79.5091 39.794 80.0352 40.2029 80.5965 40.6285C80.1138 40.8219 79.6393 41.0208 79.1322 41.1618C79.0318 41.1894 79.0698 41.369 79.1728 41.3441C79.7423 41.2115 80.328 41.0651 80.865 40.8302C81.1497 41.0429 81.4453 41.2612 81.749 41.4795C80.9707 41.4464 80.187 41.7918 79.4467 41.9769C79.3518 41.999 79.3816 42.1593 79.4765 42.1482C80.3199 42.0598 81.2961 42.1399 82.0608 41.7061C82.2968 41.8747 82.5381 42.0432 82.7822 42.209C82.6113 42.2366 82.4351 42.3085 82.2642 42.3555C81.7761 42.4853 81.2907 42.6318 80.8026 42.7589C80.7077 42.7838 80.7375 42.9468 80.8324 42.9302C81.3341 42.8445 81.8412 42.7755 82.3429 42.6926C82.6303 42.6456 82.9394 42.6567 83.1483 42.4632C83.433 42.6539 83.7204 42.8418 84.0133 43.0269C83.7557 43.1126 83.5008 43.2563 83.2432 43.3392C82.831 43.4663 82.4079 43.5188 81.9795 43.5436C81.8683 43.5492 81.8764 43.7205 81.9876 43.7177C82.4785 43.7039 82.9639 43.6459 83.4438 43.5436C83.7476 43.4801 84.1028 43.4303 84.355 43.2424C84.5828 43.3834 84.816 43.5215 85.0465 43.6569C84.8729 43.7011 84.6994 43.7564 84.5231 43.8117C84.3929 43.8531 83.2242 44.3008 83.1944 44.2123C83.1672 44.1239 83.0289 44.1515 83.0533 44.2427C83.151 44.6185 83.5415 44.5218 83.837 44.4583C84.2058 44.3809 84.5692 44.2759 84.9299 44.1709C85.136 44.1129 85.3502 44.1101 85.5183 43.9719C85.5292 43.9636 85.5373 43.9526 85.5454 43.9443C85.7597 44.0631 85.9766 44.1764 86.1908 44.2897C86.1068 44.3311 86.0227 44.3726 85.9386 44.4113C85.4478 44.6351 84.9299 44.765 84.3957 44.8313C84.2818 44.8451 84.2926 45.0247 84.4092 45.0137C85.0655 44.9501 86.0091 44.8921 86.6301 44.5108C86.885 44.6351 87.1399 44.7539 87.3949 44.8672C86.8471 45.0662 86.2993 45.2596 85.719 45.3563C85.6268 45.3729 85.6512 45.5276 85.7434 45.5221C86.4729 45.4585 87.2077 45.3756 87.883 45.0772C88.0538 45.1463 88.2274 45.2154 88.3982 45.2789C88.2409 45.3591 88.0863 45.4392 87.9264 45.5083C87.5955 45.6464 87.2511 45.721 86.8959 45.7652C86.7874 45.7791 86.7928 45.9504 86.904 45.9393C87.525 45.8841 88.3087 45.7901 88.8673 45.4447C89.068 45.5138 89.2714 45.5746 89.472 45.6326C89.388 45.6796 89.3066 45.7293 89.2199 45.7791C88.8104 46.0222 88.428 46.1687 87.9643 46.2764C87.8504 46.3041 87.864 46.4892 87.9833 46.4643C88.344 46.3897 88.6992 46.2958 89.0572 46.2156C89.4015 46.1383 89.8056 46.0471 90.0551 45.7846C90.1934 45.8177 90.329 45.8399 90.4673 45.8675C89.9846 46.1328 89.472 46.4616 88.9595 46.6384C88.8483 46.6771 88.908 46.8401 89.0192 46.8097C89.4666 46.6937 89.9195 46.6522 90.3669 46.5224C90.4266 46.5058 90.4917 46.4837 90.5567 46.4643C90.0849 46.7241 89.6158 47.0087 89.1005 47.1662C88.0077 47.5005 86.8227 47.4453 85.7109 47.274C85.6051 47.2574 85.5048 47.2325 85.4017 47.2132C85.3692 47.1855 85.3258 47.1717 85.2716 47.18C85.2661 47.18 85.2607 47.18 85.2553 47.1828C84.4309 47.0087 83.6553 46.7158 82.9205 46.34C82.9205 46.34 82.9178 46.3372 82.915 46.3372C82.915 46.3372 82.9123 46.3372 82.9096 46.3372C81.8656 45.8012 80.8948 45.1048 79.9701 44.3422C79.9674 44.3394 79.9619 44.3367 79.9592 44.3339C78.9776 43.5271 78.042 42.6567 77.1092 41.8498C77.055 41.8028 76.9736 41.8912 77.0224 41.9437C77.2122 42.1565 77.4075 42.3693 77.6054 42.582C77.5919 42.582 77.581 42.5793 77.5675 42.582C77.1797 42.6373 76.4231 42.7672 76.2713 43.2038C76.2469 43.2728 76.2794 43.3696 76.3553 43.3917C76.594 43.458 76.8245 43.3336 77.0522 43.2535C77.2421 43.1844 77.4482 43.143 77.6461 43.096C77.7844 43.0628 77.8468 42.9523 77.8495 42.8418C78.1207 43.1292 78.3973 43.4138 78.682 43.6929C78.6088 43.7122 78.5329 43.7343 78.4596 43.7536C78.1397 43.8282 77.8414 43.9498 77.5241 44.0272C77.4183 44.0521 77.4671 44.2068 77.5702 44.1875C77.8576 44.1322 78.1424 44.1322 78.4298 44.0769C78.5952 44.0438 78.804 44.0438 78.9613 43.9636C79.1322 44.1294 79.3084 44.2925 79.482 44.4527C79.0752 44.6268 78.6576 44.7705 78.2291 44.8672C78.1288 44.8893 78.1668 45.0385 78.259 45.0385C78.7959 45.0385 79.284 44.9308 79.7613 44.7042C79.9592 44.881 80.1626 45.0523 80.366 45.2209C79.9321 45.3176 79.4874 45.4862 79.0833 45.5912C78.9749 45.6188 79.0291 45.7818 79.1349 45.757C79.6149 45.6547 80.1735 45.6105 80.6562 45.4558C80.827 45.5912 81.0005 45.7238 81.1768 45.8509C80.7673 46.0139 80.3497 46.1797 79.924 46.2737C79.8182 46.2958 79.8643 46.4505 79.9592 46.4505C80.2901 46.4478 80.5504 46.4671 80.8785 46.3814C81.1144 46.3206 81.3531 46.2405 81.5754 46.1355C81.7788 46.2764 81.9822 46.4091 82.191 46.5389C81.7788 46.6992 81.2799 46.8429 80.846 46.8761C80.7511 46.8843 80.7429 47.0308 80.8433 47.028C81.2961 47.0142 81.7056 47.0032 82.1503 46.8899C82.2859 46.8539 82.4432 46.8208 82.5869 46.7683C82.8472 46.9175 83.113 47.0612 83.3842 47.1911C83.2676 47.227 83.1537 47.2684 83.0316 47.3016C82.7306 47.3817 82.4269 47.4591 82.1232 47.5365C82.0093 47.5668 82.0717 47.7354 82.1829 47.7078C82.4757 47.6387 82.7686 47.5696 83.0588 47.4978C83.2866 47.4425 83.5143 47.4259 83.734 47.3486C83.9021 47.4232 84.073 47.495 84.2438 47.5586C83.9292 47.7133 83.6147 47.8763 83.2866 47.9648C83.1781 47.9924 83.2323 48.1609 83.3381 48.1305C83.8506 47.9951 84.439 47.9786 84.9516 47.7879C85.0302 47.81 85.1088 47.8238 85.1875 47.8459C84.9678 47.9426 84.7428 48.0255 84.5204 48.1195C84.336 48.1969 84.1733 48.3323 83.9835 48.3903C83.8913 48.4179 83.9157 48.5754 84.0133 48.5616C84.2275 48.5312 84.439 48.5727 84.6533 48.545C84.8648 48.5174 85.0709 48.4566 85.277 48.4013C85.5698 48.3212 85.9007 48.2466 86.1312 48.0449C86.2912 48.0698 86.4539 48.0919 86.6166 48.1084C86.1203 48.2908 85.6702 48.5202 85.2065 48.7771C85.1224 48.8241 85.1821 48.9595 85.2688 48.9484C85.7678 48.8821 86.2369 48.7992 86.7278 48.6694C87.1237 48.5644 87.6009 48.4842 87.8694 48.1582C87.9426 48.1582 88.0186 48.1582 88.0918 48.1526C86.4512 49.2165 84.7238 49.6973 82.7198 49.4044C81.2609 49.1916 80.0135 48.3074 78.8366 47.4591C77.4861 46.4837 76.1275 45.4475 75.1377 44.0797C75.0754 43.994 74.9371 44.0742 74.9967 44.1654C75.1811 44.4583 75.3818 44.7456 75.5987 45.033C75.455 45.0302 75.3086 45.0938 75.1703 45.1242C74.91 45.185 74.6496 45.2402 74.3893 45.2927C74.2971 45.3121 74.27 45.4613 74.3785 45.4723C74.6361 45.5027 74.8612 45.5221 75.1188 45.4862C75.3438 45.4585 75.6204 45.442 75.7777 45.2623C75.9757 45.5138 76.1872 45.7597 76.4069 46.0029C76.255 46.0305 76.1004 46.0747 75.9513 46.1079C75.653 46.177 75.3547 46.2516 75.0564 46.3289C74.9967 46.3455 75.0184 46.445 75.0781 46.4339C75.3493 46.3925 75.6177 46.3455 75.8862 46.2958C76.1031 46.2543 76.3391 46.2322 76.5533 46.1604C76.7133 46.3317 76.8814 46.5003 77.0522 46.6633C76.9492 46.6799 76.8462 46.702 76.7458 46.7185C76.4502 46.7628 76.1628 46.8761 75.8726 46.9147C75.7642 46.9286 75.7723 47.1054 75.8808 47.0888C76.1736 47.0501 76.4665 47.0833 76.7648 47.0501C76.9628 47.028 77.177 47.0253 77.3695 46.9589C77.5593 47.133 77.7546 47.3016 77.9525 47.4646C77.9037 47.4701 77.8522 47.4757 77.8007 47.4812C77.6434 47.495 77.5051 47.5116 77.3505 47.5475C77.215 47.5779 77.0929 47.6415 76.9519 47.6525C76.8407 47.6636 76.8489 47.8376 76.96 47.8266C77.1743 47.8072 77.3858 47.8874 77.6027 47.868C77.8278 47.8459 78.1017 47.8791 78.2752 47.7161C78.5546 47.9316 78.842 48.1333 79.1322 48.3267C79.0047 48.3626 78.88 48.4096 78.7498 48.4428C78.3783 48.534 78.0068 48.6334 77.6244 48.6334C77.5295 48.6334 77.5132 48.7965 77.6109 48.8075C78.1614 48.86 79.0101 48.954 79.4738 48.5478C79.6067 48.6307 79.745 48.7025 79.8806 48.7799C79.6718 48.813 79.463 48.8434 79.2515 48.8766C79.0101 48.9153 78.7959 49.0479 78.5546 49.0838C78.4461 49.1004 78.4542 49.2745 78.5627 49.2579C78.7552 49.2331 78.9423 49.269 79.1349 49.2717C79.3437 49.2717 79.5498 49.2386 79.7559 49.211C79.9999 49.1806 80.263 49.1833 80.4962 49.1087C80.7809 49.2496 81.0711 49.374 81.3612 49.49C81.3612 49.5038 81.3612 49.5177 81.3639 49.5315C81.0982 49.5425 80.8243 49.6531 80.5667 49.7C80.2358 49.7581 79.867 49.8189 79.5335 49.8023C79.4305 49.7967 79.425 49.9681 79.5254 49.9819C80.1464 50.0675 80.968 50.2582 81.5429 49.8962C81.6243 49.8465 81.6405 49.7636 81.6243 49.689C81.711 49.7194 81.7978 49.7442 81.89 49.7664C81.9768 49.7885 82.0527 49.7967 82.1286 49.794C81.7598 49.9432 81.3965 50.1062 81.0087 50.1919C80.9165 50.2112 80.8921 50.3632 80.9978 50.377C79.9945 50.6119 78.9939 50.7003 77.8414 50.261C76.1655 49.6254 74.2429 48.4621 73.1663 46.8843C73.2694 46.7987 73.2233 46.6467 73.0904 46.6218C73.0578 46.6163 73.0226 46.6191 72.9901 46.6163C72.8626 46.4063 72.7487 46.1935 72.6565 45.9697C72.6158 45.873 72.4558 45.9172 72.4992 46.0167C72.5833 46.2212 72.6782 46.4201 72.7785 46.6163C72.5589 46.6357 72.3338 46.6882 72.1196 46.6882C71.7426 46.6882 71.325 46.655 70.959 46.5638C70.8478 46.5362 70.8206 46.6992 70.9237 46.7351C71.2925 46.865 71.6125 46.97 72.003 47.0059C72.285 47.0308 72.6755 47.0722 72.9738 46.9811C73.0931 47.1883 73.226 47.3845 73.3643 47.5807C72.9006 47.6553 72.3935 47.694 71.9379 47.6083C71.8294 47.5862 71.7942 47.7547 71.9026 47.7796C72.163 47.8404 72.4504 47.9482 72.7162 47.9537C72.9873 47.9592 73.2558 47.9426 73.5243 47.904C73.5487 47.9012 73.5676 47.8929 73.5866 47.8819C73.752 48.0946 73.9283 48.2991 74.1154 48.4953C73.8741 48.4815 73.6219 48.5146 73.3887 48.5284C72.9901 48.5533 72.5914 48.5561 72.1901 48.5533C72.0843 48.5533 72.0898 48.7163 72.1955 48.7219C72.6538 48.744 73.1067 48.7827 73.5649 48.8324C73.8632 48.8656 74.1751 48.9346 74.4625 48.8407C74.6605 49.0286 74.8693 49.2027 75.0835 49.3712C74.9995 49.3795 74.9181 49.385 74.834 49.3906C74.5412 49.4071 74.2537 49.4127 73.9609 49.4127C73.8551 49.4127 73.8605 49.5757 73.9663 49.5812C74.2212 49.5923 74.4734 49.6033 74.7283 49.6282C74.9913 49.6531 75.2598 49.7028 75.5255 49.7C75.775 49.8741 76.0353 50.0316 76.3011 50.1781C76.2523 50.1919 76.2008 50.2057 76.1519 50.2168C75.7452 50.3052 75.2571 50.3798 74.8395 50.3439C74.7256 50.3328 74.6903 50.5014 74.8069 50.5235C75.2516 50.6036 75.6367 50.681 76.0896 50.6312C76.3336 50.6036 76.6157 50.5732 76.8272 50.4433C76.9736 50.5124 77.1227 50.5732 77.2746 50.634C77.2475 50.6423 77.2231 50.6506 77.196 50.6561C76.8217 50.7556 76.4719 50.9186 76.1004 51.0264C76.0028 51.054 76.0353 51.2198 76.1357 51.2032C76.4801 51.1452 76.8299 51.1424 77.1743 51.0789C77.4454 51.0291 77.7627 51.0153 78.0149 50.8937C78.0203 50.8937 78.0258 50.8937 78.0312 50.8965C77.8088 51.0181 77.5919 51.1535 77.3668 51.2778C77.2827 51.3248 77.3424 51.4602 77.4292 51.4491C77.7329 51.4132 78.0366 51.4022 78.3376 51.3635C77.5268 51.6315 76.7594 51.9327 75.8293 51.9382C75.0917 51.9437 74.3622 51.568 73.6897 51.2972C73.4809 51.2143 73.2639 51.1176 73.0416 51.0181C72.9982 50.9048 72.8843 50.8108 72.7514 50.8495C72.7379 50.8551 72.7243 50.8578 72.7107 50.8633C71.8538 50.4461 70.9562 49.899 70.2729 49.1888C70.281 49.0673 70.1915 48.9429 70.0586 48.954C69.9692 48.8517 69.8851 48.7467 69.8065 48.6362C69.8634 48.5865 69.8281 48.4677 69.7414 48.4483C69.717 48.4428 69.6953 48.4373 69.6709 48.429C69.5136 48.183 69.3834 47.9205 69.2858 47.6415C69.2505 47.5337 69.0878 47.5862 69.1231 47.694C69.1963 47.9178 69.2885 48.1361 69.3889 48.3488C69.378 48.3488 69.3672 48.3433 69.3563 48.3433C69.1394 48.3267 68.9197 48.3157 68.7028 48.3019C68.3774 48.2825 68.0248 48.2107 67.713 48.324C67.6398 48.3488 67.6316 48.4759 67.6994 48.5119C67.9896 48.6611 68.3394 48.639 68.6594 48.6611C68.9712 48.6832 69.2505 48.6832 69.5488 48.6666C69.6166 48.7937 69.6926 48.9181 69.7685 49.0396C69.3888 49.1612 68.9468 49.2358 68.5807 49.1557C68.4804 49.1336 68.4425 49.28 68.5401 49.3104C68.8248 49.4016 69.0987 49.4956 69.397 49.5038C69.6085 49.5121 69.8146 49.4624 70.0126 49.3961C70.102 49.5177 70.1997 49.631 70.2946 49.747C69.896 49.7746 69.4919 49.8271 69.0987 49.8548C68.9875 49.8631 68.9956 50.0344 69.1068 50.0289C69.3482 50.0178 69.5922 50.0068 69.8336 49.9957C70.0532 49.9846 70.2783 49.9957 70.5007 49.9874C70.6525 50.1532 70.8125 50.3107 70.9779 50.4627C70.6579 50.4958 70.3217 50.4875 70.0044 50.4544C69.9122 50.4433 69.8471 50.5898 69.9502 50.6257C70.2783 50.739 70.5685 50.797 70.9156 50.7915C71.0267 50.7915 71.184 50.7915 71.3386 50.7749C71.485 50.8937 71.6396 51.007 71.7969 51.1148C71.5366 51.1866 71.2708 51.2723 71.0105 51.3082C70.9345 51.3193 70.9345 51.4519 71.0105 51.463C71.3386 51.5127 71.5989 51.5873 71.9352 51.5514C72.0789 51.5348 72.2199 51.5099 72.3609 51.4768C72.5399 51.579 72.7216 51.6757 72.9087 51.7641C72.7162 51.789 72.2145 51.9686 72.0491 51.8056C71.9921 51.7503 71.8945 51.8056 71.8999 51.8802C71.9298 52.2228 72.1738 52.3223 72.483 52.3582C72.5968 52.372 72.7135 52.3693 72.8301 52.3638C72.8328 52.3831 72.8436 52.4024 72.8626 52.419C72.868 52.4218 72.8707 52.4245 72.8762 52.4273C71.8511 52.372 70.8857 52.0349 69.8661 51.5458C68.1252 50.7114 66.1971 49.7912 65.4731 47.8597C65.4351 47.7603 65.2968 47.7934 65.2995 47.8957C65.3077 48.2411 65.3727 48.5505 65.4785 48.8352C65.3239 48.8434 65.1694 48.8545 65.0148 48.8379C64.7165 48.8048 64.448 48.7357 64.2067 48.5533C64.1199 48.487 64.0033 48.6113 64.0901 48.6832C64.4616 48.9871 65.107 49.3104 65.606 49.1308C65.69 49.2994 65.7904 49.4596 65.9015 49.6089C65.5355 49.6144 65.1639 49.6862 64.8114 49.6973C64.7219 49.7 64.7002 49.852 64.7952 49.8631C65.2778 49.9266 65.7985 50.1062 66.2975 50.0565C66.528 50.2831 66.791 50.4848 67.0649 50.6727C66.9564 50.6782 66.8507 50.681 66.7476 50.6782C66.4222 50.6644 66.0914 50.6229 65.766 50.6008C65.6629 50.5925 65.6222 50.7169 65.7117 50.7722C66.0615 50.996 66.4005 51.0872 66.8127 51.1258C67.0703 51.1507 67.4011 51.159 67.6588 51.0485C67.9354 51.2087 68.2147 51.358 68.494 51.5016C68.4777 51.5016 68.4641 51.5072 68.4479 51.5072C67.835 51.5541 67.0893 51.6205 66.4927 51.4878C66.3788 51.463 66.3463 51.6426 66.4602 51.6674C67.0296 51.7918 67.5069 51.9769 68.1035 52.0018C68.1577 52.0018 68.2201 52.0073 68.2852 52.0101C68.2743 52.0101 68.2635 52.0156 68.2553 52.0184C68.2228 52.0266 68.2092 52.0515 68.2038 52.0791C68.1089 52.0709 68.0086 52.0626 67.8947 52.0515C67.1273 51.9797 66.4086 51.7034 65.7063 51.3939C65.2046 51.1728 64.7057 50.8882 64.2447 50.5511C64.3748 50.4406 64.4128 50.2002 64.2311 50.1145C64.0521 50.0289 63.8569 49.9764 63.6616 49.9349C63.3091 49.4375 63.0027 48.9208 62.7396 48.4455C62.6908 48.3571 62.558 48.4262 62.5851 48.5202C62.6393 48.708 62.7071 48.8877 62.7803 49.0645C62.7342 48.9954 62.6827 48.9263 62.6393 48.8545C62.5797 48.7578 62.4414 48.849 62.4929 48.9484C62.5173 48.9954 62.5444 49.0396 62.5688 49.0866C62.379 49.0175 62.181 48.965 61.9858 48.9098C62.8563 46.1549 63.5857 43.3392 63.9111 40.4931C64.1308 40.3604 64.1281 40.051 63.9735 39.8796C63.9952 39.6392 64.0169 39.3961 64.0331 39.1557C64.1091 39.0009 64.0982 38.8324 64.063 38.6583C64.063 38.6334 64.0657 38.6086 64.0684 38.5837C64.1714 38.8352 64.3233 39.0562 64.5484 39.1999C64.6324 39.2524 64.7192 39.1806 64.7246 39.0949C64.7735 38.5174 64.4155 37.8957 64.2799 37.3458C64.2745 37.3237 64.2636 37.3071 64.2528 37.2905C64.204 37.133 64.1498 36.9783 64.0874 36.8236C64.0738 36.4201 64.0359 36.0139 63.9816 35.605C64.1904 35.4254 64.1389 35.0026 63.8704 34.9114C63.8325 34.7097 63.7918 34.508 63.7457 34.309C63.9328 34.204 64.1145 34.0908 64.2935 33.9802C65.0853 33.4939 65.9802 32.8832 66.2947 31.9603C66.3192 31.8885 66.2514 31.7862 66.17 31.8305C65.6439 32.1178 65.2751 32.5434 64.8413 32.9523C64.5104 33.2618 64.1525 33.5022 63.7891 33.726C63.8189 33.6404 63.8054 33.5436 63.7186 33.4746C63.6454 33.4165 63.5667 33.3668 63.4881 33.3198C63.3932 33.0131 63.282 32.7092 63.1654 32.4107C64.7572 31.3635 66.1049 29.8189 67.3903 28.4842C68.917 26.8982 71.2247 24.7926 73.4022 26.4422C74.9045 27.5807 76.076 29.3408 77.2773 30.786C79.6203 33.6072 82.351 36.0747 85.2987 38.2217C88.0728 40.2416 91.4109 42.3638 94.7627 43.19C94.7871 43.248 94.825 43.2977 94.8766 43.3309C95.164 43.516 95.4921 43.7067 95.7741 43.9222C92.8726 46.0278 88.6965 44.6489 85.7217 43.2342L85.719 43.2314Z" fill="#4B3A2A"/>
<path d="M71.729 27.6056C69.6735 26.9231 68.38 29.5288 67.317 30.7335C67.2844 30.7722 67.336 30.8275 67.3712 30.7915C68.5617 29.6503 70.5901 27.7078 72.2822 28.7772C73.5648 29.5896 74.3268 31.0237 75.5309 31.9272C75.6231 31.9963 75.7695 31.93 75.7315 31.8001C75.2109 30.0814 73.4211 28.1693 71.729 27.6056Z" fill="#4B3A2A"/>
<path d="M79.8484 35.5914C78.8044 34.7569 77.8797 33.7677 76.8764 32.8862C76.795 32.8144 76.6974 32.9249 76.7625 33.0078C77.5028 33.939 78.338 34.7597 79.2058 35.5693C80.1684 36.4646 81.1663 37.6279 82.4192 38.0755C82.5249 38.1142 82.5954 37.9843 82.5358 37.9014C81.8551 36.9592 80.7487 36.3154 79.8484 35.5942V35.5914Z" fill="#4B3A2A"/>
<path d="M70.5005 32.5518C70.3595 32.4827 70.186 32.6568 70.289 32.7949C70.7039 33.3503 71.249 33.7897 71.7289 34.2843C72.3418 34.9198 72.933 35.5802 73.5404 36.2213C73.6217 36.307 73.7763 36.2158 73.7194 36.1025C73.0252 34.7596 71.8754 33.2205 70.5032 32.5518H70.5005Z" fill="#4B3A2A"/>
<path d="M69.6957 33.3642C69.6306 33.2924 69.5032 33.4002 69.5656 33.4748C70.3248 34.4087 71.1031 35.3675 72.0522 36.1108C72.1146 36.1606 72.1905 36.0694 72.1417 36.0086C71.3987 35.0636 70.5092 34.2429 69.6957 33.3615V33.3642Z" fill="#4B3A2A"/>
<path d="M68.8386 33.903C68.76 33.856 68.6868 33.9555 68.7274 34.0274C69.3159 35.0718 70.2623 36.0611 71.0975 36.9094C71.1653 36.9785 71.29 36.8817 71.2466 36.7961C70.7206 35.7101 69.8718 34.533 68.8386 33.903Z" fill="#4B3A2A"/>
<path d="M68.3368 34.779C68.2148 34.6906 68.0331 34.8646 68.1226 34.9917C68.6025 35.6687 69.1123 36.4562 69.793 36.9426C69.896 37.0172 70.0398 36.9315 69.9991 36.7989C69.7415 35.9561 69.0229 35.2764 68.3368 34.7817V34.779Z" fill="#4B3A2A"/>
<path d="M67.6267 35.4505C67.548 35.3786 67.4531 35.4781 67.4775 35.5638C67.7135 36.4093 68.3778 37.2742 69.0341 37.8351C69.1073 37.8959 69.2266 37.8102 69.1832 37.7218C68.8144 36.9426 68.2558 36.0335 67.6267 35.4505Z" fill="#4B3A2A"/>
<path d="M67.0646 36.0224C66.91 35.7295 66.4951 35.9561 66.5656 36.2518C66.7066 36.8431 66.9886 37.4123 67.493 37.7688C67.5879 37.8378 67.7398 37.7605 67.7154 37.6306C67.5988 37.0586 67.333 36.5309 67.0646 36.0224Z" fill="#4B3A2A"/>
<path d="M66.0237 36.3373C65.9532 36.0417 65.5247 36.1522 65.579 36.4451C65.7172 37.2216 65.9505 38.0837 66.5714 38.6114C66.6555 38.6805 66.7965 38.6253 66.7667 38.5009C66.5769 37.7631 66.2081 37.0806 66.0264 36.3346L66.0237 36.3373Z" fill="#4B3A2A"/>
<path d="M64.76 36.68C64.7193 36.6441 64.6569 36.6579 64.6244 36.6966C64.4047 36.9536 64.5105 37.3791 64.5864 37.6775C64.6596 37.9621 64.8305 38.2744 65.08 38.4236C65.1667 38.4761 65.2562 38.3987 65.2589 38.3103C65.2725 38.0671 65.1776 37.7825 65.1044 37.5504C65.0122 37.2686 64.985 36.8845 64.7573 36.6772L64.76 36.68Z" fill="#4B3A2A"/>
<path d="M26.443 47.1498C26.527 47.1029 26.4809 46.984 26.3969 46.9785C25.3827 46.9343 24.4254 47.1913 23.3814 47.0393C22.793 46.9536 22.2533 46.821 21.6622 46.8873C21.57 46.8984 21.5727 47.0227 21.6323 47.0669C22.4079 47.6417 23.4817 47.6251 24.4065 47.5671C25.0952 47.5229 25.8274 47.4842 26.4457 47.1498H26.443Z" fill="#4B3A2A"/>
<path d="M20.1084 46.6553C18.5627 46.2822 16.0408 44.8896 14.7365 46.6442C13.6599 48.0893 13.2586 50.7006 13.7874 52.4165C13.828 52.5464 13.9853 52.5132 14.0233 52.4027C14.5087 50.9603 14.3324 49.3411 14.9344 47.9291C15.729 46.0695 18.4814 46.4895 20.0976 46.7354C20.1491 46.7437 20.16 46.6691 20.1112 46.6553H20.1084Z" fill="#4B3A2A"/>
<path d="M13.4537 53.972C13.1202 55.279 12.9114 56.6302 12.5209 57.9206C12.1819 59.0342 11.6341 60.203 11.6016 61.3746C11.5989 61.4796 11.7291 61.5432 11.7941 61.452C12.5724 60.3578 12.7432 58.8242 13.0361 57.5282C13.2992 56.3594 13.5269 55.2016 13.6164 54.0052C13.6246 53.9002 13.4808 53.8642 13.4537 53.972Z" fill="#4B3A2A"/>
<path d="M18.5087 49.9986C17.7522 51.3443 17.6681 53.2785 17.8471 54.7844C17.8633 54.9115 18.0423 54.8977 18.0613 54.7789C18.1996 53.8975 18.3162 53.0132 18.4681 52.1345C18.5847 51.4493 18.788 50.7723 18.8206 50.076C18.8287 49.9019 18.5901 49.8577 18.5114 49.9986H18.5087Z" fill="#4B3A2A"/>
<path d="M19.6254 50.1976C19.4492 51.3941 19.1753 52.585 19.0939 53.7925C19.0885 53.8672 19.2024 53.9003 19.2241 53.8229C19.5902 52.6596 19.6932 51.4217 19.7936 50.2114C19.8017 50.112 19.639 50.0982 19.6227 50.1949L19.6254 50.1976Z" fill="#4B3A2A"/>
<path d="M20.6291 50.1451C20.1302 51.2614 20.0922 52.7204 20.2657 53.9196C20.2793 54.0135 20.4339 54.0218 20.4529 53.9251C20.6671 52.7425 20.8922 51.383 20.7918 50.181C20.7864 50.0981 20.6671 50.0594 20.6291 50.1423V50.1451Z" fill="#4B3A2A"/>
<path d="M21.5325 50.5734C21.2478 51.3803 21.0363 52.3557 21.2939 53.1957C21.3346 53.3283 21.5 53.3173 21.5434 53.1957C21.8308 52.4027 21.8119 51.4577 21.8254 50.6232C21.8281 50.4657 21.5841 50.427 21.5325 50.5734Z" fill="#4B3A2A"/>
<path d="M22.492 50.7144C22.3022 51.5572 22.3483 52.6293 22.4812 53.4831C22.4975 53.5826 22.6439 53.5826 22.6683 53.4886C22.8934 52.6486 22.9584 51.5516 22.6791 50.7199C22.652 50.637 22.5164 50.6066 22.492 50.7144Z" fill="#4B3A2A"/>
<path d="M23.2727 50.8579C23.3378 51.4326 23.411 52.0212 23.6361 52.5572C23.6849 52.6761 23.853 52.6539 23.8937 52.5407C24.1106 51.9549 24.0239 51.3249 23.8096 50.7556C23.7012 50.471 23.2347 50.5235 23.2727 50.8551V50.8579Z" fill="#4B3A2A"/>
<path d="M24.3031 50.5125C24.5688 51.2309 24.6448 52.0046 24.9024 52.7231C24.9458 52.8419 25.0949 52.806 25.122 52.701C25.339 51.9079 25.0488 51.0624 24.7288 50.3439C24.6068 50.0732 24.1946 50.2279 24.3004 50.5125H24.3031Z" fill="#4B3A2A"/>
<path d="M25.6562 49.9959C25.6074 49.9821 25.5477 50.007 25.5369 50.0623C25.4664 50.3634 25.6562 50.695 25.7403 50.9796C25.8081 51.2117 25.8894 51.5019 26.0358 51.6925C26.0901 51.7644 26.2067 51.7754 26.2474 51.6815C26.3694 51.4107 26.3341 51.057 26.2365 50.7807C26.1335 50.4905 25.9816 50.0816 25.6589 49.9959H25.6562Z" fill="#4B3A2A"/>
<path d="M26.2965 50.3246C26.4918 50.8579 26.546 51.5736 26.9067 52.0212C26.9609 52.0875 27.0721 52.0958 27.1127 52.0046C27.3785 51.3802 26.9934 50.6286 26.6843 50.0953C26.5487 49.8632 26.2125 50.0897 26.2965 50.3246Z" fill="#4B3A2A"/>
<path d="M27.2001 49.9516C27.0998 49.8411 26.9316 49.9489 26.9316 50.0787C26.9316 50.4158 27.0211 50.7502 27.1323 51.068C27.2326 51.3553 27.3303 51.6482 27.6475 51.7256C27.6964 51.7367 27.7641 51.7118 27.794 51.6703C27.973 51.4106 27.8645 51.1066 27.7397 50.8414C27.5906 50.5236 27.4387 50.2086 27.2001 49.9516Z" fill="#4B3A2A"/>
<path d="M27.7258 49.4515C27.761 50.04 27.9048 50.6922 28.1217 51.2393C28.1705 51.3608 28.3169 51.3443 28.3576 51.2255C28.5664 50.6037 28.3576 49.8245 27.8858 49.3852C27.8315 49.3327 27.7204 49.3603 27.7258 49.4487V49.4515Z" fill="#4B3A2A"/>
</g>
<defs>
<clipPath id="clip0_16_17922">
<rect width="94" height="50" fill="white" transform="translate(3 25)"/>
</clipPath>
</defs>
</svg>
