<svg width="100" height="100" viewBox="0 0 100 100" fill="none" xmlns="http://www.w3.org/2000/svg">
<path d="M49.5841 51.1268C49.5386 51.0859 49.5613 51.1084 49.5841 51.1268V51.1268ZM36.5269 37.7494C36.5269 37.7494 36.531 37.7494 36.5352 37.7534C36.5331 37.7534 36.5289 37.7514 36.5269 37.7494ZM15.1773 33.9649C17.1966 37.5676 23.8876 41.6707 27.8765 40.576C27.9097 40.0633 27.2228 40.1838 26.8814 40.0899C23.9869 39.7345 20.9352 38.4764 18.7669 36.7915C18.7338 36.7629 18.5041 36.5954 18.5973 36.6608C17.2379 35.513 15.5662 34.259 15.349 32.382C14.6579 31.5835 14.8835 33.6728 15.1773 33.9649ZM31.4248 45.4184C26.6207 45.494 18.1876 44.3707 18.1193 38.2926C18.1607 38.0292 18.2952 37.2102 17.8131 37.59C15.5435 44.3359 26.4469 46.8011 31.4248 46.2027C31.9296 46.1904 31.9441 45.4225 31.4248 45.4184ZM34.8779 50.4405C31.4765 52.9261 15.9531 49.4929 19.1373 43.2331C19.671 42.8757 19.3959 43.7886 19.3586 44.0439C19.3462 48.4043 25.0607 49.5154 28.5138 50.1832C30.5062 50.461 32.5234 50.3527 34.5138 50.124C34.6979 50.1076 34.8552 50.2751 34.8779 50.4405ZM23.5793 48.8577H23.5752C23.5752 48.8577 23.5772 48.8577 23.5793 48.8577ZM18.7131 44.3482C18.7131 44.3482 18.7131 44.34 18.7131 44.3359C18.7131 44.3421 18.7069 44.385 18.7131 44.3482ZM24.649 53.0527C24.649 53.0527 24.6469 53.0527 24.6448 53.0507C24.6759 53.0731 24.6676 53.067 24.649 53.0527ZM25.8324 53.8452C29.5772 56.0223 36.8227 56.3266 40.4807 54.466C39.9862 53.7778 38.6393 54.5416 37.8655 54.4803C35.6393 54.803 33.0758 54.9909 30.9821 54.7009C28.0028 54.2107 23.9083 53.0078 23.209 49.689C23.18 49.4786 22.8303 49.4909 22.791 49.689C22.5076 51.5883 24.38 52.9608 25.8345 53.8431L25.8324 53.8452ZM66.1751 46.8746C65.8006 45.978 64.6089 46.507 64.9027 47.3811C65.2565 48.1225 66.5289 47.5486 66.1399 46.797C66.1523 46.8235 66.1627 46.8521 66.1751 46.8787C66.1751 46.8787 66.1751 46.8766 66.1751 46.8746ZM47.1738 45.3469C47.1758 45.3653 47.18 45.3918 47.1738 45.3469V45.3469ZM70.8551 48.2614C70.8696 48.2838 70.8882 48.3042 70.9048 48.3247C70.8882 48.3042 70.8717 48.2818 70.8551 48.2614ZM13.6855 72.4796C13.6855 72.4796 13.6855 72.4837 13.6855 72.4857C13.6938 72.4694 13.7 72.4571 13.7 72.453C13.6938 72.4612 13.6897 72.4714 13.6855 72.4796ZM13.8821 72.2856H13.8842C13.8842 72.2856 13.8842 72.2856 13.8821 72.2856ZM13.8076 73.6458C13.82 73.6703 13.8304 73.6948 13.8076 73.6458V73.6458ZM69.4999 56.8168C69.4999 56.8168 69.5041 56.7841 69.5061 56.7698C69.5061 56.7861 69.502 56.8004 69.4999 56.8168ZM71.8896 48.9374C71.7985 49.1253 71.7116 49.3152 71.6268 49.5051C71.7572 49.7666 72.0427 50.2343 71.6206 50.3752C71.6392 50.608 71.2937 50.6448 71.1199 50.6877C70.3565 52.6463 69.8041 54.6886 69.5082 56.7678C69.5144 56.7228 69.5041 56.8045 69.502 56.8188C69.502 56.8188 69.502 56.8168 69.502 56.8147C69.2889 57.3805 69.4937 61.6939 68.3765 59.9579C68.2606 56.7964 69.0489 53.6327 70.2758 50.7285C69.4751 50.7061 68.6744 50.6101 67.9068 50.3813C62.0889 55.3095 62.8006 56.0284 60.9799 62.9663C57.9944 71.8363 50.9041 74.6159 41.9972 73.607C38.9393 78.7067 34.6814 83.6125 28.9028 85.6998C26.0145 86.6658 21.4669 87.3806 19.7559 84.2068C19.7559 84.2068 19.7248 84.1312 19.7455 84.17C19.7021 84.0843 19.7062 83.9842 19.7579 83.9107C19.611 83.6166 19.4331 83.3306 19.3069 83.0284C16.5821 82.8507 12.2269 78.7292 16.34 77.2015C14.5048 76.405 11.2421 73.172 13.6048 71.4809C15.6531 71.4605 17.7304 72.2427 19.8345 71.9445C28.5076 71.0745 36.6076 66.5894 42.4938 60.3255C38.1179 60.2377 31.7041 60.7687 29.6455 56.0182C29.7634 55.1747 30.349 56.1898 30.5496 56.4532C31.2303 57.36 32.1903 58.032 33.2372 58.4711C37.8034 60.009 42.8124 59.4698 47.5379 59.1042C49.3648 60.2418 43.9234 60.205 43.3296 60.299C43.2945 60.3541 43.1827 60.5604 43.1951 60.5175C41.8089 62.3638 39.7027 64.1325 38.0352 65.4519C31.2738 70.476 22.4331 74.2238 13.8924 72.2856C13.9317 72.2692 13.8821 72.2917 13.8676 72.2876C13.8759 72.2876 13.8821 72.2876 13.8904 72.2876C13.8138 72.3223 13.7435 72.3734 13.7083 72.453C13.7042 72.4449 13.6855 72.5041 13.6773 72.5164C13.6855 72.5021 13.6876 72.4959 13.6938 72.4857C13.5614 72.8676 13.6586 73.2843 13.8159 73.6458C13.8117 73.6397 13.8097 73.6315 13.8055 73.6233C13.9752 74.0175 14.1945 74.3892 14.4531 74.7323C15.1524 75.6126 16.1062 76.2743 17.149 76.7052C20.9704 78.4453 25.6669 76.2927 29.269 74.4055C29.6207 74.2033 29.9372 74.7425 29.5855 74.9406C26.1014 77.0729 21.6179 79.0458 17.4469 77.6488C16.4145 77.416 15.1524 78.333 15.3386 79.297C15.3635 79.4563 15.409 79.6156 15.4752 79.7647C16.8593 82.0991 20.0745 82.6485 22.6007 82.3483C26.5752 81.7682 30.3717 79.0008 33.229 76.115C34.0317 75.5431 34.5986 74.0726 35.5648 73.9909C33.7441 78.6005 25.3731 84.0087 20.0662 83.1632C20.2173 83.4654 20.7262 83.878 20.3786 84.1986C21.0779 85.1483 22.2759 85.5384 23.4138 85.6814C29.8814 86.243 35.6207 81.2495 39.3407 76.3254C40.04 75.4655 40.8696 74.3055 41.6827 73.4007C40.7145 72.0548 49.8386 73.7111 52.1455 71.9813C52.1372 71.9853 52.1372 71.9853 52.1331 71.9874C53.1262 71.5769 54.2579 70.9009 55.011 70.3188C55.9772 69.5795 56.8524 68.7033 57.5972 67.7556C61.6379 63.4585 60.113 56.5206 64.5075 52.5871C73.0358 46.8072 66.9013 40.2696 60.531 44.8139C57.7068 47.4117 54.951 50.6754 51.1193 52.0785C51.5951 52.5094 52.8386 52.3726 52.8593 53.1038C52.8137 53.2998 52.5965 53.3958 52.4103 53.355C45.5 51.474 42.6345 43.1984 37.8717 38.5091C37.6772 38.3457 36.9614 37.9168 36.5434 37.7555C36.5476 37.7575 36.5538 37.7596 36.5558 37.7596C36.5186 37.7453 36.4752 37.7248 36.5352 37.7514C35.6434 37.3879 34.6917 37.1938 33.7379 37.0652C27.6903 36.4279 19.969 36.5076 15.3676 31.5631C15.1938 31.3731 15.4586 31.1117 15.6511 31.2833C21.9407 37.1121 30.6096 34.4816 37.7186 37.3327C41.8007 40.4636 43.6731 45.7023 47.5007 49.1886C46.0938 46.0046 45.9779 42.0628 47.0103 38.8175C46.731 37.8678 46.8282 32.8273 47.9186 32.9907C47.8379 30.6603 47.9289 27.3599 49.8613 25.8465C50.2275 23.6367 50.3641 20.5936 52.4703 19.2987C53.0662 17.2768 53.811 14.295 56.2668 13.911C56.4262 13.9049 56.4944 14.1397 56.3496 14.2112C52.9213 16.2862 52.6358 21.2287 52.9482 24.8151C52.8096 25.3706 54.3613 28.8692 53.0972 28.1115C51.92 25.6014 51.8537 22.6502 52.3275 19.9584C50.4344 22.7176 50.2793 26.3959 50.6082 29.6249C50.5503 30.8523 51.7337 32.7109 51.3075 33.6789C49.6793 31.896 49.8634 28.6139 49.8344 26.2468C47.751 30.0129 48.7275 34.2855 49.522 38.2416C48.62 39.567 48.0075 33.6789 47.931 33.0907C46.8944 36.7384 47.5338 40.8721 49.9048 43.8928C50.062 44.1971 50.6289 44.5341 50.3538 44.8935C48.7979 44.7097 47.6517 41.2336 47.2131 39.7999C47.0807 41.6462 46.9296 43.5068 47.1841 45.349C47.1841 45.3449 47.1841 45.3449 47.1841 45.3408C47.1903 45.3837 47.1965 45.4266 47.2007 45.4695C47.3248 46.4151 47.6331 47.6507 48.0593 48.6188C48.3634 49.4623 49.0048 50.1485 49.3627 50.9471C49.4413 51.0124 49.5179 51.0635 49.5965 51.1309C49.9069 51.3657 50.2317 51.5822 50.5689 51.7783C52.0462 51.0226 53.482 50.1689 54.8041 49.1661C54.8682 49.1171 55.1165 48.9272 55.2344 48.825C53.7551 42.8838 59.5006 37.9618 58.7227 32.0532C58.0255 26.0405 52.9648 19.0516 57.7358 13.5515C58.1951 13.2717 58.3234 13.8865 57.9551 14.1254C57.9551 14.1254 57.9468 14.1356 57.9406 14.1438C57.9448 14.1397 57.8682 14.2398 57.8951 14.203C57.1296 15.1752 56.6434 16.5354 56.5048 17.6587C56.1365 27.6662 62.991 30.7706 56.8855 41.7136C55.9731 43.8662 55.1537 46.2006 55.551 48.5616C57.8579 46.7275 59.4717 43.9765 62.3744 42.9574C65.3206 41.638 69.6158 43.4455 69.5103 46.94C70.1951 47.4322 70.7744 48.0694 71.2192 48.7801C71.4716 47.9591 76.313 40.6781 76.6378 42.2895C74.8213 44.3339 73.0647 46.458 71.8979 48.9415L71.8896 48.9374ZM52.9544 20.6732C52.9565 20.6569 52.9586 20.6405 52.9544 20.6732V20.6732ZM26.2276 35.4966C26.2379 35.4966 26.2421 35.4966 26.2276 35.4966V35.4966ZM68.7323 46.3722V46.3599C68.7323 46.3599 68.7323 46.3661 68.7323 46.3722ZM33.2538 58.4813L33.26 58.4854C33.2869 58.4956 33.2703 58.4895 33.2538 58.4813ZM20.989 84.8175C20.9621 84.797 20.9766 84.8073 20.989 84.8175V84.8175ZM33.6365 82.2073C33.5786 82.2502 33.6221 82.2175 33.6365 82.2073V82.2073ZM69.4337 47.5527C69.3406 48.0387 69.1585 48.5085 68.9248 48.9476C69.5889 49.0334 70.2406 49.2131 70.8613 49.4602C70.8613 49.4602 70.8613 49.4561 70.8634 49.4541C70.4827 48.7556 70.0006 48.1143 69.4337 47.5527ZM70.5158 50.1853C70.5489 50.1117 70.5799 50.0382 70.6151 49.9647C70.0027 49.7155 69.3572 49.5521 68.7034 49.4643C68.7282 49.4684 68.753 49.4704 68.7779 49.4745C68.7282 49.4684 68.6765 49.4623 68.6268 49.4541C68.4985 49.6481 68.3599 49.836 68.2151 50.0178C68.4365 50.0607 68.6599 50.0852 68.8834 50.1138C68.8606 50.1117 68.8399 50.1076 68.8172 50.1056C69.3799 50.1791 69.951 50.2057 70.5179 50.1873L70.5158 50.1853ZM69.2827 35.9378C69.3696 34.7308 71.2296 35.8929 71.8089 36.2155C74.2254 37.7984 75.0447 41.0049 74.3103 43.6804C74.2792 43.807 74.0723 43.7804 74.0785 43.6497C74.2047 41.2888 73.7579 38.6071 71.7261 37.104C71.2772 36.7772 70.7806 36.4994 70.2385 36.3626C70.6379 38.3457 71.6496 40.1267 72.8992 41.7034C72.502 44.4524 68.9496 36.8099 69.2827 35.9357V35.9378ZM72.7068 38.068C72.6841 38.0373 72.6944 38.0537 72.7068 38.068V38.068ZM86.3206 38.7358C86.3206 38.7664 86.3206 38.7869 86.3206 38.7358V38.7358ZM87.1399 39.3649C86.7654 40.6924 85.2964 40.2043 84.3013 40.4248C82.6399 41.2888 81.5951 43.4434 79.4682 43.2882C77.4489 43.3556 77.1634 40.7741 78.6841 42.1751C78.6799 42.1711 78.6799 42.1711 78.6758 42.167C79.0296 42.4223 79.4909 42.4754 79.9172 42.4202C79.9109 42.4202 79.9068 42.4223 79.9006 42.4243C82.0813 42.0832 83.0309 39.0401 85.4889 39.5568C85.7351 39.5589 86.0206 39.5691 86.1923 39.3649C86.1882 39.371 86.1882 39.373 86.184 39.3792C86.2275 39.322 86.2606 39.2587 86.2916 39.1953C86.2751 39.2239 86.2668 39.2403 86.2606 39.2484C86.3496 39.0789 86.3351 38.8767 86.3227 38.695C86.3227 38.7113 86.3227 38.7236 86.3227 38.7338C86.2916 38.4111 86.1013 38.1313 85.8427 37.9413C83.8109 36.6608 81.6571 37.3633 79.7661 38.8584C79.7723 38.8543 79.7723 38.8522 79.7765 38.8502C79.2468 39.275 78.7937 39.7141 78.4772 40.337C78.4172 40.4555 78.262 40.4902 78.1461 40.4432C77.6827 39.5916 79.1454 38.552 79.7661 38.0087C81.3427 36.7323 83.2668 35.9827 85.2613 36.7425C85.0668 35.9562 84.5806 35.2025 83.8627 34.792C84.024 35.2597 83.4592 36.381 83.0992 35.5559C83.2503 34.5041 82.5902 33.3542 81.4027 33.4093C81.7792 34.2549 82.0585 35.2352 81.862 36.1563C81.5661 36.6138 81.3323 36.0011 81.3592 35.7029C81.293 35.1882 81.1503 34.6327 80.9413 34.1548C80.6413 33.5687 80.273 32.719 79.5199 32.6659C79.5427 32.6578 79.4744 32.6721 79.4744 32.6659C79.4744 32.668 79.4806 32.6659 79.4847 32.668C79.3523 32.6945 79.2406 32.7803 79.1599 32.8845C79.162 32.8804 79.162 32.8783 79.1661 32.8743C79.1082 32.9682 79.0627 33.0213 79.013 33.1398C79.0296 33.0826 79.0089 33.152 78.9985 33.1663C78.9985 33.1663 79.0027 33.1622 79.0027 33.1602C78.9489 33.3072 78.9158 33.4604 78.8909 33.6136C78.8868 33.634 78.864 33.7484 78.8868 33.6361C78.9261 35.7703 77.1323 37.2857 76.7703 39.2995C76.7703 39.2975 76.7703 39.2975 76.7703 39.2954C76.6275 39.9653 76.9068 40.5658 77.1385 41.1744C76.8447 42.4815 75.6861 40.6046 75.8351 39.9674C75.6758 38.0557 77.1303 36.5893 77.7509 34.8982C77.9847 33.0009 78.8165 30.4071 80.9496 32.6333C81.0675 32.5883 81.202 32.6353 81.2806 32.7252C82.2654 32.6006 83.2999 33.1581 83.6765 34.0752C85.0275 34.2569 85.8985 35.7989 86.0247 37.0447C86.8709 37.4369 87.442 38.456 87.1399 39.3649ZM81.3385 32.8089C81.3385 32.8089 81.3365 32.8048 81.3344 32.8028C81.3385 32.8109 81.3427 32.8171 81.3468 32.8252C81.3447 32.8191 81.3427 32.813 81.3385 32.8069V32.8089ZM79.9151 42.4202C79.9544 42.4121 79.9916 42.3998 79.9151 42.4202V42.4202ZM79.7744 38.8522C79.7847 38.8441 79.7889 38.842 79.7868 38.8441C79.7827 38.8461 79.7785 38.8502 79.7744 38.8522ZM86.1902 39.3649C86.1902 39.3649 86.1923 39.3649 86.1923 39.3628C86.2171 39.3363 86.2275 39.2954 86.1902 39.3649ZM78.6758 42.167C78.6365 42.1241 78.6282 42.1261 78.6406 42.1404C78.6509 42.1506 78.6634 42.1608 78.6758 42.167ZM76.7723 39.2995C76.7723 39.2995 76.7723 39.2995 76.7723 39.3015C76.7661 39.3444 76.7806 39.4037 76.7723 39.2995ZM79.162 32.8865C79.133 32.9457 79.1413 32.9151 79.162 32.8865V32.8865ZM79.0047 33.1602C79.0047 33.1602 79.0109 33.15 79.0151 33.1398C79.0109 33.15 79.0068 33.152 79.0047 33.1602ZM79.493 32.668C79.493 32.668 79.4909 32.668 79.4889 32.668C79.5013 32.668 79.5158 32.668 79.524 32.6639C79.5116 32.6639 79.5034 32.6639 79.493 32.6659V32.668ZM76.7041 46.7275C76.7165 46.7357 76.7309 46.7378 76.7372 46.7378C76.7227 46.7378 76.7123 46.7316 76.7041 46.7275ZM80.0516 47.9223C80.4323 48.4533 81.1916 50.5304 79.9089 50.1934C77.6268 50.608 75.5641 47.0482 77.0123 47.8447C77.3723 48.9272 78.5247 49.7135 79.6875 49.6338C79.6875 49.6338 79.7372 49.6277 79.7516 49.6236C79.7434 49.5685 79.7351 49.5133 79.7268 49.4582C79.7206 49.2417 79.4206 48.4227 79.1206 48.0939C79.1806 48.2062 79.013 47.9693 79.0916 48.0592C78.7172 47.5833 78.2206 47.2157 77.6641 46.9685C77.571 46.9379 77.0082 46.7418 76.7372 46.7337C76.7454 46.7337 76.7268 46.7275 76.7041 46.7235C75.293 46.556 73.8716 47.1605 72.8599 48.1102C72.7027 48.2634 72.4875 48.0367 72.622 47.8753C74.4054 45.5266 78.4399 45.2346 80.0516 47.9162V47.9223ZM74.5027 47.0523C74.513 47.0482 74.5234 47.0441 74.5027 47.0523V47.0523ZM79.7558 49.6522C79.7558 49.6645 79.7558 49.6747 79.7578 49.6828C79.7578 49.6726 79.7578 49.6645 79.7537 49.6542L79.7558 49.6522Z" fill="#4B3A2A"/>
<path d="M78.6758 42.167C78.6799 42.1711 78.6799 42.1711 78.6841 42.1751C77.1634 40.7741 77.4489 43.3556 79.4682 43.2882C81.5951 43.4434 82.6399 41.2888 84.3013 40.4248C85.2965 40.2043 86.7654 40.6924 87.1399 39.3649C87.442 38.456 86.8709 37.4369 86.0247 37.0447C85.8985 35.7989 85.0275 34.2569 83.6765 34.0752C83.2999 33.1581 82.2654 32.6006 81.2806 32.7252C81.202 32.6353 81.0675 32.5883 80.9496 32.6333C78.8165 30.4071 77.9847 33.0009 77.7509 34.8982C77.1303 36.5893 75.6758 38.0557 75.8351 39.9674C75.6861 40.6046 76.8447 42.4815 77.1385 41.1744C76.9068 40.5658 76.6275 39.9653 76.7703 39.2954C76.7703 39.2975 76.7703 39.2975 76.7703 39.2995C77.1323 37.2857 78.9261 35.7703 78.8868 33.6361C78.864 33.7484 78.8868 33.634 78.8909 33.6136C78.9158 33.4604 78.9489 33.3072 79.0027 33.1602C79.0027 33.1622 78.9985 33.1663 78.9985 33.1663C79.0089 33.152 79.0296 33.0826 79.013 33.1398C79.0627 33.0213 79.1082 32.9682 79.1661 32.8743C79.162 32.8783 79.162 32.8804 79.1599 32.8845C79.2406 32.7803 79.3523 32.6945 79.4847 32.668C79.4806 32.6659 79.4744 32.668 79.4744 32.6659C79.4744 32.6721 79.5427 32.6578 79.5199 32.6659C80.273 32.719 80.6413 33.5687 80.9413 34.1548C81.1503 34.6327 81.293 35.1882 81.3592 35.7029C81.3323 36.0011 81.5661 36.6138 81.862 36.1563C82.0585 35.2352 81.7792 34.2549 81.4027 33.4093C82.5902 33.3542 83.2502 34.5041 83.0992 35.5559C83.4592 36.381 84.024 35.2597 83.8627 34.792C84.5806 35.2025 85.0668 35.9562 85.2613 36.7425C83.2668 35.9827 81.3427 36.7323 79.7661 38.0087C79.1454 38.552 77.6827 39.5916 78.1461 40.4432C78.262 40.4902 78.4172 40.4555 78.4772 40.337C78.7937 39.7141 79.2468 39.275 79.7765 38.8502C79.7723 38.8522 79.7723 38.8543 79.7661 38.8584C81.6571 37.3633 83.8109 36.6608 85.8427 37.9413C86.1013 38.1313 86.2916 38.4111 86.3227 38.7338C86.3227 38.7236 86.3227 38.7113 86.3227 38.695C86.3351 38.8767 86.3496 39.0789 86.2606 39.2484C86.2668 39.2403 86.2751 39.2239 86.2916 39.1953C86.2606 39.2587 86.2275 39.322 86.184 39.3792C86.1882 39.373 86.1882 39.371 86.1923 39.3649C86.0206 39.5691 85.7351 39.5589 85.4889 39.5568C83.0309 39.0401 82.0813 42.0832 79.9006 42.4243C79.9068 42.4223 79.9109 42.4202 79.9171 42.4202C79.4909 42.4754 79.0296 42.4223 78.6758 42.167ZM78.6758 42.167C78.6365 42.1241 78.6282 42.1261 78.6406 42.1404C78.6509 42.1506 78.6634 42.1608 78.6758 42.167ZM49.5841 51.1268C49.5386 51.0859 49.5613 51.1084 49.5841 51.1268ZM36.5269 37.7494C36.5269 37.7494 36.531 37.7494 36.5352 37.7534C36.5331 37.7534 36.5289 37.7514 36.5269 37.7494ZM15.1773 33.9649C17.1966 37.5676 23.8876 41.6707 27.8765 40.576C27.9097 40.0633 27.2228 40.1838 26.8814 40.0899C23.9869 39.7345 20.9352 38.4764 18.7669 36.7915C18.7338 36.7629 18.5041 36.5954 18.5973 36.6608C17.2379 35.513 15.5662 34.259 15.349 32.382C14.6579 31.5835 14.8835 33.6728 15.1773 33.9649ZM31.4248 45.4184C26.6207 45.494 18.1876 44.3707 18.1193 38.2926C18.1607 38.0292 18.2952 37.2102 17.8131 37.59C15.5435 44.3359 26.4469 46.8011 31.4248 46.2027C31.9296 46.1904 31.9441 45.4225 31.4248 45.4184ZM34.8779 50.4405C31.4765 52.9261 15.9531 49.4929 19.1373 43.2331C19.671 42.8757 19.3959 43.7886 19.3586 44.0439C19.3462 48.4043 25.0607 49.5154 28.5138 50.1832C30.5062 50.461 32.5234 50.3527 34.5138 50.124C34.6979 50.1076 34.8552 50.2751 34.8779 50.4405ZM23.5793 48.8577H23.5752C23.5752 48.8577 23.5772 48.8577 23.5793 48.8577ZM18.7131 44.3482C18.7131 44.3482 18.7131 44.34 18.7131 44.3359C18.7131 44.3421 18.7069 44.385 18.7131 44.3482ZM24.649 53.0527C24.649 53.0527 24.6469 53.0527 24.6448 53.0507C24.6759 53.0731 24.6676 53.067 24.649 53.0527ZM25.8324 53.8452C29.5772 56.0223 36.8227 56.3266 40.4807 54.466C39.9862 53.7778 38.6393 54.5416 37.8655 54.4803C35.6393 54.803 33.0758 54.9909 30.9821 54.7009C28.0028 54.2107 23.9083 53.0078 23.209 49.689C23.18 49.4786 22.8303 49.4909 22.791 49.689C22.5076 51.5883 24.38 52.9608 25.8345 53.8431L25.8324 53.8452ZM66.1751 46.8746C65.8006 45.978 64.6089 46.507 64.9027 47.3811C65.2565 48.1225 66.5289 47.5486 66.1399 46.797C66.1523 46.8235 66.1627 46.8521 66.1751 46.8787C66.1751 46.8787 66.1751 46.8766 66.1751 46.8746ZM47.1738 45.3469C47.1758 45.3653 47.18 45.3918 47.1738 45.3469ZM70.8551 48.2614C70.8696 48.2838 70.8882 48.3042 70.9048 48.3247C70.8882 48.3042 70.8717 48.2818 70.8551 48.2614ZM13.6855 72.4796C13.6855 72.4796 13.6855 72.4837 13.6855 72.4857C13.6938 72.4694 13.7 72.4571 13.7 72.453C13.6938 72.4612 13.6897 72.4714 13.6855 72.4796ZM13.8821 72.2856H13.8842C13.8842 72.2856 13.8842 72.2856 13.8821 72.2856ZM13.8076 73.6458C13.82 73.6703 13.8304 73.6948 13.8076 73.6458ZM69.4999 56.8168C69.4999 56.8168 69.5041 56.7841 69.5061 56.7698C69.5061 56.7861 69.502 56.8004 69.4999 56.8168ZM71.8896 48.9374C71.7985 49.1253 71.7116 49.3152 71.6268 49.5051C71.7572 49.7666 72.0427 50.2343 71.6206 50.3752C71.6392 50.608 71.2937 50.6448 71.1199 50.6877C70.3565 52.6463 69.8041 54.6886 69.5082 56.7678C69.5144 56.7228 69.5041 56.8045 69.502 56.8188C69.502 56.8188 69.502 56.8168 69.502 56.8147C69.2889 57.3805 69.4937 61.6939 68.3765 59.9579C68.2606 56.7964 69.0489 53.6327 70.2758 50.7285C69.4751 50.7061 68.6744 50.6101 67.9068 50.3813C62.0889 55.3095 62.8006 56.0284 60.9799 62.9663C57.9944 71.8363 50.9041 74.6159 41.9972 73.607C38.9393 78.7067 34.6814 83.6125 28.9028 85.6998C26.0145 86.6658 21.4669 87.3806 19.7559 84.2068C19.7559 84.2068 19.7248 84.1312 19.7455 84.17C19.7021 84.0843 19.7062 83.9842 19.7579 83.9107C19.611 83.6166 19.4331 83.3306 19.3069 83.0284C16.5821 82.8507 12.2269 78.7292 16.34 77.2015C14.5048 76.405 11.2421 73.172 13.6048 71.4809C15.6531 71.4605 17.7304 72.2427 19.8345 71.9445C28.5076 71.0745 36.6076 66.5894 42.4938 60.3255C38.1179 60.2377 31.7041 60.7687 29.6455 56.0182C29.7634 55.1747 30.349 56.1898 30.5496 56.4532C31.2303 57.36 32.1903 58.032 33.2372 58.4711C37.8034 60.009 42.8124 59.4698 47.5379 59.1042C49.3648 60.2418 43.9234 60.205 43.3296 60.299C43.2945 60.3541 43.1827 60.5604 43.1951 60.5175C41.8089 62.3638 39.7027 64.1325 38.0352 65.4519C31.2738 70.476 22.4331 74.2238 13.8924 72.2856C13.9317 72.2692 13.8821 72.2917 13.8676 72.2876C13.8759 72.2876 13.8821 72.2876 13.8904 72.2876C13.8138 72.3223 13.7435 72.3734 13.7083 72.453C13.7042 72.4449 13.6855 72.5041 13.6773 72.5164C13.6855 72.5021 13.6876 72.4959 13.6938 72.4857C13.5614 72.8676 13.6586 73.2843 13.8159 73.6458C13.8117 73.6397 13.8097 73.6315 13.8055 73.6233C13.9752 74.0175 14.1945 74.3892 14.4531 74.7323C15.1524 75.6126 16.1062 76.2743 17.149 76.7052C20.9704 78.4453 25.6669 76.2927 29.269 74.4055C29.6207 74.2033 29.9372 74.7425 29.5855 74.9406C26.1014 77.0729 21.6179 79.0458 17.4469 77.6488C16.4145 77.416 15.1524 78.333 15.3386 79.297C15.3635 79.4563 15.409 79.6156 15.4752 79.7647C16.8593 82.0991 20.0745 82.6485 22.6007 82.3483C26.5752 81.7682 30.3717 79.0008 33.229 76.115C34.0317 75.5431 34.5986 74.0726 35.5648 73.9909C33.7441 78.6005 25.3731 84.0087 20.0662 83.1632C20.2173 83.4654 20.7262 83.878 20.3786 84.1986C21.0779 85.1483 22.2759 85.5384 23.4138 85.6814C29.8814 86.243 35.6207 81.2495 39.3407 76.3254C40.04 75.4655 40.8696 74.3055 41.6827 73.4007C40.7145 72.0548 49.8386 73.7111 52.1455 71.9813C52.1372 71.9853 52.1372 71.9853 52.1331 71.9874C53.1262 71.5769 54.2579 70.9009 55.011 70.3188C55.9772 69.5795 56.8524 68.7033 57.5972 67.7556C61.6379 63.4585 60.113 56.5206 64.5075 52.5871C73.0358 46.8072 66.9013 40.2696 60.531 44.8139C57.7068 47.4117 54.951 50.6754 51.1193 52.0785C51.5951 52.5095 52.8386 52.3726 52.8593 53.1038C52.8137 53.2998 52.5965 53.3958 52.4103 53.355C45.5 51.474 42.6345 43.1984 37.8717 38.5091C37.6772 38.3457 36.9614 37.9168 36.5434 37.7555C36.5476 37.7575 36.5538 37.7596 36.5558 37.7596C36.5186 37.7453 36.4752 37.7248 36.5352 37.7514C35.6434 37.3879 34.6917 37.1938 33.7379 37.0652C27.6903 36.4279 19.969 36.5076 15.3676 31.5631C15.1938 31.3731 15.4586 31.1117 15.6511 31.2833C21.9407 37.1121 30.6096 34.4816 37.7186 37.3327C41.8007 40.4636 43.6731 45.7023 47.5007 49.1886C46.0938 46.0046 45.9779 42.0628 47.0103 38.8175C46.731 37.8678 46.8282 32.8273 47.9186 32.9907C47.8379 30.6603 47.9289 27.3599 49.8613 25.8465C50.2275 23.6367 50.3641 20.5936 52.4703 19.2987C53.0662 17.2768 53.811 14.295 56.2668 13.911C56.4262 13.9049 56.4944 14.1397 56.3496 14.2112C52.9213 16.2862 52.6358 21.2287 52.9482 24.8151C52.8096 25.3706 54.3613 28.8692 53.0972 28.1115C51.92 25.6014 51.8537 22.6502 52.3275 19.9584C50.4344 22.7176 50.2793 26.3959 50.6082 29.6249C50.5503 30.8523 51.7337 32.7109 51.3075 33.6789C49.6793 31.896 49.8634 28.6139 49.8344 26.2468C47.751 30.0129 48.7275 34.2855 49.522 38.2416C48.62 39.567 48.0075 33.6789 47.931 33.0907C46.8944 36.7384 47.5338 40.8721 49.9048 43.8928C50.062 44.1971 50.6289 44.5341 50.3538 44.8935C48.7979 44.7097 47.6517 41.2336 47.2131 39.7999C47.0807 41.6462 46.9296 43.5068 47.1841 45.349C47.1841 45.3449 47.1841 45.3449 47.1841 45.3408C47.1903 45.3837 47.1965 45.4266 47.2007 45.4695C47.3248 46.4151 47.6331 47.6507 48.0593 48.6188C48.3634 49.4623 49.0048 50.1485 49.3627 50.9471C49.4413 51.0124 49.5179 51.0635 49.5965 51.1309C49.9069 51.3657 50.2317 51.5822 50.5689 51.7783C52.0462 51.0226 53.482 50.1689 54.8041 49.1661C54.8682 49.1171 55.1165 48.9272 55.2344 48.825C53.7551 42.8838 59.5006 37.9618 58.7227 32.0532C58.0255 26.0405 52.9648 19.0516 57.7358 13.5515C58.1951 13.2717 58.3234 13.8865 57.9551 14.1254C57.9551 14.1254 57.9468 14.1356 57.9406 14.1438C57.9448 14.1397 57.8682 14.2398 57.8951 14.203C57.1296 15.1752 56.6434 16.5354 56.5048 17.6587C56.1365 27.6662 62.991 30.7706 56.8855 41.7136C55.9731 43.8662 55.1537 46.2006 55.551 48.5616C57.8579 46.7275 59.4717 43.9765 62.3744 42.9574C65.3206 41.638 69.6158 43.4455 69.5103 46.94C70.1951 47.4322 70.7744 48.0694 71.2192 48.7801C71.4716 47.9591 76.313 40.6781 76.6378 42.2895C74.8213 44.3339 73.0647 46.458 71.8979 48.9415L71.8896 48.9374ZM52.9544 20.6732C52.9565 20.6569 52.9586 20.6405 52.9544 20.6732ZM26.2276 35.4966C26.2379 35.4966 26.2421 35.4966 26.2276 35.4966ZM68.7323 46.3722V46.3599C68.7323 46.3599 68.7323 46.366 68.7323 46.3722ZM33.2538 58.4813L33.26 58.4854C33.2869 58.4956 33.2703 58.4895 33.2538 58.4813ZM20.989 84.8175C20.9621 84.797 20.9766 84.8072 20.989 84.8175ZM33.6365 82.2073C33.5786 82.2502 33.6221 82.2175 33.6365 82.2073ZM69.4337 47.5527C69.3406 48.0387 69.1585 48.5085 68.9248 48.9476C69.5889 49.0334 70.2406 49.2131 70.8613 49.4602C70.8613 49.4602 70.8613 49.4561 70.8634 49.4541C70.4827 48.7556 70.0006 48.1143 69.4337 47.5527ZM70.5158 50.1853C70.5489 50.1117 70.5799 50.0382 70.6151 49.9647C70.0027 49.7155 69.3572 49.5521 68.7034 49.4643C68.7282 49.4684 68.753 49.4704 68.7779 49.4745C68.7282 49.4684 68.6765 49.4623 68.6268 49.4541C68.4985 49.6481 68.3599 49.836 68.2151 50.0178C68.4365 50.0607 68.6599 50.0852 68.8834 50.1138C68.8606 50.1117 68.8399 50.1076 68.8172 50.1056C69.3799 50.1791 69.951 50.2057 70.5179 50.1873L70.5158 50.1853ZM69.2827 35.9378C69.3696 34.7308 71.2296 35.8929 71.8089 36.2155C74.2254 37.7984 75.0447 41.0049 74.3103 43.6804C74.2792 43.807 74.0723 43.7804 74.0785 43.6497C74.2047 41.2888 73.7579 38.6071 71.7261 37.104C71.2772 36.7772 70.7806 36.4994 70.2385 36.3626C70.6379 38.3457 71.6496 40.1267 72.8992 41.7034C72.502 44.4524 68.9496 36.8099 69.2827 35.9357V35.9378ZM72.7068 38.068C72.6841 38.0373 72.6944 38.0537 72.7068 38.068ZM86.3206 38.7358C86.3206 38.7664 86.3206 38.7869 86.3206 38.7358ZM81.3385 32.8089C81.3385 32.8089 81.3365 32.8048 81.3344 32.8028C81.3385 32.8109 81.3427 32.8171 81.3468 32.8252C81.3447 32.8191 81.3427 32.813 81.3385 32.8069V32.8089ZM79.9151 42.4202C79.9544 42.412 79.9916 42.3998 79.9151 42.4202ZM79.7744 38.8522C79.7847 38.8441 79.7889 38.842 79.7868 38.8441C79.7827 38.8461 79.7785 38.8502 79.7744 38.8522ZM86.1902 39.3649C86.1902 39.3649 86.1923 39.3649 86.1923 39.3628C86.2171 39.3363 86.2275 39.2954 86.1902 39.3649ZM76.7723 39.2995C76.7723 39.2995 76.7723 39.2995 76.7723 39.3015C76.7661 39.3444 76.7806 39.4037 76.7723 39.2995ZM79.162 32.8865C79.133 32.9457 79.1413 32.9151 79.162 32.8865ZM79.0047 33.1602C79.0047 33.1602 79.0109 33.15 79.0151 33.1398C79.0109 33.15 79.0068 33.152 79.0047 33.1602ZM79.493 32.668C79.493 32.668 79.4909 32.668 79.4889 32.668C79.5013 32.668 79.5158 32.668 79.524 32.6639C79.5116 32.6639 79.5034 32.6639 79.493 32.6659V32.668ZM76.7041 46.7275C76.7165 46.7357 76.7309 46.7378 76.7372 46.7378C76.7227 46.7378 76.7123 46.7316 76.7041 46.7275ZM80.0516 47.9223C80.4323 48.4533 81.1916 50.5304 79.9089 50.1934C77.6268 50.608 75.5641 47.0482 77.0123 47.8447C77.3723 48.9272 78.5247 49.7135 79.6875 49.6338C79.6875 49.6338 79.7372 49.6277 79.7516 49.6236C79.7434 49.5685 79.7351 49.5133 79.7268 49.4582C79.7206 49.2417 79.4206 48.4227 79.1206 48.0939C79.1806 48.2062 79.013 47.9693 79.0916 48.0592C78.7172 47.5833 78.2206 47.2157 77.6641 46.9685C77.571 46.9379 77.0082 46.7418 76.7372 46.7337C76.7454 46.7337 76.7268 46.7275 76.7041 46.7235C75.293 46.556 73.8716 47.1605 72.8599 48.1102C72.7027 48.2634 72.4875 48.0367 72.622 47.8753C74.4054 45.5266 78.4399 45.2346 80.0516 47.9162V47.9223ZM74.5027 47.0523C74.513 47.0482 74.5234 47.0441 74.5027 47.0523ZM79.7558 49.6522C79.7558 49.6645 79.7558 49.6747 79.7578 49.6828C79.7578 49.6726 79.7578 49.6645 79.7537 49.6542L79.7558 49.6522Z" stroke="#4B3A2A" stroke-width="0.4"/>
</svg>
