<svg width="100" height="100" viewBox="0 0 100 100" fill="none" xmlns="http://www.w3.org/2000/svg">
<path fill-rule="evenodd" clip-rule="evenodd" d="M41.5166 74.8776C42.0298 74.644 43.1612 74.1639 43.2178 75.0836C39.5918 74.9779 40.9676 79.7751 40.0938 81.9049C39.7857 82.6513 38.6295 83.5076 38.1201 84.1549C37.3099 85.188 36.6443 86.3133 35.8447 87.3571C35.6902 87.9411 38.0314 89.4198 38.5762 89.6745C41.028 90.8243 46.2959 89.8436 49.2998 90.0416C52.0134 90.2185 54.6743 90.8522 57.5576 90.9371C59.822 91.0044 60.8735 90.1271 62.5859 88.818C62.3845 88.8074 62.0908 88.8886 61.9209 88.7829C61.7475 88.6732 59.8721 85.7713 59.6279 85.3502C58.9451 84.1826 57.8765 81.8971 57.7031 80.5846C57.5405 79.3568 57.9467 76.8385 56.666 76.1627C56.206 75.9187 55.3187 76.088 55.7998 75.4264C56.097 75.0196 57.1653 75.4154 57.544 75.6383C59.1713 76.59 59.2563 80.0572 59.7656 81.8688C60.4626 84.363 61.3863 85.8988 62.5078 88.11C62.6243 88.3395 62.554 88.763 62.5889 88.8141L62.582 88.8219C62.6135 88.864 63.3987 88.8408 63.0283 89.5289C62.9611 89.6492 61.0746 91.0185 60.8057 91.1813C57.0305 93.4525 50.8108 90.6502 46.2998 90.9332C42.8326 91.1526 40.3596 92.6247 37.1719 90.3746C36.3334 89.7838 34.3091 88.3257 34.9424 87.236C31.7518 87.215 36.354 90.6226 37.2422 91.1852C40.2106 93.0604 43.5331 91.9174 46.6572 91.9811C49.2541 92.0342 52.3179 92.1822 54.9219 92.3414C56.9881 92.4653 58.1171 93.0851 60.2539 92.5651C61.655 92.2254 64.3262 91.6059 63.4629 89.6989C64.5385 89.7378 64.7189 90.7109 64.167 91.5495C63.5618 92.4658 60.9934 93.3719 59.9072 93.6266C57.2007 94.2563 52.216 93.2402 49.2901 93.0455C45.6849 92.8085 42.2561 93.782 38.7783 92.9967C37.2004 92.6394 33.4747 89.95 32.9688 88.4215C32.4876 86.9674 33.3012 86.7946 34.5254 86.5504C34.8509 86.4868 35.4385 86.6168 35.626 86.5036C35.7345 86.4347 36.6409 84.7313 36.9131 84.36C37.5464 83.4967 38.4351 82.7322 38.8526 81.7204C39.7227 79.6046 39.0082 76.0309 41.5166 74.8776ZM42.419 84.5934C42.84 84.6677 42.5287 85.0107 42.4756 85.1735C42.2669 85.8245 42.1328 86.5713 41.9453 87.109C41.8321 87.4272 41.3867 87.5227 41.2803 87.4098C40.9938 87.1056 41.8811 84.4994 42.419 84.5934ZM69.5459 8.72621C70.4156 8.44023 69.9982 9.64307 70.0654 9.79164C70.2212 10.1311 70.9146 9.9437 70.6494 10.7077C70.3133 11.6735 69.5239 10.5627 69.4531 10.6618C69.5345 11.1889 69.8849 13.595 68.7315 12.6998C68.5087 12.5264 68.7245 12.0346 68.3955 12.07C67.9888 12.9542 68.42 12.6399 68.7207 13.0534C69.3292 13.8883 69.0891 14.4829 68.042 14.1823C69.4568 15.4133 67.405 16.0218 67.334 14.7096C67.0759 14.409 66.5459 16.7482 66.5029 16.9557C66.2164 18.3179 66.1629 19.7444 65.9541 21.1207C66.0185 21.3965 66.8845 21.5737 66.8067 22.1041C67.7018 20.8057 68.746 20.7312 70.0303 21.6051C71.3286 22.4896 71.2262 24.0745 72.3477 25.0934L74.5479 19.1959C74.2012 18.2195 74.0886 20.5113 73.3174 19.5495C73.3705 19.0294 73.9288 18.6008 74.0137 18.1373C74.1656 17.309 73.5119 14.1822 74.9551 14.5641C75.6804 14.7552 75.1502 16.5602 75.083 17.1793C76.1479 16.2842 76.8622 15.0134 78.0899 14.2916C78.352 14.1394 80.5173 13.1847 80.6553 13.1705C81.426 13.1036 81.4864 13.9658 81.7656 14.2809C82.2574 14.8364 83.2239 14.9822 82.626 16.1002C82.1661 16.2842 81.38 15.9479 81.2666 15.4704C81.2135 15.2475 81.4298 14.9283 81.4121 14.9C81.346 14.8005 79.8796 14.3737 79.6074 14.402C78.6841 14.4979 77.0958 16.0853 76.8408 17.0016C77.5803 17.0016 78.8862 16.9209 79.4063 17.5153C79.8906 18.0705 79.7174 18.3146 79.042 18.4137C78.3946 18.5092 77.1064 18.7212 76.5332 18.7106C76.19 18.7035 75.9386 18.4209 75.8643 18.4245C75.5627 18.4442 73.0415 23.5086 73.3174 23.8659C73.8377 23.4482 75.2349 22.0443 75.9424 22.4723C76.5997 22.8689 74.7217 24.5137 74.375 24.8356C74.1378 25.055 73.0343 25.759 72.9883 25.8297C72.8433 26.0774 73.2538 26.7781 73.2998 27.1354C73.4977 28.6779 72.5883 30.7442 71.2617 31.5827C70.724 31.9223 69.6345 32.0603 69.4785 32.1735C69.2557 32.3362 69.0608 34.1788 68.0352 33.9C67.975 33.2846 67.9073 32.6371 67.3311 32.3151C67.1365 32.6795 66.6513 33.6126 66.3965 33.8463C66.0851 34.1294 65.3526 34.25 64.9492 34.6002C64.6307 34.8764 63.5839 36.2494 63.3115 36.6598C62.5297 37.8238 61.9523 39.1541 62.0479 40.5905H61.5215C61.3977 39.147 61.9597 37.7634 62.6602 36.5358C62.8688 36.1716 63.763 35.1008 63.7891 35.0075C63.9129 34.5334 62.7985 34.0024 63.4561 33.1959C62.225 33.3799 61.0755 33.6446 60.1133 32.6647C59.9152 33.2908 60.4417 33.1852 60.5586 33.362C60.7673 33.6874 59.9115 35.0172 59.3242 34.9645C58.4828 34.8902 59.1317 33.7991 59.0586 33.7233C58.8499 33.5039 57.5657 33.8856 58.082 32.3043C58.3969 31.342 59.1475 32.2581 59.9365 32.3112C59.1795 31.2181 60.4454 30.0968 60.46 29.5836C60.4706 29.1237 59.8622 28.204 59.4199 28.6178C59.3563 28.678 59.1896 29.746 58.8535 30.2555C58.4927 30.8039 57.7779 31.218 57.4736 31.692C57.1269 32.2298 56.9996 32.9872 56.5645 33.5993C55.4004 35.2374 52.4247 35.9623 52.2832 33.192C51.5508 33.4786 51.9156 34.2257 51.7705 34.4274C51.6146 34.6431 50.6703 34.6606 51.0488 35.1276L52.0176 34.777C51.7169 37.4978 49.7822 39.4338 47.9707 41.2877C49.0391 41.2983 50.1391 41.1708 51.1367 41.6413C51.2429 41.5103 50.0015 39.9219 50.9639 39.4371C51.6431 39.0942 51.9577 39.8794 52.5449 40.0563C52.7891 38.8463 53.5889 37.8341 54.0488 36.7125C54.2186 36.3056 54.1936 34.912 55.0108 36.0934L55.1846 38.9977C55.1887 38.5237 56.1327 37.806 56.1719 37.5123C56.278 36.695 55.9837 36.1036 56.4365 35.0563C57.268 33.1319 58.5949 34.2218 57.8272 36.0084C57.9828 36.1606 59.3064 35.0146 59.5859 35.3082C60.0877 35.8318 58.3757 36.1718 58.3545 36.5397H59.7627C60.063 37.5654 58.8569 38.0142 58.0361 38.0885C57.5269 38.1345 57.1802 37.9189 56.8584 37.9469C56.3737 37.9894 55.4785 39.3452 55.1777 39.7946C54.8452 40.2935 54.4912 41.2734 54.2471 41.5954C54.1795 41.684 53.122 42.331 53.4434 42.6813C54.0731 43.3677 57.7712 43.4808 58.5283 42.9713C58.5993 42.925 58.7612 42.7481 58.7012 42.7057C57.0843 42.7198 53.7269 41.3121 57.293 40.7672C55.7365 39.5538 57.0523 39.3842 58.3506 39.7096C57.5971 38.9065 58.6946 37.8205 59.4942 38.4821C60.3537 39.1938 61.0757 42.1189 61.3799 42.317C61.6707 42.5043 63.1705 42.4587 63.6338 42.7028C63.9487 41.79 63.364 41.0574 63.2861 40.1481C63.2083 39.2706 63.2445 37.5442 64.4863 38.1598L64.8643 40.0592C65.6956 38.7218 64.7197 35.421 67.168 35.9127L67.419 37.2428C68.0842 36.6516 69.7618 33.8541 70.8692 34.6784C71.0738 34.8307 70.9288 35.2092 71.1162 35.3082C71.6362 34.8342 72.0822 34.2716 72.627 33.8258C73.0445 33.4862 74.976 32.4029 75.0645 32.2897C75.121 32.2154 74.8949 31.8371 75.0645 31.5612C75.2095 31.3206 76.2999 30.6272 76.4697 31.1862C76.5225 31.356 76.0416 31.6671 76.5684 31.6071C76.8691 31.5717 77.1982 31.3705 77.5449 31.4342L77.3721 30.733H78.4258L78.249 31.2604C79.0946 31.3913 80.3821 30.8326 80.6758 31.8834C80.6217 32.5306 77.8354 32.6478 77.2197 32.7858C75.7692 33.1113 74.0495 33.9065 72.8076 34.7096C72.3265 35.021 71.1552 36.1607 70.8545 36.2916C70.6529 36.38 70.5288 36.0046 70.3272 36.0895C69.9416 36.2558 69.0116 37.6668 68.8838 37.7418C68.5725 37.9187 68.1195 37.6004 67.8506 37.6959C67.7194 37.7423 66.273 39.1961 66.4531 39.359C67.1359 39.3767 69.9443 38.4889 70.1465 39.4508C70.3198 40.2751 67.2572 40.5053 66.7471 40.5231C66.3933 40.5372 65.6399 40.1908 65.3779 40.5231C65.1268 40.8379 65.0839 41.6126 64.8682 41.9948C65.9968 41.9098 66.9808 41.1141 68.1377 41.1071C68.6081 41.1037 68.9161 41.425 69.1035 41.3932C69.1815 41.3776 70.4691 40.8872 70.5186 40.8307C71.2153 40.056 70.7805 39.3449 70.6885 38.4889C71.9055 38.0432 72.0323 38.581 72.0889 39.7096C74.1056 37.9477 75.3653 38.591 73.3203 40.7633C74.035 40.314 77.2052 41.8036 76.1084 42.5006C75.6838 42.7695 73.0629 42.1256 72.5567 41.8248C72.395 41.73 72.4497 41.485 72.4365 41.4713C72.3552 41.4183 72.0894 41.8068 71.8135 41.8317C71.4031 41.8706 70.6674 41.1002 69.9776 41.733C70.4592 42.2637 73.0442 42.6711 72.793 43.4918C72.5447 44.2977 70.3233 43.1946 69.7149 43.2194C69.0855 43.2443 68.9293 43.6857 68.3916 43.7565V43.0524L67.5108 43.7565L67.8613 42.526L66.457 42.8795C66.7684 43.2791 67.1436 43.2197 66.9844 43.9342C64.3839 44.3623 62.1083 42.918 59.5928 43.4098C59.1965 47.9031 59.0412 52.9244 56.8652 56.9684C56.6772 57.316 55.0711 60.014 54.4873 59.4274C54.5085 58.5287 55.3722 57.92 55.8145 57.1452C58.0753 53.1648 58.4429 48.2396 58.8887 43.7604C58.1635 43.9444 57.4205 44.2093 56.667 44.2623C53.1077 44.5277 50.836 41.8252 47.2236 42.3913C46.4278 42.5152 44.4655 43.579 44.0117 43.5797H41.457C42.0337 46.5763 42.7017 49.7536 42.5108 52.8209C42.4046 54.5686 41.7509 56.2884 42.0303 58.0573C42.0975 58.4818 42.9571 59.9713 42.0762 59.5963C40.7954 59.0515 41.7579 54.6573 41.8145 53.5358C41.8781 52.2763 41.9029 50.5393 41.8145 49.2975C41.6765 47.3835 40.7143 45.2997 41.2803 43.4069C40.0101 43.3856 38.5696 42.4481 37.3242 42.5153C36.2488 42.5755 34.9365 43.4878 33.8858 43.7604C36.0155 47.9175 34.8652 52.365 37.2002 56.5504C37.5044 57.0916 38.4912 57.9793 38.124 58.4606C37.6854 59.0301 37.0589 58.1713 36.7051 57.7467C33.2803 53.6355 35.021 48.9438 33.6377 44.2877C33.5988 44.1533 33.7009 44.0541 33.708 43.9303C32.1975 44.3652 30.9168 43.1521 29.3779 42.8903C28.5996 42.7594 27.7853 42.7376 27.0176 42.8756C28.1073 44.956 27.8914 47.3661 28.3018 49.6022C28.8254 52.4537 29.9797 55.1071 32.1201 57.0495L35.3858 59.5934C35.7427 59.7204 35.6401 59.271 35.9053 59.0729C36.8783 60.1095 39.1256 60.51 40.4736 60.2907C40.9829 60.2091 41.3686 59.7422 41.8779 59.7741C42.444 59.8096 43.3393 60.6549 44.0469 60.7858C46.2614 61.2032 46.5378 60.4528 48.1299 59.6745C49.4528 59.0273 49.7186 59.9191 50.8613 60.3082C51.9367 60.676 52.8953 60.764 53.9883 60.4245C54.4801 60.2723 55.1669 59.7173 55.6162 59.7633C55.9239 59.7953 56.2599 60.2616 56.7266 60.4245C57.4802 60.6898 58.4399 60.6471 59.2324 60.6471L58.8779 61.2594L57.2969 61.525C59.3277 62.1087 61.6912 60.9126 63.2656 59.6637C66.828 56.8402 65.6428 49.1737 68.1758 45.3844C69.2443 43.7852 69.7473 44.4649 69.0928 46.0358C72.5247 42.4694 76.1829 46.4886 75.21 50.483C74.4209 53.7167 71.1479 56.2321 67.8965 56.5612C66.9914 56.653 66.4467 56.0735 66.3613 56.0729C66.1349 56.0729 65.5082 57.9803 65.2959 58.3483C64.5562 59.6218 62.5681 61.0082 61.291 61.737C60.6471 62.1049 59.5646 62.3213 59.1719 62.569C59.0409 62.6507 58.6447 63.5174 58.4219 63.8004C57.3711 65.1271 56.3055 65.7214 54.6533 66.1071C54.6218 66.4039 55.0505 66.2522 55.1602 66.567C55.6374 67.9394 54.0414 67.6747 53.8008 68.0709C53.5432 68.4994 54.0374 69.655 52.7012 69.9098C52.8568 71.5797 53.451 73.6073 53.4971 75.2418C53.5112 75.7089 53.0724 76.1405 52.708 75.8893C52.0252 75.4187 52.2899 70.8017 52.0068 69.8004C51.2604 70.2566 50.3368 69.8179 49.6328 69.8356C48.0621 69.8746 46.5228 70.3417 44.9697 69.8004C44.7365 70.0521 45.1609 72.7005 45.1611 73.2321C45.1611 74.0954 44.7822 75.1821 44.9697 76.1373C44.276 75.7695 41.5704 75.4794 41.9942 76.901C42.118 77.3185 46.5538 79.2188 47.2588 79.3961C49.5372 79.9657 52.4951 79.7388 54.5967 78.6315C56.6488 77.5488 55.2762 77.3896 55.1807 76.5758C55.0181 75.2316 56.964 76.7176 56.7022 78.0797C56.5358 78.9429 55.6475 79.1872 54.9258 79.4879C50.988 81.1188 46.1731 80.6161 42.5078 78.5182C39.5712 76.8376 41.8743 74.591 44.2695 75.61V69.358C44.2683 69.3175 43.9759 68.8765 43.9053 68.6647C43.4065 67.1364 43.6183 68.0598 42.7656 67.1647C42.4721 66.8569 42.1896 65.9868 42.1328 65.9508C42.0408 65.8942 41.0779 65.8768 40.6533 65.7565C37.7206 64.9179 38.1803 63.2477 36.8818 61.6061C36.7763 61.4763 34.5607 59.568 34.4092 59.5016C34.0802 59.3601 33.7116 59.4485 33.3613 59.3141C32.5617 59.0062 30.9456 57.5376 30.3652 56.8512C30.1283 56.5718 29.5304 55.4229 29.4522 55.3795C29.2823 55.2805 28.7267 55.5524 28.3623 55.5241C25.6417 55.3047 23.6741 54.251 22.2979 51.8913C19.8743 47.7411 21.1662 40.4448 27.0147 44.6198L26.3135 42.1579C26.7589 41.9599 26.643 42.5241 26.7451 42.5075C27.4314 42.4049 28.4434 41.7726 29.3067 41.9811C29.3526 41.507 29.36 41.3865 28.8682 41.3688C27.8914 41.3371 23.5117 42.8542 24.2334 40.5192C24.4778 39.727 25.755 39.8794 26.4024 39.8688C26.544 39.8688 27.1871 39.9817 26.9297 39.692C26.1408 38.843 25.9601 39.4578 25.334 39.5075C24.6087 39.5641 22.3548 39.674 21.9902 38.9948C21.3145 37.7352 24.7502 38.237 24.9024 38.1061C24.8915 37.7524 24.5519 37.2291 24.7744 36.9108C24.8416 36.8153 25.259 36.9677 24.9902 36.6989C24.2649 35.9771 23.3914 36.2987 22.5635 36.1325C21.5091 35.9237 20.2535 34.6605 20.3242 33.5319C18.3819 34.0201 17.0649 36.0365 16.4492 37.8444C16.2336 38.4806 15.835 41.1158 15.7178 41.2516C15.6329 41.3471 15.2714 41.2024 15.0733 41.5739C14.7973 42.087 14.437 44.5317 15.042 44.8961C16.3542 45.6913 16.899 42.3426 17.6807 42.8649C17.8717 42.9923 18.0456 46.1308 19.1777 43.2155C19.811 41.581 19.6942 40.0101 19.9736 38.3756C20.0869 37.707 20.5961 37.7882 20.6846 38.5416C20.8226 39.7163 20.119 43.6934 19.3477 44.6168C18.4313 45.7136 17.6349 44.9665 17.2422 43.9157C16.899 44.8851 15.3171 46.2833 14.5068 45.07C13.6295 43.7574 14.6915 41.3798 15.2188 40.0495C12.9474 39.915 13.1839 38.2835 14.0684 36.695C14.2523 36.3659 15.1476 35.3183 15.1582 35.2086C15.1792 35.0033 14.8574 34.5432 14.8574 34.1471C14.8578 33.2132 16.2519 32.2692 17.0762 32.1383C17.5682 32.0605 19.531 32.1238 19.793 32.4811C19.8885 32.6085 19.6692 32.9732 19.5313 32.9909C19.4738 32.9974 18.8275 32.676 18.4668 32.651C17.409 32.5732 15.5372 33.178 15.7315 34.5045C15.7951 34.9503 16.252 34.8978 16.2803 35.0358C16.3932 35.6121 15.6464 35.651 15.2149 36.0895C14.3481 36.974 13.17 39.7408 15.3916 39.3483C15.5756 37.0769 17.0764 34.5366 19.1426 33.5036C19.4294 33.3621 20.2067 33.2239 20.2813 33.1461C20.352 33.0754 20.8545 31.5256 20.9395 31.2496C21.2791 30.1493 21.1621 28.9567 22.1846 28.0934C23.0585 28.0651 24.1098 27.3154 24.8174 27.2057C25.3057 27.1279 26.3037 27.3474 26.4912 27.2731C26.9864 27.0853 27.4463 26.2296 28.5039 26.1305C29.9722 25.9925 29.937 26.8982 31.0586 27.3688C30.8994 26.7037 30.6906 25.7908 31.0762 25.1823C31.1999 24.9878 31.5564 24.952 31.5957 24.7789C31.6735 24.4287 31.395 23.8768 31.6318 23.2789C31.7557 22.9676 32.0455 22.8504 32.1162 22.7018C32.1373 22.6558 31.6 22.578 31.6387 22.0299C31.7837 19.9672 34.4336 20.246 35.7002 19.2448C36.1565 18.8839 36.1641 18.3215 36.5108 17.943C37.1865 17.2073 38.2516 17.3095 39.1572 17.3307C38.6513 15.9227 37.8301 14.6845 36.1143 15.0807C35.7641 15.1621 34.8942 16.163 34.7559 15.4811C34.5436 14.4126 36.8505 14.118 37.5723 14.5143C36.9284 13.6369 36.1882 12.4276 34.9287 12.5797C34.7907 11.4829 35.9058 12.0307 36.4649 12.3668C37.5475 13.0179 38.8246 14.9427 39.4756 16.0465C40.0452 17.0195 40.0665 18.2867 41.4463 18.3893C41.4074 17.5968 41.3154 15.7639 42.4229 15.7604C42.7304 15.7605 43.0274 15.9509 43.2891 15.9264C43.7738 15.8804 44.0718 15.1622 44.7901 15.9264C44.6168 15.5729 45.1003 15.057 45.0977 14.9537C45.0941 14.607 42.5249 13.0213 44.0781 11.6061C45.0333 10.7323 46.7564 11.6028 46.9053 12.6676C47.0079 13.4141 45.9108 12.2359 45.6631 12.151C44.8673 11.8753 44.298 11.9994 44.4395 12.9332C45.0374 12.208 45.5962 13.0892 46.0137 13.6022C48.4159 16.5564 47.8077 18.9021 47.4326 22.4401C47.0789 22.5108 46.9868 22.1219 46.6543 22.1041C46.06 22.0723 45.1969 22.5138 44.4434 22.0895C44.7123 23.1085 44.0929 24.1102 44.0752 24.9948C44.0541 25.9746 44.6053 27.1701 43.7461 28.1217C43.2755 28.6418 41.7574 28.3134 41.4815 28.6354C41.4282 28.7008 41.2583 29.8417 41.0674 30.2448C40.4483 31.5502 39.313 32.0738 37.9297 31.5963C39.8048 33.6661 40.5119 35.6939 39.6875 38.4606C41.2478 38.5738 42.6071 39.5645 43.7393 40.5729C43.803 39.7521 43.6508 38.8213 43.7393 38.0182L43.7461 38.025C43.9443 36.249 45.0834 34.3279 45.5186 32.5944C45.0374 32.5059 44.3788 31.2035 44.0957 31.4264C44.7432 32.1269 44.7788 33.3015 43.5723 32.7389C43.063 32.5049 42.5817 31.1407 41.8496 32.608C41.1526 34.0162 42.592 34.1509 42.5 34.6569C42.309 35.697 40.5692 34.3776 40.7529 32.9342C40.8979 31.8272 42.262 31.3491 42.3125 31.1403C42.3797 30.8538 41.8815 30.3832 42.0615 30.0153C42.571 28.9751 44.5205 30.4781 44.6231 30.3649C44.5774 29.9535 44.8704 27.3209 44.9873 27.2096C45.0616 27.1388 45.5012 27.2272 45.6817 27.1989L45.5039 30.4469C45.6522 30.6835 45.6389 31.7201 45.6846 31.7731C45.7552 31.8437 46.4962 31.7101 46.5654 31.7731C46.6043 31.812 46.5338 32.5085 46.5654 32.7389C46.8449 34.6955 47.344 36.6741 47.1777 38.6413L50.083 35.8278C49.1808 35.2405 49.1696 36.3092 48.5469 36.0651C47.4148 35.619 46.6188 31.5859 47.5352 31.4196C48.1612 31.3064 47.9422 31.8545 48.3203 31.9537C48.5538 30.0504 47.0083 29.64 46.8984 27.6412C46.8348 26.5232 46.9829 26.9474 46.6397 25.7975C46.4346 25.1112 46.9588 24.6085 47.2666 24.9127C47.3055 24.9516 47.2661 25.8296 47.5313 25.9713C47.9629 25.2319 49.1346 25.4225 49.5557 25.1784C49.7502 25.0647 49.984 24.4356 50.3447 24.2057C51.1017 23.714 51.5015 23.4027 52.209 22.9039C53.2527 22.1681 54.1476 22.1501 55.3682 22.4508C55.0463 22.1501 54.9829 21.4565 54.7529 21.2194C54.4522 20.9151 53.4972 20.9998 54.1553 20.0905C54.7071 19.3269 55.1035 20.1542 55.3652 20.2321C55.6236 20.3062 56.0978 20.1546 56.4268 20.3385C56.2888 19.5106 56.7236 18.8489 56.9111 18.0954C57.0527 17.5328 56.9816 16.181 57.6572 15.8483C58.248 15.5582 58.7901 15.866 58.9883 16.4567C59.1404 16.906 58.8362 17.6566 59.4199 17.5221C59.5473 16.5032 59.9468 15.2891 60.3926 14.3551C60.5137 14.0991 61.4612 12.4976 61.5567 12.4411C61.921 12.2362 62.3344 12.6046 62.2354 13.0114L60.6543 18.2223C61.27 17.7267 62.9746 14.8337 63.5586 14.7018C64.4782 14.5002 63.6869 16.3815 63.499 16.7575C63.071 17.617 58.7171 23.8427 58.2734 23.8522C57.7217 23.8628 58.2024 22.289 58.1533 22.0475C58.0967 21.7751 57.6042 21.442 57.6572 21.0387L56.8652 22.2741L56.2529 21.9196C55.8921 23.0624 56.5436 22.8822 57.1309 23.5934C57.4067 23.9259 57.6858 24.4989 57.8379 24.9127C58.7224 24.0035 59.9189 22.7199 61.2881 22.6315C61.854 22.5963 62.3632 22.9562 62.9893 22.7653C63.4563 22.6237 63.7289 21.8774 64.1074 21.5944C64.5103 21.2905 65.679 21.089 65.7383 21.025C65.8303 20.9154 65.7209 19.7196 65.7598 19.3727C65.8765 18.2865 66.4111 16.5987 66.4111 15.6364C66.4111 15.3357 66.1527 15.1482 66.1914 14.8688C66.2551 14.3844 66.619 14.603 66.7608 14.4938C67.1959 14.1577 66.3503 13.2867 66.4883 12.7135C66.5077 12.6367 67.2672 11.4686 67.3379 11.4332C67.7093 11.2389 68.0664 12.1121 68.4873 11.359C68.8942 10.6231 67.8681 10.8349 67.9424 10.2936C68.0345 9.62176 68.7524 10.0669 69.0108 9.78773C69.2372 9.54361 69.2452 8.82528 69.5459 8.72621ZM43.9238 76.3219C45.1761 76.559 46.2059 77.1031 47.5254 77.2057C48.2543 77.2623 49.4326 77.2627 50.1543 77.1813C50.8127 77.1067 52.4996 76.1876 52.3828 77.2877C52.3076 77.974 49.7643 78.621 49.124 78.6139C48.0129 78.6032 45.42 77.8958 44.5391 77.1989C44.4082 77.0963 43.7363 76.4847 43.9238 76.3219ZM52.7188 68.0455C49.9954 68.7484 47.2015 68.1804 44.4463 68.1344C44.5987 69.2522 46.5944 69.3903 47.5283 69.4186C48.4519 69.4433 50.6488 69.3685 51.5332 69.234C52.2231 69.1314 52.8178 68.8486 52.7188 68.0455ZM45.5928 65.9157C44.8746 65.9121 44.1488 66.2409 43.3916 66.11C43.4659 66.3683 43.7498 66.5487 43.9727 66.6725C44.9847 67.2456 48.9007 67.6845 50.1709 67.7057C51.3845 67.7269 52.6128 66.9628 53.8369 66.9557L54.3037 66.2877C52.6349 66.3304 50.9626 66.5735 49.2832 66.4674C48.1227 66.3931 46.6967 65.9263 45.5928 65.9157ZM48.9365 61.4157C48.7986 61.4157 47.3476 62.2253 46.9619 62.3668C45.8828 62.7631 44.5346 63.2128 43.3848 62.859C42.7869 62.6749 42.2952 61.6346 41.6973 61.5709C41.2303 61.5215 40.0985 62.2676 39.3838 62.3668C38.9417 62.427 38.6973 62.374 38.2871 62.3209C38.5242 63.4 40.4805 64.7266 41.457 64.9743C41.9522 65.1015 42.1471 64.8716 42.4336 64.8893C42.9149 64.9214 43.9939 65.6397 44.7119 65.4098C48.112 64.4794 54.0667 66.5419 56.8652 64.3483C57.0569 64.1953 58.3394 62.5381 58.1817 62.4059V62.4127C57.4068 62.6887 56.5607 61.7194 55.9805 61.7194C55.5948 61.7194 55.0712 62.1942 54.6572 62.318C53.6136 62.6293 52.3259 62.9364 51.2363 62.7526C50.4475 62.6182 49.485 61.4055 48.9365 61.4157ZM53.6065 61.5289C54.3423 61.582 55.1558 61.4434 55.7149 60.9127L55.0957 60.817L53.6065 61.5289ZM42.3379 60.8248C41.8956 59.9757 40.9367 61.1177 40.2715 61.1354L38.2901 61.3512C39.776 61.9279 40.9227 60.8602 42.3379 60.8248ZM48.4307 60.3112C48.3246 60.3289 47.2201 61.1281 47.0889 61.3512C47.3539 61.4502 48.7878 60.8967 48.8477 60.8248H48.8516C48.9647 60.6799 48.7241 60.2692 48.4307 60.3112ZM48.1475 43.5729C48.8477 43.4175 48.9501 44.2388 49.1553 44.7623C50.3121 47.6989 50.3586 51.8101 50.0791 54.9235C50.0436 55.3274 49.6186 58.0116 49.5195 58.1461H49.5234C49.4704 58.2204 49.1376 58.3304 49.0244 58.2809C48.3667 57.9868 48.9961 55.4607 49.0244 54.7496C49.1412 51.944 49.2861 49.1067 48.7979 46.3541C48.7235 45.9366 48.0449 43.672 48.1475 43.5729ZM64.168 45.0661C64.1503 44.7654 64.3523 44.6345 64.5186 44.8043C64.9572 45.2508 65.1096 49.3788 65.0459 50.1715C64.8761 52.2413 63.0466 56.8799 61.2705 58.0192C60.616 58.4367 60.3399 57.9053 60.5557 57.318C60.7827 56.7055 62.3109 54.9373 62.792 54.0778C64.2249 51.5198 64.4618 49.9447 64.4229 47.0045C64.4157 46.3431 64.2069 45.6745 64.168 45.0661ZM74.0918 48.4801C73.6708 45.0697 70.7557 44.8607 68.7461 47.1813C69.1707 47.4183 69.652 46.9451 70.0801 46.9274C71.1557 46.8782 72.7367 48.3106 72.9277 49.3366C73.4017 51.8592 70.5498 54.5971 68.2608 55.1491L66.6338 55.3649C70.3735 56.1963 74.5588 52.2623 74.0918 48.4801ZM27.3682 46.7428C26.9647 44.0187 22.5957 42.9998 22.2666 46.4811C21.9376 49.9661 24.5521 55.061 28.5996 54.6647L23.9365 51.4948C21.414 48.4097 23.1542 43.4635 27.3643 46.7428H27.3682ZM71.7529 49.1061C71.4699 48.3706 70.8829 48.0346 70.1084 48.1901C69.3373 48.3457 68.6719 49.2121 68.1377 49.7428L66.7012 54.3004C66.6093 54.8735 68.0843 54.4564 68.4912 54.3219C70.3876 53.6957 72.549 51.1865 71.7529 49.1061ZM25.4434 46.6471C23.4552 46.0635 23.3067 48.3279 23.7666 49.736C24.3964 51.6748 27.2412 52.7651 28.7803 53.9645V53.9606C28.5079 52.8781 28.1539 51.8097 27.8779 50.7272C27.7082 50.0658 27.6055 48.4883 27.3545 48.0807C27.2271 47.872 25.6981 46.7214 25.4434 46.6471ZM39.7871 40.6471C39.2529 40.6047 39.2559 41.8638 38.2901 41.6373L42.9746 42.6745L44.8037 42.5153H44.7998C44.4212 41.7334 43.7384 42.207 43.1299 42.1823C41.6939 42.1184 40.3993 40.6971 39.7871 40.6471ZM54.6074 41.6657C55.361 41.4498 55.7114 42.2074 54.9649 42.5612C53.9672 43.0388 53.8857 41.8709 54.6074 41.6657ZM78.4219 33.7907C79.883 33.0336 82.8971 33.256 81.9531 35.4704C84.1193 34.9347 88.1644 36.1907 84.5928 38.2028C85.5834 39.1757 87.3519 40.5728 86.1777 42.0797C85.1023 43.4594 83.751 41.9743 82.916 41.111C82.1907 43.7607 79.8338 42.3627 79.8691 40.1373C79.887 39.0938 80.8204 37.8169 80.8701 37.2897C80.9126 36.8404 78.1213 35.6412 77.7568 35.8571C77.7038 35.8901 77.6329 36.1895 77.4424 36.3307C76.6151 36.9459 76.7521 35.844 76.5723 35.8141C76.2574 35.761 74.7989 36.2914 74.3213 36.3834C74.042 36.4366 73.9678 36.6948 73.6777 36.2633L75.6592 34.7282C76.1121 34.3602 77.0815 34.7877 77.3858 34.6745C77.5557 34.6102 78.0047 34.0101 78.4219 33.7907ZM36.4219 41.1071C36.2726 41.0931 35.1657 41.2414 35.1162 41.2838C35.0682 41.3318 35.5613 42.1192 34.9395 42.5114C35.7744 42.2142 36.6412 42.0407 37.4902 41.8073C37.7298 41.7403 38.0355 41.8172 38.1045 41.4616C37.4626 41.68 36.8912 41.1565 36.4219 41.1071ZM59.7764 41.7223C59.5708 41.6004 59.0301 40.2725 58.7119 40.5836C59.3343 40.9799 58.8356 41.7687 58.8887 41.8112C58.9315 41.8465 59.5403 41.8003 59.8233 41.9772C60.1448 42.1825 59.8941 42.6675 60.6475 42.3385C60.6687 42.3208 60.449 41.8673 60.4277 41.8532C60.2932 41.7578 59.9744 41.839 59.7764 41.7223ZM32.4776 41.8112C32.3007 41.3266 31.5683 41.4287 31.1543 41.4606C30.8323 41.4854 30.2237 41.5315 30.3652 41.9879L32.4776 41.8112ZM81.5078 37.7672C80.9276 37.7672 80.3435 41.5845 81.6807 41.8112C82.5651 40.7463 82.8661 38.5776 81.5078 37.7672ZM83.4463 38.2946C83.2555 38.6412 83.6724 38.9806 83.5205 39.4157C83.425 39.688 83.0357 39.6739 83.0107 39.7057C82.8055 39.9994 84.8894 42.4123 85.5723 41.4713C86.1171 40.7213 83.9348 38.8078 83.4463 38.2946ZM54.3067 38.4674C53.5001 39.1574 53.111 40.2473 53.0791 41.2838C53.769 40.6151 54.2147 39.4156 54.3067 38.4674ZM31.9531 28.6071C32.0309 30.0579 31.0016 34.4375 29.7031 35.0885C29.3388 35.2724 28.9958 35.0996 28.9746 35.1315C28.9146 35.2204 28.9139 35.6228 28.7549 35.8844C27.9624 37.2041 27.5269 36.7767 26.1436 36.9713C26.6389 37.3074 27.0713 37.6715 27.2022 38.2907C27.6264 38.1137 27.1103 37.5162 27.8213 37.403C28.6526 37.2722 29.2223 38.1595 29.7529 38.6442C29.8698 36.3306 32.6575 39.6886 33.082 40.4245C33.2127 40.6509 33.1742 41.0784 33.3545 41.2164C33.4076 41.2554 34.6004 41.1739 34.6641 41.1315C34.7044 41.1 35.0182 40.4621 35.124 40.3209C33.4293 39.1569 32.4171 37.6642 35.4492 38.4108L37.9395 39.2633C37.5856 38.0432 36.7124 38.6225 35.6123 38.2477C34.5227 37.8798 33.5032 36.5324 32.6611 35.7399C31.9253 35.0465 30.8318 34.8551 31.0723 33.5426C32.8236 33.3834 34.7946 34.5402 36.0859 35.6618C36.4573 35.9836 37.5853 37.5039 37.9395 37.2399C37.7024 36.4544 37.4308 35.6227 37.2822 34.8161C37.1018 33.8361 36.6631 32.1985 37.2324 31.4342V31.4264C35.842 31.5078 35.4488 32.8278 33.8779 32.0495C32.3286 31.2816 33.3895 29.4385 31.9531 28.6071ZM27.8984 40.7565C26.9467 40.5936 25.5707 39.9327 24.9092 40.9303L26.0518 41.1246L27.8984 40.7604V40.7565ZM28.0723 38.1139C28.3519 38.7293 29.7272 39.5321 29.834 40.1334C29.9967 41.0392 28.3976 39.4405 28.249 40.0455C28.8187 40.1128 29.0629 40.8065 29.6113 40.902C30.1169 40.9903 30.8345 40.5975 31.418 40.7487C31.2317 39.9821 30.3643 40.0593 30.1807 39.9498C29.7313 39.6805 29.0026 38.0396 28.0723 38.1139ZM34.7666 38.9977C35.6971 40.1157 36.5318 40.2329 37.8975 40.3532C38.0921 40.3709 38.4954 40.5617 38.46 40.2291H38.4639C37.3035 39.6737 36.0933 39.0049 34.7666 38.9977ZM43.3067 35.3014C43.5331 35.1563 43.6885 35.1031 43.7451 35.3932C43.844 35.8919 43.0913 36.3269 43.0449 36.8043C43.006 37.2148 43.6602 38.3263 43.126 38.4713C42.2347 38.7113 41.8811 36.7016 42.5674 35.8844V35.8815C42.6098 35.832 43.2103 35.3622 43.3067 35.3014ZM37.7598 33.0084C37.8659 34.5437 38.1625 36.2276 38.6152 37.7028C38.7037 37.9893 38.4708 38.1986 38.9902 38.1139V35.0319C38.99 34.7627 38.1667 33.133 37.7598 33.0084ZM85.1162 36.5329C84.8296 36.2215 82.827 36.4046 82.2998 36.3551C82.1795 36.4577 82.7598 37.3424 82.9297 37.3815C83.1278 37.4275 85.6 37.0634 85.1162 36.5329ZM32.6543 34.5963C33.8962 35.4525 35.1025 36.7908 36.5283 37.233C35.5978 36.0832 34.1013 34.936 32.6543 34.5963ZM28.0723 34.2428C27.8034 34.2251 27.8596 34.5901 27.6367 34.7741C27.2299 35.1135 26.5617 35.4392 26.0313 35.4606C25.7841 35.4712 25.1593 35.2205 25.083 35.3004C24.4957 35.9302 26.5794 36.2246 27.0606 36.1432C27.2128 36.1183 27.7425 35.8852 27.8457 35.7789H27.8496C28.207 35.4181 28.3058 34.7028 28.0723 34.2428ZM22.4434 28.61C21.8561 29.5582 21.9094 30.5991 21.6582 31.611C21.3256 32.9483 20.3666 33.6237 21.8525 34.9186C22.1816 35.2052 23.3741 35.7644 23.6748 35.4743C24.0879 35.0743 22.0218 33.9419 21.9121 33.2662C21.8133 32.6616 22.1705 32.2158 22.252 31.6784C22.3192 31.2361 22.2101 30.7793 22.3057 30.3229C22.4472 29.6294 23.4269 29.169 22.4434 28.61ZM80.0996 34.4127C79.7706 34.4375 78.9492 34.6075 78.7793 34.9401V34.944C79.3525 34.8768 80.1632 35.4847 80.6338 35.4635C81.3023 35.4349 81.8008 34.282 80.0996 34.4127ZM31.1719 29.2223C31.1219 28.5075 28.3272 26.2226 27.7256 27.7291C27.9945 27.7362 28.1787 27.8884 28.3379 28.0866C28.4583 28.2353 29.7744 30.7014 29.8027 30.8571C30.0857 32.3604 28.8294 33.2591 28.79 33.8004C28.7653 34.1824 29.0697 34.6566 29.4658 34.4059V34.3991C29.6003 34.3141 30.5593 31.8263 30.669 31.4655C30.7857 31.0761 31.1931 29.5018 31.1719 29.2223ZM26.9404 33.3971C26.3213 33.5245 25.7971 33.6807 25.79 34.4166C25.8649 34.4873 27.1454 34.2851 27.1914 34.2321H27.1875C27.2829 34.1187 27.2196 33.44 26.9404 33.3971ZM24.2715 29.6647C22.978 29.717 23.4867 30.5371 23.2813 31.4723C23.1716 31.964 22.7869 32.4561 22.7832 32.9196C22.7761 34.4727 25.4221 34.9081 25.4365 33.6276C25.4365 33.5037 23.9996 33.1705 23.8828 31.819C23.8161 31.0586 24.902 30.6375 24.5518 29.6647H24.2715ZM56.5108 30.7262C56.0864 31.14 55.8035 31.5502 55.1953 31.6989C54.9868 31.7483 54.7321 31.6037 54.5869 31.6422C54.5268 31.6564 53.9281 32.3077 53.6875 32.4811C53.2382 32.8063 52.7118 32.5344 53.2354 33.6452C53.6283 34.4798 55.3261 33.8324 55.832 33.3053V33.3014C56.267 32.8449 56.4582 31.8476 56.8721 31.2604C57.6222 30.1919 59.8296 28.9605 58.0889 27.5524L56.5108 30.7262ZM61.5244 27.9059C60.3253 28.4577 61.6483 29.1056 61.5391 29.7282C61.5108 29.8944 60.3642 30.2627 60.6504 31.6881C60.8768 32.8097 62.6927 32.318 63.4746 32.5621C64.0901 32.757 64.5394 33.8294 65.3106 33.7233C65.4767 33.6984 65.3674 33.3622 65.4912 33.1959C65.6363 33.0014 65.9865 33.0184 66.1846 32.8239C67.0263 31.9892 66.8666 31.7946 66.0176 31.0729C65.1614 32.8877 63.2442 32.4952 62.1192 31.1862L62.1152 31.1901C61.16 30.0791 62.0127 29.1548 61.5244 27.9059ZM28.9531 30.9879C28.8187 30.3017 28.2314 29.9585 28.1641 31.069C28.1146 31.8568 28.2801 32.5213 27.9072 33.358C28.7844 32.8412 29.1509 32.0048 28.9531 30.9879ZM50.9072 24.9274C50.5606 25.0193 50.3444 25.7441 50.0049 25.9743C49.3999 26.3811 48.1647 26.1095 47.9736 27.1178C47.6838 28.6707 48.777 29.3573 48.9893 30.3161C49.1766 31.1545 48.721 32.166 49.4639 32.8346C50.1502 33.45 51.0273 33.1002 51.6641 32.5661C51.006 31.5895 48.9821 30.1986 49.0068 29.0416C49.0176 28.5361 49.2968 28.3521 49.3252 28.1364C49.3606 27.8817 49.1627 27.5916 49.1943 27.2946C49.3217 26.1942 51.5229 25.9495 51.668 25.7868V25.7907C51.8623 25.5676 51.413 24.7968 50.9072 24.9274ZM26.9785 31.8903L27.3682 32.3004V32.3043C27.5734 31.0872 26.2641 31.1755 25.4326 31.0729L26.9785 31.8903ZM51.2676 29.1832C51.1597 29.0801 50.0116 28.6002 49.9053 29.0524C50.4111 29.7351 51.4727 31.9178 52.2793 31.9362C52.9268 31.9503 53.9779 31.2992 53.9531 30.5455C53.3127 30.8675 52.021 30.5561 51.6035 29.9723C51.4374 29.7422 51.3666 29.2752 51.2676 29.1832ZM63.4639 26.3209C61.7196 26.3351 62.7805 27.921 62.7734 28.8727C62.7662 29.9125 62.0983 30.2943 63.4531 30.9948C64.2952 31.4299 65.0486 31.5999 65.4024 30.5455C64.4789 30.6375 63.9094 30.5669 63.6016 29.6188C63.4353 29.1128 63.0391 27.2372 63.1524 26.7985C63.1954 26.6427 63.5375 26.3775 63.4668 26.3209H63.4639ZM31.5957 25.4401C31.1358 27.2586 32.5693 27.8676 33.2168 29.0104C33.8888 30.2027 33.2945 31.681 35.3428 31.2106C35.9195 31.0761 36.5778 30.3153 37.3633 30.2233C38.1629 30.1314 39.2669 30.9172 39.8789 30.2379C40.0628 30.0362 40.4548 29.1383 40.4092 28.8903C40.3703 28.6604 39.8612 28.7591 39.7266 28.5612C39.6381 28.4373 39.7264 28.1255 39.6875 28.0866C39.6135 28.0164 37.8827 28.2283 37.6777 28.2672C36.5563 28.4867 35.5264 29.3144 34.2422 28.5114C33.1422 27.8249 33.3613 26.3529 33.1455 26.1725H33.1494C33.0467 26.0877 32.6783 26.1652 32.4873 26.0485C32.1657 25.8502 32.0342 25.3906 31.5957 25.4401ZM69.8887 25.9674C69.7932 26.5618 70.2427 27.0747 70.3135 27.6549C70.4161 28.4581 70.1998 29.8881 69.708 30.5426C69.394 30.9621 68.946 30.8892 68.7471 31.2467C69.9494 31.4187 70.8898 29.6252 71.0029 28.6491C71.0948 27.8318 70.3344 26.6396 69.8887 25.9674ZM69.1602 22.1178C68.5127 21.7003 67.7903 21.6579 67.3233 22.3512C66.7465 23.2039 68.6819 23.056 67.8682 23.5973C67.0404 24.1486 66.329 22.5106 66 22.2877C64.9494 21.5877 64.5497 23.0806 63.584 23.5299C61.9353 24.2977 61.4712 22.9172 59.8613 24.2086C58.4463 25.3407 58.199 27.0427 59.8545 28.0758C60.2225 27.0748 61.0857 27.0745 61.627 26.6784C61.825 26.5334 61.8962 26.1485 62.1611 25.9821C62.6069 25.7026 63.1947 25.8899 63.4707 25.7096C63.6157 25.6141 63.7568 24.9521 63.9902 24.6442C65.3913 22.7761 66.9519 23.5616 68.6289 24.5875C68.8483 24.722 69.2664 25.2278 69.3584 25.2243C69.5033 25.2164 69.6344 24.825 69.9736 24.984C70.6459 25.3027 71.566 27.6059 71.5625 28.3454C71.5588 29.2405 70.7062 30.5639 70.1543 31.2467C71.4738 31.0307 72.8395 28.8903 72.7832 27.652C72.716 26.2368 71.513 25.6771 70.7842 24.7184C70.2429 24.0038 69.7722 22.5107 69.1602 22.1178ZM66.8174 24.2868C65.7632 23.9685 64.7832 24.7221 64.5391 25.7233C64.4152 26.2257 65.6146 25.8331 65.4024 26.4948C64.9991 26.4523 64.1816 26.5369 64.001 26.9401C63.8135 27.3575 64.0897 27.4394 64.4434 27.3864C64.8962 27.3156 64.9779 26.2151 66.1065 26.8483C64.7906 23.7741 68.5439 25.5886 68.7461 27.1276C68.8593 28.0156 68.1935 28.5896 67.7725 29.3043C67.3272 30.0611 67.677 30.4925 66.2871 30.3688C66.2871 31.7274 68.3989 30.6196 68.6289 30.1491C69.1312 29.1193 69.2979 26.1687 68.5195 25.3161H68.5156C68.4308 25.2221 66.9446 24.3256 66.8174 24.2868ZM27.1309 30.0748C26.9455 29.9616 25.4927 29.7813 25.4326 29.8414C25.3867 29.8875 25.4609 30.3728 25.4326 30.5426L27.7217 30.7194C27.6049 30.6097 27.1946 30.1138 27.1309 30.0748ZM53.957 26.1442C53.8014 26.268 54.7134 27.6768 54.7559 27.8961C54.7909 28.087 54.5614 28.2214 54.5791 28.4371C54.6286 29.0234 54.6778 29.6204 54.8399 30.1891C55.8169 29.2665 55.5617 26.2647 53.957 26.1442ZM66.542 26.3209C66.733 27.3253 66.4007 26.888 66.2803 27.0289C66.2272 27.0891 66.602 27.3863 66.6338 27.6481C66.7363 28.4724 65.6291 29.0806 64.9463 28.6207C64.6385 28.4156 64.6524 27.9662 64.3447 27.9059C63.7327 30.1524 64.7264 29.8095 66.4209 29.4557C66.8915 27.9203 68.6186 27.4672 66.542 26.3209ZM26.8477 28.2565C26.9254 28.4578 26.6228 28.7226 26.6709 28.7799C26.7275 28.8471 28.1719 29.5606 28.2559 29.4879H28.2529C28.5675 29.1942 27.0988 28.2742 26.8477 28.2565ZM26.1406 28.6071C25.8364 27.2697 24.0459 28.2034 23.501 28.9606C24.5624 29.187 25.1535 28.9007 26.1406 28.6071ZM52.1943 26.8483C52.1221 26.7757 50.2521 27.2808 50.2627 27.4645C51.2851 27.8784 50.5285 28.4441 51.2285 28.9606C51.2038 28.4795 51.6927 28.3765 51.7988 28.2067C51.8904 28.0581 51.8089 27.814 51.9043 27.609C51.922 27.5666 52.5344 27.2198 52.1983 26.8483H52.1943ZM54.7031 24.9518C53.9707 24.7574 52.7258 25.3974 53.4688 25.6627C53.7412 25.7582 54.1657 25.6098 54.6221 25.7301C55.9983 26.091 56.5781 27.6763 56.419 28.9606H56.4229C57.1162 28.3166 56.9359 26.9438 56.4229 26.2291C56.2175 25.9425 55.0074 25.0296 54.7031 24.9518ZM14.7012 23.8522C14.896 24.4323 17.5561 24.9132 17.1641 25.4332L17.1602 25.4371C17.0275 25.6139 14.9741 25.7808 15.2461 26.8981C15.6353 28.4902 18.7777 26.1238 19.5313 26.1344C20.4218 26.1452 19.1612 26.9608 19.2725 27.195C19.7005 27.7999 22.4914 26.7505 23.044 26.8668C23.2987 26.9199 23.4194 27.4044 23.3203 27.5495C23.2022 27.7229 20.323 28.1255 19.8809 28.0866C19.0711 28.0192 18.5477 27.3836 18.3389 27.401C18.0028 27.4293 17.2134 28.0055 16.5234 28.0621C14.4397 28.2318 13.7146 26.2894 15.5791 25.4332C15.0484 24.7435 14.1744 25.0087 14.7012 23.8522ZM43.7139 22.2096C43.4906 21.5665 42.1616 21.8808 42.0088 22.1178C41.8531 22.3584 42.1045 24.5449 41.7686 25.32C41.6589 25.5676 41.3646 25.5712 41.2832 25.7516C40.9825 26.4132 40.6394 27.3757 40.4024 28.0797C40.8941 27.5773 42.837 27.8216 43.1377 27.1989C43.2014 27.0643 42.9604 25.214 43.0488 24.6549C43.1762 23.8589 44.1208 23.3807 43.7139 22.2096ZM34.0625 23.3278C33.921 23.8514 33.7582 24.4177 33.9209 24.9625C33.9528 25.0651 35.0285 26.696 35.124 26.7526C35.7929 27.1523 38.113 27.2344 38.9092 27.0329C39.125 26.9798 39.808 26.7489 39.8682 26.4977H39.8721C38.0818 26.0944 35.9764 27.8849 34.9609 25.6842C34.7205 25.1608 34.678 24.5808 34.4942 24.0397C34.427 23.8452 34.3029 23.3282 34.0625 23.3278ZM14.8721 22.9743C14.4298 21.499 16.1842 21.4746 17.2315 21.5807C18.1443 21.6727 19.075 21.6584 19.8711 21.7575C20.929 21.8919 23.0129 22.6383 23.7842 23.3883H23.7881C24.0748 23.6645 24.792 24.6512 24.8877 25.0192C24.9726 25.3446 24.6654 25.3588 24.5557 25.2633C24.5061 25.2173 24.1417 24.4246 23.8516 24.1168C23.558 23.802 22.833 23.1759 22.4473 23.0553C21.8317 22.8643 21.5269 23.1476 21.1377 23.1051C20.791 23.0662 19.6912 22.2458 19.0967 22.2702C18.5695 23.4094 20.1858 23.1799 21.127 23.4948C22.2343 23.8698 24.018 25.1818 24.5664 26.2184C24.6549 26.3811 24.8877 26.7215 24.6436 26.8454C23.0974 24.7402 20.09 23.1547 17.4258 23.6784C16.931 23.7775 17.0047 24.0389 16.7783 24.2653C15.9045 25.1462 15.8128 23.8693 16.5381 23.3209C17.0971 22.8999 17.7624 23.0446 18.3887 22.8854C17.292 21.8561 15.9299 21.9166 14.8721 22.9743ZM55.5879 23.7174C54.1905 22.9674 53.1147 23.1475 52.0215 24.2936C52.2444 25.2135 52.8568 24.2305 53.5078 24.0182C54.9865 23.5373 55.5136 24.5982 56.6846 25.2633L57.8281 26.6637C58.0738 25.5849 57.2598 25.5314 56.7656 25.0055C56.3517 24.5704 56.1716 24.0323 55.5879 23.7174ZM41.2412 22.0475C41.1068 21.1877 40.2817 19.9139 39.3477 20.7702C39.3482 21.1912 42.8999 22.1999 38.6406 22.444C39.0864 22.9991 39.8958 23.2185 39.8643 24.0954C39.8112 25.6203 38.2898 25.193 38.1094 25.4371C38.0979 25.4636 38.2937 25.918 38.3184 25.9323V25.9352C39.0612 26.4269 40.8685 24.8891 41.0674 24.2555C41.1947 23.8487 41.3084 22.4935 41.2412 22.0475ZM37.7598 20.5114C37.2928 20.0304 35.5524 20.3983 34.9541 20.7838C34.0696 21.357 32.2432 23.7529 32.5156 24.7789C32.6148 25.1503 33.1595 25.5074 33.1846 25.9635L33.1992 23.9547C33.4857 21.7406 34.8148 23.0015 35.1055 22.7868C35.1479 22.7549 35.2016 22.3688 35.3184 22.2096C35.8526 21.474 36.5958 21.2864 37.374 20.9079C37.4703 20.8619 38.0885 20.8472 37.7598 20.5114ZM24.5625 15.0524C24.7642 10.1247 26.8868 14.426 26.6748 16.6373L26.668 16.6344L26.0586 16.4537L25.2627 14.1715C25.1247 15.7318 26.1187 18.0491 24.0313 15.7565C24.0773 16.7541 24.3042 18.0844 25.0859 18.7496C24.9905 18.4945 24.8883 17.6536 25.0899 17.5192C25.9177 16.9638 26.0307 19.7188 26.6709 19.9811C26.5047 19.1781 26.4161 18.5059 26.5752 17.6852C27.173 14.5899 28.3903 19.3005 27.9063 20.3346L27.2051 20.4196L28.5254 22.2702C28.7587 21.6121 28.4048 20.7273 28.4473 20.0729C28.5783 18.0495 29.6289 17.8408 29.8447 19.8961C30.0499 21.8845 29.314 23.6715 29.8447 25.6139C29.1584 25.6953 29.3595 24.3787 28.9668 24.1168C28.1061 23.5373 24.2585 24.3856 24.5586 22.3698C24.601 22.0833 24.9129 21.8637 24.9131 21.8317C24.9131 21.5345 22.4824 21.2156 22.8291 19.9313C23.0771 19.0123 24.6431 19.6308 25.2695 19.8043C24.0348 18.6721 22.6982 16.3938 23.6817 14.777L24.5625 15.0524ZM39.1641 24.3825C39.2454 22.9142 37.8761 22.0333 36.7793 23.3141C35.9976 24.2234 36.4934 25.3982 37.583 25.3522C36.7905 24.6587 37.2465 23.0344 38.46 23.5934C38.8456 23.7703 38.828 24.2869 39.1641 24.3825ZM72.1807 21.9196C72.8529 21.7604 72.2771 23.3458 72.4434 23.6784C71.3607 23.827 71.6924 22.4432 72.1807 21.9196ZM48.3203 12.5836C49.6152 12.5872 49.4422 14.0126 49.375 14.9537C49.3184 15.7357 48.7351 16.7056 49.3897 17.2399C50.0968 17.8159 50.0401 17.0446 50.4434 16.7262C50.7299 16.4998 51.1125 16.5249 51.3955 16.2702C51.6644 16.0295 51.8344 15.4208 52.1846 15.1237C53.8084 13.7408 54.7106 16.9105 54.1729 18.3434C54.088 18.5662 52.8534 20.3698 52.6231 20.6676C51.5546 22.051 50.6236 22.5786 49.7285 20.6823V20.6852L48.2324 23.3219C48.1578 23.5266 47.6774 23.555 47.6201 23.4987C46.9974 22.8583 50.2311 19.4403 49.4707 18.2125C49.3433 18.0038 48.8904 17.9538 48.6817 17.7662C47.5393 16.7401 49.9973 13.7193 48.3203 12.5836ZM27.7217 23.3248C27.6651 22.7481 25.2244 21.8034 25.2598 22.5358C25.2778 22.9037 27.325 23.3176 27.7217 23.3248ZM39.2139 18.0885C38.1949 17.579 37.3349 18.2408 36.7051 19.0192L38.3818 19.9811C39.3016 21.389 38.708 20.1799 39.6943 19.8825C40.6968 19.5824 41.6255 20.6342 41.8125 21.5631C43.775 19.6799 41.2014 19.8107 40.335 19.2555C39.8541 18.9477 39.776 18.368 39.2139 18.0885ZM23.6748 19.9811C23.0947 20.4975 26.1212 21.3782 26.3984 21.3893C26.5506 21.3964 26.5121 21.0635 26.4873 21.0387H26.4902C26.4143 20.9621 24.8588 20.2142 24.6504 20.1471C24.3288 20.0446 24.0212 19.9353 23.6748 19.9811ZM44.4502 17.8688C44.4856 18.7639 44.5981 19.871 43.3916 19.8922C43.5013 20.3734 45.168 21.4385 45.4971 21.2086C45.9287 20.9079 45.3908 19.3943 45.1856 18.9801L44.4502 17.8688ZM50.7871 17.692C50.635 18.8879 50.4473 19.8824 50.9639 21.0358C52.0212 20.4417 51.3747 20.3813 51.3213 19.8864C51.2293 19.0125 51.4586 18.9944 51.0234 18.1559V18.1598C50.9138 17.9476 51.0766 17.6464 50.7871 17.692ZM82.6572 16.4577C83.1419 15.9871 84.151 17.4833 84.2041 17.9928C84.2395 18.3572 83.6975 20.6257 83.4463 20.6823C82.1908 20.9577 83.4392 17.7988 83.167 17.526H83.1631C83.1026 17.4661 82.7385 17.5682 82.6748 17.5045C82.6362 17.4618 82.6187 16.5004 82.6572 16.4577ZM58.0928 16.4645C57.824 16.4645 57.8341 17.0121 57.8447 17.2282C57.8801 18.0207 57.9479 19.0898 58.0293 19.8717C58.047 20.0518 58.0995 20.6922 58.3545 20.6842C58.4854 20.1539 58.7045 16.4682 58.0928 16.4645ZM60.166 16.2448C60.113 16.6658 59.8902 17.0696 59.8018 17.4694C59.7628 17.6465 59.6254 18.085 59.9365 18.0426H59.9395L61.1709 14.1715L60.166 16.2448ZM52.9873 15.7575C52.7465 15.8996 52.0539 16.9924 52.1953 17.1657C52.2391 17.213 52.5037 16.9599 52.7188 17.0621C53.1255 17.2567 52.9027 17.819 53.249 17.8688C53.2173 17.1685 53.408 16.3729 52.9873 15.7575ZM46.0352 15.0495C45.3031 15.9693 46.4315 16.818 47.0859 17.5114L47.0889 17.5153C47.1384 17.0235 46.9439 16.5985 46.7705 16.1598C46.6467 15.852 46.3287 15.2301 46.0352 15.0495ZM53.6211 7.23012C53.6706 6.82324 53.9784 5.9067 54.4844 6.24281L54.4805 6.24965C54.5371 6.28857 54.8167 7.38952 54.8379 7.56996C54.9157 8.31991 54.6538 9.50828 54.7315 10.0426C54.7845 10.4 56.0695 11.5714 55.8926 12.233L56.4619 9.89808C56.6247 9.48065 56.9326 8.87206 57.2227 8.54652C57.6437 8.07242 59.1759 7.0465 59.1582 8.0973C58.3729 9.69278 57.5727 11.2738 56.8086 12.8834C56.6778 13.1557 56.3494 13.3472 56.2783 13.5875C56.066 14.3093 56.1256 15.6687 56.0654 16.4577C55.8464 16.7471 55.7442 16.4399 55.7158 16.1959C55.6451 15.644 55.7829 15.0101 55.7051 14.444C55.3335 11.7766 52.5413 14.6954 51.5401 14.8405C50.0621 15.0558 52.0425 12.8453 52.9024 12.4948C54.0309 12.0384 54.4842 12.2965 55.457 12.9332C55.7045 12.4519 54.7001 10.9411 54.3145 10.7536C53.628 10.421 50.4119 10.6198 50.0791 10.3864C49.8456 10.2272 48.8838 8.4117 49.3721 8.08266C49.844 7.7615 53.3765 8.87856 53.957 9.41273C53.7907 8.64159 53.5256 8.05791 53.6211 7.23012ZM58.1817 8.53871C57.3042 9.09772 56.6073 10.2623 56.4375 11.2848C56.4092 11.4617 56.296 11.932 56.5967 11.8825L58.1817 8.53871ZM51.0801 9.21449C50.748 9.10408 50.6765 8.26643 49.9092 8.53871C49.7889 8.64485 50.3697 9.52629 50.5537 9.57582C50.766 9.63214 51.035 9.43448 51.2295 9.4557C51.6716 9.50879 52.1067 9.62506 52.5488 9.68519C52.7364 9.70996 53.118 9.92951 53.0791 9.5934L53.0762 9.5973C52.4959 9.2435 51.5683 9.37724 51.0801 9.21449ZM70.3272 8.88539C70.3062 8.06125 71.0213 7.407 71.6934 8.05433C72.447 8.77964 71.0631 9.39487 70.3272 8.88539Z" fill="#4B3A2A"/>
</svg>
