<svg width="100" height="100" viewBox="0 0 100 100" fill="none" xmlns="http://www.w3.org/2000/svg">
<g clip-path="url(#clip0_16_17950)">
<path d="M56.5313 7.49902C58.0186 14.9344 59.496 22.3642 60.1335 29.9854C60.406 33.8396 60.0479 37.8923 58.1716 41.3721C55.273 47.0831 48.1121 49.1946 42.6603 45.7767C37.4698 42.4574 36.2325 35.7034 36.6889 29.9854C37.3251 22.3656 38.8053 14.9344 40.2939 7.50043C39.5833 13.1396 38.7856 18.7591 38.2323 24.4123C37.8714 28.123 37.4768 31.9054 38.0821 35.5851C38.7786 40.3712 41.9553 45.3629 47.0743 45.9189C53.6186 46.7311 57.8079 41.6607 58.746 35.5851C59.3527 31.9054 58.9567 28.1244 58.5958 24.4123C58.041 18.7591 57.2433 13.1396 56.5313 7.50043V7.49902Z" fill="#4B3A2A" stroke="#4B3A2A" stroke-width="0.271111"/>
<path d="M48.4123 9.82752C45.8844 9.8782 43.1305 9.87116 40.8652 8.57327C38.5058 6.71795 42.5547 5.44681 44.0138 5.22862C47.6343 4.59798 51.4654 4.60079 54.9623 5.83815C56.2248 6.26749 57.5084 7.52173 55.9594 8.57327C55.0002 9.18984 53.8753 9.42633 52.7827 9.622C51.3292 9.83456 49.8658 9.8979 48.4123 9.82611C50.8714 9.62481 53.5298 9.48264 55.6701 8.17068C56.7992 7.4063 55.5255 6.6912 54.7362 6.40685C52.7294 5.67626 50.5399 5.53549 48.4123 5.52282C38.1 5.72412 38.291 9.21095 48.4123 9.82611V9.82752Z" fill="#4B3A2A"/>
<path d="M48.4123 9.82611C49.8658 9.8979 51.3292 9.83456 52.7827 9.622C53.8753 9.42633 55.0002 9.18984 55.9594 8.57327C57.5084 7.52173 56.2248 6.26749 54.9623 5.83815C51.4654 4.60079 47.6343 4.59798 44.0138 5.22862C42.5547 5.44681 38.5058 6.71795 40.8652 8.57327C43.1305 9.87116 45.8844 9.8782 48.4123 9.82752V9.82611ZM48.4123 9.82611C50.8714 9.62481 53.5298 9.48264 55.6701 8.17068C56.7992 7.4063 55.5255 6.6912 54.7362 6.40685C52.7294 5.67626 50.5399 5.53549 48.4123 5.52282C38.1 5.72412 38.291 9.21095 48.4123 9.82611Z" stroke="#4B3A2A" stroke-width="0.271111"/>
<path d="M37.6982 29.4606C38.017 29.2649 38.2389 29.2452 38.5732 29.3452C38.4271 29.6886 37.9398 29.7646 37.6982 29.4606Z" fill="#4B3A2A" stroke="#4B3A2A" stroke-width="0.271111"/>
<path d="M37.7617 30.3332C38.1255 30.1488 38.3993 30.1319 38.7687 30.2417C38.5566 30.588 38.0426 30.6429 37.7617 30.3332Z" fill="#4B3A2A" stroke="#4B3A2A" stroke-width="0.271111"/>
<path d="M37.6982 31.1555C38.1069 30.9499 38.4622 30.919 38.8863 31.0344C38.597 31.3807 38.062 31.4426 37.6982 31.1555Z" fill="#4B3A2A" stroke="#4B3A2A" stroke-width="0.271111"/>
<path d="M37.6982 32.0915C38.1673 31.9423 38.5661 31.9535 39.0127 32.1168C38.6392 32.4307 38.0676 32.4237 37.6982 32.0915Z" fill="#4B3A2A" stroke="#4B3A2A" stroke-width="0.271111"/>
<path d="M37.7578 33.1303C38.2465 32.8952 38.7339 32.9107 39.1973 33.1556C38.7479 33.3879 38.2044 33.3809 37.7578 33.1303Z" fill="#4B3A2A" stroke="#4B3A2A" stroke-width="0.271111"/>
<path d="M37.6982 34.0944C38.2108 34.0156 38.6897 34.0057 39.1841 33.9832C39.7809 33.9381 39.795 34.0184 39.236 34.2506C38.7361 34.4266 38.149 34.3985 37.6982 34.0944Z" fill="#4B3A2A" stroke="#4B3A2A" stroke-width="0.271111"/>
<path d="M37.8223 35.0433C38.5048 34.9378 39.0862 34.9012 39.7631 34.9209C39.2351 35.3713 38.4065 35.4234 37.8223 35.0433Z" fill="#4B3A2A" stroke="#4B3A2A" stroke-width="0.271111"/>
<path d="M38.1328 36.1738C38.7999 36.1119 39.3588 36.1133 40.0119 36.1781C39.481 36.5919 38.6651 36.5919 38.1328 36.1738Z" fill="#4B3A2A" stroke="#4B3A2A" stroke-width="0.271111"/>
<path d="M38.1987 37.5392C38.7155 37.4632 39.1902 37.4407 39.6859 37.3985C39.8516 37.3872 40.0187 37.3703 40.2027 37.3731C40.0735 37.5068 39.9148 37.5941 39.7491 37.6645C39.2534 37.8644 38.6523 37.8489 38.1973 37.5406L38.1987 37.5392Z" fill="#4B3A2A" stroke="#4B3A2A" stroke-width="0.271111"/>
<path d="M38.4453 38.4934C39.2093 38.43 39.8862 38.4455 40.6347 38.5455C39.9705 38.9284 39.0941 38.9087 38.4453 38.4934Z" fill="#4B3A2A" stroke="#4B3A2A" stroke-width="0.271111"/>
<path d="M38.6328 39.5633C39.3252 39.4169 39.9389 39.3733 40.6326 39.4183C40.0695 39.8448 39.255 39.9054 38.6328 39.5633Z" fill="#4B3A2A" stroke="#4B3A2A" stroke-width="0.271111"/>
<path d="M39.3184 40.2546C40.0837 40.2194 40.7747 40.1335 41.5078 39.9829C40.9854 40.5882 39.9728 40.7135 39.3184 40.2546Z" fill="#4B3A2A" stroke="#4B3A2A" stroke-width="0.271111"/>
<path d="M39.8809 41.1233C40.6083 41.1247 41.2557 41.0655 41.9523 40.936C41.465 41.5259 40.4665 41.6145 39.8809 41.1233Z" fill="#4B3A2A" stroke="#4B3A2A" stroke-width="0.271111"/>
<path d="M40.4414 42.1943C40.9343 42.1535 41.3655 42.1338 41.8303 42.0873C41.9848 42.0733 42.1393 42.0507 42.3148 42.0437C42.2053 42.1831 42.0592 42.2774 41.9034 42.3506C41.4399 42.5631 40.8417 42.5336 40.4414 42.1957V42.1943Z" fill="#4B3A2A" stroke="#4B3A2A" stroke-width="0.271111"/>
<path d="M41.0039 43.008C41.7033 42.9573 42.2636 42.8939 42.9405 42.7954C42.4883 43.35 41.5671 43.45 41.0039 43.008Z" fill="#4B3A2A" stroke="#4B3A2A" stroke-width="0.271111"/>
<path d="M41.6953 43.871C42.4242 43.7781 43.0688 43.6374 43.7527 43.4248C43.3286 44.0695 42.3469 44.2807 41.6953 43.871Z" fill="#4B3A2A" stroke="#4B3A2A" stroke-width="0.271111"/>
<path d="M42.5469 44.5452C43.1311 44.4818 43.6156 44.22 44.124 43.9905C45.2194 43.4289 44.2125 44.3608 43.756 44.548C43.3881 44.7127 42.905 44.7746 42.5469 44.5452Z" fill="#4B3A2A" stroke="#4B3A2A" stroke-width="0.271111"/>
<path d="M43.7646 45.3334C44.2 45.0279 44.6199 44.783 45.0468 44.5085C45.1915 44.4198 45.3319 44.3241 45.4991 44.2368C45.4443 44.4184 45.3432 44.5733 45.2252 44.714C44.8713 45.1293 44.318 45.3982 43.7646 45.3334Z" fill="#4B3A2A" stroke="#4B3A2A" stroke-width="0.271111"/>
<path d="M45.1338 45.8261C45.5425 45.5573 45.7363 45.4461 46.1772 45.2363C46.1843 45.7375 45.5565 46.0894 45.1338 45.8261Z" fill="#4B3A2A" stroke="#4B3A2A" stroke-width="0.271111"/>
<path d="M40.8715 11.8843C40.4558 16.7422 39.5949 21.5325 39.2635 26.3975C39.1161 21.5142 39.9854 16.6676 40.8715 11.8843Z" fill="#4B3A2A" stroke="#4B3A2A" stroke-width="0.271111"/>
<path d="M39.8062 33.9749C40.2121 36.9211 41.3272 39.7562 43.1585 42.1028C43.7539 42.8785 44.4393 43.6302 45.3858 43.9793C41.9606 42.9179 39.7374 37.3251 39.8062 33.9763V33.9749Z" fill="#4B3A2A" stroke="#4B3A2A" stroke-width="0.271111"/>
<path d="M44.6211 88.6606C46.6251 88.9225 48.5899 89.0027 50.6023 88.9098C48.6629 89.4912 46.5044 89.3997 44.6211 88.6606Z" fill="#4B3A2A" stroke="#4B3A2A" stroke-width="0.271111"/>
<path d="M39.1592 92.298C39.4681 92.7992 40.0158 93.0455 40.5467 93.2299C42.1772 93.7677 43.9284 93.8028 45.6277 93.9746C47.9141 94.1787 50.2088 94.2012 52.5078 93.9999C50.0066 94.6587 40.4287 94.7939 39.1592 92.2966V92.298Z" fill="#4B3A2A" stroke="#4B3A2A" stroke-width="0.271111"/>
<path d="M47.8252 54.3921C48.1145 61.3981 48.1805 69.1108 48.005 76.1211C47.7142 69.115 47.6525 61.4024 47.8252 54.3921Z" fill="#4B3A2A" stroke="#4B3A2A" stroke-width="0.271111"/>
<path d="M48.3912 53.0742C48.7227 55.2519 48.7171 57.476 48.3702 59.6495C48.2325 57.4549 48.241 55.2716 48.3912 53.0742Z" fill="#4B3A2A" stroke="#4B3A2A" stroke-width="0.271111"/>
<path d="M45.3887 87.8526C45.9013 87.7582 46.3029 87.7765 46.7916 87.9061C46.404 88.2552 45.7552 88.2354 45.3887 87.8526Z" fill="#4B3A2A" stroke="#4B3A2A" stroke-width="0.271111"/>
<path d="M45.7373 87.2529C46.2078 87.091 46.6193 87.0967 47.0729 87.2585C46.6937 87.5739 46.1221 87.5767 45.7373 87.2529Z" fill="#4B3A2A" stroke="#4B3A2A" stroke-width="0.271111"/>
<path d="M46.1279 86.6336C46.4467 86.3901 46.8231 86.3985 47.1264 86.6336C46.8231 86.8687 46.4453 86.8771 46.1279 86.6336Z" fill="#4B3A2A" stroke="#4B3A2A" stroke-width="0.271111"/>
<path d="M46.46 85.8494C46.7773 85.5974 47.1004 85.6045 47.4065 85.8283C47.1425 86.0704 46.7436 86.0859 46.46 85.8494Z" fill="#4B3A2A" stroke="#4B3A2A" stroke-width="0.271111"/>
<path d="M46.7373 85.0203C46.9873 84.8078 47.2696 84.8233 47.5322 84.8951C47.5631 84.9021 47.5954 84.9148 47.6193 84.857C47.6824 84.8753 47.674 84.9795 47.6389 85.033C47.3931 85.292 47.014 85.2301 46.7387 85.0203H46.7373Z" fill="#4B3A2A" stroke="#4B3A2A" stroke-width="0.271111"/>
<path d="M46.8506 84.1757C47.2312 84.0053 47.4601 83.9631 47.8533 83.9687C47.7325 84.3826 47.1329 84.5135 46.8506 84.1757Z" fill="#4B3A2A" stroke="#4B3A2A" stroke-width="0.271111"/>
<path d="M46.8506 83.3408C47.2101 83.1508 47.491 83.1353 47.8547 83.2578C47.6342 83.5942 47.1343 83.6449 46.8506 83.3408Z" fill="#4B3A2A" stroke="#4B3A2A" stroke-width="0.271111"/>
<path d="M46.9033 82.6315C47.26 82.4738 47.5142 82.4822 47.8499 82.6315C47.628 82.9482 47.135 82.958 46.9033 82.6315Z" fill="#4B3A2A" stroke="#4B3A2A" stroke-width="0.271111"/>
<path d="M47.0146 81.9036C47.2773 81.6586 47.6017 81.6727 47.8474 81.9036C47.6017 82.1358 47.2773 82.1485 47.0146 81.9036Z" fill="#4B3A2A" stroke="#4B3A2A" stroke-width="0.271111"/>
<path d="M47.0186 81.28C47.3303 81.0914 47.5438 81.0843 47.8598 81.2054C47.7081 81.5334 47.2376 81.5883 47.0186 81.28Z" fill="#4B3A2A" stroke="#4B3A2A" stroke-width="0.271111"/>
<path d="M46.9639 80.5536C47.2981 80.3762 47.527 80.3692 47.8613 80.4888C47.6871 80.8239 47.1956 80.8703 46.9639 80.5536Z" fill="#4B3A2A" stroke="#4B3A2A" stroke-width="0.271111"/>
<path d="M47.0713 80.0062C47.3437 79.7908 47.5839 79.795 47.8507 79.9724C47.6724 80.2525 47.2876 80.2849 47.0713 80.0062Z" fill="#4B3A2A" stroke="#4B3A2A" stroke-width="0.271111"/>
<path d="M46.96 79.2853C47.2802 79.0798 47.5049 79.0502 47.8517 79.1291C47.7155 79.4838 47.2198 79.5823 46.96 79.2853Z" fill="#4B3A2A" stroke="#4B3A2A" stroke-width="0.271111"/>
<path d="M47.0146 78.4493C47.1972 78.186 47.3601 78.1537 47.634 78.2423C47.6031 78.5492 47.2422 78.69 47.0146 78.4493Z" fill="#4B3A2A" stroke="#4B3A2A" stroke-width="0.271111"/>
<path d="M46.9053 77.4486C47.1258 77.2332 47.2142 77.2416 47.4628 77.3444C47.4558 77.6484 47.0387 77.7484 46.9053 77.4486Z" fill="#4B3A2A" stroke="#4B3A2A" stroke-width="0.271111"/>
<path d="M47.0713 57.0877C47.223 56.8357 47.4406 56.8681 47.5712 57.0877C47.4406 57.3073 47.2244 57.3397 47.0713 57.0877Z" fill="#4B3A2A" stroke="#4B3A2A" stroke-width="0.271111"/>
<path d="M47.126 57.9224C47.2959 57.6718 47.5318 57.7 47.6807 57.9224C47.5318 58.1448 47.2959 58.173 47.126 57.9224Z" fill="#4B3A2A" stroke="#4B3A2A" stroke-width="0.271111"/>
<path d="M47.292 58.8066C47.4156 58.5391 47.6361 58.5461 47.7919 58.7502C47.6866 58.9825 47.4732 59.0402 47.292 58.8066Z" fill="#4B3A2A" stroke="#4B3A2A" stroke-width="0.271111"/>
<path d="M47.2373 59.4794C47.4199 59.2485 47.5406 59.2682 47.7373 59.4259C47.6881 59.6933 47.3637 59.7581 47.2373 59.4794Z" fill="#4B3A2A" stroke="#4B3A2A" stroke-width="0.271111"/>
<path d="M47.1279 60.2084C47.3498 59.9423 47.6588 59.9296 47.9045 60.1394C47.6995 60.3886 47.3934 60.4322 47.1279 60.2084Z" fill="#4B3A2A" stroke="#4B3A2A" stroke-width="0.271111"/>
<path d="M47.2354 60.8222C47.5373 60.6505 47.7859 60.6983 48.0148 60.9264C47.7831 61.1629 47.4109 61.1291 47.2354 60.8222Z" fill="#4B3A2A" stroke="#4B3A2A" stroke-width="0.271111"/>
<path d="M47.1787 61.771C47.4568 61.6021 47.5902 61.6175 47.8472 61.7597C47.7475 62.068 47.3023 62.0933 47.1787 61.771Z" fill="#4B3A2A" stroke="#4B3A2A" stroke-width="0.271111"/>
<path d="M47.0703 62.6564C47.3147 62.4284 47.604 62.4706 47.7922 62.7155C47.5675 62.9267 47.2754 62.9211 47.0703 62.6564Z" fill="#4B3A2A" stroke="#4B3A2A" stroke-width="0.271111"/>
<path d="M47.1826 63.5955C47.4761 63.4561 47.639 63.5026 47.8483 63.7081C47.6713 63.9671 47.2753 63.9193 47.1826 63.5955Z" fill="#4B3A2A" stroke="#4B3A2A" stroke-width="0.271111"/>
<path d="M47.3457 64.7709C47.6406 64.6554 47.7403 64.692 47.958 64.8708C47.8302 65.1622 47.3836 65.1073 47.3457 64.7709Z" fill="#4B3A2A" stroke="#4B3A2A" stroke-width="0.271111"/>
<path d="M47.2373 65.8801C47.4943 65.6647 47.7822 65.7182 47.962 65.9716C47.726 66.1729 47.4325 66.1531 47.2373 65.8801Z" fill="#4B3A2A" stroke="#4B3A2A" stroke-width="0.271111"/>
<path d="M47.1826 66.8245C47.3708 66.5753 47.625 66.5993 47.7935 66.8245C47.6264 67.0497 47.3708 67.0737 47.1826 66.8245Z" fill="#4B3A2A" stroke="#4B3A2A" stroke-width="0.271111"/>
<path d="M47.1826 67.8255C47.3708 67.5763 47.625 67.6002 47.7935 67.8255C47.6264 68.0507 47.3708 68.0746 47.1826 67.8255Z" fill="#4B3A2A" stroke="#4B3A2A" stroke-width="0.271111"/>
<path d="M47.0146 68.8826C47.2393 68.6362 47.5301 68.6545 47.7365 68.8826C47.5301 69.1106 47.2393 69.1289 47.0146 68.8826Z" fill="#4B3A2A" stroke="#4B3A2A" stroke-width="0.271111"/>
<path d="M47.126 69.8851C47.2776 69.6331 47.4953 69.6655 47.6259 69.8851C47.4953 70.1047 47.2791 70.137 47.126 69.8851Z" fill="#4B3A2A" stroke="#4B3A2A" stroke-width="0.271111"/>
<path d="M47.1807 71.0574C47.3857 70.8449 47.5964 70.9209 47.6806 71.1644C47.5037 71.3516 47.2804 71.3361 47.1807 71.0574Z" fill="#4B3A2A" stroke="#4B3A2A" stroke-width="0.271111"/>
<path d="M57.7998 91.3563C58.5062 91.6041 59.3137 92.36 58.6396 93.0807C56.8237 94.5574 54.2551 94.6531 52.0208 94.9515C48.1714 95.2373 44.2181 95.1782 40.481 94.1365C39.2733 93.831 36.7285 92.6471 38.8688 91.5717C44.1858 89.608 47.3526 88.0651 47.163 81.6911C47.208 77.4357 47.2403 69.6766 47.2487 65.3423C47.2655 62.4411 47.267 59.5398 47.2627 56.6372C47.0338 57.5761 46.8035 58.5165 46.5746 59.4554C46.5774 66.1377 46.6041 72.8903 46.6532 79.3431C46.6308 80.6847 46.7656 82.6878 46.6097 83.9843C46.0957 88.631 42.5202 89.7895 38.755 91.3408C37.9026 91.6984 37.404 92.6556 38.2832 93.3341C39.5808 94.2801 41.1874 94.5137 42.7196 94.7896C45.8008 95.2415 48.9311 95.2908 52.0264 95.012C54.2664 94.6953 56.8378 94.5869 58.6508 93.0892C59.3333 92.3698 58.5076 91.5914 57.7998 91.3549V91.3563Z" fill="#4B3A2A" stroke="#4B3A2A" stroke-width="0.271111"/>
<path d="M49.9589 83.2538C49.9617 77.616 50.0516 66.7966 50.1274 57.7184C49.9996 57.0259 49.8494 56.3375 49.6738 55.6548C49.7483 65.1524 49.8438 77.6259 49.8803 83.258C50.2243 88.4186 53.5401 89.7503 57.7995 91.3578C53.5808 89.7362 50.2623 88.382 49.9589 83.2552V83.2538Z" fill="#4B3A2A" stroke="#4B3A2A" stroke-width="0.271111"/>
<path d="M51.9176 57.2369C52.8922 61.6514 52.8613 66.2264 53.4315 70.7084C53.9258 75.2088 53.9624 80.1033 56.5534 83.9688C56.427 84.0504 53.7124 85.4089 53.5116 85.5243L53.2321 85.6665L53.0804 85.3877C51.7182 82.8976 50.7941 80.161 50.4023 77.3457C49.9416 74.5218 50.2731 71.6769 50.4318 68.8967C50.6874 64.7201 50.6494 60.4915 49.7703 56.3853C49.4276 55.0634 49.2437 53.5755 48.3828 52.4817L48.3252 52.417L48.4123 52.4198C48.9291 52.4339 49.5414 52.448 49.9234 52.8773C50.898 54.1555 51.4949 55.6969 51.9176 57.2369ZM51.9176 57.2369C51.4808 55.7096 50.8615 54.171 49.8841 52.9167C49.5161 52.5113 48.9305 52.5043 48.4123 52.4958L48.4404 52.4325C49.3363 53.5417 49.5161 55.024 49.9149 56.3543C50.9233 60.4563 51.089 64.7173 50.9584 68.9235C50.905 71.729 50.5708 74.5162 51.0637 77.2499C51.5019 79.9766 52.36 82.6385 53.652 85.0823L53.2208 84.9471L55.9762 83.5789L55.8555 84.0181C53.4175 80.016 53.5762 75.2201 53.1998 70.731C52.7953 66.2348 52.8332 61.6627 51.9176 57.2397V57.2369Z" fill="#4B3A2A"/>
<path d="M51.9176 57.2369C52.8922 61.6514 52.8613 66.2264 53.4315 70.7084C53.9258 75.2088 53.9624 80.1033 56.5534 83.9688C56.427 84.0504 53.7124 85.4089 53.5116 85.5243L53.2321 85.6665L53.0804 85.3877C51.7182 82.8976 50.7941 80.161 50.4023 77.3457C49.9416 74.5218 50.2731 71.6769 50.4318 68.8967C50.6874 64.7201 50.6494 60.4915 49.7703 56.3853C49.4276 55.0634 49.2437 53.5755 48.3828 52.4817L48.3252 52.417L48.4123 52.4198C48.9291 52.4339 49.5414 52.448 49.9234 52.8773C50.898 54.1555 51.4949 55.6969 51.9176 57.2369ZM51.9176 57.2369C51.4808 55.7096 50.8615 54.171 49.8841 52.9167C49.5161 52.5113 48.9305 52.5043 48.4123 52.4958L48.4404 52.4325C49.3363 53.5417 49.5161 55.024 49.9149 56.3543C50.9233 60.4563 51.089 64.7173 50.9584 68.9235C50.905 71.729 50.5708 74.5162 51.0637 77.2499C51.5019 79.9766 52.36 82.6385 53.652 85.0823L53.2208 84.9471L55.9762 83.5789L55.8555 84.0181C53.4175 80.016 53.5762 75.2201 53.1998 70.731C52.7953 66.2348 52.8332 61.6627 51.9176 57.2397V57.2369Z" stroke="#4B3A2A" stroke-width="0.271111"/>
<path d="M41.5418 71.2842C41.6457 70.8577 41.7398 70.4298 41.8241 69.999C39.3341 72.8805 35.9398 74.9724 32.3867 76.2308C32.2448 75.6734 31.912 74.063 31.7772 73.5112C31.7603 73.4394 31.7519 73.3803 31.7533 73.3493C31.7561 73.3366 31.7547 73.3338 31.7533 73.3338C31.7898 73.3085 32.0019 73.2353 32.1269 73.1846C36.0549 71.6925 39.6698 69.0488 41.8269 65.3987C42.0516 65.0355 42.2524 64.6625 42.4392 64.2838C42.442 64.2162 42.4434 64.1501 42.4462 64.0825C42.2342 64.5147 42.001 64.937 41.7398 65.3452C39.5041 68.8982 35.8625 71.3532 31.9513 72.6989C31.6564 72.7961 31.2253 72.9031 31.2126 73.3071C31.1733 73.5041 31.5806 75.282 31.6073 75.527C31.7351 75.931 31.6705 76.7573 32.2533 76.8544C32.5384 76.9093 32.8726 76.7108 33.1057 76.6475C36.2586 75.5101 39.2218 73.7125 41.5376 71.2842H41.5418ZM31.7491 73.3366C31.7491 73.3366 31.7519 73.3366 31.7519 73.3352C31.7505 73.3366 31.7491 73.3394 31.7491 73.3366Z" fill="#4B3A2A" stroke="#4B3A2A" stroke-width="0.271111"/>
<path d="M47.8674 52.548C47.7326 52.5029 47.6006 52.51 47.4784 52.5466C47.4447 52.5944 47.4082 52.6409 47.3759 52.6887C47.5135 52.6282 47.6638 52.6043 47.8295 52.631C48.0921 52.7732 48.0598 53.1702 47.9854 53.4545C47.9854 53.4545 46.0249 60.9518 46.0235 60.9518C45.817 61.7289 45.6134 62.5087 45.3859 63.2801C45.3578 63.9023 45.3297 64.5231 45.2988 65.1439C45.744 63.7996 46.0516 62.4032 46.3676 61.0363L48.0837 53.4784C48.1539 53.1702 48.2045 52.7253 47.866 52.548H47.8674Z" fill="#4B3A2A" stroke="#4B3A2A" stroke-width="0.271111"/>
<path d="M50.4658 51.6891C56.6127 55.2224 55.6311 64.7989 56.3599 70.9308C56.5889 73.3112 57.0663 75.7197 58.4932 77.6004C57.548 78.4731 56.4302 79.1615 55.2084 79.5697C52.7605 75.3227 53.0245 70.2818 52.922 65.583C52.71 61.1023 52.1328 56.1656 49.522 52.4L49.501 52.3719L49.5291 52.3522L50.4686 51.6877L50.4658 51.6891ZM50.4658 51.6891L49.5656 52.4071L49.5712 52.3592C52.4319 56.067 53.1369 61.0066 53.4655 65.5619C53.6888 70.0904 53.3925 74.9131 55.6718 78.9658L55.2449 78.8096C56.1746 78.4506 57.0495 77.941 57.805 77.2865L57.7503 77.7454C55.1072 73.6532 55.7561 68.6278 55.353 64.0345C55.0075 59.6186 54.5792 54.2722 50.4644 51.6891H50.4658Z" fill="#4B3A2A"/>
<path d="M50.4658 51.6891C56.6127 55.2224 55.6311 64.7989 56.3599 70.9308C56.5889 73.3112 57.0663 75.7197 58.4932 77.6004C57.548 78.4731 56.4302 79.1615 55.2084 79.5697C52.7605 75.3227 53.0245 70.2818 52.922 65.583C52.71 61.1023 52.1328 56.1656 49.522 52.4L49.501 52.3719L49.5291 52.3522L50.4686 51.6877L50.4658 51.6891ZM50.4658 51.6891L49.5656 52.4071L49.5712 52.3592C52.4319 56.067 53.1369 61.0066 53.4655 65.5619C53.6888 70.0904 53.3925 74.9131 55.6718 78.9658L55.2449 78.8096C56.1746 78.4506 57.0495 77.941 57.805 77.2865L57.7503 77.7454C55.1072 73.6532 55.7561 68.6278 55.353 64.0345C55.0075 59.6186 54.5792 54.2722 50.4644 51.6891H50.4658Z" stroke="#4B3A2A" stroke-width="0.271111"/>
<path d="M50.708 50.7346C59.5106 47.8038 67.604 39.4577 77.5007 41.9929C78.1074 42.2139 78.6817 42.6038 79.0033 43.1641C78.6171 42.6489 78.0371 42.342 77.4417 42.1717C67.5984 40.4233 59.8336 48.6921 50.7094 50.7346H50.708Z" fill="#4B3A2A" stroke="#4B3A2A" stroke-width="0.271111"/>
<path d="M54.5537 49.3495C56.5676 49.9336 58.6657 49.9252 60.74 49.859C66.849 49.714 73.4355 47.6222 76.7709 42.1309C76.3552 43.0965 75.7696 43.989 75.1067 44.8167C71.6365 48.9764 65.9839 50.5361 60.7456 50.401C58.6559 50.3461 56.4819 50.2208 54.5537 49.3495Z" fill="#4B3A2A" stroke="#4B3A2A" stroke-width="0.271111"/>
<path d="M20.9838 51.229C21.2563 50.1 22.1087 49.2089 22.9485 48.4516C23.8179 47.7379 24.6647 46.8891 25.8823 46.5653C27.0606 46.3049 28.1911 46.4963 29.3623 46.547C33.9195 46.8933 38.3995 48.0012 42.6463 49.6707C43.6996 50.107 44.7458 50.5533 45.7654 51.06C43.6139 50.3252 41.4582 49.627 39.273 49.0513C34.9489 48.0012 30.4577 46.9623 25.9988 47.0946C24.9666 47.2931 24.0706 48.0561 23.1662 48.7191C22.266 49.3821 21.4094 50.1591 20.9824 51.229H20.9838Z" fill="#4B3A2A" stroke="#4B3A2A" stroke-width="0.271111"/>
<path d="M22.6787 48.9472C23.1829 50.9503 25.4186 51.505 27.146 52.0455C30.8367 53.0872 34.7549 53.152 38.492 52.3059C40.357 51.8653 42.1813 51.2206 43.9255 50.3521C39.0664 53.7136 32.5529 54.4738 26.9831 52.5706C25.2628 51.9568 22.8809 51.0531 22.6801 48.9458L22.6787 48.9472Z" fill="#4B3A2A" stroke="#4B3A2A" stroke-width="0.271111"/>
<path d="M46.1784 52.0441C46.1559 52.0173 46.1363 51.9891 46.1152 51.9624C45.8933 52.0384 45.6939 52.189 45.5338 52.3425C44.0143 54.0092 43.2082 56.2291 42.8486 58.4307C43.2334 56.246 44.069 54.0387 45.5942 52.4086C45.7627 52.2524 45.9649 52.1074 46.1798 52.0455L46.1784 52.0441Z" fill="#4B3A2A" stroke="#4B3A2A" stroke-width="0.271111"/>
<path d="M47.2937 52.6802C46.6098 53.6656 46.2685 54.8536 46.0129 56.0037C44.3796 63.6714 45.9834 72.2667 41.1145 78.9658C40.9403 79.2023 40.8785 79.3741 40.585 79.3938C39.8028 79.4008 38.9714 79.3037 38.1807 79.1432C40.4979 76.4165 41.4403 72.841 42.0414 69.3894C42.6846 65.7618 42.3054 62.0624 42.8489 58.4306C42.245 62.0441 42.6326 65.7646 41.8504 69.3542C41.1229 72.8537 40.012 76.5348 37.4547 79.1193L37.1162 79.4557C37.9195 79.6922 38.7495 79.8907 39.5851 79.9639C40.123 79.9808 40.7844 80.1736 41.2661 79.7724C43.9499 76.4672 45.1352 72.1414 45.4245 67.9676C45.7629 63.9768 45.5073 59.9917 46.2713 56.0586C46.4904 54.886 46.7909 53.705 47.444 52.714C47.3934 52.7041 47.3443 52.6928 47.2937 52.6816V52.6802Z" fill="#4B3A2A" stroke="#4B3A2A" stroke-width="0.271111"/>
<path d="M46.355 47.4436C45.6781 48.5993 45.3762 50.4223 46.084 51.6047C46.7763 52.721 48.72 52.6745 49.623 51.9637C50.0682 51.592 50.1693 50.8896 50.2255 50.1675C50.2423 49.5889 50.4909 48.5951 50.2535 48.0714C49.9895 47.4647 49.175 47.255 48.4714 47.1733C47.7748 47.1311 46.9168 46.903 46.355 47.4422V47.4436ZM46.355 47.4436C46.9041 46.8946 47.7776 47.0959 48.4784 47.0762C49.2298 47.1001 50.1215 47.1733 50.5681 47.9067C50.7914 48.2798 50.8097 48.7105 50.8195 49.0821C50.8125 49.7789 50.8982 50.6714 50.731 51.3668C50.3617 53.1912 47.9448 53.484 46.5923 52.6745C44.8565 51.592 45.5222 48.8893 46.355 47.4436Z" fill="#4B3A2A"/>
<path d="M46.355 47.4436C45.6781 48.5993 45.3762 50.4223 46.084 51.6047C46.7763 52.721 48.72 52.6745 49.623 51.9637C50.0682 51.592 50.1693 50.8896 50.2255 50.1675C50.2423 49.5889 50.4909 48.5951 50.2535 48.0714C49.9895 47.4647 49.175 47.255 48.4714 47.1733C47.7748 47.1311 46.9168 46.903 46.355 47.4422V47.4436ZM46.355 47.4436C46.9041 46.8946 47.7776 47.0959 48.4784 47.0762C49.2298 47.1001 50.1215 47.1733 50.5681 47.9067C50.7914 48.2798 50.8097 48.7105 50.8195 49.0821C50.8125 49.7789 50.8982 50.6714 50.731 51.3668C50.3617 53.1912 47.9448 53.484 46.5923 52.6745C44.8565 51.592 45.5222 48.8893 46.355 47.4436Z" stroke="#4B3A2A" stroke-width="0.271111"/>
<path d="M49.8211 47.5098C49.1442 47.9095 49.0136 49.1061 48.7383 49.7733C48.4701 50.5926 48.2552 51.4076 48.2383 52.2917C47.8578 50.9867 48.3563 49.6241 48.8886 48.4374C49.0768 48.0475 49.3632 47.5928 49.8211 47.5098Z" fill="#4B3A2A" stroke="#4B3A2A" stroke-width="0.271111"/>
<path d="M52.397 50.2773C52.5543 50.953 52.3267 51.6893 51.8184 52.1538C51.89 51.4767 52.0711 50.8869 52.397 50.2773Z" fill="#4B3A2A" stroke="#4B3A2A" stroke-width="0.271111"/>
<path d="M53.5426 49.8254C53.6114 50.7855 53.2364 51.7709 52.5469 52.4367C52.8123 51.5386 53.1367 50.6799 53.5426 49.8254Z" fill="#4B3A2A" stroke="#4B3A2A" stroke-width="0.271111"/>
<path d="M54.5207 49.6946C54.6667 50.7954 54.2285 51.9764 53.4014 52.7141C53.8185 51.7005 54.1738 50.7461 54.5207 49.6946Z" fill="#4B3A2A" stroke="#4B3A2A" stroke-width="0.271111"/>
<path d="M55.0846 49.9465C55.2054 50.9727 54.9498 52.0327 54.374 52.8858C54.4934 51.868 54.7251 50.915 55.0846 49.9465Z" fill="#4B3A2A" stroke="#4B3A2A" stroke-width="0.271111"/>
<path d="M55.7181 50.0718C55.8361 51.1698 55.5243 52.3114 54.8643 53.194C55.0749 52.1354 55.3572 51.0966 55.7181 50.0718Z" fill="#4B3A2A" stroke="#4B3A2A" stroke-width="0.271111"/>
<path d="M56.2653 50.1943C56.5251 51.2121 56.3032 52.3523 55.6797 53.1955C55.8454 52.1862 56.0378 51.2008 56.2653 50.1943Z" fill="#4B3A2A" stroke="#4B3A2A" stroke-width="0.271111"/>
<path d="M56.8653 50.259C57.2291 51.2134 57.0198 52.386 56.3457 53.1532C56.5704 52.1721 56.7347 51.2669 56.8653 50.259Z" fill="#4B3A2A" stroke="#4B3A2A" stroke-width="0.271111"/>
<path d="M57.749 50.1323C58.0734 51.1459 57.9133 52.3171 57.3291 53.2053C57.4485 52.1749 57.5861 51.167 57.749 50.1323Z" fill="#4B3A2A" stroke="#4B3A2A" stroke-width="0.271111"/>
<path d="M58.5616 50.2576C58.9759 51.2598 58.8579 52.4873 58.2568 53.3897C58.3874 52.3423 58.49 51.3204 58.5616 50.2576Z" fill="#4B3A2A" stroke="#4B3A2A" stroke-width="0.271111"/>
<path d="M59.5606 50.4448C59.8372 51.3908 59.6518 52.4705 59.0732 53.2658C59.1926 52.3128 59.3499 51.3908 59.5606 50.4448Z" fill="#4B3A2A" stroke="#4B3A2A" stroke-width="0.271111"/>
<path d="M60.3749 50.1323C60.6838 51.212 60.5265 52.4283 59.9521 53.3925C60.0575 52.3002 60.1965 51.2233 60.3749 50.1323Z" fill="#4B3A2A" stroke="#4B3A2A" stroke-width="0.271111"/>
<path d="M61.1837 50.2576C61.5166 51.4006 61.3354 52.6999 60.6992 53.705C60.8677 52.5549 61.0292 51.4175 61.1837 50.2576Z" fill="#4B3A2A" stroke="#4B3A2A" stroke-width="0.271111"/>
<path d="M62.0564 50.2576C62.3822 51.3725 62.2558 52.6211 61.7109 53.6445C61.7826 52.5127 61.8963 51.3879 62.0564 50.2576Z" fill="#4B3A2A" stroke="#4B3A2A" stroke-width="0.271111"/>
<path d="M62.7465 50.0071C63.0836 51.2318 62.9024 52.6099 62.2578 53.7037C62.432 52.4733 62.5963 51.2472 62.7465 50.0071Z" fill="#4B3A2A" stroke="#4B3A2A" stroke-width="0.271111"/>
<path d="M63.6329 50.0071C63.8885 51.2346 63.6582 52.5719 63.001 53.6389C63.1934 52.4269 63.4026 51.2191 63.6329 50.0071Z" fill="#4B3A2A" stroke="#4B3A2A" stroke-width="0.271111"/>
<path d="M64.4389 50.0688C64.7127 51.3484 64.533 52.7251 63.9375 53.8893C64.0625 52.6153 64.2296 51.3386 64.4389 50.0688Z" fill="#4B3A2A" stroke="#4B3A2A" stroke-width="0.271111"/>
<path d="M65.2948 50.0085C65.6866 51.3233 65.5476 52.8084 64.917 54.0275C65.0729 52.6944 65.2007 51.3557 65.2948 50.0085Z" fill="#4B3A2A" stroke="#4B3A2A" stroke-width="0.271111"/>
<path d="M66.3581 49.6958C66.7457 51.0317 66.6024 52.5365 65.9648 53.7725C66.1278 52.4211 66.2612 51.0613 66.3581 49.6958Z" fill="#4B3A2A" stroke="#4B3A2A" stroke-width="0.271111"/>
<path d="M67.2354 49.8831C67.6061 51.1598 67.4657 52.5971 66.8506 53.7753C66.991 52.4816 67.1202 51.1866 67.2354 49.8831Z" fill="#4B3A2A" stroke="#4B3A2A" stroke-width="0.271111"/>
<path d="M68.1061 49.6958C68.5443 50.8135 68.5008 52.1269 67.9854 53.2108C68.0205 52.0382 68.0612 50.8754 68.1061 49.6958Z" fill="#4B3A2A" stroke="#4B3A2A" stroke-width="0.271111"/>
<path d="M68.9014 49.061C69.3929 50.2196 69.4547 51.5653 69.0699 52.7632C68.9716 51.5357 68.9154 50.3012 68.9014 49.061Z" fill="#4B3A2A" stroke="#4B3A2A" stroke-width="0.271111"/>
<path d="M69.5762 48.9387C70.1042 50.017 70.1534 51.3388 69.704 52.4523C69.6689 51.2797 69.6281 50.1184 69.5762 48.9387Z" fill="#4B3A2A" stroke="#4B3A2A" stroke-width="0.271111"/>
<path d="M70.2549 48.2517C70.7464 49.2892 70.8784 50.4702 70.7113 51.6006C70.672 51.7611 70.6032 51.9525 70.4445 52.0257C70.6299 51.7498 70.5063 51.4218 70.4936 51.1135C70.4094 50.1816 70.2956 49.1963 70.2549 48.2517Z" fill="#4B3A2A" stroke="#4B3A2A" stroke-width="0.271111"/>
<path d="M70.6904 48.063C71.4207 48.9456 71.6875 50.2196 71.3701 51.3218C71.1918 50.2027 70.9783 49.1694 70.6904 48.063Z" fill="#4B3A2A" stroke="#4B3A2A" stroke-width="0.271111"/>
<path d="M71.5059 47.6858C72.2797 48.5952 72.59 49.9099 72.3035 51.0713C72.1027 49.9268 71.8359 48.8091 71.5059 47.6858Z" fill="#4B3A2A" stroke="#4B3A2A" stroke-width="0.271111"/>
<path d="M72.2432 47.1284C73.0802 47.9421 73.4369 49.2568 73.1223 50.383C72.9355 49.247 72.6603 48.2137 72.2432 47.1284Z" fill="#4B3A2A" stroke="#4B3A2A" stroke-width="0.271111"/>
<path d="M72.873 46.6875C73.6946 47.3618 74.1243 48.5189 73.9376 49.569C73.6384 48.5851 73.2859 47.6419 72.873 46.6875Z" fill="#4B3A2A" stroke="#4B3A2A" stroke-width="0.271111"/>
<path d="M73.7559 46.4302C74.5844 47.0341 74.9987 48.1982 74.7347 49.192C74.4946 48.2137 74.1926 47.3508 73.7559 46.4302Z" fill="#4B3A2A" stroke="#4B3A2A" stroke-width="0.271111"/>
<path d="M74.3076 45.812C75.2443 46.5088 75.8623 47.6504 75.9311 48.8174C75.3988 47.8081 74.8666 46.8171 74.3076 45.812Z" fill="#4B3A2A" stroke="#4B3A2A" stroke-width="0.271111"/>
<path d="M75.1816 45.3125C76.1464 45.9558 76.7489 47.1537 76.6885 48.3151C76.2686 47.272 75.7729 46.281 75.1816 45.3125Z" fill="#4B3A2A" stroke="#4B3A2A" stroke-width="0.271111"/>
<path d="M75.7041 44.4131C76.7349 45.0719 77.3262 46.419 77.1071 47.6268C76.8192 46.4585 76.3726 45.4266 75.7041 44.4131Z" fill="#4B3A2A" stroke="#4B3A2A" stroke-width="0.271111"/>
<path d="M76.1191 43.6218C77.1008 44.2891 77.7243 45.4955 77.7019 46.6849C77.2511 45.625 76.7272 44.6128 76.1191 43.6218Z" fill="#4B3A2A" stroke="#4B3A2A" stroke-width="0.271111"/>
<path d="M76.6309 42.9841C77.4917 43.5754 78.0268 44.6438 77.9847 45.6883C77.5507 44.7705 77.1126 43.8907 76.6309 42.9841Z" fill="#4B3A2A" stroke="#4B3A2A" stroke-width="0.271111"/>
<path d="M77.2119 42.4028C78.0784 42.9729 78.6317 44.0245 78.6079 45.0619C78.1585 44.1582 77.7063 43.2939 77.2119 42.4028Z" fill="#4B3A2A" stroke="#4B3A2A" stroke-width="0.271111"/>
<path d="M78.0547 42.4956C78.6305 42.6885 79.0012 43.3402 78.8762 43.93C78.5237 43.4641 78.285 43.0502 78.0547 42.4956Z" fill="#4B3A2A" stroke="#4B3A2A" stroke-width="0.271111"/>
<path d="M21.9639 49.8213C21.9583 50.794 21.8403 51.7034 21.5973 52.6367C21.3558 51.6977 21.4892 50.6701 21.9639 49.8213Z" fill="#4B3A2A" stroke="#4B3A2A" stroke-width="0.271111"/>
<path d="M22.6396 49.8818C22.8601 50.9235 22.839 51.9863 22.5778 53.0125C22.3573 51.9765 22.3784 50.9137 22.6396 49.8818Z" fill="#4B3A2A" stroke="#4B3A2A" stroke-width="0.271111"/>
<path d="M23.6123 50.3772C23.6825 51.4048 23.6334 52.3803 23.4606 53.3868C23.1488 52.4085 23.2036 51.3218 23.6123 50.3772Z" fill="#4B3A2A" stroke="#4B3A2A" stroke-width="0.271111"/>
<path d="M24.2619 51.0713C24.4838 51.9975 24.4642 52.9196 24.2044 53.8275C23.9811 52.9238 24.0021 51.968 24.2619 51.0713Z" fill="#4B3A2A" stroke="#4B3A2A" stroke-width="0.271111"/>
<path d="M24.8922 51.6975C25.0678 52.6547 25.0018 53.5993 24.697 54.5157C24.5201 53.5782 24.5875 52.6041 24.8922 51.6975Z" fill="#4B3A2A" stroke="#4B3A2A" stroke-width="0.271111"/>
<path d="M25.6377 52.01C25.8582 52.8842 25.8371 53.7837 25.5759 54.6396C25.3554 53.771 25.3765 52.8729 25.6377 52.01Z" fill="#4B3A2A" stroke="#4B3A2A" stroke-width="0.271111"/>
<path d="M26.3892 52.2607C26.6307 53.1715 26.6307 54.1118 26.3892 55.0156C26.1476 54.1104 26.1476 53.1715 26.3892 52.2607Z" fill="#4B3A2A" stroke="#4B3A2A" stroke-width="0.271111"/>
<path d="M27.0142 52.5112C27.2557 53.422 27.2557 54.3623 27.0142 55.2661C26.7726 54.3609 26.7726 53.422 27.0142 52.5112Z" fill="#4B3A2A" stroke="#4B3A2A" stroke-width="0.271111"/>
<path d="M27.7642 52.7617C28.0057 53.6936 28.0057 54.6536 27.7642 55.5799C27.5226 54.6536 27.5226 53.6936 27.7642 52.7617Z" fill="#4B3A2A" stroke="#4B3A2A" stroke-width="0.271111"/>
<path d="M28.4036 53.1377C28.6704 54.0006 28.6957 54.8987 28.4794 55.7687C28.214 54.9128 28.1873 54.0133 28.4036 53.1377Z" fill="#4B3A2A" stroke="#4B3A2A" stroke-width="0.271111"/>
<path d="M29.2626 53.2012C29.4859 53.9613 29.4788 54.7355 29.351 55.5027C29.3272 55.6041 29.2907 55.7125 29.3847 55.7786C29.2387 55.7913 29.1994 55.5985 29.1769 55.5027C29.0477 54.7355 29.0393 53.9613 29.2626 53.2012Z" fill="#4B3A2A" stroke="#4B3A2A" stroke-width="0.271111"/>
<path d="M30.1193 53.3826C30.4746 54.223 30.594 55.1253 30.4704 56.0248C30.1165 55.19 29.9957 54.2877 30.1193 53.3826Z" fill="#4B3A2A" stroke="#4B3A2A" stroke-width="0.271111"/>
<path d="M31.2005 53.3882C31.4252 54.3468 31.4659 55.3012 31.3255 56.2683C30.9856 55.3491 30.9421 54.3384 31.2005 53.3882Z" fill="#4B3A2A" stroke="#4B3A2A" stroke-width="0.271111"/>
<path d="M32.0757 53.5137C32.3172 54.3822 32.3172 55.2817 32.0757 56.1432C31.8341 55.2803 31.8341 54.3822 32.0757 53.5137Z" fill="#4B3A2A" stroke="#4B3A2A" stroke-width="0.271111"/>
<path d="M32.8893 53.3262C33.1885 54.2003 33.2474 55.1196 33.0649 56.0205C32.7671 55.1519 32.7068 54.2327 32.8893 53.3262Z" fill="#4B3A2A" stroke="#4B3A2A" stroke-width="0.271111"/>
<path d="M33.7139 53.5754C33.9751 54.482 33.9948 55.4209 33.7729 56.3317C33.5131 55.4322 33.492 54.4918 33.7139 53.5754Z" fill="#4B3A2A" stroke="#4B3A2A" stroke-width="0.271111"/>
<path d="M34.4555 53.5754C34.7069 54.4679 34.7771 55.3604 34.6661 56.2726C34.2982 55.4265 34.2238 54.4735 34.4555 53.5754Z" fill="#4B3A2A" stroke="#4B3A2A" stroke-width="0.271111"/>
<path d="M35.1331 53.2012C35.3943 54.1697 35.4168 55.1705 35.1949 56.1446C34.9337 55.1818 34.9112 54.1809 35.1331 53.2012Z" fill="#4B3A2A" stroke="#4B3A2A" stroke-width="0.271111"/>
<path d="M36.0091 53.2629C36.3349 54.0864 36.4234 54.9634 36.2689 55.8291C35.9445 55.0127 35.8546 54.1343 36.0091 53.2629Z" fill="#4B3A2A" stroke="#4B3A2A" stroke-width="0.271111"/>
<path d="M36.887 53.2629C37.1187 54.1441 37.2184 54.9916 37.1959 55.8939C36.7465 55.1056 36.6328 54.1385 36.887 53.2629Z" fill="#4B3A2A" stroke="#4B3A2A" stroke-width="0.271111"/>
<path d="M37.7012 53.0757C37.9118 53.9189 37.9834 54.7283 37.9245 55.5856C37.5088 54.8268 37.4259 53.9006 37.7012 53.0757Z" fill="#4B3A2A" stroke="#4B3A2A" stroke-width="0.271111"/>
<path d="M38.5628 52.8887C38.8914 53.6573 38.9799 54.4554 38.8296 55.2662C38.5038 54.523 38.4097 53.6882 38.5628 52.8887Z" fill="#4B3A2A" stroke="#4B3A2A" stroke-width="0.271111"/>
<path d="M39.262 52.8252C39.5232 53.5825 39.5443 54.3793 39.3238 55.1422C39.0626 54.3919 39.0401 53.5952 39.262 52.8252Z" fill="#4B3A2A" stroke="#4B3A2A" stroke-width="0.271111"/>
<path d="M39.9475 52.5112C40.2045 53.3178 40.2873 54.1202 40.1974 54.9536C39.8112 54.2061 39.7213 53.3277 39.9475 52.5112Z" fill="#4B3A2A" stroke="#4B3A2A" stroke-width="0.271111"/>
<path d="M40.7643 52.072C41.0901 52.9392 41.1786 53.857 41.0241 54.7635C40.6983 53.9034 40.6098 52.9856 40.7643 52.072Z" fill="#4B3A2A" stroke="#4B3A2A" stroke-width="0.271111"/>
<path d="M41.559 51.761C41.882 52.6718 41.9663 53.6318 41.809 54.5792C41.4874 53.674 41.4017 52.714 41.559 51.761Z" fill="#4B3A2A" stroke="#4B3A2A" stroke-width="0.271111"/>
<path d="M42.4438 51.3218C42.6601 52.2016 42.7219 53.0574 42.6362 53.9513C42.2458 53.1391 42.1756 52.1875 42.4438 51.3218Z" fill="#4B3A2A" stroke="#4B3A2A" stroke-width="0.271111"/>
<path d="M43.1895 50.9458C43.4745 51.8242 43.5195 52.742 43.3229 53.6387C43.0378 52.7673 42.9928 51.8481 43.1895 50.9458Z" fill="#4B3A2A" stroke="#4B3A2A" stroke-width="0.271111"/>
<path d="M44.0041 50.7588C44.2471 51.6724 44.3103 52.5831 44.1965 53.5136C43.8328 52.6465 43.764 51.6724 44.0041 50.7588Z" fill="#4B3A2A" stroke="#4B3A2A" stroke-width="0.271111"/>
<path d="M44.691 50.7588C44.9564 51.5147 44.9803 52.3115 44.764 53.0758C44.5 52.3269 44.4733 51.5302 44.691 50.7588Z" fill="#4B3A2A" stroke="#4B3A2A" stroke-width="0.271111"/>
<path d="M45.4448 51.0093C45.6877 51.4344 45.6821 51.9116 45.4448 52.3241C45.2074 51.9102 45.2018 51.4344 45.4448 51.0093Z" fill="#4B3A2A" stroke="#4B3A2A" stroke-width="0.271111"/>
<path d="M20.9375 47.9293C21.62 46.478 22.7534 45.235 24.1353 44.427C23.082 45.5912 22.0048 46.7708 20.9375 47.9293Z" fill="#4B3A2A" stroke="#4B3A2A" stroke-width="0.271111"/>
<path d="M21.0664 48.9343C21.4821 47.7491 22.4244 46.7398 23.5774 46.2471C22.8106 47.0326 21.7981 48.1207 21.0664 48.9343Z" fill="#4B3A2A" stroke="#4B3A2A" stroke-width="0.271111"/>
<path d="M21.0723 49.6255C21.2057 49.1497 21.5483 48.8147 22.0118 48.688C21.884 49.1511 21.5483 49.4946 21.0723 49.6255Z" fill="#4B3A2A" stroke="#4B3A2A" stroke-width="0.271111"/>
<path d="M50.6221 48.0447C51.7498 47.2691 52.9941 46.706 54.317 46.3738C53.1935 47.148 51.9478 47.7097 50.6221 48.0447Z" fill="#4B3A2A" stroke="#4B3A2A" stroke-width="0.271111"/>
<path d="M51.0055 48.4458C50.9451 48.474 50.9184 48.5387 50.9255 48.5824L50.8707 48.5359C51.8453 48.0756 52.782 47.6885 53.8171 47.376C52.9941 48.1136 51.9226 48.5415 50.8271 48.6246C50.837 48.5275 50.917 48.4346 51.0069 48.4458H51.0055Z" fill="#4B3A2A" stroke="#4B3A2A" stroke-width="0.271111"/>
<path d="M50.6348 49.4593C51.3384 49.075 51.9984 48.7963 52.7554 48.5654C52.2709 49.2045 51.4339 49.5578 50.6348 49.4593Z" fill="#4B3A2A" stroke="#4B3A2A" stroke-width="0.271111"/>
<path d="M42.4463 47.2958C43.5965 47.1353 44.7916 47.3521 45.8112 47.9039C44.6596 47.8194 43.5628 47.6195 42.4463 47.2958Z" fill="#4B3A2A" stroke="#4B3A2A" stroke-width="0.271111"/>
<path d="M43.5088 48.1236C44.2868 48.0321 45.0761 48.1884 45.7572 48.5699C44.9707 48.6585 44.2124 48.5107 43.5088 48.1236Z" fill="#4B3A2A" stroke="#4B3A2A" stroke-width="0.271111"/>
<path d="M74.3115 38.6823C75.3255 38.1995 76.6779 38.4557 77.4447 39.282C76.4167 38.8948 75.4224 38.702 74.3115 38.6823Z" fill="#4B3A2A" stroke="#4B3A2A" stroke-width="0.271111"/>
<path d="M74.9971 39.3552C75.9801 39.1609 77.0559 39.4495 77.8086 40.1111C76.8565 39.8943 75.938 39.648 74.9971 39.3552Z" fill="#4B3A2A" stroke="#4B3A2A" stroke-width="0.271111"/>
<path d="M75.4346 40.3278C76.4766 40.0603 77.6563 40.3194 78.4905 41.0007C77.4681 40.7726 76.4682 40.5516 75.4346 40.3278Z" fill="#4B3A2A" stroke="#4B3A2A" stroke-width="0.271111"/>
<path d="M76.4336 40.9894C77.1189 40.9443 77.7692 41.1442 78.3056 41.5581C77.6287 41.6031 76.9771 41.4075 76.4336 40.9894Z" fill="#4B3A2A" stroke="#4B3A2A" stroke-width="0.271111"/>
<path d="M78.0794 38.7188C75.9855 36.1216 72.3384 37.6996 69.7094 38.4288C62.8897 40.5502 56.3594 43.6527 50.4287 47.6323C56.5293 43.961 63.0639 41.0316 69.8877 39.013C71.8482 38.4908 73.9464 37.6081 75.9785 38.0825C77.3534 38.4035 78.0162 39.669 78.3617 40.9598C78.9572 42.8926 79.1187 45.1294 77.7396 46.7623C74.9435 49.7959 71.0941 52.1734 67.1085 53.2785C61.7676 54.6538 56.1782 53.4784 50.9539 52.0031C50.9877 52.027 51.02 52.051 51.0537 52.0749C61.3814 55.6279 70.104 55.5716 78.2704 47.1804C80.2492 44.7901 79.6144 41.1837 78.0822 38.7174L78.0794 38.7188Z" fill="#4B3A2A"/>
<path d="M44.8256 53.2307C38.6983 56.5331 31.1287 57.5044 24.7346 54.4596C23.7094 53.9303 22.4427 53.3461 21.7054 52.5001C21.3894 52.089 21.3206 51.5006 21.2897 50.8728C21.2897 49.7875 21.1534 48.1841 21.2012 47.1284C21.2251 46.5315 21.4526 46.0923 21.8725 45.6348C23.5381 43.7091 25.4073 42.0804 28.084 42.856C34.2998 43.9582 40.4229 45.5306 46.4238 47.5C41.7093 45.6503 36.8473 44.1849 31.9138 43.0418C30.0193 42.6646 28.195 42.0734 26.2401 42.0522C24.1883 42.1649 22.6575 43.809 21.3711 45.1843C20.308 46.1641 20.4836 47.7154 20.5299 49.009C20.6521 50.2168 20.367 51.8244 21.1661 52.9097C22.107 53.9598 23.274 54.43 24.4636 55.0452C30.9461 58.0928 38.666 57.0061 44.7048 53.408C44.7441 53.3489 44.7848 53.2898 44.8256 53.2321V53.2307Z" fill="#4B3A2A"/>
</g>
<defs>
<clipPath id="clip0_16_17950">
<rect width="59.0174" height="90.3704" fill="white" transform="translate(20.4912 4.8147)"/>
</clipPath>
</defs>
</svg>
