<svg width="18" height="20" viewBox="0 0 18 20" fill="none" xmlns="http://www.w3.org/2000/svg">
<path fill-rule="evenodd" clip-rule="evenodd" d="M7.46376 0C7.48612 0.00043742 7.78377 0.0861788 8.16493 0.21582C8.86609 0.473676 9.18359 1.12116 8.97157 1.91797C8.86658 2.3079 8.97148 2.35094 10.162 2.39355C10.8842 2.41699 11.9042 2.43787 12.4354 2.48047C12.9646 2.50391 14.1344 2.45925 15.0477 2.37402C15.9611 2.2888 16.7484 2.28897 16.8114 2.39551C16.8745 2.48054 17.0443 2.50345 17.1932 2.4375C17.8294 2.20099 17.8508 2.41651 17.9579 8.9043L17.9999 11.9219L16.2567 15.457C15.2812 17.3965 14.3687 19.0341 14.2186 19.0791C14.0486 19.1217 13.7496 19.2281 13.5585 19.3154C13.347 19.3792 13.1336 19.4668 13.0702 19.4883C12.6671 19.5948 8.50263 19.8308 5.27333 19.9395C0.303681 20.0694 0.665078 20.3934 0.453015 15.8018C0.324947 12.5037 0.19679 11.189 0.00574904 10.5859C-0.101332 10.2834 1.30067 7.41737 3.10633 4.24902L4.04091 2.58887L5.12489 2.56738H6.22938L6.03798 1.68359C5.80282 0.650226 6.01485 0.262807 6.86512 0.132812L6.86903 0.129883C7.18608 0.0851369 7.44276 0.0213076 7.46376 0ZM12.4315 10.7588C12.0918 10.7588 11.731 10.886 11.6444 11.0371C11.4324 11.3589 10.4133 12.0498 10.1151 12.0498C9.987 12.0493 9.75424 11.7491 9.56337 11.4043H9.56727C9.26912 10.8226 9.12013 10.7588 8.29286 10.7588C7.76169 10.7588 7.33534 10.8249 7.31434 10.9102C7.29344 11.0199 7.29384 11.5581 7.29384 12.1602C7.31483 12.7418 7.31434 14.5743 7.31434 16.1914L7.33583 19.166H8.99208C9.88438 19.166 11.2659 19.102 12.0722 19.0146L13.496 18.8848L13.3681 15.7383C13.3051 14.0145 13.2186 12.3967 13.1766 12.1602C13.1326 11.9236 13.0907 11.5124 13.0907 11.2334C13.0676 10.8437 12.9416 10.7588 12.4315 10.7588ZM6.54774 11.3613C6.37759 10.4772 5.55026 10.4328 4.912 11.2744L4.40223 11.9434L3.95692 11.4463C3.57495 11.0587 3.34147 10.9717 2.10926 10.9717C0.877017 10.9717 0.72784 11.0141 0.834851 11.3379C0.918838 11.6831 1.0681 13.6248 1.28016 17.7627C1.32419 18.3436 1.34513 18.9244 1.3661 19.0127C1.3661 19.0979 2.55442 19.1404 3.99891 19.1191L6.58973 19.0557L6.61122 15.4785C6.63221 13.5161 6.61073 11.6618 6.54774 11.3613ZM15.2089 7.74121C15.1448 7.74408 14.8051 8.39094 14.4657 9.14355L13.8505 10.5215L13.9784 14.1445C14.0645 16.1494 14.1278 17.807 14.1278 17.873C14.1279 17.939 14.5123 17.3339 14.9784 16.5371C15.7217 15.2204 15.7845 14.9624 15.7216 13.8418C15.6796 13.1514 15.5743 11.4913 15.4882 10.1553H15.4843C15.4003 8.84067 15.2719 7.74121 15.2089 7.74121ZM16.4042 5.19727C16.0221 6.11633 15.9015 7.43133 16.0429 9.1416C16.1688 10.5648 16.2758 12.1374 16.2968 12.6338C16.2968 13.1514 16.3412 13.5605 16.4042 13.5605C16.4465 13.5596 16.6372 13.1933 16.828 12.7422C17.0611 12.1818 17.1683 11.1245 17.1893 9.03418C17.2103 7.43871 17.1888 5.60707 17.1259 4.98242L16.9979 3.81836L16.4042 5.19727ZM5.84462 7.07031C5.84462 6.79132 2.5138 6.85484 2.29872 7.13574C2.04466 7.45962 0.748913 10.0471 0.748913 10.2197C0.750673 10.2834 1.19539 10.3257 1.76747 10.2832C2.53145 10.2406 2.7435 10.132 2.68055 9.89551C2.42649 8.90258 2.42649 8.60254 2.63856 8.60254C2.97883 8.60243 5.82459 7.22394 5.84657 7.07227L5.84462 7.07031ZM13.4745 6.9209C12.7521 6.96351 11.4565 7.00818 10.6063 7.05078C9.73518 7.0934 9.03407 7.18139 9.03407 7.2666C9.03555 7.35398 9.43791 8.06453 9.94715 8.81738L10.8397 10.2197L11.9022 10.0898C12.4964 10.0259 13.0282 10.0043 13.1122 10.0469C13.2411 10.1064 14.7675 7.3123 14.7684 6.9873L14.7704 6.98438C14.7674 6.92083 14.174 6.89965 13.4745 6.9209ZM7.73622 7.87109C7.64948 7.78783 6.06049 9.76533 6.05848 9.98242C6.05848 10.0485 6.22923 10.1133 6.4413 10.1133C6.6974 10.113 6.99384 9.74562 7.33387 9.03418C7.60879 8.4527 7.79919 7.91369 7.73622 7.87109ZM8.5663 9.1416C8.29131 8.49403 7.97174 8.42955 7.97157 9.01074C7.97157 9.24717 7.88766 9.50725 7.75966 9.57129C7.33349 9.82907 7.56849 10.1103 8.18348 10.1104C8.88464 10.1104 8.94818 9.95939 8.5663 9.1416ZM15.8934 3.04102C15.5528 3.06234 14.3421 3.12849 13.1962 3.19238L11.0712 3.32227L10.6464 4.05469L10.2225 4.78809L10.8583 4.63672C11.1984 4.54936 12.0706 4.24886 12.7929 3.94629C13.515 3.66508 14.1742 3.42871 14.2792 3.42871C14.3842 3.42879 14.575 3.73127 14.703 4.09766C14.8941 4.59412 14.8941 4.76713 14.703 4.83105C14.5547 4.87408 13.4507 5.19727 12.2401 5.56348C11.0102 5.92921 9.97062 6.27395 9.92469 6.33887C9.77562 6.49015 12.1124 6.4478 13.536 6.25391C14.2162 6.1687 14.8544 6.19017 14.9384 6.27539C15.0853 6.42667 16.4667 3.60113 16.4667 3.14941V3.14746C16.4667 3.06223 16.2126 3.01971 15.8934 3.04102ZM5.42079 3.21582C4.46548 3.21582 4.46522 3.23685 3.65907 4.63867C3.21184 5.41427 2.89232 6.1052 2.97841 6.19043C3.19089 6.40554 7.33185 6.38399 7.33387 6.16895C7.33387 6.08158 7.11919 5.36935 6.86512 4.59375L6.37587 3.21582H5.42079ZM9.32997 2.99805C8.96904 2.99812 8.84327 3.17093 8.73622 3.79492C8.39607 5.88732 8.69444 6.08129 9.67079 4.48535C10.2017 3.60159 10.2854 3.3224 10.0526 3.19238C9.90355 3.08371 9.56303 2.99805 9.32997 2.99805Z" fill="#4B3A2A"/>
</svg>
