<svg width="370" height="268" viewBox="0 0 370 268" fill="none" xmlns="http://www.w3.org/2000/svg">
<path d="M0 25.058L0.00328889 0L141.626 130.796L185.033 94.9765L228.917 130.898L353.016 24.6667L369.993 0L370 267.219H0V25.058Z" fill="#2C4221"/>
<path d="M185.033 94.9768L208.384 113.598L231.63 132.345L277.964 170.036L324.064 208.009L347.034 227.095L369.898 246.308L346.547 227.69L323.301 208.943L276.971 171.249L230.87 133.273L207.901 114.187L185.033 94.9768Z" fill="#18290F"/>
<path d="M185.033 94.9768L162.517 114.187L139.547 133.273L93.4471 171.249L47.1165 208.943L23.8706 227.69L0.519531 246.308L23.3839 227.095L46.3535 208.009L92.4571 170.036L138.788 132.345L162.034 113.598L185.033 94.9768Z" fill="#18290F"/>
</svg>
