<svg width="181" height="107" viewBox="0 0 181 107" fill="none" xmlns="http://www.w3.org/2000/svg">
<g filter="url(#filter0_d_40000126_21504)">
<path d="M134.284 23.2807C145.111 25.3854 153.793 32.2719 158.569 41.3222C168.508 46.5214 174.301 57.7941 172.051 69.369C169.801 80.9435 160.207 89.2237 149.044 90.3211C141.226 96.9237 130.596 100.057 119.769 97.9525L45.0245 83.4236C34.1968 81.3189 25.5147 74.432 20.7387 65.381C10.8001 60.1816 5.00765 48.9106 7.25726 37.3363C9.50712 25.7618 19.1002 17.4797 30.2632 16.3821C38.0818 9.77976 48.7119 6.64727 59.5392 8.75187L134.284 23.2807Z" fill="white"/>
</g>
<defs>
<filter id="filter0_d_40000126_21504" x="6.77448" y="8.10254" width="173.76" height="98.4993" filterUnits="userSpaceOnUse" color-interpolation-filters="sRGB">
<feFlood flood-opacity="0" result="BackgroundImageFix"/>
<feColorMatrix in="SourceAlpha" type="matrix" values="0 0 0 0 0 0 0 0 0 0 0 0 0 0 0 0 0 0 127 0" result="hardAlpha"/>
<feOffset dx="4" dy="4"/>
<feGaussianBlur stdDeviation="2"/>
<feComposite in2="hardAlpha" operator="out"/>
<feColorMatrix type="matrix" values="0 0 0 0 0 0 0 0 0 0 0 0 0 0 0 0 0 0 0.25 0"/>
<feBlend mode="normal" in2="BackgroundImageFix" result="effect1_dropShadow_40000126_21504"/>
<feBlend mode="normal" in="SourceGraphic" in2="effect1_dropShadow_40000126_21504" result="shape"/>
</filter>
</defs>
</svg>
