<svg width="171" height="29" viewBox="0 0 171 29" fill="none" xmlns="http://www.w3.org/2000/svg">
<path d="M169.322 20.892C170.577 21.4959 171.364 22.9583 170.795 24.1404C170.17 25.4378 168.307 25.7661 167.082 25.1761C166.548 24.9193 166.322 24.5792 166.216 24.2444C165.391 25.9956 165.359 27.2413 166.469 27.7758C167.478 28.2617 168.399 27.6397 168.936 27.1165C169.105 26.9493 169.262 26.9184 169.363 26.967C169.492 27.0295 169.517 27.2366 169.349 27.4753C168.766 28.2425 167.212 29.1101 165.612 28.3396C164.012 27.5691 163.209 25.5844 164.389 23.1338C165.569 20.6831 167.765 20.1423 169.322 20.892ZM167.223 24.5514C167.742 24.8013 168.345 24.4345 168.824 23.4398C169.275 22.5028 169.264 21.7516 168.874 21.5642C168.341 21.3073 167.352 22.1808 166.55 23.5882C166.628 23.9806 166.877 24.3848 167.223 24.5514Z" fill="#99958F"/>
<path d="M156.624 24.6987C156.618 24.4697 156.66 24.2092 156.793 23.9006C157.008 23.4009 157.349 23.0947 157.912 22.9191C157.586 22.0992 157.591 21.074 158.091 19.9129C159.052 17.679 160.94 17.0978 162.468 17.7556C162.968 17.9707 163.396 18.3117 163.736 18.7366C163.778 18.7198 163.82 18.7031 163.868 18.6716C164.301 18.4748 164.675 18.4964 164.984 18.6292C165.748 18.9581 166.114 19.9692 165.849 20.2209L165.027 20.9991C164.972 21.0452 164.915 21.0557 164.871 21.0367C164.724 20.9734 164.632 20.6203 164.658 20.0741C164.661 19.7443 164.554 19.263 164.187 19.1049C164.114 19.0733 164.019 19.05 163.933 19.0478C164.413 19.9162 164.501 21.0865 163.926 22.424C162.964 24.6579 161.077 25.2391 159.534 24.5749C158.99 24.3409 158.524 23.9662 158.201 23.4615C157.985 23.56 157.854 23.6606 157.797 23.7929C157.671 24.0868 157.992 24.3121 158.521 24.5398C159.035 24.7612 159.722 24.987 160.369 25.2653C161.53 25.765 162.523 26.4535 161.979 27.7174C161.397 29.0695 159.787 29.3696 157.759 28.4967C155.98 27.7314 155.104 26.5704 155.54 25.5563C155.724 25.1301 156.115 24.8282 156.624 24.6987ZM159.958 20.7162C159.205 22.4651 159.201 23.6479 159.818 23.9136C160.436 24.1792 161.321 23.3759 162.074 21.627C162.82 19.8928 162.807 18.6679 162.19 18.4023C161.573 18.1366 160.704 18.982 159.958 20.7162ZM156.827 25.2389C156.732 25.3375 156.667 25.4488 156.61 25.581C156.256 26.4041 156.759 27.178 157.993 27.7093C159.066 28.171 159.787 28.1153 160.04 27.5275C160.248 27.0425 159.896 26.7688 159.337 26.5285C158.911 26.3451 158.357 26.1761 157.857 25.9611C157.431 25.7777 157.038 25.5565 156.827 25.2389Z" fill="#99958F"/>
<path d="M155.724 18.5812L156.013 17.8353C156.238 17.2534 156.434 16.1281 155.867 15.9085C155.524 15.7755 155.209 16.0999 154.92 16.8458C154.625 17.6067 154.291 18.0264 154.068 17.9396C154.023 17.9223 153.984 17.89 153.941 17.8222L153.169 16.4935C153.09 16.3428 153.103 16.1763 153.161 16.0271C153.433 15.3259 154.858 14.6596 156.365 15.2434C157.842 15.8157 158.472 17.2439 157.952 18.5867L156.386 22.6299C155.866 23.9726 156.655 23.5748 156.51 23.9478C156.441 24.1268 156.298 24.1402 155.985 24.0189L155.746 23.9264C155.149 23.6952 155.099 23.4699 154.965 23.4179C154.846 23.3716 154.582 23.4755 154.12 23.2963C153.986 23.2443 153.972 23.1018 154.024 22.9676L154.244 22.4006C153.647 22.7013 153.076 22.8917 152.27 22.5796C151.226 22.175 150.806 21.309 151.188 20.3243C151.864 18.5787 154.106 19.0356 155.724 18.5812ZM153.681 21.7709C154.039 21.9096 154.265 21.8596 154.527 21.6696L155.475 19.2228C154.656 19.6091 153.653 19.718 153.248 20.7624C153.023 21.3443 153.279 21.6148 153.681 21.7709Z" fill="#99958F"/>
<path d="M149.14 19.5642C149.642 18.1126 146.393 16.8363 147.245 14.3716C147.721 12.9956 149.037 12.5702 150.398 13.0409C152.046 13.611 152.597 15.0037 152.351 15.7143C152.299 15.8656 152.201 16.0011 152.043 16.0651L150.701 16.6167C150.64 16.6463 150.575 16.6405 150.529 16.6249C150.302 16.5464 150.319 16.0102 150.585 15.2391C150.847 14.483 150.816 14.0323 150.393 13.8859C149.894 13.7133 149.317 14.1571 149.113 14.7468C148.894 15.3819 149.293 15.8418 149.748 16.3884C150.516 17.3483 151.592 18.3977 151.116 19.7737C150.713 20.938 149.432 21.5105 147.708 20.9143C146.196 20.3913 145.098 19.0633 145.417 18.1409C145.485 17.9444 145.624 17.7385 145.859 17.5488L146.757 16.8607C146.92 16.7309 147.047 16.7071 147.153 16.7437C147.425 16.8378 147.464 17.4101 147.281 17.9393C146.941 18.9221 147.123 19.8653 147.939 20.1478C148.589 20.3727 149.004 19.9574 149.14 19.5642Z" fill="#99958F"/>
<path d="M143.318 17.6199C143.765 16.1503 140.469 14.9981 141.228 12.5028C141.651 11.1098 142.949 10.6348 144.327 11.0536C145.996 11.5608 146.599 12.9316 146.381 13.6511C146.334 13.8042 146.242 13.9433 146.086 14.0132L144.766 14.6153C144.706 14.6473 144.641 14.6439 144.595 14.63C144.365 14.5602 144.361 14.0238 144.598 13.2431C144.831 12.4776 144.783 12.0284 144.355 11.8981C143.85 11.7446 143.29 12.21 143.109 12.807C142.913 13.4499 143.33 13.8944 143.805 14.4233C144.609 15.3534 145.724 16.3613 145.3 17.7543C144.942 18.9331 143.683 19.5538 141.938 19.0233C140.407 18.5579 139.259 17.2725 139.543 16.3387C139.604 16.1397 139.735 15.9287 139.962 15.7303L140.834 15.0086C140.992 14.8728 141.118 14.8441 141.225 14.8767C141.501 14.9605 141.562 15.5308 141.399 16.0666C141.096 17.0616 141.313 17.9973 142.14 18.2485C142.798 18.4486 143.197 18.0179 143.318 17.6199Z" fill="#99958F"/>
<path d="M138.202 9.2906C139.547 9.65017 140.593 10.9402 140.254 12.2077C139.882 13.5988 138.113 14.2686 136.799 13.9173C136.227 13.7644 135.941 13.4725 135.775 13.1632C135.291 15.0376 135.492 16.2673 136.682 16.5856C137.764 16.8749 138.553 16.0921 138.982 15.4781C139.117 15.2824 139.266 15.2227 139.374 15.2516C139.513 15.2888 139.576 15.4878 139.455 15.7536C139.026 16.616 137.66 17.7581 135.945 17.2993C134.229 16.8405 133.071 15.0402 133.773 12.4126C134.476 9.78487 136.533 8.84424 138.202 9.2906ZM136.821 13.2773C137.378 13.426 137.902 12.9533 138.187 11.8868C138.455 10.8821 138.304 10.1461 137.887 10.0345C137.315 9.8816 136.506 10.9241 135.981 12.4563C136.13 12.8274 136.45 13.1781 136.821 13.2773Z" fill="#99958F"/>
<path d="M122.586 13.9215C122.672 13.5309 123.109 14.299 123.419 12.8927L124.346 8.68968C124.591 7.58032 123.937 7.7966 124.023 7.40598C124.095 7.07787 124.753 7.2885 125.602 7.08231C126.485 6.86739 126.37 6.49793 126.698 6.57028C126.916 6.61851 126.901 6.76258 126.863 6.93445L126.774 7.34069C127.182 6.9721 127.682 6.78731 128.291 6.92167C129.041 7.08703 129.62 7.65704 129.802 8.6147C130.311 7.94051 130.916 7.50044 131.776 7.68991C132.948 7.94829 133.673 9.18967 133.201 11.3303L132.419 14.8771C132.109 16.2833 132.829 15.7701 132.742 16.1608C132.701 16.3483 132.562 16.3832 132.234 16.3109L131.984 16.2557C131.359 16.1179 131.276 15.9029 131.135 15.8719C130.994 15.8409 130.828 16.0008 130.203 15.863L129.953 15.8079C129.625 15.7355 129.514 15.6455 129.555 15.458C129.641 15.0674 130.078 15.8354 130.388 14.4292L131.153 10.9605C131.487 9.44493 131.401 8.57388 130.963 8.47741C130.291 8.32928 129.81 10.1401 129.717 10.562L128.935 14.1088C128.625 15.515 129.344 15.0019 129.258 15.3925C129.217 15.58 129.078 15.615 128.75 15.5426L128.5 15.4875C127.875 15.3497 127.791 15.1346 127.651 15.1036C127.51 15.0726 127.344 15.2326 126.719 15.0948L126.469 15.0396C126.141 14.9673 126.029 14.8772 126.071 14.6897C126.157 14.2991 126.594 15.0672 126.904 13.661L127.669 10.1923C128.003 8.67669 127.916 7.80563 127.479 7.70917C126.994 7.60238 126.572 8.47601 126.246 9.73127L125.451 13.3406C125.141 14.7468 125.86 14.2337 125.774 14.6243C125.732 14.8118 125.594 14.8467 125.266 14.7744L125.016 14.7192C124.391 14.5814 124.307 14.3664 124.166 14.3354C124.026 14.3044 123.859 14.4643 123.234 14.3265L122.984 14.2714C122.656 14.199 122.545 14.109 122.586 13.9215Z" fill="#99958F"/>
<path d="M117.662 8.29254L117.784 7.50198C117.88 6.88535 117.83 5.74425 117.229 5.65112C116.866 5.59474 116.628 5.97887 116.506 6.76943C116.381 7.5758 116.144 8.05725 115.907 8.02048C115.859 8.01313 115.814 7.98996 115.759 7.93273L114.72 6.80023C114.61 6.66995 114.587 6.50448 114.612 6.34637C114.727 5.60325 115.976 4.64732 117.573 4.89487C119.139 5.13752 120.06 6.39761 119.84 7.82061L119.176 12.1054C118.955 13.5284 119.641 12.9709 119.579 13.3661C119.55 13.5559 119.414 13.5995 119.082 13.548L118.829 13.5088C118.196 13.4108 118.099 13.2014 117.957 13.1794C117.83 13.1598 117.595 13.3177 117.105 13.2417C116.963 13.2196 116.919 13.0833 116.941 12.941L117.034 12.3402C116.516 12.7617 115.998 13.0701 115.145 12.9378C114.038 12.7662 113.443 12.0101 113.604 10.9665C113.891 9.11664 116.179 9.08276 117.662 8.29254ZM116.35 11.8455C116.73 11.9044 116.939 11.8073 117.155 11.5655L117.556 8.97242C116.839 9.52509 115.883 9.84636 115.711 10.9531C115.616 11.5698 115.923 11.7794 116.35 11.8455Z" fill="#99958F"/>
<path d="M105.067 4.05662C105.919 3.74097 105.762 3.38732 106.096 3.4212C106.303 3.44218 106.321 3.58868 106.303 3.76378L106.258 4.2095C106.736 3.77552 107.306 3.54385 107.959 3.61002C109.232 3.73912 110.097 4.88818 109.876 7.069L109.509 10.6825C109.364 12.1151 110.019 11.5222 109.979 11.9201C109.959 12.1112 109.826 12.1619 109.491 12.128L109.237 12.1022C108.6 12.0377 108.492 11.8337 108.349 11.8192C108.205 11.8047 108.059 11.9828 107.422 11.9183L107.167 11.8924C106.833 11.8585 106.712 11.782 106.731 11.5909C106.772 11.193 107.295 11.9053 107.44 10.4727L107.798 6.9388C107.955 5.39471 107.704 4.53307 107.163 4.4782C106.686 4.42978 106.213 5.12169 106.02 6.5495L105.641 10.2903C105.496 11.723 106.151 11.13 106.111 11.528C106.091 11.719 105.957 11.7698 105.623 11.7359L105.369 11.7101C104.732 11.6455 104.624 11.4416 104.481 11.4271C104.337 11.4125 104.191 11.5907 103.554 11.5261L103.299 11.5003C102.965 11.4664 102.844 11.3898 102.863 11.1988C102.904 10.8008 103.426 11.5132 103.572 10.0805L104.006 5.79848C104.12 4.66828 103.496 4.95877 103.536 4.56081C103.57 4.22652 104.248 4.35959 105.067 4.05662Z" fill="#99958F"/>
<path d="M100.375 9.82297L100.686 5.53028C100.791 4.09406 100.153 4.70545 100.182 4.3065C100.206 3.97138 100.888 4.08506 101.697 3.75886C102.54 3.41903 102.373 3.07 102.772 3.09898C102.916 3.10941 102.937 3.25535 102.924 3.43089L102.449 9.97365C102.345 11.4099 102.983 10.7985 102.954 11.1974C102.94 11.3889 102.808 11.4435 102.472 11.4191L102.217 11.4006C101.579 11.3542 101.465 11.1535 101.321 11.143C101.178 11.1326 101.036 11.3148 100.398 11.2685L100.143 11.2499C99.8074 11.2256 99.6844 11.1525 99.6983 10.961C99.7273 10.562 100.27 11.2592 100.375 9.82297ZM102.13 0.0043731C102.865 0.0576917 103.323 0.588321 103.27 1.32239C103.215 2.07241 102.685 2.53118 101.951 2.47786C101.201 2.42338 100.742 1.89275 100.796 1.14273C100.85 0.408661 101.38 -0.0501046 102.13 0.0043731Z" fill="#99958F"/>
<path d="M91.698 2.67847C91.9408 2.60721 92.3428 2.55773 92.8181 2.25474C93.7036 1.67843 93.4898 0.95021 93.9695 0.96759C94.1933 0.975701 94.2201 1.12077 94.2137 1.29665L94.1604 2.76769L95.1678 2.80419C95.6475 2.82157 95.6185 3.62104 95.1388 3.60366L94.1315 3.56716L93.9959 7.30871C93.9322 9.06755 93.8939 10.1229 94.3736 10.1402C94.7574 10.1541 94.6965 9.62359 94.722 8.92006C94.7469 8.23251 94.9916 7.665 95.2315 7.67369C95.2954 7.676 95.3582 7.7103 95.4193 7.79256L96.5065 9.16083C96.9961 9.78697 96.2474 11.0087 94.2807 10.9374C93.2733 10.9009 91.7979 10.5272 91.908 7.48922L92.0302 4.11544C92.0401 3.84361 92.0316 3.63517 91.9889 3.48953L91.749 3.48084C91.3013 3.46462 91.2954 2.74393 91.698 2.67847Z" fill="#99958F"/>
<path d="M87.4134 3.17717C88.2355 2.78985 88.0487 2.45092 88.3846 2.45611C88.5926 2.45933 88.6224 2.60381 88.6197 2.77979L88.6125 3.24373C88.9879 2.76948 89.4405 2.47245 89.9365 2.48013C91.0403 2.49721 91.9125 4.04689 91.3754 4.63065L90.219 5.94091C90.1537 6.01991 90.0892 6.05092 90.0412 6.05018C89.7853 6.04622 89.571 5.41882 89.5848 4.52293C89.5945 3.89901 89.4719 3.54507 89.248 3.5416C88.784 3.53442 88.6234 4.60407 88.5761 5.59545L88.5182 9.339C88.4959 10.7788 89.098 10.1321 89.0918 10.532C89.0888 10.724 88.9598 10.786 88.6239 10.7808L88.3679 10.7769C87.728 10.7669 87.603 10.573 87.459 10.5708C87.315 10.5685 87.1841 10.7585 86.5441 10.7486L86.2882 10.7447C85.9522 10.7395 85.8252 10.6735 85.8282 10.4815C85.8344 10.0816 86.4161 10.7466 86.4384 9.30682L86.505 5.00334C86.5226 3.86747 85.9252 4.21027 85.9314 3.81032C85.9366 3.47436 86.6235 3.549 87.4134 3.17717Z" fill="#99958F"/>
<path d="M83.3686 5.79854L83.3531 4.99869C83.341 4.37481 83.0953 3.25936 82.4875 3.27113C82.1195 3.27826 81.9516 3.69759 81.9671 4.49744C81.9829 5.31329 81.8329 5.82829 81.5929 5.83294C81.5449 5.83387 81.4966 5.8188 81.4317 5.77205L80.2133 4.83547C80.0832 4.72597 80.0321 4.56693 80.029 4.40696C80.0144 3.6551 81.0802 2.49824 82.6959 2.46694C84.2796 2.43627 85.4048 3.51868 85.4327 4.95841L85.5167 9.2936C85.5446 10.7333 86.1237 10.066 86.1315 10.4659C86.1352 10.6579 86.0085 10.7243 85.6725 10.7308L85.4166 10.7358C84.7767 10.7482 84.645 10.5587 84.501 10.5615C84.3731 10.564 84.1688 10.76 83.6729 10.7696C83.5289 10.7724 83.4625 10.6456 83.4597 10.5017L83.4479 9.89377C83.0096 10.3984 82.5531 10.7913 81.6893 10.808C80.5695 10.8297 79.8529 10.1875 79.8325 9.13165C79.7962 7.26 82.0444 6.83238 83.3686 5.79854ZM82.6886 9.52441C83.0725 9.51697 83.262 9.38528 83.4327 9.10992L83.3819 6.48641C82.7707 7.15438 81.8839 7.63564 81.9056 8.75543C81.9177 9.37931 82.2567 9.53278 82.6886 9.52441Z" fill="#99958F"/>
<path d="M76.3529 2.67977C77.743 2.60796 79.1356 3.51333 79.2033 4.82358C79.2775 6.26166 77.8005 7.44343 76.4423 7.51359C75.8511 7.54413 75.4889 7.35456 75.236 7.11128C75.3518 9.04388 75.9217 10.152 77.1521 10.0884C78.2706 10.0306 78.7803 9.04302 78.9997 8.32675C79.068 8.09892 79.1909 7.99644 79.3028 7.99067C79.4466 7.98324 79.5675 8.15322 79.5344 8.44332C79.3914 9.39597 78.4438 10.9029 76.6702 10.9945C74.8966 11.0861 73.2404 9.72972 73.1001 7.01334C72.9598 4.29696 74.6272 2.76891 76.3529 2.67977ZM76.2663 6.89785C76.8416 6.86813 77.1945 6.25711 77.1376 5.15458C77.0839 4.11597 76.7137 3.4622 76.2823 3.48448C75.6911 3.51502 75.2425 4.75581 75.214 6.37544C75.4702 6.68263 75.8828 6.91766 76.2663 6.89785Z" fill="#99958F"/>
<path d="M66.7005 0.897903C67.4793 0.429647 67.2593 0.11128 67.5941 0.0825716C67.8013 0.0648 67.8455 0.205539 67.8606 0.380895L68.1723 4.01556C68.5617 3.5004 69.0791 3.16697 69.7327 3.11093C71.008 3.00156 72.0706 3.97031 72.2579 6.15429L72.5682 9.77301C72.6913 11.2077 73.2251 10.5036 73.2592 10.9021C73.2756 11.0934 73.1536 11.1681 72.8188 11.1968L72.5637 11.2187C71.9261 11.2734 71.7821 11.093 71.6387 11.1053C71.4952 11.1176 71.3841 11.3198 70.7464 11.3745L70.4913 11.3964C70.1566 11.4251 70.0236 11.3723 70.0072 11.181C69.973 10.7824 70.6189 11.3855 70.4958 9.95073L70.1924 6.41172C70.0598 4.86539 69.6539 4.06514 69.1119 4.11162C68.6336 4.15263 68.298 4.92012 68.3732 6.35896L68.6945 10.1052C68.8175 11.5399 69.3513 10.8358 69.3854 11.2343C69.4019 11.4256 69.2798 11.5003 68.945 11.529L68.69 11.5509C68.0523 11.6056 67.9084 11.4252 67.7649 11.4375C67.6214 11.4498 67.5103 11.652 66.8726 11.7067L66.6176 11.7286C66.2828 11.7573 66.1498 11.7045 66.1334 11.5132C66.0992 11.1146 66.7451 11.7177 66.6221 10.2829L65.9809 2.80636C65.8839 1.67452 65.3241 2.07581 65.2899 1.67727C65.2612 1.3425 65.9522 1.34748 66.7005 0.897903Z" fill="#99958F"/>
<path d="M57.8993 5.14612C58.6538 4.63953 58.4182 4.33255 58.7511 4.28715C58.9572 4.25905 59.0083 4.3974 59.0321 4.57179L59.0948 5.03153C59.3946 4.50621 59.7974 4.14446 60.2888 4.07744C61.3827 3.92827 62.478 5.32912 62.0349 5.98703L61.0887 7.45635C61.0361 7.54426 60.977 7.58462 60.9295 7.5911C60.6758 7.62569 60.3696 7.03768 60.2485 6.1499C60.1642 5.53162 59.9898 5.20015 59.7679 5.23041C59.3081 5.29311 59.3103 6.37474 59.4126 7.36196L59.9185 11.0716C60.1131 12.4984 60.611 11.7684 60.6651 12.1648C60.691 12.355 60.5728 12.4357 60.2399 12.4811L59.9863 12.5157C59.3521 12.6022 59.1994 12.4292 59.0567 12.4487C58.914 12.4682 58.8131 12.6757 58.179 12.7622L57.9253 12.7968C57.5924 12.8422 57.4569 12.7961 57.431 12.6058C57.3769 12.2095 58.0521 12.7795 57.8576 11.3527L57.276 7.08815C57.1225 5.96257 56.5835 6.39133 56.5295 5.995C56.4841 5.66208 57.1744 5.63253 57.8993 5.14612Z" fill="#99958F"/>
<path d="M49.1771 6.24729C49.1448 6.05803 49.2602 5.9734 49.5914 5.91684L49.8437 5.87374C50.4746 5.766 50.6331 5.93372 50.775 5.90948C50.917 5.88523 51.0108 5.67443 51.6417 5.56669L51.894 5.52359C52.2252 5.46703 52.3622 5.50857 52.3945 5.69783C52.4618 6.09212 51.7679 5.54514 52.0103 6.96459L52.5813 10.3082C52.8425 11.838 53.3138 12.6016 53.8501 12.51C54.3232 12.4292 54.5936 11.6364 54.3985 10.2089L53.7925 6.66023C53.5501 5.24078 53.0769 5.98708 53.0096 5.59279C52.9773 5.40353 53.0927 5.31889 53.4239 5.26233L53.6762 5.21923C54.3071 5.1115 54.4656 5.27921 54.6075 5.25497C54.7495 5.23073 54.8433 5.01992 55.4742 4.91218L55.7266 4.86909C56.0578 4.81252 56.1947 4.85406 56.227 5.04332C56.2944 5.43762 55.6004 4.89063 55.8428 6.31008L56.5404 10.3949C56.7316 11.5147 57.2559 11.0681 57.3233 11.4624C57.3798 11.7936 56.6909 11.8463 55.9827 12.3568C55.2457 12.8885 55.4915 13.1874 55.1603 13.2439C54.9553 13.2789 54.8995 13.1424 54.8698 12.9689L54.7944 12.5273C54.4494 13.0732 53.9616 13.4486 53.315 13.5591C52.0533 13.7745 50.9134 12.8979 50.5444 10.7372L49.96 7.31474C49.7176 5.89529 49.2444 6.64159 49.1771 6.24729Z" fill="#99958F"/>
<path d="M43.0925 11.3184C42.5402 8.65512 43.7987 6.92345 45.522 6.56603C47.2454 6.20861 49.0888 7.29693 49.6412 9.96025C50.1936 12.6236 48.935 14.3552 47.2117 14.7127C45.4883 15.0701 43.6449 13.9818 43.0925 11.3184ZM45.1762 10.8863C45.6051 12.9543 46.3599 14.0723 47.0492 13.9293C47.7385 13.7864 47.9864 12.4604 47.5575 10.3924C47.1286 8.32441 46.3738 7.20639 45.6845 7.34936C44.9952 7.49233 44.7473 8.8183 45.1762 10.8863Z" fill="#99958F"/>
<path d="M38.1246 18.0254L38.9139 16.612C38.9725 16.5152 39.027 16.4689 39.1047 16.4498C39.3533 16.3886 39.6661 16.7895 39.8227 17.4266C40.0329 18.2811 40.3344 18.5694 40.8161 18.451C41.3444 18.3211 41.4238 17.8402 41.3927 15.8377L40.7091 16.0058C40.3672 16.0899 40.0649 15.9994 39.8914 15.6961L36.4214 9.82694C35.8623 8.89345 35.6387 9.52513 35.5432 9.13671C35.4973 8.95026 35.6063 8.85754 35.9326 8.7773L36.1812 8.71617C36.8027 8.56333 36.9729 8.71921 37.1127 8.68482C37.2525 8.65043 37.331 8.43342 37.9524 8.28058L38.201 8.21944C38.5273 8.1392 38.6669 8.17078 38.7127 8.35723C38.8083 8.74566 37.9871 8.35444 38.6463 9.49399L41.3639 14.2465L41.2947 9.00744C41.2692 7.56376 40.5792 8.37603 40.4723 7.941C40.4188 7.72348 40.8265 7.63967 41.1839 7.55179L41.3082 7.52122C41.5568 7.46008 41.6493 7.63507 41.6959 7.6236C41.758 7.60832 41.7588 7.41041 41.9918 7.3531L42.2093 7.2996C42.5667 7.21172 42.7374 7.23566 42.7717 7.37549C42.8787 7.81053 42.0461 7.37271 42.0716 8.81639L42.1772 15.6777C42.2213 18.3361 41.986 18.9871 40.8984 19.2546C39.3447 19.6367 37.7339 18.7147 38.1246 18.0254Z" fill="#99958F"/>
<path d="M29.1721 10.7053C30.5042 10.3012 32.0736 10.8451 32.4544 12.1006C32.8724 13.4786 31.723 14.9809 30.4215 15.3757C29.855 15.5475 29.4578 15.4507 29.1538 15.2753C29.7311 17.1233 30.5508 18.0618 31.7297 17.7042C32.8015 17.3791 33.0587 16.2979 33.0994 15.5499C33.1109 15.3124 33.2055 15.1833 33.3127 15.1508C33.4505 15.109 33.6088 15.2449 33.6465 15.5345C33.7367 16.4936 33.1794 18.1841 31.4799 18.6996C29.7803 19.2151 27.8466 18.2969 27.0571 15.694C26.2676 13.0911 27.5185 11.2068 29.1721 10.7053ZM30.1026 14.8204C30.6538 14.6532 30.8494 13.9752 30.529 12.9187C30.2271 11.9235 29.7105 11.378 29.2971 11.5033C28.7306 11.6752 28.5936 12.9874 28.9555 14.5664C29.2781 14.8029 29.7351 14.9318 30.1026 14.8204Z" fill="#99958F"/>
<path d="M19.661 13.8444L19.9027 13.7602C20.5071 13.5497 20.6912 13.6889 20.8271 13.6415C20.9631 13.5941 21.0208 13.3707 21.6252 13.1602L21.867 13.0759C22.1843 12.9654 22.3262 12.9837 22.3894 13.1651C22.5209 13.5428 21.6666 13.2305 22.43 14.303L25.582 18.7792L25.021 13.5698C24.86 12.1349 24.2494 13.0084 24.102 12.5854C24.0283 12.3738 24.4264 12.2521 24.7739 12.131L24.8948 12.0889C25.1365 12.0047 25.245 12.1702 25.2904 12.1544C25.3508 12.1334 25.333 11.9363 25.5596 11.8573L25.7711 11.7836C26.1186 11.6626 26.2908 11.6704 26.3382 11.8063C26.4856 12.2294 25.6155 11.8717 25.7765 13.3066L26.4688 19.6224C26.7455 19.8818 26.9333 19.5453 27.028 19.8173C27.0912 19.9986 26.9914 20.1012 26.6741 20.2117L26.4323 20.2959C25.8279 20.5065 25.6439 20.3673 25.5079 20.4146C25.3719 20.462 25.3142 20.6854 24.7099 20.896L24.4681 20.9802C24.1508 21.0907 24.0089 21.0724 23.9457 20.8911C23.851 20.6191 24.2019 20.751 24.2628 20.3909L20.2463 14.8435C19.6019 13.9667 19.4386 14.6166 19.307 14.2388C19.2439 14.0575 19.3437 13.955 19.661 13.8444Z" fill="#99958F"/>
<path d="M18.2072 17.9676L17.9175 17.2219C17.6916 16.6402 17.0773 15.6773 16.5105 15.8975C16.1675 16.0307 16.1541 16.4822 16.4437 17.2279C16.7392 17.9886 16.7754 18.5238 16.5517 18.6107C16.5069 18.628 16.4564 18.6305 16.3794 18.6089L14.9132 18.1485C14.7533 18.0905 14.6507 17.9587 14.5927 17.8096C14.3204 17.1086 14.9233 15.6557 16.4297 15.0706C17.9062 14.4971 19.335 15.1265 19.8564 16.4688L21.4263 20.5106C21.9477 21.8529 22.262 21.0271 22.4068 21.4C22.4763 21.5789 22.3802 21.6849 22.067 21.8066L21.8284 21.8993C21.2318 22.131 21.043 21.9984 20.9087 22.0505C20.7894 22.0969 20.665 22.3511 20.2027 22.5307C20.0685 22.5829 19.9625 22.4867 19.9103 22.3525L19.6902 21.7857C19.4522 22.4103 19.1587 22.9362 18.3533 23.2491C17.3093 23.6546 16.4155 23.298 16.0332 22.3136C15.3554 20.5686 17.3193 19.3939 18.2072 17.9676ZM18.8502 21.7001C19.2081 21.561 19.3408 21.3722 19.4063 21.0549L18.4563 18.609C18.1121 19.4464 17.4449 20.2033 17.8504 21.2473C18.0764 21.829 18.4475 21.8565 18.8502 21.7001Z" fill="#99958F"/>
<path d="M10.5232 17.4729C11.8018 16.9225 13.4222 17.2876 13.9409 18.4927C14.5102 19.8154 13.5359 21.4367 12.2867 21.9744C11.743 22.2085 11.3374 22.1566 11.0157 22.0164C11.7959 23.7883 12.7153 24.6293 13.847 24.1422C14.8757 23.6994 15.0105 22.5962 14.9673 21.8483C14.9522 21.6109 15.0318 21.4722 15.1347 21.4279C15.267 21.3709 15.4394 21.4883 15.5092 21.7718C15.7061 22.7148 15.3412 24.457 13.7099 25.1592C12.0786 25.8615 10.0543 25.1651 8.97891 22.6667C7.90347 20.1683 8.93601 18.1561 10.5232 17.4729ZM11.9077 21.4582C12.4368 21.2305 12.5555 20.5349 12.119 19.5209C11.7078 18.5656 11.1334 18.0812 10.7366 18.252C10.1929 18.4861 10.2034 19.8054 10.7394 21.334C11.0864 21.5331 11.555 21.6101 11.9077 21.4582Z" fill="#99958F"/>
<path d="M0.0292953 19.0366C-0.0531649 18.8633 0.0349397 18.7505 0.338374 18.6062L0.64181 18.4619C1.21978 18.187 1.41783 18.3054 1.54787 18.2436C1.67792 18.1817 1.71105 17.9534 2.28902 17.6785L2.59245 17.5342C2.89588 17.3899 3.03897 17.3927 3.12143 17.5661C3.29322 17.9273 2.47686 17.5892 3.09531 18.8896L7.01216 27.1257L7.35895 26.9607C8.2548 26.5347 8.08427 25.0213 7.78879 24.3999C7.43146 23.6486 7.48803 23.3205 7.69032 23.2243C7.73367 23.2037 7.81279 23.1837 7.86918 23.2278L9.41784 24.1744C10.1179 24.6033 10.5201 26.3432 9.01741 27.0579L5.21726 28.8651C4.91383 29.0094 4.77074 29.0066 4.68828 28.8332C4.51649 28.472 5.33285 28.8102 4.7144 27.5097L1.07242 19.8516C0.45397 18.5512 0.201087 19.3979 0.0292953 19.0366Z" fill="#99958F"/>
</svg>
