<svg width="40" height="53" viewBox="0 0 40 53" fill="none" xmlns="http://www.w3.org/2000/svg">
<path d="M13.3348 26.902C13.1768 27.7006 12.1819 28.0967 11.296 27.9536C11.2784 27.9511 11.2609 27.9421 11.2433 27.9383C11.0584 27.914 10.8782 27.8718 10.7155 27.7977C10.0144 27.477 9.85056 26.6848 10.1279 26.1098C10.2134 25.9321 10.3199 25.7686 10.4451 25.6255C10.4521 25.6114 10.458 25.5974 10.465 25.582C10.6289 25.2754 10.9191 25.1386 11.2421 25.1054C11.4856 25.03 11.7583 24.9968 12.0649 25.0339C13.0504 25.1476 13.4705 26.2094 13.3336 26.902H13.3348Z" fill="#4B3A2A"/>
<path d="M22.1685 26.4955L19.9694 28.9309C19.9296 28.9744 19.8687 28.9999 19.802 29.0012H19.8009C19.7353 29.0012 19.6745 28.9757 19.6347 28.9322L17.4016 26.4967C17.3419 26.4329 17.3443 26.3421 17.4075 26.2808L19.6405 24.0626C19.6803 24.0229 19.7388 23.9999 19.8009 23.9999H19.802C19.8641 23.9999 19.9226 24.0229 19.9635 24.0638L22.1615 26.2808C22.2235 26.3421 22.2259 26.4316 22.1674 26.4955H22.1685Z" fill="#4B3A2A"/>
<path d="M29.6642 26.8541C29.4605 27.3678 28.7829 27.8444 28.1193 27.8789C27.6968 28.0016 27.1865 27.9888 26.8729 27.6821C26.5545 27.3729 26.2912 26.9857 26.2385 26.5781C26.2057 26.4107 26.1964 26.2408 26.2362 26.0734C26.2795 25.8881 26.3813 25.7424 26.5089 25.6185C26.6739 25.2888 27.0168 25.0435 27.5025 25.0499C27.609 25.0499 27.7097 25.0716 27.8115 25.0844C28.0268 25.0742 28.2516 25.0933 28.4798 25.1444C29.3774 25.3489 29.965 26.0913 29.6654 26.8516L29.6642 26.8541Z" fill="#4B3A2A"/>
</svg>
