<svg width="243" height="19" viewBox="0 0 243 19" fill="none" xmlns="http://www.w3.org/2000/svg">
<path d="M122.261 15.5673C122.261 15.5673 122.242 15.5863 122.231 15.5972C122.19 15.6081 122.168 15.6271 122.138 15.6489C122.116 15.6706 122.086 15.6897 122.067 15.7223C122.015 15.7739 121.963 15.793 121.914 15.8038C121.494 16.1926 121.431 16.8777 121.699 17.4187C122.026 18.0631 122.847 17.9815 123.237 17.3997C123.668 16.7554 122.858 15.3525 122.263 15.57L122.261 15.5673Z" fill="#99958F"/>
<path d="M138.376 9.45051C136.692 5.82106 126.459 14.3904 125.526 16.4049C125.496 16.4865 125.496 16.5681 125.515 16.6306C125.545 16.8454 125.72 17.0411 125.976 17.0194C128.767 16.7121 131.847 15.0456 134.319 13.8276C135.675 13.1615 139.339 11.5167 138.373 9.45051H138.376Z" fill="#99958F"/>
<path d="M126.315 13.0526C127.032 12.2859 127.731 11.4975 128.358 10.6601C129.035 9.74938 130.112 8.06379 128.912 7.12041C126.377 5.15751 124.921 12.1337 124.806 13.6045C124.795 13.6861 124.784 13.7567 124.784 13.8301C124.795 13.9933 124.978 14.1183 125.122 14.0857C125.616 14.0041 125.985 13.4006 126.312 13.0526H126.315Z" fill="#99958F"/>
<path d="M122.468 14.7493C122.386 14.7493 122.323 14.7711 122.263 14.7901C122.181 14.7493 122.099 14.7276 121.987 14.7493C120.664 15.0756 120.397 16.6605 120.858 17.7779C121.412 19.1291 122.972 19.0367 123.875 18.0933C124.625 17.3266 124.336 16.038 123.671 15.323C123.362 14.9858 122.942 14.7194 122.47 14.7493H122.468ZM123.237 17.4C122.847 17.9818 122.026 18.0634 121.698 17.4191C121.431 16.878 121.494 16.1929 121.914 15.8042C121.966 15.7933 122.017 15.7743 122.066 15.7226C122.088 15.6927 122.118 15.6709 122.137 15.6492C122.167 15.6302 122.189 15.6084 122.23 15.5975C122.241 15.5867 122.252 15.5785 122.26 15.5676C122.855 15.3529 123.668 16.753 123.234 17.3973L123.237 17.4Z" fill="#99958F"/>
<path d="M122.866 12.8487C122.866 12.8296 122.855 12.8079 122.866 12.7861C124.179 9.82005 125.133 6.62831 124.735 3.36587C124.55 1.85156 123.813 -0.807321 121.688 0.236658C120.22 0.954393 120.476 3.65406 120.558 4.93184C120.722 7.63151 121.543 10.2822 122.282 12.8596C122.353 13.1477 122.847 13.2184 122.866 12.8487Z" fill="#99958F"/>
<path d="M119.993 13.6645C119.89 11.987 118.752 5.71774 115.961 7.0798C114.597 7.75404 115.746 9.65712 116.288 10.4537C116.883 11.3237 117.603 12.1203 118.321 12.8869C118.689 13.2648 119.131 13.9934 119.685 14.0832C119.838 14.1158 120.012 13.9826 120.012 13.8276C120.012 13.7759 120.001 13.7243 119.99 13.6754V13.6645H119.993Z" fill="#99958F"/>
<path d="M106.427 9.45013C105.453 11.5381 109.147 13.153 110.481 13.8272C112.923 15.0642 116.063 16.7226 118.835 17.019C119.091 17.0407 119.255 16.8341 119.288 16.6302C119.307 16.5595 119.307 16.478 119.277 16.4046C118.333 14.3683 108.121 5.81796 106.427 9.45013Z" fill="#99958F"/>
<path d="M0 10.6873C28.8746 10.5079 60.9056 9.47204 89.6519 10.4236C91.6434 10.5133 93.6377 10.5731 95.6292 10.6873V10.8368C93.6377 10.951 91.6434 11.0135 89.6519 11.1005C75.7357 11.6198 61.7267 11.5872 47.8133 11.3561C36.0059 11.1141 11.5045 11.2827 0 10.6873Z" fill="#99958F"/>
<path d="M242.192 10.8371C213.317 11.0165 181.286 12.0523 152.54 11.1008C150.548 11.0111 148.554 10.9513 146.562 10.8371V10.6875C148.554 10.5734 150.548 10.5108 152.54 10.4238C166.456 9.90456 180.465 9.93718 194.376 10.1683C206.183 10.4102 230.682 10.2417 242.189 10.8371H242.192Z" fill="#99958F"/>
</svg>
