<svg width="400" height="90" viewBox="0 0 400 90" fill="none" xmlns="http://www.w3.org/2000/svg">
<path d="M60.7642 41.405C60.3873 41.0317 60.043 40.6367 59.7857 40.4193C59.1515 39.8793 57.1728 37.9259 56.216 38.4188C54.4257 39.3393 58.6079 40.8795 59.1551 41.039C59.6734 41.1876 60.2243 41.289 60.7679 41.405H60.7642ZM59.0138 38.6471C59.8836 39.2958 60.699 40.0061 61.4927 40.7527C61.8478 41.0861 62.4712 41.4703 62.5582 41.9776C62.5872 42.1298 62.4639 42.3219 62.2972 42.3292C62.2248 42.3292 62.145 42.3219 62.0653 42.3038C60.5432 42.1842 53.3276 40.6911 55.3643 38.0817C56.3283 36.8387 58.0752 37.9513 59.0138 38.6471Z" fill="#4B3A2A"/>
<path d="M58.7123 32.254C59.3574 33.5659 60.1185 34.8126 60.9556 36.0122C61.9885 37.4835 63.1011 39.1253 64.4746 40.3611C63.9419 38.7447 63.391 37.132 62.7169 35.5555C61.8943 33.6347 60.8034 30.4419 58.879 29.3221C57.2482 28.3762 58.4912 31.8154 58.7087 32.2576L58.7123 32.254ZM62.2929 32.5004C63.5505 35.0481 65.2828 38.2265 65.5908 41.1076C65.6198 41.3649 65.4096 41.5461 65.1922 41.5788C65.127 41.6041 65.0472 41.6078 64.9639 41.5715C62.8836 40.6111 54.0191 30.0686 57.77 28.3291C59.9083 27.3361 61.608 31.1124 62.2929 32.504V32.5004Z" fill="#4B3A2A"/>
<path d="M59.876 44.3984C57.5131 43.6011 54.6573 42.9343 52.385 43.1662C51.5297 43.2496 49.29 43.2895 48.9928 44.3078C48.634 45.511 49.9097 45.7684 50.8121 45.83C52.1313 45.9206 53.4505 45.7937 54.7588 45.5944C56.4838 45.3371 58.1473 44.6485 59.8796 44.3984H59.876ZM51.479 42.3835C54.853 41.9667 58.1546 42.9524 61.2242 44.3078C61.2423 44.3078 61.2677 44.3078 61.2858 44.3078C61.6627 44.3223 61.5938 44.8297 61.293 44.9131C58.6293 45.6669 55.8859 46.5186 53.1026 46.6889C51.7725 46.7686 48.9892 47.0368 48.2463 45.5292C47.1627 43.333 49.9134 42.5792 51.479 42.3871V42.3835Z" fill="#4B3A2A"/>
<path d="M56.8566 49.4505C56.4688 49.6788 55.1025 50.8277 56.2115 51.1683C57.4074 51.5307 59.1977 49.6825 59.9914 48.9794C60.2088 48.7909 60.4843 48.4792 60.7887 48.1676C60.1472 48.3089 59.4913 48.4285 58.8824 48.6206C58.1938 48.8417 57.4835 49.0772 56.8566 49.4469V49.4505ZM55.3199 51.4257C53.9029 48.5517 60.3901 47.3703 62.1224 47.2688H62.1296C62.184 47.2616 62.2383 47.2434 62.2891 47.2471C62.4522 47.2471 62.5826 47.4319 62.5609 47.5877C62.4594 48.1531 61.7129 48.617 61.3214 48.9866C60.5278 49.7259 59.7051 50.4761 58.8027 51.0886C57.98 51.6467 56.0121 52.8318 55.3199 51.4257Z" fill="#4B3A2A"/>
<path d="M66.004 45.5073C66.6744 45.1703 66.5874 44.3259 65.9858 43.9272C65.319 43.4815 63.873 44.315 64.0941 44.9275C64.1013 44.942 64.1158 44.9492 64.1194 44.9673C64.1339 45.0036 64.1593 45.0253 64.1774 45.0579C64.1992 45.0869 64.2173 45.1123 64.2499 45.1377C64.3006 45.1812 64.3296 45.2391 64.3405 45.2899C64.7428 45.7284 65.4495 45.7864 66.004 45.5073ZM63.2424 44.7173C63.2098 44.2353 63.4925 43.7931 63.8367 43.4778C64.5797 42.7965 65.9134 42.4921 66.707 43.2676C67.671 44.199 67.7725 45.8045 66.3772 46.3807C65.2284 46.8555 63.5867 46.5764 63.2496 45.2102C63.2207 45.0978 63.2424 45.0072 63.2823 44.9311C63.2641 44.8695 63.246 44.797 63.2424 44.7173Z" fill="#4B3A2A"/>
<path d="M64.475 49.2076C62.9746 50.5485 61.7388 52.3751 60.666 53.9878C59.876 55.1692 59.0823 56.3833 58.5314 57.7025C58.3756 58.0721 57.3826 61.1164 58.7706 60.3118C60.8762 59.0905 62.0396 55.6911 62.9057 53.5674C63.4928 52.1286 63.9893 50.6717 64.475 49.2076ZM57.774 61.2505C54.0194 59.5037 62.8514 48.9793 64.9606 48.0116C65.0403 47.9718 65.1237 47.9718 65.1925 48.0008C65.4027 48.0261 65.6202 48.2001 65.5948 48.4574C65.2868 51.3168 63.5798 54.5495 62.2933 57.0647C61.5974 58.4418 59.9231 62.2471 57.7776 61.2505H57.774Z" fill="#4B3A2A"/>
<path d="M340.849 41.0388C341.392 40.8829 345.575 39.3391 343.788 38.4186C342.831 37.9257 340.852 39.8791 340.218 40.4191C339.957 40.6365 339.613 41.0315 339.24 41.4048C339.783 41.2852 340.334 41.1874 340.852 41.0388H340.849ZM344.639 38.0815C346.676 40.6945 339.461 42.184 337.939 42.3036C337.859 42.3217 337.779 42.3326 337.707 42.329C337.54 42.3217 337.417 42.1296 337.446 41.9774C337.533 41.4664 338.156 41.0859 338.511 40.7525C339.305 40.0095 340.12 39.2992 340.99 38.6469C341.932 37.9474 343.672 36.8385 344.639 38.0815Z" fill="#4B3A2A"/>
<path d="M341.12 29.3222C339.196 30.4421 338.105 33.6349 337.282 35.5557C336.608 37.1321 336.061 38.7449 335.524 40.3612C336.898 39.1254 338.014 37.4837 339.047 36.0123C339.884 34.8164 340.645 33.5697 341.29 32.2541C341.508 31.812 342.751 28.3763 341.12 29.3186V29.3222ZM342.229 28.3256C345.984 30.0651 337.119 40.604 335.039 41.5681C334.955 41.6043 334.876 41.6007 334.811 41.5753C334.593 41.5427 334.383 41.3615 334.412 41.1042C334.72 38.2266 336.456 35.0483 337.71 32.4969C338.395 31.1053 340.091 27.329 342.233 28.322L342.229 28.3256Z" fill="#4B3A2A"/>
<path d="M345.245 45.5944C346.549 45.7937 347.868 45.9206 349.191 45.83C350.094 45.7684 351.369 45.5147 351.011 44.3078C350.713 43.2859 348.474 43.2496 347.618 43.1662C345.343 42.9343 342.49 43.6011 340.127 44.3984C341.856 44.6485 343.523 45.3371 345.245 45.5944ZM351.757 45.5292C351.014 47.0368 348.231 46.7686 346.901 46.6889C344.118 46.5222 341.37 45.6669 338.707 44.9131C338.41 44.8297 338.337 44.3223 338.714 44.3078C338.736 44.3078 338.758 44.3078 338.776 44.3078C341.845 42.9524 345.147 41.9667 348.521 42.3835C350.086 42.5755 352.837 43.333 351.754 45.5255L351.757 45.5292Z" fill="#4B3A2A"/>
<path d="M341.117 48.624C340.505 48.4283 339.852 48.3123 339.211 48.171C339.515 48.4826 339.794 48.7943 340.008 48.9828C340.798 49.6858 342.592 51.5305 343.788 51.1717C344.901 50.8311 343.534 49.6822 343.147 49.4539C342.52 49.0843 341.806 48.8487 341.117 48.6276V48.624ZM341.197 51.0884C340.294 50.4795 339.475 49.7293 338.678 48.9864C338.287 48.6131 337.54 48.1529 337.439 47.5875C337.413 47.4317 337.547 47.2505 337.71 47.2468C337.761 47.2468 337.816 47.2613 337.87 47.2686C337.87 47.2686 337.87 47.2686 337.877 47.2686C339.609 47.37 346.097 48.5515 344.68 51.4254C343.991 52.8316 342.02 51.6465 341.197 51.0884Z" fill="#4B3A2A"/>
<path d="M335.663 45.2863C335.674 45.2356 335.703 45.1776 335.753 45.1341C335.786 45.1087 335.804 45.0833 335.826 45.0544C335.844 45.0217 335.866 45 335.88 44.9638C335.884 44.9456 335.898 44.9384 335.906 44.9239C336.13 44.3114 334.684 43.4815 334.017 43.9236C333.416 44.3223 333.329 45.1667 333.999 45.5037C334.554 45.7828 335.261 45.7212 335.663 45.2863ZM336.717 44.9348C336.757 45.0109 336.779 45.1015 336.754 45.2138C336.417 46.5765 334.771 46.8591 333.622 46.3844C332.227 45.8082 332.325 44.1991 333.293 43.2713C334.09 42.4957 335.42 42.8002 336.167 43.4815C336.511 43.7968 336.794 44.2389 336.761 44.7209C336.761 44.8007 336.743 44.8731 336.721 44.9348H336.717Z" fill="#4B3A2A"/>
<path d="M337.098 53.5711C337.961 55.6948 339.124 59.0942 341.23 60.3155C342.618 61.12 341.625 58.0794 341.469 57.7061C340.918 56.387 340.128 55.1693 339.334 53.9914C338.262 52.3751 337.026 50.5485 335.525 49.2112C336.011 50.6754 336.511 52.1323 337.098 53.5711ZM337.711 57.0683C336.421 54.5495 334.717 51.3168 334.409 48.4611C334.384 48.2001 334.601 48.0262 334.812 48.0044C334.88 47.9754 334.964 47.9754 335.043 48.0153C337.153 48.9829 345.985 59.5073 342.23 61.2541C340.081 62.2508 338.41 58.4491 337.711 57.0683Z" fill="#4B3A2A"/>
<path d="M206.62 43.5322C206.196 41.5643 203.517 40.5857 201.133 40.9409C201.082 40.9482 201.038 40.9699 200.991 40.9772C200.495 41.0352 200.009 41.1403 199.571 41.3251C197.686 42.1151 197.24 44.0685 197.987 45.4855C198.215 45.9241 198.502 46.3263 198.839 46.6815C198.857 46.7177 198.871 46.7503 198.893 46.7866C199.335 47.5404 200.114 47.8811 200.984 47.9608C201.64 48.1456 202.372 48.2254 203.202 48.1384C205.855 47.8557 206.986 45.2391 206.616 43.5322H206.62Z" fill="#4B3A2A"/>
<path d="M74.9844 44.7246C88.8212 43.9889 102.654 44.1882 116.488 44.576C139.548 44.3839 162.608 43.5576 185.661 44.7246V44.8551C162.604 46.022 139.548 45.1957 116.488 45.0036C102.741 45.2646 88.4733 45.8372 74.9844 44.7246Z" fill="#4B3A2A"/>
<path d="M325.096 44.8551C311.259 45.5908 297.426 45.3914 283.589 45.0036C260.529 45.1957 237.469 46.022 214.412 44.8551V44.7246C237.469 43.5576 260.525 44.3839 283.589 44.576C297.335 44.3151 311.603 43.7425 325.096 44.8551Z" fill="#4B3A2A"/>
</svg>
