<svg width="372" height="67" viewBox="0 0 372 67" fill="none" xmlns="http://www.w3.org/2000/svg">
<path d="M10.1024 39.7966C27.1796 30.5435 47.1395 25.6315 66.5385 28.4119C92.3664 32.4458 118.316 39.5723 144.656 36.4846C151.183 35.6212 157.739 34.0799 163.543 30.9434L163.465 30.7825C145.578 38.0162 124.287 35.3481 105.502 33.4457C92.5176 31.8312 79.5378 29.9971 66.6214 27.8412C65.4166 27.6168 62.968 27.2607 61.7485 27.129C50.3052 25.4218 38.4717 26.9144 27.6137 30.8166C22.9603 32.4458 18.4288 34.5384 14.1559 36.987C12.7413 37.8309 11.3316 38.6699 10 39.6454L10.0976 39.7918H10.1024V39.7966Z" fill="#4B3A2A"/>
<path d="M185.778 33.5049C185.848 34.1881 185.199 34.8798 184.509 34.8926C184.433 34.8926 184.354 34.8798 184.277 34.8777C184.097 34.9564 183.918 35.0245 183.743 35.0671C182.839 35.2927 181.768 34.535 181.855 33.5815C181.374 32.5515 182.302 31.3064 183.292 30.8957C184.371 30.4466 185.412 31.4299 185.782 32.3237C185.961 32.7536 185.925 33.1474 185.778 33.5028V33.5049Z" fill="#4B3A2A"/>
<path d="M184.005 41.7416C183.842 42.4972 182.658 42.3184 182.671 41.5607C182.686 40.7307 182.811 39.8964 182.854 39.0643C182.894 38.2981 182.88 37.4574 183.309 36.7891C183.422 36.6125 183.667 36.6125 183.778 36.7891C184.205 37.4532 184.195 38.2959 184.195 39.0643C184.195 39.956 184.195 40.8712 184.005 41.7416Z" fill="#4B3A2A"/>
<path d="M187.642 40.1667C187.163 39.675 186.852 38.9365 186.533 38.3321C186.227 37.7468 185.903 37.2147 185.895 36.5401C185.892 36.306 186.122 36.1442 186.341 36.1974C186.997 36.3656 187.403 36.8253 187.801 37.3446C188.24 37.9213 188.793 38.7024 188.912 39.4239C189.029 40.1305 188.214 40.7562 187.642 40.1645V40.1667Z" fill="#4B3A2A"/>
<path d="M180.58 37.9342C180.176 38.679 179.535 39.6964 178.579 39.5346C178.422 39.5069 178.256 39.3388 178.228 39.1834C178.086 38.4066 178.724 37.8724 179.222 37.3489C179.658 36.8913 180.029 36.1656 180.582 35.8527C180.631 35.825 180.686 35.8335 180.729 35.874C181.306 36.3763 180.878 37.3787 180.578 37.9342H180.58Z" fill="#4B3A2A"/>
<path d="M179.988 33.0094C179.373 33.3371 178.792 33.4712 178.1 33.567C177.268 33.6798 176.408 33.8777 175.568 33.8735C174.414 33.865 174.116 32.0708 175.291 31.8239C176.683 31.5324 178.458 31.5707 179.841 31.892C180.352 32.0112 180.45 32.7625 179.988 33.0094Z" fill="#4B3A2A"/>
<path d="M180.643 30.3235C179.72 30.315 179.024 29.9212 178.302 29.37C177.728 28.9273 176.812 28.2165 177.359 27.4248C177.896 26.6501 178.707 27.678 179.081 28.0569C179.696 28.6804 180.416 29.0806 180.95 29.7935C181.114 30.0127 180.89 30.3256 180.643 30.3235Z" fill="#4B3A2A"/>
<path d="M184.347 26.533C184.31 27.014 184.236 27.4928 184.153 27.9653C184.059 28.4974 183.71 28.6634 183.455 29.0656C183.389 29.172 183.234 29.1252 183.227 29.006C183.206 28.6804 183.012 28.308 182.961 27.9653C182.891 27.495 182.887 27.0097 182.831 26.533C182.725 25.6391 182.478 24.6814 183.261 24.0791C183.402 23.9727 183.683 23.9748 183.823 24.0791C184.596 24.6495 184.411 25.6561 184.345 26.533H184.347Z" fill="#4B3A2A"/>
<path d="M188.081 29.7722C187.855 30 186.997 31.0386 186.629 30.4724C186.291 29.951 186.797 29.4253 187.07 28.9933C187.242 28.7166 187.404 28.4336 187.555 28.142C187.742 27.7738 187.813 27.4396 188.202 27.2226C188.6 27.0012 189.145 27.1928 189.26 27.6525C189.47 28.4889 188.611 29.2253 188.081 29.7722Z" fill="#4B3A2A"/>
<path d="M191.676 34.2161C190.402 34.5481 188.629 34.463 187.448 33.8394C187.007 33.6074 187.007 32.9008 187.448 32.6667C188.525 32.0963 190.163 31.9112 191.368 31.9431C192.66 31.975 192.962 33.8777 191.676 34.2161Z" fill="#4B3A2A"/>
<path d="M361.645 39.7124C347.499 30.508 330.256 25.5083 313.345 26.6838C303.272 27.5228 293.312 29.7032 283.283 30.9226C259.538 33.8249 225.94 39.8295 203.58 30.8446L203.502 31.0055C209.516 34.1517 216.262 35.6833 222.974 36.5467C229.72 37.332 236.52 37.454 243.285 37.1418C263.572 36.254 283.361 31.5128 303.36 28.4837C323.354 25.4839 344.06 30.986 361.645 39.7075V39.7124Z" fill="#4B3A2A"/>
</svg>
