<svg width="372" height="67" viewBox="0 0 372 67" fill="none" xmlns="http://www.w3.org/2000/svg">
<path d="M10.1024 26.4299C27.1796 35.6831 47.1395 40.595 66.5385 37.8147C92.3664 33.7808 118.316 26.6543 144.656 29.742C151.183 30.6053 157.739 32.1467 163.543 35.2831L163.465 35.4441C145.578 28.2103 124.287 30.8785 105.502 32.7808C92.5176 34.3954 79.5378 36.2294 66.6214 38.3854C65.4166 38.6098 62.968 38.9659 61.7485 39.0976C50.3052 40.8048 38.4717 39.3122 27.6137 35.4099C22.9603 33.7808 18.4288 31.6882 14.1559 29.2395C12.7413 28.3957 11.3316 27.5567 10 26.5811L10.0976 26.4348H10.1024V26.4299Z" fill="#4B3A2A"/>
<path d="M185.778 32.7216C185.848 32.0385 185.199 31.3468 184.509 31.334C184.433 31.334 184.354 31.3468 184.277 31.3489C184.097 31.2702 183.918 31.202 183.743 31.1595C182.839 30.9339 181.768 31.6916 181.855 32.645C181.374 33.6751 182.302 34.9201 183.292 35.3309C184.371 35.78 185.412 34.7967 185.782 33.9028C185.961 33.4729 185.925 33.0792 185.778 32.7238V32.7216Z" fill="#4B3A2A"/>
<path d="M184.005 24.4849C183.842 23.7294 182.658 23.9082 182.671 24.6658C182.686 25.4959 182.811 26.3302 182.854 27.1623C182.894 27.9285 182.88 28.7692 183.309 29.4374C183.422 29.6141 183.667 29.6141 183.778 29.4374C184.205 28.7734 184.195 27.9306 184.195 27.1623C184.195 26.2706 184.195 25.3554 184.005 24.4849Z" fill="#4B3A2A"/>
<path d="M187.642 26.0599C187.163 26.5515 186.852 27.29 186.533 27.8945C186.227 28.4798 185.903 29.0118 185.895 29.6865C185.892 29.9206 186.122 30.0823 186.341 30.0291C186.997 29.861 187.403 29.4013 187.801 28.882C188.24 28.3052 188.793 27.5242 188.912 26.8027C189.029 26.0961 188.214 25.4704 187.642 26.062V26.0599Z" fill="#4B3A2A"/>
<path d="M180.58 28.2924C180.176 27.5475 179.535 26.5302 178.579 26.6919C178.422 26.7196 178.256 26.8877 178.228 27.0431C178.086 27.8199 178.724 28.3541 179.222 28.8777C179.658 29.3353 180.029 30.061 180.582 30.3739C180.631 30.4015 180.686 30.393 180.729 30.3526C181.306 29.8503 180.878 28.8479 180.578 28.2924H180.58Z" fill="#4B3A2A"/>
<path d="M179.988 33.2172C179.373 32.8894 178.792 32.7553 178.1 32.6596C177.268 32.5468 176.408 32.3488 175.568 32.3531C174.414 32.3616 174.116 34.1557 175.291 34.4026C176.683 34.6942 178.458 34.6559 179.841 34.3345C180.352 34.2153 180.45 33.4641 179.988 33.2172Z" fill="#4B3A2A"/>
<path d="M180.643 35.9031C179.72 35.9116 179.024 36.3053 178.302 36.8566C177.728 37.2992 176.812 38.0101 177.359 38.8018C177.896 39.5765 178.707 38.5485 179.081 38.1697C179.696 37.5461 180.416 37.146 180.95 36.433C181.114 36.2138 180.89 35.901 180.643 35.9031Z" fill="#4B3A2A"/>
<path d="M184.347 39.6936C184.31 39.2126 184.236 38.7337 184.153 38.2613C184.059 37.7292 183.71 37.5632 183.455 37.1609C183.389 37.0545 183.234 37.1014 183.227 37.2205C183.206 37.5462 183.012 37.9186 182.961 38.2613C182.891 38.7316 182.887 39.2169 182.831 39.6936C182.725 40.5875 182.478 41.5452 183.261 42.1475C183.402 42.2539 183.683 42.2518 183.823 42.1475C184.596 41.5771 184.411 40.5704 184.345 39.6936H184.347Z" fill="#4B3A2A"/>
<path d="M188.081 36.4543C187.855 36.2266 186.997 35.188 186.629 35.7541C186.291 36.2756 186.797 36.8012 187.07 37.2333C187.242 37.51 187.404 37.793 187.555 38.0846C187.742 38.4528 187.813 38.7869 188.202 39.004C188.6 39.2253 189.145 39.0338 189.26 38.5741C189.47 37.7377 188.611 37.0013 188.081 36.4543Z" fill="#4B3A2A"/>
<path d="M191.676 32.0105C190.402 31.6785 188.629 31.7636 187.448 32.3872C187.007 32.6192 187.007 33.3257 187.448 33.5599C188.525 34.1302 190.163 34.3154 191.368 34.2835C192.66 34.2515 192.962 32.3489 191.676 32.0105Z" fill="#4B3A2A"/>
<path d="M361.645 26.5142C347.499 35.7186 330.256 40.7183 313.345 39.5427C303.272 38.7038 293.312 36.5234 283.283 35.3039C259.538 32.4017 225.94 26.3971 203.58 35.382L203.502 35.221C209.516 32.0748 216.262 30.5432 222.974 29.6798C229.72 28.8945 236.52 28.7726 243.285 29.0848C263.572 29.9725 283.361 34.7137 303.36 37.7428C323.354 40.7427 344.06 35.2405 361.645 26.519V26.5142Z" fill="#4B3A2A"/>
</svg>
