<svg width="233" height="49" viewBox="0 0 233 49" fill="none" xmlns="http://www.w3.org/2000/svg">
<path d="M222.384 45.7947L223.8 45.7983C223.899 45.802 223.958 45.8241 224.005 45.8754C224.158 46.0396 223.984 46.4491 223.563 46.8395C222.998 47.3632 222.906 47.7163 223.201 48.0345C223.525 48.3835 223.926 48.2401 225.445 47.3659L225.026 46.9143C224.817 46.6885 224.758 46.4188 224.916 46.1572L227.933 41.0101C228.409 40.186 227.831 40.2832 228.088 40.0451C228.211 39.9309 228.328 39.9749 228.528 40.1904L228.68 40.3547C229.061 40.7652 229.014 40.9616 229.1 41.054C229.186 41.1463 229.385 41.1142 229.766 41.5248L229.918 41.689C230.118 41.9045 230.153 42.0247 230.03 42.139C229.773 42.377 229.724 41.5826 229.132 42.5709L226.65 46.6681L230.629 44.3904C231.723 43.7578 230.808 43.5749 231.096 43.3083C231.239 43.175 231.477 43.4514 231.696 43.6875L231.772 43.7696C231.924 43.9338 231.83 44.0789 231.858 44.1096C231.896 44.1507 232.048 44.0672 232.191 44.2212L232.324 44.3649C232.543 44.601 232.597 44.7417 232.505 44.8274C232.217 45.094 232.199 44.271 231.105 44.9036L225.901 47.8981C223.886 49.0608 223.288 49.1572 222.621 48.4387C221.669 47.4123 221.69 45.7885 222.384 45.7947Z" fill="#99958F"/>
<path d="M224.532 36.5805C224.734 36.6725 225.028 36.8702 225.516 36.9423C226.431 37.0688 226.708 36.4648 227.015 36.7512C227.158 36.8849 227.093 36.9961 226.988 37.1087L226.109 38.0508L226.754 38.6523C227.061 38.9387 226.584 39.4506 226.277 39.1642L225.632 38.5627L223.398 40.9588C222.347 42.0851 221.717 42.7609 222.025 43.0473C222.27 43.2765 222.534 42.8908 222.954 42.4403C223.365 42 223.852 41.765 224.005 41.9082C224.046 41.9464 224.068 42.0051 224.061 42.0945L223.996 43.6222C223.961 44.3169 222.766 44.6954 221.506 43.5211C220.861 42.9196 220.1 41.8269 221.914 39.8814L223.928 37.7209C224.091 37.5468 224.205 37.4042 224.26 37.2834L224.106 37.1402C223.819 36.8728 224.229 36.393 224.532 36.5805Z" fill="#99958F"/>
<path d="M218.215 38.9184L220.632 36.031C221.441 35.0649 220.676 35.1725 220.9 34.9041C221.089 34.6787 221.515 35.1081 222.256 35.2909C223.028 35.481 223.088 35.1477 223.357 35.3724C223.453 35.4533 223.394 35.5679 223.295 35.686L219.61 40.0869C218.801 41.0529 219.567 40.9454 219.342 41.2137C219.234 41.3425 219.112 41.3136 218.887 41.1248L218.715 40.981C218.286 40.6215 218.308 40.4208 218.211 40.3399C218.115 40.259 217.921 40.3159 217.491 39.9564L217.32 39.8126C217.094 39.6238 217.044 39.509 217.152 39.3802C217.377 39.1118 217.406 39.8845 218.215 38.9184ZM224.485 32.8476C224.979 33.2611 225.033 33.8724 224.619 34.3662C224.197 34.8707 223.585 34.9248 223.092 34.5114C222.587 34.0889 222.533 33.4776 222.955 32.9731C223.369 32.4793 223.98 32.4252 224.485 32.8476Z" fill="#99958F"/>
<path d="M217.885 31.8468C218.665 32.0039 218.711 31.6684 218.944 31.8474C219.088 31.9583 219.034 32.0752 218.94 32.1974L218.693 32.5195C219.204 32.3824 219.677 32.4101 220.021 32.6743C220.787 33.2625 220.591 34.806 219.909 34.9356L218.413 35.2521C218.326 35.2735 218.264 35.2616 218.231 35.2361C218.053 35.0997 218.23 34.5472 218.708 33.9253C219.04 33.4922 219.139 33.1797 218.984 33.0603C218.661 32.8131 217.99 33.4805 217.44 34.1519L215.445 36.7506C214.678 37.7501 215.438 37.6102 215.225 37.8878C215.123 38.0211 215 37.9973 214.766 37.8183L214.589 37.6819C214.145 37.3409 214.158 37.1394 214.058 37.0627C213.958 36.986 213.767 37.0511 213.323 36.7101L213.145 36.5737C212.912 36.3946 212.857 36.282 212.959 36.1488C213.173 35.8711 213.234 36.6419 214.001 35.6424L216.294 32.655C216.9 31.8666 216.301 31.7955 216.514 31.5178C216.693 31.2846 217.137 31.6956 217.885 31.8468Z" fill="#99958F"/>
<path d="M214.343 28.5427C215.35 29.2269 215.843 30.5941 215.198 31.5438C214.491 32.5862 212.836 32.6304 211.852 31.9619C211.423 31.6709 211.271 31.3473 211.223 31.044C210.283 32.4533 210.095 33.5273 210.987 34.1329C211.797 34.6834 212.675 34.2637 213.206 33.88C213.374 33.7571 213.514 33.7506 213.595 33.8056C213.699 33.8764 213.694 34.0588 213.517 34.2437C212.914 34.8327 211.457 35.3833 210.172 34.5104C208.886 33.6374 208.447 31.8164 209.784 29.8474C211.121 27.8784 213.092 27.6933 214.343 28.5427ZM212.054 31.4394C212.471 31.7225 213.04 31.4827 213.583 30.6835C214.094 29.9307 214.181 29.2791 213.868 29.0667C213.44 28.7757 212.471 29.4043 211.596 30.5191C211.612 30.8687 211.776 31.2506 212.054 31.4394Z" fill="#99958F"/>
<path d="M205.756 27.5718C204.877 29.0527 204.741 30.1603 205.68 30.7175C206.523 31.2176 207.373 30.7452 207.88 30.3298C208.04 30.1969 208.18 30.1818 208.264 30.2318C208.372 30.2961 208.378 30.4786 208.213 30.6739C207.647 31.2985 206.227 31.9369 204.89 31.144C203.554 30.351 203.005 28.5601 204.219 26.5133C205.434 24.4665 207.389 24.1616 208.629 24.8974C210.026 25.7261 210.11 27.6969 209.438 27.8683L207.87 28.2889C207.793 28.3085 207.731 28.304 207.683 28.2755C207.49 28.1612 207.612 27.5987 208.041 26.8763C208.348 26.3586 208.501 25.6351 208.248 25.4851C207.826 25.2351 206.763 25.8742 205.756 27.5718Z" fill="#99958F"/>
<path d="M200.548 21.1682C201.342 21.1912 201.331 20.8528 201.591 20.9898C201.752 21.0746 201.718 21.1991 201.646 21.3354L201.464 21.6822C201.994 21.4867 202.532 21.4855 203.04 21.753C204.031 22.2748 204.356 23.4903 203.463 25.1874L201.982 27.9994C201.395 29.1142 202.121 28.8477 201.958 29.1574C201.879 29.306 201.754 29.3034 201.494 29.1664L201.296 29.062C200.8 28.8011 200.779 28.6003 200.668 28.5416C200.557 28.4829 200.379 28.5793 199.884 28.3184L199.685 28.2141C199.425 28.0771 199.352 27.9753 199.431 27.8267C199.594 27.517 199.785 28.2662 200.372 27.1514L201.82 24.4013C202.452 23.1997 202.531 22.4186 202.11 22.1968C201.739 22.0011 201.129 22.4079 200.505 23.5032L198.972 26.4143C198.385 27.5291 199.111 27.2626 198.947 27.5723C198.869 27.7209 198.744 27.7183 198.484 27.5813L198.286 27.477C197.79 27.216 197.769 27.0152 197.658 26.9565C197.546 26.8978 197.369 26.9943 196.873 26.7333L196.675 26.629C196.415 26.492 196.342 26.3903 196.42 26.2416C196.583 25.9319 196.774 26.6812 197.361 25.5663L199.116 22.234C199.579 21.3545 198.977 21.3857 199.14 21.076C199.277 20.8159 199.784 21.1459 200.548 21.1682Z" fill="#99958F"/>
<path d="M194.32 24.0874L195.935 20.6849C196.475 19.5465 195.761 19.8431 195.911 19.5269C196.037 19.2613 196.557 19.5699 197.321 19.5604C198.116 19.5502 198.09 19.2126 198.406 19.3626C198.52 19.4166 198.491 19.5425 198.425 19.6816L195.965 24.8675C195.425 26.0059 196.139 25.7094 195.989 26.0256C195.917 26.1773 195.791 26.1799 195.526 26.0539L195.323 25.9579C194.818 25.7178 194.788 25.5181 194.674 25.464C194.561 25.41 194.387 25.5138 193.882 25.2738L193.679 25.1777C193.414 25.0517 193.336 24.9531 193.408 24.8013C193.558 24.4851 193.78 25.2257 194.32 24.0874ZM198.863 16.6353C199.445 16.9114 199.651 17.4895 199.375 18.0714C199.093 18.6659 198.515 18.8719 197.933 18.5959C197.339 18.3138 197.133 17.7357 197.415 17.1412C197.691 16.5594 198.269 16.3533 198.863 16.6353Z" fill="#99958F"/>
<path d="M191.84 22.6882C192.378 21.4564 189.631 20.1202 190.544 18.0287C191.053 16.861 192.23 16.5802 193.385 17.0842C194.783 17.6946 195.168 18.9472 194.905 19.5502C194.849 19.6786 194.755 19.7901 194.613 19.8351L193.404 20.2242C193.349 20.2459 193.292 20.2363 193.254 20.2195C193.061 20.1355 193.112 19.6689 193.398 19.0145C193.678 18.3729 193.682 17.9777 193.323 17.8209C192.899 17.6361 192.366 17.9837 192.147 18.4842C191.912 19.0231 192.229 19.4517 192.588 19.9596C193.193 20.8496 194.059 21.8389 193.55 23.0065C193.118 23.9945 191.961 24.406 190.498 23.7677C189.215 23.2077 188.348 21.9739 188.69 21.1912C188.763 21.0244 188.898 20.8544 189.116 20.7051L189.947 20.1664C190.098 20.0645 190.211 20.0523 190.3 20.0915C190.531 20.1923 190.526 20.6941 190.33 21.1432C189.966 21.9773 190.06 22.8125 190.753 23.1149C191.305 23.3557 191.695 23.0218 191.84 22.6882Z" fill="#99958F"/>
<path d="M182.58 12.9519C182.801 12.9586 183.149 13.0266 183.627 12.9037C184.52 12.6649 184.54 12.0012 184.934 12.1459C185.118 12.2135 185.101 12.3414 185.048 12.486L184.604 13.695L185.432 13.9991C185.826 14.1438 185.585 14.8009 185.19 14.6562L184.362 14.3521L183.233 17.4274C182.702 18.873 182.384 19.7404 182.778 19.8852C183.094 20.001 183.187 19.5432 183.4 18.9649C183.607 18.3998 183.965 17.9942 184.162 18.0666C184.214 18.0859 184.257 18.1315 184.286 18.2165L184.818 19.6499C185.056 20.3037 184.101 21.1165 182.484 20.523C181.656 20.2189 180.531 19.5073 181.448 17.0103L182.466 14.2374C182.548 14.0139 182.597 13.8383 182.601 13.7055L182.404 13.6331C182.036 13.498 182.227 12.897 182.58 12.9519Z" fill="#99958F"/>
<path d="M176.888 18.3237C176.999 17.9918 177.308 18.7007 177.708 17.506L179.795 11.2805C180.196 10.0858 179.522 10.4654 179.633 10.1336C179.727 9.85482 180.28 10.0993 181.037 9.99871C181.825 9.89379 181.759 9.56164 182.091 9.67288C182.211 9.71293 182.197 9.84129 182.148 9.98731L179.434 18.0845C179.033 19.2791 179.707 18.8995 179.596 19.2314C179.542 19.3907 179.418 19.4082 179.14 19.3147L178.927 19.2435C178.396 19.0656 178.343 18.8707 178.224 18.8306C178.105 18.7906 177.945 18.9143 177.414 18.7363L177.202 18.6651C176.923 18.5716 176.834 18.483 176.888 18.3237Z" fill="#99958F"/>
<path d="M175.963 10.6555C177.128 11.0118 178.003 12.1725 177.667 13.2703C177.298 14.4751 175.731 15.0057 174.593 14.6575C174.097 14.506 173.856 14.2418 173.721 13.9662C173.239 15.5902 173.376 16.6718 174.407 16.9871C175.344 17.2738 176.058 16.6139 176.453 16.0904C176.577 15.9235 176.709 15.8759 176.803 15.9046C176.923 15.9415 176.972 16.1174 176.858 16.3461C176.455 17.0868 175.226 18.0429 173.74 17.5883C172.254 17.1336 171.297 15.5233 171.994 13.2474C172.69 10.9715 174.518 10.2131 175.963 10.6555ZM174.632 14.0985C175.114 14.246 175.587 13.849 175.869 12.9252C176.136 12.055 176.026 11.4068 175.665 11.2962C175.17 11.1446 174.43 12.031 173.923 13.3545C174.041 13.6837 174.311 14.0002 174.632 14.0985Z" fill="#99958F"/>
<path d="M168.806 10.03L168.549 9.96109C168.144 9.85234 168.325 9.17621 168.731 9.28496L168.988 9.35383L169.125 8.83998C169.814 6.27069 171.144 6.33736 171.996 6.56573C173.659 7.01159 173.972 8.22585 173.401 8.62371L172.14 9.48871C172.068 9.54183 172.007 9.55437 171.953 9.53987C171.75 9.4855 171.691 8.94794 171.847 8.36647C172.006 7.77147 172.194 7.34335 171.869 7.25635C171.463 7.14761 171.224 8.0401 170.825 9.52758L170.746 9.82508L171.598 10.0534C172.003 10.1622 171.822 10.8383 171.416 10.7296L170.564 10.5012L169.361 14.9907C169.035 16.2077 169.684 15.7874 169.593 16.1255C169.549 16.2878 169.427 16.3128 169.143 16.2367L168.926 16.1787C168.386 16.0337 168.321 15.8425 168.199 15.8098C168.077 15.7772 167.926 15.9105 167.385 15.7655L167.169 15.7075C166.885 15.6314 166.791 15.5483 166.834 15.386C166.925 15.0479 167.277 15.7365 167.603 14.5195L168.806 10.03Z" fill="#99958F"/>
<path d="M163.66 7.49043C163.88 7.47196 164.234 7.50013 164.694 7.32384C165.554 6.98526 165.499 6.3235 165.907 6.4226C166.098 6.46885 166.095 6.5979 166.059 6.74755L165.755 7.99918L166.612 8.2073C167.02 8.30641 166.855 8.98664 166.447 8.88754L165.59 8.67941L164.817 11.8629C164.453 13.3594 164.235 14.2573 164.643 14.3564C164.97 14.4357 165.011 13.9702 165.156 13.3716C165.298 12.7866 165.608 12.3431 165.812 12.3927C165.866 12.4059 165.914 12.4463 165.952 12.5275L166.644 13.8913C166.953 14.514 166.097 15.4298 164.424 15.0234C163.567 14.8153 162.368 14.236 162.995 11.6511L163.692 8.78053C163.748 8.54925 163.778 8.36909 163.767 8.23674L163.563 8.18718C163.182 8.09468 163.303 7.47587 163.66 7.49043Z" fill="#99958F"/>
<path d="M159.303 7.06155C160.075 6.86845 159.972 6.54584 160.259 6.60726C160.437 6.64529 160.438 6.77436 160.406 6.92496L160.321 7.322C160.724 6.97855 161.163 6.80032 161.587 6.89099C162.532 7.09282 163.018 8.57096 162.458 8.981L161.243 9.90968C161.174 9.96644 161.113 9.98212 161.072 9.97334C160.853 9.92654 160.775 9.35164 160.939 8.58494C161.053 8.05099 161.008 7.72639 160.816 7.68544C160.419 7.60061 160.1 8.49159 159.891 9.33458L159.207 12.5383C158.944 13.7705 159.57 13.3174 159.497 13.6596C159.462 13.8239 159.341 13.8553 159.053 13.7939L158.834 13.7471C158.287 13.6301 158.212 13.4424 158.089 13.4161C157.966 13.3897 157.821 13.5306 157.273 13.4136L157.054 13.3668C156.767 13.3054 156.669 13.2272 156.704 13.0629C156.777 12.7207 157.164 13.3902 157.427 12.158L158.214 8.47514C158.422 7.50308 157.851 7.69605 157.924 7.35378C157.985 7.06627 158.562 7.24681 159.303 7.06155Z" fill="#99958F"/>
<path d="M154.858 8.52007L154.984 7.83148C155.082 7.29438 155.066 6.29511 154.543 6.19945C154.226 6.14155 154.009 6.47193 153.883 7.16052C153.755 7.86288 153.536 8.27841 153.33 8.24065C153.288 8.2331 153.25 8.21177 153.202 8.16039L152.32 7.14528C152.228 7.02874 152.212 6.88347 152.237 6.74575C152.355 6.09848 153.47 5.29185 154.861 5.5461C156.225 5.79531 157.001 6.91926 156.775 8.15872L156.092 11.8909C155.866 13.1304 156.479 12.6588 156.416 13.0031C156.385 13.1684 156.265 13.2034 155.976 13.1505L155.756 13.1102C155.205 13.0095 155.125 12.8241 155.001 12.8015C154.891 12.7813 154.681 12.9139 154.255 12.8358C154.131 12.8132 154.096 12.6929 154.118 12.569L154.214 12.0457C153.75 12.4021 153.291 12.6596 152.547 12.5237C151.583 12.3475 151.08 11.6721 151.246 10.7631C151.541 9.15183 153.543 9.17624 154.858 8.52007ZM153.627 11.5968C153.958 11.6572 154.143 11.5773 154.337 11.3708L154.75 9.11226C154.11 9.57873 153.266 9.83714 153.089 10.8012C152.991 11.3383 153.255 11.5289 153.627 11.5968Z" fill="#99958F"/>
<path d="M148.84 4.54074C150.044 4.72207 151.08 5.74162 150.909 6.87683C150.721 8.12279 149.249 8.87794 148.072 8.70078C147.56 8.62366 147.282 8.39784 147.108 8.14507C146.869 9.82228 147.165 10.8719 148.23 11.0324C149.2 11.1783 149.809 10.4206 150.122 9.8448C150.221 9.6614 150.344 9.59501 150.441 9.6096C150.566 9.62836 150.64 9.79524 150.56 10.0382C150.271 10.83 149.196 11.9564 147.659 11.725C146.122 11.4937 144.939 10.0414 145.294 7.6879C145.648 5.33442 147.345 4.31564 148.84 4.54074ZM148.029 8.14211C148.527 8.21714 148.936 7.75493 149.08 6.7997C149.216 5.89984 149.012 5.27462 148.639 5.21835C148.126 5.14123 147.525 6.12668 147.218 7.51033C147.384 7.81848 147.696 8.09209 148.029 8.14211Z" fill="#99958F"/>
<path d="M140.334 1.25549C141.084 0.991301 140.952 0.679687 141.244 0.714033C141.424 0.735296 141.438 0.863703 141.42 1.01665L141.047 4.18679C141.471 3.81383 141.973 3.61916 142.543 3.68622C143.656 3.81706 144.396 4.83451 144.172 6.73937L143.801 9.89561C143.653 11.147 144.235 10.6374 144.194 10.985C144.174 11.1519 144.057 11.1944 143.765 11.1601L143.542 11.1339C142.986 11.0685 142.894 10.8885 142.769 10.8738C142.644 10.8591 142.513 11.0129 141.957 10.9474L141.735 10.9213C141.443 10.8869 141.338 10.8182 141.358 10.6514C141.398 10.3038 141.846 10.9344 141.993 9.68299L142.356 6.59627C142.515 5.24757 142.308 4.49021 141.835 4.4346C141.418 4.38553 140.995 4.98423 140.806 6.2307L140.422 9.49817C140.275 10.7495 140.856 10.24 140.815 10.5876C140.796 10.7544 140.678 10.797 140.386 10.7626L140.163 10.7365C139.607 10.671 139.516 10.4911 139.391 10.4764C139.265 10.4617 139.135 10.6154 138.578 10.55L138.356 10.5238C138.064 10.4895 137.959 10.4208 137.979 10.2539C138.02 9.90634 138.467 10.5369 138.614 9.28555L139.381 2.76451C139.498 1.77732 138.947 2.02269 138.988 1.67509C139.022 1.3831 139.614 1.50905 140.334 1.25549Z" fill="#99958F"/>
<path d="M128.096 5.99214C128.187 4.62317 128.808 2.4617 130.638 2.58368C131.267 2.62558 131.739 2.90962 132.101 3.36873L132.183 2.13946C132.267 0.882246 131.712 1.42052 131.735 1.0713C131.755 0.777948 132.352 0.873864 133.059 0.584235C133.794 0.2825 133.646 -0.0220239 133.995 0.00125509C134.121 0.00963553 134.141 0.137219 134.13 0.290877L133.562 8.81197C133.479 10.0692 134.034 9.5309 134.01 9.88013C133.999 10.0478 133.884 10.0962 133.59 10.0766L133.367 10.0617C132.808 10.0245 132.708 9.84941 132.582 9.84102C132.47 9.83358 132.277 9.9891 131.844 9.96023C131.719 9.95185 131.67 9.83638 131.678 9.71065L131.708 9.26365C131.288 9.67061 130.783 9.88946 130.154 9.84756C128.268 9.72186 128.004 7.37507 128.096 5.99214ZM129.91 6.14112C129.842 7.16086 130.012 9.02432 130.837 9.07926C131.326 9.11185 131.719 8.47859 131.844 7.22417L131.965 5.4082C132.007 4.1482 131.702 3.46838 131.213 3.43579C130.417 3.38271 129.982 5.06551 129.91 6.14112Z" fill="#99958F"/>
<path d="M122.527 2.85723C123.253 2.53236 123.095 2.23267 123.389 2.24293C123.571 2.24928 123.594 2.37618 123.589 2.53009L123.575 2.92185C123.968 2.51529 124.452 2.28005 125.026 2.30008C126.145 2.33915 126.966 3.29238 126.899 5.20922L126.789 8.38528C126.745 9.64452 127.282 9.08894 127.27 9.43872C127.264 9.60662 127.15 9.65868 126.856 9.64842L126.633 9.64061C126.073 9.62107 125.967 9.44927 125.841 9.44487C125.715 9.44047 125.597 9.60446 125.038 9.58493L124.814 9.57711C124.52 9.56685 124.41 9.50698 124.416 9.33908C124.428 8.9893 124.926 9.58102 124.97 8.32179L125.078 5.21568C125.125 3.85851 124.857 3.12069 124.381 3.10408C123.962 3.08943 123.589 3.72083 123.503 4.9786L123.389 8.26659C123.345 9.52583 123.882 8.97025 123.87 9.32004C123.864 9.48793 123.75 9.53999 123.457 9.52973L123.233 9.52192C122.673 9.50238 122.567 9.33058 122.441 9.32618C122.315 9.32179 122.197 9.48578 121.638 9.46624L121.414 9.45842C121.12 9.44817 121.01 9.38829 121.016 9.2204C121.028 8.87061 121.526 9.46233 121.57 8.2031L121.701 4.43939C121.736 3.446 121.207 3.73574 121.22 3.38595C121.23 3.09213 121.829 3.1691 122.527 2.85723Z" fill="#99958F"/>
<path d="M118.41 5.06701L118.414 4.36703C118.418 3.82104 118.228 2.83983 117.696 2.83652C117.374 2.83451 117.218 3.19755 117.213 3.89753C117.209 4.61152 117.066 5.05864 116.856 5.05733C116.814 5.05707 116.772 5.04281 116.716 5.00046L115.672 4.15393C115.56 4.05524 115.519 3.91498 115.52 3.77498C115.524 3.11699 116.482 2.12894 117.896 2.13775C119.282 2.14639 120.242 3.11839 120.234 4.37836L120.211 8.17229C120.203 9.43227 120.724 8.8615 120.722 9.2115C120.721 9.37949 120.609 9.4348 120.315 9.43296L120.091 9.43157C119.531 9.42808 119.42 9.25939 119.294 9.2586C119.182 9.2579 118.999 9.42477 118.565 9.42206C118.439 9.42128 118.384 9.30893 118.384 9.18293L118.388 8.65094C117.993 9.08249 117.585 9.41596 116.829 9.41125C115.849 9.40514 115.236 8.82731 115.242 7.90333C115.252 6.26536 117.228 5.94167 118.41 5.06701ZM117.732 8.31085C118.068 8.31294 118.236 8.20199 118.392 7.96496L118.406 5.669C117.857 6.23959 117.07 6.6407 117.064 7.62068C117.061 8.16667 117.354 8.30849 117.732 8.31085Z" fill="#99958F"/>
<path d="M108.193 2.2886C109.41 2.24123 110.619 3.04885 110.663 4.19598C110.712 5.45503 109.407 6.47257 108.218 6.51885C107.7 6.53899 107.385 6.36911 107.167 6.15344C107.247 7.84562 107.733 8.82144 108.81 8.77952C109.789 8.74141 110.246 7.88299 110.446 7.25874C110.509 7.06017 110.617 6.97188 110.715 6.96807C110.841 6.96317 110.945 7.11324 110.913 7.36668C110.777 8.19859 109.931 9.50647 108.378 9.56691C106.826 9.62734 105.392 8.42219 105.299 6.04399C105.207 3.66579 106.682 2.3474 108.193 2.2886ZM108.071 5.97816C108.574 5.95856 108.89 5.42788 108.852 4.46262C108.817 3.5533 108.5 2.97718 108.122 2.99188C107.605 3.01203 107.199 4.09265 107.156 5.50939C107.376 5.78101 107.735 5.99123 108.071 5.97816Z" fill="#99958F"/>
<path d="M98.9628 2.81769L99.1863 2.80237C99.745 2.76408 99.8682 2.92402 99.9939 2.91541C100.12 2.90679 100.22 2.73152 100.779 2.69322L101.002 2.6779C101.295 2.6578 101.411 2.706 101.422 2.87361C101.446 3.22279 100.797 2.7621 101.194 3.84349L102.822 8.3487L103.55 3.82231C103.745 2.57404 103.028 3.17047 103.002 2.77938C102.988 2.58384 103.352 2.57292 103.674 2.55089L103.785 2.54323C104.009 2.52791 104.062 2.69265 104.104 2.68978C104.16 2.68595 104.19 2.51547 104.4 2.50111L104.595 2.4877C104.917 2.46568 105.06 2.51197 105.069 2.63768C105.096 3.02876 104.444 2.52617 104.249 3.77443L103.376 9.26496C103.55 9.54774 103.786 9.30703 103.803 9.55844C103.815 9.72605 103.707 9.78958 103.413 9.80968L103.19 9.825C102.631 9.8633 102.508 9.70336 102.382 9.71197C102.257 9.72059 102.156 9.89586 101.598 9.93416L101.374 9.94948C101.081 9.96958 100.965 9.92137 100.954 9.75377C100.937 9.50236 101.202 9.69463 101.337 9.40475L99.2263 3.79596C98.8848 2.90724 98.597 3.41812 98.5731 3.06894C98.5616 2.90133 98.6695 2.8378 98.9628 2.81769Z" fill="#99958F"/>
<path d="M92.9537 7.04675C92.7208 4.67817 93.9769 3.28861 95.5095 3.13793C97.0421 2.98726 98.5448 4.1056 98.7776 6.47419C99.0105 8.84277 97.7544 10.2323 96.2218 10.383C94.6892 10.5337 93.1866 9.41533 92.9537 7.04675ZM94.8068 6.86457C94.9876 8.70371 95.5403 9.74663 96.1533 9.68636C96.7664 9.62609 97.1054 8.4955 96.9246 6.65637C96.7437 4.81723 96.1911 3.7743 95.578 3.83458C94.965 3.89485 94.626 5.02544 94.8068 6.86457Z" fill="#99958F"/>
<path d="M89.8633 10.8587C89.8207 10.5113 90.4048 11.0178 90.2512 9.76723L89.4506 3.25022C89.2969 1.99962 88.8528 2.6325 88.8101 2.28511C88.7743 1.9933 89.3786 1.97549 90.0185 1.55835C90.6845 1.1239 90.4819 0.852581 90.8293 0.809905C90.9544 0.794542 90.9975 0.916188 91.0163 1.06904L92.0576 9.54532C92.2112 10.7959 92.6554 10.163 92.698 10.5104C92.7185 10.6772 92.6142 10.7464 92.3224 10.7823L92.1 10.8096C91.5442 10.8779 91.4126 10.7248 91.2875 10.7401C91.1625 10.7555 91.0718 10.9359 90.516 11.0042L90.2936 11.0315C90.0018 11.0673 89.8838 11.0254 89.8633 10.8587Z" fill="#99958F"/>
<path d="M81.4082 5.63089C82.0567 5.17073 81.8437 4.90754 82.1338 4.86031C82.3135 4.83107 82.3614 4.95093 82.3861 5.10293L82.4513 5.50366C82.7017 5.03738 83.0458 4.71186 83.4742 4.64214C84.4277 4.48694 85.4174 5.68753 85.0446 6.27303L84.2502 7.57962C84.2062 7.65771 84.1554 7.69434 84.114 7.70109C83.8929 7.73708 83.6117 7.22966 83.4857 6.45584C83.398 5.91693 83.238 5.63093 83.0445 5.66242C82.6438 5.72764 82.6701 6.6737 82.782 7.53493L83.3083 10.7684C83.5107 12.012 83.9297 11.3622 83.986 11.7077C84.013 11.8735 83.9114 11.9468 83.6212 11.994L83.4001 12.03C82.8474 12.12 82.7099 11.9721 82.5855 11.9924C82.4612 12.0126 82.3776 12.1964 81.8249 12.2864L81.6038 12.3224C81.3136 12.3696 81.1941 12.3323 81.1671 12.1665C81.1108 11.8211 81.7143 12.3044 81.5119 11.0608L80.9069 7.34368C80.7472 6.36259 80.2854 6.74981 80.2292 6.40436C80.1819 6.11418 80.7851 6.07274 81.4082 5.63089Z" fill="#99958F"/>
<path d="M73.283 6.85859C73.2513 6.69361 73.3507 6.6175 73.6395 6.56207L73.8595 6.51984C74.4094 6.41428 74.5511 6.55815 74.6748 6.5344C74.7986 6.51064 74.8769 6.32454 75.4268 6.21897L75.6468 6.17674C75.9355 6.12132 76.0561 6.1552 76.0878 6.32019C76.1538 6.66391 75.5368 6.19786 75.7744 7.43527L76.3339 10.35C76.5899 11.6837 77.0159 12.3432 77.4833 12.2535C77.8958 12.1743 78.1181 11.4759 77.9218 10.2306L77.328 7.13703C77.0905 5.89962 76.69 6.56098 76.624 6.21726C76.5923 6.05227 76.6917 5.97616 76.9805 5.92074L77.2005 5.87851C77.7504 5.77294 77.8921 5.91681 78.0158 5.89306C78.1396 5.86931 78.2179 5.68321 78.7678 5.57764L78.9878 5.53541C79.2766 5.47999 79.3971 5.51387 79.4288 5.67886C79.4948 6.02258 78.8778 5.55652 79.1154 6.79393L79.7989 10.3549C79.9863 11.3311 80.437 10.931 80.5029 11.2747C80.5584 11.5634 79.9566 11.6219 79.3462 12.0812C78.711 12.5595 78.9314 12.8166 78.6427 12.872C78.464 12.9063 78.4127 12.7879 78.3837 12.6366L78.3098 12.2517C78.0177 12.7354 77.5978 13.0726 77.0341 13.1808C75.9342 13.3919 74.9213 12.6455 74.5597 10.7619L73.987 7.77837C73.7495 6.54096 73.349 7.20232 73.283 6.85859Z" fill="#99958F"/>
<path d="M67.4984 11.5467C66.9614 9.22807 68.0274 7.68785 69.5277 7.34041C71.028 6.99296 72.6625 7.90777 73.1995 10.2264C73.7365 12.545 72.6705 14.0853 71.1702 14.4327C69.6699 14.7801 68.0354 13.8653 67.4984 11.5467ZM69.3124 11.1266C69.7293 12.927 70.4121 13.8897 71.0123 13.7508C71.6124 13.6118 71.8025 12.4469 71.3855 10.6465C70.9686 8.84615 70.2858 7.88338 69.6856 8.02236C69.0855 8.16134 68.8955 9.32626 69.3124 11.1266Z" fill="#99958F"/>
<path d="M61.5589 16.6871C61.464 16.3502 62.1183 16.7622 61.7766 15.5494L59.9958 9.22952C59.654 8.01675 59.3111 8.70972 59.2162 8.37284C59.1365 8.08986 59.7311 7.98049 60.3003 7.47103C60.8926 6.9405 60.6511 6.70309 60.988 6.60816C61.1093 6.57399 61.1704 6.68767 61.2122 6.8359L63.5283 15.0558C63.8701 16.2686 64.213 15.5756 64.3079 15.9125C64.3535 16.0742 64.2609 16.1585 63.9779 16.2382L63.7623 16.299C63.2233 16.4508 63.0699 16.3195 62.9486 16.3537C62.8273 16.3879 62.7651 16.5799 62.2261 16.7318L62.0105 16.7926C61.7275 16.8723 61.6045 16.8488 61.5589 16.6871Z" fill="#99958F"/>
<path d="M58.3603 17.6381C58.2602 17.3028 58.9207 17.7046 58.5602 16.4972L56.6816 10.2057C56.3211 8.99838 55.989 9.69659 55.8889 9.36122C55.8048 9.07951 56.3976 8.96093 56.9588 8.4427C57.5428 7.90305 57.2977 7.66941 57.6331 7.56927C57.7538 7.53322 57.8167 7.64594 57.8608 7.7935L60.3042 15.9765C60.6647 17.1838 60.9968 16.4856 61.0969 16.821C61.145 16.982 61.0537 17.0677 60.772 17.1518L60.5573 17.2159C60.0207 17.3761 59.8654 17.2472 59.7446 17.2832C59.6239 17.3193 59.5646 17.5123 59.0281 17.6725L58.8134 17.7366C58.5317 17.8207 58.4084 17.7991 58.3603 17.6381Z" fill="#99958F"/>
<path d="M54.5577 14.5416L54.337 13.8773C54.1648 13.3591 53.6699 12.4909 53.165 12.6586C52.8594 12.7601 52.828 13.1541 53.0487 13.8184C53.2738 14.496 53.2822 14.9653 53.0829 15.0315C53.0431 15.0448 52.9988 15.0447 52.9324 15.0225L51.6711 14.5564C51.5339 14.4987 51.4499 14.3791 51.4058 14.2462C51.1984 13.6218 51.7884 12.3783 53.1303 11.9325C54.4456 11.4956 55.6669 12.1077 56.0642 13.3035L57.2603 16.904C57.6576 18.0997 57.9682 17.3917 58.0785 17.7238C58.1315 17.8833 58.0429 17.9717 57.7638 18.0644L57.5513 18.135C57.0198 18.3116 56.8606 18.1875 56.741 18.2272C56.6347 18.2625 56.515 18.4793 56.1031 18.6161C55.9835 18.6559 55.8951 18.5672 55.8553 18.4477L55.6876 17.9428C55.4524 18.4782 55.1731 18.9251 54.4556 19.1635C53.5256 19.4724 52.7601 19.1219 52.4687 18.245C51.9523 16.6906 53.7197 15.7494 54.5577 14.5416ZM54.9572 17.8314C55.2761 17.7255 55.4002 17.5662 55.4713 17.2918L54.7475 15.1129C54.4103 15.8297 53.7943 16.4622 54.1032 17.3922C54.2754 17.9104 54.5985 17.9506 54.9572 17.8314Z" fill="#99958F"/>
<path d="M40.9486 14.2059C41.4799 13.6143 41.2142 13.4044 41.4868 13.2945C41.6556 13.2265 41.7287 13.3329 41.7863 13.4757L42.9799 16.4361C43.1734 15.9052 43.5206 15.4935 44.053 15.2789C45.0918 14.8601 46.2293 15.3977 46.9465 17.1766L48.1348 20.1241C48.606 21.2927 48.8718 20.5666 49.0027 20.8912C49.0655 21.047 48.9825 21.1409 48.7099 21.2508L48.5021 21.3345C47.9827 21.5439 47.816 21.43 47.6992 21.4771C47.5823 21.5242 47.5413 21.7219 47.0219 21.9313L46.8141 22.0151C46.5415 22.125 46.4167 22.115 46.3538 21.9592C46.223 21.6345 46.918 21.9732 46.4469 20.8046L45.2847 17.9221C44.7769 16.6626 44.232 16.0973 43.7906 16.2753C43.401 16.4324 43.3172 17.1605 43.7494 18.3448L44.9796 21.3962C45.4508 22.5648 45.7166 21.8387 45.8474 22.1633C45.9103 22.3191 45.8273 22.413 45.5547 22.5229L45.3469 22.6066C44.8275 22.816 44.6608 22.7021 44.544 22.7492C44.4271 22.7963 44.3861 22.994 43.8667 23.2034L43.6589 23.2872C43.3863 23.3971 43.2614 23.3871 43.1986 23.2313C43.0677 22.9066 43.7628 23.2453 43.2917 22.0767L40.8365 15.987C40.4648 15.0651 40.0995 15.5445 39.9686 15.2199C39.8587 14.9472 40.438 14.774 40.9486 14.2059Z" fill="#99958F"/>
<path d="M35.8885 18.9473C36.0507 18.7966 36.3461 18.6007 36.5997 18.1778C37.0675 17.3805 36.6155 16.894 36.9978 16.72C37.1762 16.6389 37.2538 16.742 37.3176 16.8822L37.851 18.0545L38.6538 17.6893C39.0361 17.5154 39.326 18.1525 38.9437 18.3265L38.1408 18.6917L39.4974 21.6736C40.1351 23.0754 40.5177 23.9164 40.9 23.7425C41.2059 23.6034 40.9509 23.2118 40.6958 22.6511C40.4465 22.1032 40.4162 21.5633 40.6073 21.4763C40.6583 21.4531 40.7209 21.4554 40.8008 21.4959L42.1868 22.142C42.8149 22.4407 42.7064 23.6898 41.1389 24.4029C40.3361 24.7681 39.035 25.0524 37.9335 22.6312L36.7103 19.9423C36.6117 19.7257 36.5236 19.5658 36.4332 19.4685L36.2421 19.5555C35.8853 19.7178 35.5989 19.156 35.8885 18.9473Z" fill="#99958F"/>
<path d="M35.622 25.6295L33.9422 22.2589C33.3802 21.1312 33.1726 21.8759 33.0165 21.5627C32.8853 21.2996 33.4491 21.0812 33.9132 20.4745C34.3961 19.8427 34.1147 19.6545 34.4279 19.4984C34.5407 19.4422 34.6219 19.5425 34.6906 19.6803L37.2509 24.8177C37.8129 25.9454 38.0205 25.2006 38.1766 25.5139C38.2515 25.6643 38.1763 25.7643 37.9131 25.8955L37.7126 25.9954C37.2114 26.2452 37.0363 26.1448 36.9235 26.201C36.8107 26.2572 36.7854 26.4575 36.2842 26.7073L36.0837 26.8072C35.8206 26.9383 35.6954 26.9381 35.6204 26.7878C35.4643 26.4745 36.184 26.7572 35.622 25.6295ZM32.5648 17.4549C33.1412 17.1676 33.7232 17.3625 34.0105 17.9389C34.304 18.5278 34.1091 19.1098 33.5327 19.3971C32.9438 19.6906 32.3618 19.4957 32.0683 18.9068C31.781 18.3304 31.9759 17.7484 32.5648 17.4549Z" fill="#99958F"/>
<path d="M24.3288 24.9856L24.5245 24.8766C25.0138 24.6042 25.1934 24.6965 25.3035 24.6353C25.4136 24.574 25.4297 24.3727 25.919 24.1003L26.1147 23.9914C26.3716 23.8484 26.4967 23.8428 26.5784 23.9896C26.7487 24.2954 26.0319 24.1016 26.7846 24.9644L29.5504 28.1195L28.1874 24.3758L27.9438 24.1108C27.3109 23.4056 27.2135 24.0367 27.0433 23.7309C26.9615 23.5841 27.0322 23.4807 27.289 23.3377L27.4848 23.2287C27.9741 22.9563 28.1536 23.0486 28.2637 22.9874C28.3738 22.9261 28.39 22.7248 28.8793 22.4524L29.075 22.3435C29.3318 22.2005 29.4569 22.1949 29.5387 22.3417C29.7089 22.6475 28.9921 22.4537 29.7448 23.3165L32.5107 26.4716L31.134 22.7034C30.706 21.5316 30.3845 22.3355 30.1938 21.993C30.0985 21.8218 30.4233 21.657 30.7046 21.5004L30.8025 21.4459C30.9982 21.3369 31.1166 21.4633 31.1533 21.4429C31.2023 21.4156 31.1572 21.2484 31.3407 21.1463L31.512 21.0509C31.7933 20.8943 31.9429 20.8751 32.0042 20.9852C32.1948 21.3277 31.3176 21.1912 31.7456 22.3629L33.6075 27.4633C33.9191 27.7064 34.048 27.3623 34.1706 27.5825C34.2523 27.7293 34.1817 27.8327 33.9248 27.9757L33.7291 28.0846C33.3621 28.2889 33.1676 28.285 33.0493 28.3028C33.0181 28.3042 32.9746 28.3124 32.9501 28.326C32.9256 28.3396 32.8958 28.3723 32.8781 28.3981C32.8007 28.4893 32.7015 28.6566 32.3346 28.8609L32.1389 28.9699C31.9309 29.0856 31.8126 29.1034 31.7283 29.0382C31.7024 29.0206 31.6888 28.9961 31.6752 28.9716C31.5526 28.7514 31.913 28.8232 31.8773 28.4425L29.4138 25.744L30.6473 29.1112C30.9589 29.3543 31.0878 29.0102 31.2103 29.2304C31.224 29.2549 31.2376 29.2793 31.239 29.3106C31.2499 29.4166 31.1725 29.5078 30.9645 29.6236L30.7688 29.7325C30.2795 30.0049 30.1 29.9126 29.9899 29.9739C29.8798 30.0352 29.8636 30.2364 29.3743 30.5088L29.1786 30.6178C28.9217 30.7608 28.7966 30.7663 28.7149 30.6195C28.5924 30.3993 28.9528 30.4711 28.9171 30.0904L24.9835 25.7587C24.3506 25.0535 24.2533 25.6846 24.083 25.3788C24.0013 25.232 24.0719 25.1286 24.3288 24.9856Z" fill="#99958F"/>
<path d="M16.6034 30.2004C16.7365 30.0235 16.9928 29.7787 17.168 29.3177C17.4882 28.4505 16.9576 28.0511 17.3033 27.8126C17.4647 27.7013 17.5592 27.7892 17.6467 27.9159L18.3781 28.9761L19.1041 28.4753C19.4498 28.2368 19.8473 28.813 19.5016 29.0515L18.7755 29.5523L20.6357 32.249C21.5102 33.5166 22.0349 34.2772 22.3806 34.0387C22.6572 33.8479 22.3372 33.5074 21.9874 33.0003C21.6456 32.5048 21.5208 31.9786 21.6936 31.8594C21.7397 31.8276 21.8017 31.8188 21.8876 31.8447L23.3656 32.2367C24.0364 32.4203 24.1494 33.6689 22.732 34.6467C22.006 35.1475 20.7752 35.6564 19.2648 33.4668L17.5874 31.0352C17.4523 30.8393 17.3374 30.6975 17.2313 30.6176L17.0585 30.7368C16.7358 30.9594 16.355 30.4567 16.6034 30.2004Z" fill="#99958F"/>
<path d="M12.149 34.2727C12.4963 33.5574 12.183 33.4291 12.4147 33.2481C12.5581 33.1361 12.6577 33.2182 12.7525 33.3396L12.9938 33.6485C13.0332 33.0849 13.2533 32.5933 13.7057 32.24C14.5885 31.5507 15.8303 31.7534 17.0107 33.2651L18.9666 35.77C19.742 36.7631 19.797 35.9919 20.0124 36.2677C20.1158 36.4002 20.062 36.5132 19.8303 36.6942L19.6538 36.832C19.2124 37.1767 19.0207 37.1132 18.9214 37.1907C18.8221 37.2683 18.8372 37.4696 18.3958 37.8143L18.2193 37.9521C17.9875 38.1331 17.8648 38.1579 17.7614 38.0254C17.546 37.7496 18.3075 37.8832 17.5321 36.8901L15.6193 34.4404C14.7835 33.3701 14.1037 32.9772 13.7286 33.2702C13.3975 33.5287 13.518 34.2517 14.2604 35.2706L16.2852 37.8637C17.0606 38.8568 17.1157 38.0856 17.3311 38.3615C17.4345 38.4939 17.3806 38.607 17.1489 38.7879L16.9724 38.9258C16.531 39.2704 16.3393 39.2069 16.24 39.2845C16.1407 39.362 16.1558 39.5634 15.7144 39.908L15.5379 40.0459C15.3062 40.2268 15.1834 40.2516 15.08 40.1192C14.8646 39.8433 15.6262 39.9769 14.8507 38.9838L12.5329 36.0156C11.9212 35.2321 11.7025 35.7937 11.4871 35.5178C11.3061 35.2861 11.8151 34.9597 12.149 34.2727Z" fill="#99958F"/>
<path d="M8.00826 36.9875C8.90971 36.1684 10.3544 36.0096 11.1264 36.8592C11.9737 37.7918 11.6287 39.4105 10.7479 40.2108C10.3645 40.5591 10.0142 40.6316 9.70814 40.607C10.8577 41.8513 11.8577 42.2857 12.6556 41.5608C13.3809 40.9017 13.1786 39.9505 12.9302 39.344C12.8502 39.1519 12.8766 39.0144 12.9491 38.9485C13.0423 38.8637 13.2184 38.9118 13.3568 39.1266C13.788 39.8509 13.9816 41.3963 12.8314 42.4414C11.6813 43.4864 9.80818 43.4859 8.20766 41.7245C6.60714 39.963 6.88922 38.0043 8.00826 36.9875ZM10.2875 39.8914C10.6605 39.5525 10.5608 38.9432 9.91121 38.2282C9.29925 37.5547 8.68623 37.3172 8.40647 37.5714C8.0231 37.9198 8.40705 39.0085 9.28542 40.121C9.62914 40.187 10.0388 40.1174 10.2875 39.8914Z" fill="#99958F"/>
<path d="M7.2452 44.9397C5.8811 43.6723 3.30901 46.1939 0.991067 44.0403C-0.301239 42.8396 -0.267832 41.3227 0.732737 40.2458C1.96201 38.9227 3.64371 39.1284 4.31038 39.7478C4.45397 39.8812 4.56897 40.0454 4.58577 40.233L4.72236 41.7931C4.72527 41.8723 4.71792 41.9419 4.6798 41.9829C4.5178 42.1573 3.92213 41.8522 3.19393 41.1757C2.48624 40.5181 1.86343 40.2835 1.50132 40.6732C1.08203 41.1245 1.45038 41.9827 1.97346 42.4687C2.62987 43.0786 3.42129 43.0495 4.25673 42.8702C5.5436 42.5752 6.95806 41.9784 8.18883 43.1219C9.28626 44.1415 9.42285 45.7017 8.1364 47.0863C7.02148 48.2863 5.19233 48.6507 4.33079 47.8503C4.14617 47.6787 3.96891 47.4376 3.86714 47.0946L3.45494 45.8517C3.37732 45.6267 3.40155 45.4772 3.46825 45.4054C3.66837 45.19 4.30216 45.454 4.80472 45.921C5.7278 46.7786 6.90162 47.1812 7.50196 46.5351C7.98795 46.012 7.61443 45.2828 7.2452 44.9397Z" fill="#99958F"/>
</svg>
