<svg width="233" height="49" viewBox="0 0 233 49" fill="none" xmlns="http://www.w3.org/2000/svg">
<path d="M222.384 45.7942L223.8 45.7978C223.899 45.8016 223.958 45.8236 224.005 45.8749C224.158 46.0391 223.984 46.4487 223.563 46.839C222.998 47.3627 222.906 47.7158 223.201 48.034C223.525 48.383 223.926 48.2396 225.445 47.3654L225.026 46.9138C224.817 46.688 224.758 46.4183 224.916 46.1567L227.933 41.0097C228.409 40.1855 227.831 40.2827 228.088 40.0446C228.211 39.9304 228.328 39.9744 228.528 40.19L228.68 40.3542C229.061 40.7647 229.014 40.9611 229.1 41.0535C229.186 41.1459 229.385 41.1137 229.766 41.5243L229.918 41.6885C230.118 41.904 230.153 42.0242 230.03 42.1385C229.773 42.3765 229.724 41.5821 229.132 42.5704L226.65 46.6676L230.629 44.3899C231.723 43.7573 230.808 43.5744 231.096 43.3078C231.239 43.1745 231.477 43.4509 231.696 43.687L231.772 43.7691C231.924 43.9333 231.83 44.0784 231.858 44.1092C231.896 44.1502 232.048 44.0667 232.191 44.2207L232.324 44.3644C232.543 44.6005 232.597 44.7412 232.505 44.8269C232.217 45.0935 232.199 44.2705 231.105 44.9031L225.901 47.8976C223.886 49.0603 223.288 49.1567 222.621 48.4382C221.669 47.4118 221.69 45.788 222.384 45.7942Z" fill="#99958F"/>
<path d="M224.532 36.5805C224.734 36.6725 225.028 36.8702 225.516 36.9423C226.431 37.0688 226.708 36.4648 227.015 36.7512C227.158 36.8849 227.093 36.9961 226.988 37.1087L226.109 38.0508L226.754 38.6523C227.061 38.9387 226.584 39.4506 226.277 39.1642L225.632 38.5627L223.398 40.9588C222.347 42.0851 221.717 42.7609 222.025 43.0473C222.27 43.2765 222.534 42.8908 222.954 42.4403C223.365 42 223.852 41.765 224.005 41.9082C224.046 41.9464 224.068 42.0051 224.061 42.0945L223.996 43.6222C223.961 44.3169 222.766 44.6954 221.506 43.5211C220.861 42.9196 220.1 41.8269 221.914 39.8814L223.928 37.7209C224.091 37.5468 224.205 37.4042 224.26 37.2834L224.106 37.1402C223.819 36.8728 224.229 36.393 224.532 36.5805Z" fill="#99958F"/>
<path d="M218.215 38.9184L220.632 36.031C221.441 35.0649 220.676 35.1725 220.9 34.9041C221.089 34.6787 221.515 35.1081 222.256 35.2909C223.028 35.481 223.088 35.1477 223.357 35.3724C223.453 35.4533 223.394 35.5679 223.295 35.686L219.61 40.0869C218.801 41.0529 219.567 40.9454 219.342 41.2137C219.234 41.3425 219.112 41.3136 218.887 41.1248L218.715 40.981C218.286 40.6215 218.308 40.4208 218.211 40.3399C218.115 40.259 217.921 40.3159 217.491 39.9564L217.32 39.8126C217.094 39.6238 217.044 39.509 217.152 39.3802C217.377 39.1118 217.406 39.8845 218.215 38.9184ZM224.485 32.8476C224.979 33.2611 225.033 33.8724 224.619 34.3662C224.197 34.8707 223.585 34.9248 223.092 34.5114C222.587 34.0889 222.533 33.4776 222.955 32.9731C223.369 32.4793 223.98 32.4252 224.485 32.8476Z" fill="#99958F"/>
<path d="M217.885 31.8473C218.665 32.0044 218.711 31.6689 218.944 31.8479C219.088 31.9587 219.034 32.0757 218.94 32.1979L218.693 32.52C219.204 32.3829 219.677 32.4105 220.021 32.6748C220.787 33.263 220.591 34.8065 219.909 34.9361L218.413 35.2526C218.326 35.274 218.264 35.2621 218.231 35.2366C218.053 35.1002 218.23 34.5477 218.708 33.9258C219.04 33.4927 219.139 33.1802 218.984 33.0608C218.661 32.8136 217.99 33.481 217.44 34.1524L215.445 36.7511C214.678 37.7506 215.438 37.6107 215.225 37.8883C215.123 38.0216 215 37.9978 214.766 37.8188L214.589 37.6824C214.145 37.3414 214.158 37.1399 214.058 37.0632C213.958 36.9865 213.767 37.0515 213.323 36.7106L213.145 36.5742C212.912 36.3951 212.857 36.2825 212.959 36.1493C213.173 35.8716 213.234 36.6424 214.001 35.6429L216.294 32.6555C216.9 31.8671 216.301 31.796 216.514 31.5183C216.693 31.2851 217.137 31.6961 217.885 31.8473Z" fill="#99958F"/>
<path d="M214.343 28.5427C215.35 29.2269 215.843 30.5941 215.198 31.5438C214.491 32.5862 212.836 32.6304 211.852 31.9619C211.423 31.6709 211.271 31.3473 211.223 31.044C210.283 32.4533 210.095 33.5273 210.987 34.1329C211.797 34.6834 212.675 34.2637 213.206 33.88C213.374 33.7571 213.514 33.7506 213.595 33.8056C213.699 33.8764 213.694 34.0588 213.517 34.2437C212.914 34.8327 211.457 35.3833 210.172 34.5104C208.886 33.6374 208.447 31.8164 209.784 29.8474C211.121 27.8784 213.092 27.6933 214.343 28.5427ZM212.054 31.4394C212.471 31.7225 213.04 31.4827 213.583 30.6835C214.094 29.9307 214.181 29.2791 213.868 29.0667C213.44 28.7757 212.471 29.4043 211.596 30.5191C211.612 30.8687 211.776 31.2506 212.054 31.4394Z" fill="#99958F"/>
<path d="M205.756 27.5713C204.877 29.0523 204.741 30.1598 205.68 30.717C206.523 31.2171 207.373 30.7447 207.88 30.3293C208.04 30.1964 208.18 30.1813 208.264 30.2313C208.372 30.2956 208.378 30.4781 208.213 30.6734C207.647 31.298 206.227 31.9365 204.89 31.1435C203.554 30.3505 203.005 28.5596 204.219 26.5128C205.434 24.466 207.389 24.1611 208.629 24.8969C210.026 25.7256 210.11 27.6964 209.438 27.8678L207.87 28.2885C207.793 28.308 207.731 28.3035 207.683 28.275C207.49 28.1607 207.612 27.5982 208.041 26.8758C208.348 26.3581 208.501 25.6346 208.248 25.4846C207.826 25.2346 206.763 25.8737 205.756 27.5713Z" fill="#99958F"/>
<path d="M200.548 21.1682C201.342 21.1912 201.331 20.8528 201.591 20.9898C201.752 21.0746 201.718 21.1991 201.646 21.3354L201.464 21.6822C201.994 21.4867 202.532 21.4855 203.04 21.753C204.031 22.2748 204.356 23.4903 203.463 25.1874L201.982 27.9994C201.395 29.1142 202.121 28.8477 201.958 29.1574C201.879 29.306 201.754 29.3034 201.494 29.1664L201.296 29.062C200.8 28.8011 200.779 28.6003 200.668 28.5416C200.557 28.4829 200.379 28.5793 199.884 28.3184L199.685 28.2141C199.425 28.0771 199.352 27.9753 199.431 27.8267C199.594 27.517 199.785 28.2662 200.372 27.1514L201.82 24.4013C202.452 23.1997 202.531 22.4186 202.11 22.1968C201.739 22.0011 201.129 22.4079 200.505 23.5032L198.972 26.4143C198.385 27.5291 199.111 27.2626 198.947 27.5723C198.869 27.7209 198.744 27.7183 198.484 27.5813L198.286 27.477C197.79 27.216 197.769 27.0152 197.658 26.9565C197.546 26.8978 197.369 26.9943 196.873 26.7333L196.675 26.629C196.415 26.492 196.342 26.3903 196.42 26.2416C196.583 25.9319 196.774 26.6812 197.361 25.5663L199.116 22.234C199.579 21.3545 198.977 21.3857 199.14 21.076C199.277 20.8159 199.784 21.1459 200.548 21.1682Z" fill="#99958F"/>
<path d="M194.32 24.0869L195.935 20.6844C196.475 19.5461 195.761 19.8426 195.911 19.5264C196.037 19.2608 196.557 19.5694 197.321 19.5599C198.116 19.5498 198.09 19.2121 198.406 19.3621C198.52 19.4162 198.491 19.542 198.425 19.6811L195.965 24.867C195.425 26.0054 196.139 25.7089 195.989 26.0251C195.917 26.1769 195.791 26.1794 195.526 26.0534L195.323 25.9574C194.818 25.7174 194.788 25.5176 194.674 25.4636C194.561 25.4095 194.387 25.5133 193.882 25.2733L193.679 25.1773C193.414 25.0512 193.336 24.9526 193.408 24.8008C193.558 24.4846 193.78 25.2253 194.32 24.0869ZM198.863 16.6349C199.445 16.9109 199.651 17.4891 199.375 18.0709C199.093 18.6654 198.515 18.8714 197.933 18.5954C197.339 18.3133 197.133 17.7352 197.415 17.1407C197.691 16.5589 198.269 16.3528 198.863 16.6349Z" fill="#99958F"/>
<path d="M191.84 22.6882C192.378 21.4564 189.631 20.1202 190.544 18.0287C191.053 16.861 192.23 16.5802 193.385 17.0842C194.783 17.6946 195.168 18.9472 194.905 19.5502C194.849 19.6786 194.755 19.7901 194.613 19.8351L193.404 20.2242C193.349 20.2459 193.292 20.2363 193.254 20.2195C193.061 20.1355 193.112 19.6689 193.398 19.0145C193.678 18.3729 193.682 17.9777 193.323 17.8209C192.899 17.6361 192.366 17.9837 192.147 18.4842C191.912 19.0231 192.229 19.4517 192.588 19.9596C193.193 20.8496 194.059 21.8389 193.55 23.0065C193.118 23.9945 191.961 24.406 190.498 23.7677C189.215 23.2077 188.348 21.9739 188.69 21.1912C188.763 21.0244 188.898 20.8544 189.116 20.7051L189.947 20.1664C190.098 20.0645 190.211 20.0523 190.3 20.0915C190.531 20.1923 190.526 20.6941 190.33 21.1432C189.966 21.9773 190.06 22.8125 190.753 23.1149C191.305 23.3557 191.695 23.0218 191.84 22.6882Z" fill="#99958F"/>
<path d="M182.58 12.9524C182.801 12.9591 183.149 13.0271 183.627 12.9042C184.52 12.6654 184.54 12.0016 184.934 12.1464C185.118 12.214 185.101 12.3419 185.048 12.4865L184.604 13.6955L185.432 13.9995C185.826 14.1443 185.585 14.8014 185.19 14.6566L184.362 14.3526L183.233 17.4279C182.702 18.8735 182.384 19.7409 182.778 19.8856C183.094 20.0015 183.187 19.5436 183.4 18.9654C183.607 18.4003 183.965 17.9947 184.162 18.0671C184.214 18.0864 184.257 18.132 184.286 18.217L184.818 19.6504C185.056 20.3042 184.101 21.117 182.484 20.5234C181.656 20.2194 180.531 19.5078 181.448 17.0108L182.466 14.2378C182.548 14.0144 182.597 13.8388 182.601 13.706L182.404 13.6336C182.036 13.4985 182.227 12.8975 182.58 12.9524Z" fill="#99958F"/>
<path d="M176.888 18.3237C176.999 17.9918 177.308 18.7007 177.708 17.506L179.795 11.2805C180.196 10.0858 179.522 10.4654 179.633 10.1336C179.727 9.85482 180.28 10.0993 181.037 9.99871C181.825 9.89379 181.759 9.56164 182.091 9.67288C182.211 9.71293 182.197 9.84129 182.148 9.98731L179.434 18.0845C179.033 19.2791 179.707 18.8995 179.596 19.2314C179.542 19.3907 179.418 19.4082 179.14 19.3147L178.927 19.2435C178.396 19.0656 178.343 18.8707 178.224 18.8306C178.105 18.7906 177.945 18.9143 177.414 18.7363L177.202 18.6651C176.923 18.5716 176.834 18.483 176.888 18.3237Z" fill="#99958F"/>
<path d="M175.963 10.6555C177.128 11.0118 178.003 12.1725 177.667 13.2703C177.298 14.4751 175.731 15.0057 174.593 14.6575C174.097 14.506 173.856 14.2418 173.721 13.9662C173.239 15.5902 173.376 16.6718 174.407 16.9871C175.344 17.2738 176.058 16.6139 176.453 16.0904C176.577 15.9235 176.709 15.8759 176.803 15.9046C176.923 15.9415 176.972 16.1174 176.858 16.3461C176.455 17.0868 175.226 18.0429 173.74 17.5883C172.254 17.1336 171.297 15.5233 171.994 13.2474C172.69 10.9715 174.518 10.2131 175.963 10.6555ZM174.632 14.0985C175.114 14.246 175.587 13.849 175.869 12.9252C176.136 12.055 176.026 11.4068 175.665 11.2962C175.17 11.1446 174.43 12.031 173.923 13.3545C174.041 13.6837 174.311 14.0002 174.632 14.0985Z" fill="#99958F"/>
<path d="M168.806 10.0304L168.549 9.96158C168.144 9.85283 168.325 9.1767 168.731 9.28545L168.988 9.35432L169.125 8.84046C169.814 6.27118 171.144 6.33784 171.996 6.56621C173.659 7.01208 173.972 8.22634 173.401 8.6242L172.14 9.4892C172.068 9.54231 172.007 9.55486 171.953 9.54036C171.75 9.48599 171.691 8.94843 171.847 8.36695C172.006 7.77196 172.194 7.34384 171.869 7.25684C171.463 7.1481 171.224 8.04058 170.825 9.52807L170.746 9.82556L171.598 10.0539C172.003 10.1627 171.822 10.8388 171.416 10.7301L170.564 10.5017L169.361 14.9912C169.035 16.2082 169.684 15.7879 169.593 16.126C169.549 16.2882 169.427 16.3133 169.143 16.2372L168.926 16.1792C168.386 16.0342 168.321 15.8429 168.199 15.8103C168.077 15.7777 167.926 15.911 167.385 15.766L167.169 15.708C166.885 15.6319 166.791 15.5488 166.834 15.3865C166.925 15.0484 167.277 15.737 167.603 14.5199L168.806 10.0304Z" fill="#99958F"/>
<path d="M163.66 7.49092C163.88 7.47245 164.234 7.50062 164.694 7.32433C165.554 6.98575 165.499 6.32398 165.907 6.42309C166.098 6.46934 166.095 6.59839 166.059 6.74804L165.755 7.99967L166.612 8.20779C167.02 8.3069 166.855 8.98713 166.447 8.88803L165.59 8.6799L164.817 11.8634C164.453 13.3599 164.235 14.2578 164.643 14.3569C164.97 14.4362 165.011 13.9707 165.156 13.3721C165.298 12.7871 165.608 12.3436 165.812 12.3932C165.866 12.4064 165.914 12.4468 165.952 12.528L166.644 13.8918C166.953 14.5145 166.097 15.4303 164.424 15.0239C163.567 14.8158 162.368 14.2365 162.995 11.6516L163.692 8.78102C163.748 8.54974 163.778 8.36958 163.767 8.23722L163.563 8.18767C163.182 8.09517 163.303 7.47635 163.66 7.49092Z" fill="#99958F"/>
<path d="M159.303 7.06155C160.075 6.86845 159.972 6.54584 160.259 6.60726C160.437 6.64529 160.438 6.77436 160.406 6.92496L160.321 7.322C160.724 6.97855 161.163 6.80032 161.587 6.89099C162.532 7.09282 163.018 8.57096 162.458 8.981L161.243 9.90968C161.174 9.96644 161.113 9.98212 161.072 9.97334C160.853 9.92654 160.775 9.35164 160.939 8.58494C161.053 8.05099 161.008 7.72639 160.816 7.68544C160.419 7.60061 160.1 8.49159 159.891 9.33458L159.207 12.5383C158.944 13.7705 159.57 13.3174 159.497 13.6596C159.462 13.8239 159.341 13.8553 159.053 13.7939L158.834 13.7471C158.287 13.6301 158.212 13.4424 158.089 13.4161C157.966 13.3897 157.821 13.5306 157.273 13.4136L157.054 13.3668C156.767 13.3054 156.669 13.2272 156.704 13.0629C156.777 12.7207 157.164 13.3902 157.427 12.158L158.214 8.47514C158.422 7.50308 157.851 7.69605 157.924 7.35378C157.985 7.06627 158.562 7.24681 159.303 7.06155Z" fill="#99958F"/>
<path d="M154.858 8.52007L154.984 7.83148C155.082 7.29438 155.066 6.29511 154.543 6.19945C154.226 6.14155 154.009 6.47193 153.883 7.16052C153.755 7.86288 153.536 8.27841 153.33 8.24065C153.288 8.2331 153.25 8.21177 153.202 8.16039L152.32 7.14528C152.228 7.02874 152.212 6.88347 152.237 6.74575C152.355 6.09848 153.47 5.29185 154.861 5.5461C156.225 5.79531 157.001 6.91926 156.775 8.15872L156.092 11.8909C155.866 13.1304 156.479 12.6588 156.416 13.0031C156.385 13.1684 156.265 13.2034 155.976 13.1505L155.756 13.1102C155.205 13.0095 155.125 12.8241 155.001 12.8015C154.891 12.7813 154.681 12.9139 154.255 12.8358C154.131 12.8132 154.096 12.6929 154.118 12.569L154.214 12.0457C153.75 12.4021 153.291 12.6596 152.547 12.5237C151.583 12.3475 151.08 11.6721 151.246 10.7631C151.541 9.15183 153.543 9.17624 154.858 8.52007ZM153.627 11.5968C153.958 11.6572 154.143 11.5773 154.337 11.3708L154.75 9.11226C154.11 9.57873 153.266 9.83714 153.089 10.8012C152.991 11.3383 153.255 11.5289 153.627 11.5968Z" fill="#99958F"/>
<path d="M148.84 4.54025C150.044 4.72158 151.08 5.74114 150.909 6.87634C150.721 8.1223 149.249 8.87745 148.072 8.70029C147.56 8.62318 147.282 8.39735 147.108 8.14458C146.869 9.82179 147.165 10.8714 148.23 11.0319C149.2 11.1778 149.809 10.4201 150.122 9.84431C150.221 9.66092 150.344 9.59453 150.441 9.60912C150.566 9.62787 150.64 9.79475 150.56 10.0377C150.271 10.8295 149.196 11.9559 147.659 11.7245C146.122 11.4932 144.939 10.0409 145.294 7.68741C145.648 5.33393 147.345 4.31515 148.84 4.54025ZM148.029 8.14162C148.527 8.21665 148.936 7.75444 149.08 6.79921C149.216 5.89935 149.012 5.27413 148.639 5.21786C148.126 5.14074 147.525 6.12619 147.218 7.50984C147.384 7.81799 147.696 8.0916 148.029 8.14162Z" fill="#99958F"/>
<path d="M140.334 1.255C141.084 0.990812 140.952 0.679199 141.244 0.713545C141.424 0.734807 141.438 0.863215 141.42 1.01616L141.047 4.1863C141.471 3.81334 141.973 3.61867 142.543 3.68573C143.656 3.81658 144.396 4.83402 144.172 6.73888L143.801 9.89512C143.653 11.1465 144.235 10.6369 144.194 10.9845C144.174 11.1514 144.057 11.1939 143.765 11.1596L143.542 11.1334C142.986 11.068 142.894 10.8881 142.769 10.8733C142.644 10.8586 142.513 11.0124 141.957 10.947L141.735 10.9208C141.443 10.8864 141.338 10.8177 141.358 10.6509C141.398 10.3033 141.846 10.9339 141.993 9.6825L142.356 6.59578C142.515 5.24708 142.308 4.48972 141.835 4.43411C141.418 4.38504 140.995 4.98375 140.806 6.23021L140.422 9.49768C140.275 10.7491 140.856 10.2395 140.815 10.5871C140.796 10.754 140.678 10.7965 140.386 10.7621L140.163 10.736C139.607 10.6705 139.516 10.4906 139.391 10.4759C139.265 10.4612 139.135 10.6149 138.578 10.5495L138.356 10.5233C138.064 10.489 137.959 10.4203 137.979 10.2535C138.02 9.90585 138.467 10.5364 138.614 9.28506L139.381 2.76402C139.498 1.77683 138.947 2.0222 138.988 1.6746C139.022 1.38261 139.614 1.50856 140.334 1.255Z" fill="#99958F"/>
<path d="M128.096 5.99214C128.187 4.62317 128.808 2.4617 130.638 2.58368C131.267 2.62558 131.739 2.90962 132.101 3.36873L132.183 2.13946C132.267 0.882246 131.712 1.42052 131.735 1.0713C131.755 0.777948 132.352 0.873864 133.059 0.584235C133.794 0.2825 133.646 -0.0220239 133.995 0.00125509C134.121 0.00963553 134.141 0.137219 134.13 0.290877L133.562 8.81197C133.479 10.0692 134.034 9.5309 134.01 9.88013C133.999 10.0478 133.884 10.0962 133.59 10.0766L133.367 10.0617C132.808 10.0245 132.708 9.84941 132.582 9.84102C132.47 9.83358 132.277 9.9891 131.844 9.96023C131.719 9.95185 131.67 9.83638 131.678 9.71065L131.708 9.26365C131.288 9.67061 130.783 9.88946 130.154 9.84756C128.268 9.72186 128.004 7.37507 128.096 5.99214ZM129.91 6.14112C129.842 7.16086 130.012 9.02432 130.837 9.07926C131.326 9.11185 131.719 8.47859 131.844 7.22417L131.965 5.4082C132.007 4.1482 131.702 3.46838 131.213 3.43579C130.417 3.38271 129.982 5.06551 129.91 6.14112Z" fill="#99958F"/>
<path d="M122.527 2.85675C123.253 2.53187 123.095 2.23219 123.389 2.24244C123.571 2.24879 123.594 2.37569 123.589 2.5296L123.575 2.92136C123.968 2.5148 124.452 2.27956 125.026 2.29959C126.145 2.33866 126.966 3.2919 126.899 5.20873L126.789 8.38479C126.745 9.64403 127.282 9.08845 127.27 9.43824C127.264 9.60613 127.15 9.65819 126.856 9.64793L126.633 9.64012C126.073 9.62058 125.967 9.44878 125.841 9.44438C125.715 9.43999 125.597 9.60398 125.038 9.58444L124.814 9.57662C124.52 9.56637 124.41 9.50649 124.416 9.3386C124.428 8.98881 124.926 9.58053 124.97 8.3213L125.078 5.21519C125.125 3.85802 124.857 3.1202 124.381 3.1036C123.962 3.08894 123.589 3.72034 123.503 4.97811L123.389 8.26611C123.345 9.52534 123.882 8.96976 123.87 9.31955C123.864 9.48744 123.75 9.5395 123.457 9.52925L123.233 9.52143C122.673 9.50189 122.567 9.33009 122.441 9.32569C122.315 9.3213 122.197 9.48529 121.638 9.46575L121.414 9.45794C121.12 9.44768 121.01 9.3878 121.016 9.21991C121.028 8.87012 121.526 9.46184 121.57 8.20261L121.701 4.4389C121.736 3.44551 121.207 3.73525 121.22 3.38546C121.23 3.09164 121.829 3.16861 122.527 2.85675Z" fill="#99958F"/>
<path d="M118.41 5.06701L118.414 4.36703C118.418 3.82104 118.228 2.83983 117.696 2.83652C117.374 2.83451 117.218 3.19755 117.213 3.89753C117.209 4.61152 117.066 5.05864 116.856 5.05733C116.814 5.05707 116.772 5.04281 116.716 5.00046L115.672 4.15393C115.56 4.05524 115.519 3.91498 115.52 3.77498C115.524 3.11699 116.482 2.12894 117.896 2.13775C119.282 2.14639 120.242 3.11839 120.234 4.37836L120.211 8.17229C120.203 9.43227 120.724 8.8615 120.722 9.2115C120.721 9.37949 120.609 9.4348 120.315 9.43296L120.091 9.43157C119.531 9.42808 119.42 9.25939 119.294 9.2586C119.182 9.2579 118.999 9.42477 118.565 9.42206C118.439 9.42128 118.384 9.30893 118.384 9.18293L118.388 8.65094C117.993 9.08249 117.585 9.41596 116.829 9.41125C115.849 9.40514 115.236 8.82731 115.242 7.90333C115.252 6.26536 117.228 5.94167 118.41 5.06701ZM117.732 8.31085C118.068 8.31294 118.236 8.20199 118.392 7.96496L118.406 5.669C117.857 6.23959 117.07 6.6407 117.064 7.62068C117.061 8.16667 117.354 8.30849 117.732 8.31085Z" fill="#99958F"/>
<path d="M108.193 2.28811C109.41 2.24074 110.619 3.04836 110.663 4.1955C110.712 5.45454 109.407 6.47208 108.218 6.51836C107.7 6.5385 107.385 6.36862 107.167 6.15296C107.247 7.84513 107.733 8.82096 108.81 8.77903C109.789 8.74092 110.246 7.8825 110.446 7.25825C110.509 7.05968 110.617 6.97139 110.715 6.96758C110.841 6.96268 110.945 7.11275 110.913 7.36619C110.777 8.1981 109.931 9.50598 108.378 9.56642C106.826 9.62685 105.392 8.42171 105.299 6.04351C105.207 3.66531 106.682 2.34691 108.193 2.28811ZM108.071 5.97767C108.574 5.95807 108.89 5.4274 108.852 4.46213C108.817 3.55282 108.5 2.97669 108.122 2.99139C107.605 3.01154 107.199 4.09216 107.156 5.5089C107.376 5.78052 107.735 5.99074 108.071 5.97767Z" fill="#99958F"/>
<path d="M98.9628 2.81769L99.1863 2.80237C99.745 2.76408 99.8682 2.92402 99.9939 2.91541C100.12 2.90679 100.22 2.73152 100.779 2.69322L101.002 2.6779C101.295 2.6578 101.411 2.706 101.422 2.87361C101.446 3.22279 100.797 2.7621 101.194 3.84349L102.822 8.3487L103.55 3.82231C103.745 2.57404 103.028 3.17047 103.002 2.77938C102.988 2.58384 103.352 2.57292 103.674 2.55089L103.785 2.54323C104.009 2.52791 104.062 2.69265 104.104 2.68978C104.16 2.68595 104.19 2.51547 104.4 2.50111L104.595 2.4877C104.917 2.46568 105.06 2.51197 105.069 2.63768C105.096 3.02876 104.444 2.52617 104.249 3.77443L103.376 9.26496C103.55 9.54774 103.786 9.30703 103.803 9.55844C103.815 9.72605 103.707 9.78958 103.413 9.80968L103.19 9.825C102.631 9.8633 102.508 9.70336 102.382 9.71197C102.257 9.72059 102.156 9.89586 101.598 9.93416L101.374 9.94948C101.081 9.96958 100.965 9.92137 100.954 9.75377C100.937 9.50236 101.202 9.69463 101.337 9.40475L99.2263 3.79596C98.8848 2.90724 98.597 3.41812 98.5731 3.06894C98.5616 2.90133 98.6695 2.8378 98.9628 2.81769Z" fill="#99958F"/>
<path d="M92.9537 7.04627C92.7208 4.67768 93.9769 3.28812 95.5095 3.13745C97.0421 2.98677 98.5448 4.10512 98.7776 6.4737C99.0105 8.84228 97.7544 10.2318 96.2218 10.3825C94.6892 10.5332 93.1866 9.41485 92.9537 7.04627ZM94.8068 6.86408C94.9876 8.70322 95.5403 9.74615 96.1533 9.68587C96.7664 9.6256 97.1054 8.49501 96.9246 6.65588C96.7437 4.81674 96.1911 3.77382 95.578 3.83409C94.965 3.89436 94.626 5.02495 94.8068 6.86408Z" fill="#99958F"/>
<path d="M89.8633 10.8587C89.8207 10.5113 90.4048 11.0178 90.2512 9.76723L89.4506 3.25022C89.2969 1.99962 88.8528 2.6325 88.8101 2.28511C88.7743 1.9933 89.3786 1.97549 90.0185 1.55835C90.6845 1.1239 90.4819 0.852581 90.8293 0.809905C90.9544 0.794542 90.9975 0.916188 91.0163 1.06904L92.0576 9.54532C92.2112 10.7959 92.6554 10.163 92.698 10.5104C92.7185 10.6772 92.6142 10.7464 92.3224 10.7823L92.1 10.8096C91.5442 10.8779 91.4126 10.7248 91.2875 10.7401C91.1625 10.7555 91.0718 10.9359 90.516 11.0042L90.2936 11.0315C90.0018 11.0673 89.8838 11.0254 89.8633 10.8587Z" fill="#99958F"/>
<path d="M81.4082 5.6304C82.0567 5.17024 81.8437 4.90705 82.1338 4.85982C82.3135 4.83058 82.3614 4.95044 82.3861 5.10244L82.4513 5.50317C82.7017 5.03689 83.0458 4.71137 83.4742 4.64165C84.4277 4.48645 85.4174 5.68704 85.0446 6.27254L84.2502 7.57914C84.2062 7.65722 84.1554 7.69386 84.114 7.7006C83.8929 7.73659 83.6117 7.22917 83.4857 6.45535C83.398 5.91645 83.238 5.63044 83.0445 5.66193C82.6438 5.72716 82.6701 6.67321 82.782 7.53444L83.3083 10.7679C83.5107 12.0115 83.9297 11.3618 83.986 11.7072C84.013 11.873 83.9114 11.9463 83.6212 11.9935L83.4001 12.0295C82.8474 12.1195 82.7099 11.9717 82.5855 11.9919C82.4612 12.0121 82.3776 12.1959 81.8249 12.2859L81.6038 12.3219C81.3136 12.3691 81.1941 12.3319 81.1671 12.166C81.1108 11.8206 81.7143 12.3039 81.5119 11.0603L80.9069 7.34319C80.7472 6.36211 80.2854 6.74932 80.2292 6.40387C80.1819 6.11369 80.7851 6.07225 81.4082 5.6304Z" fill="#99958F"/>
<path d="M73.283 6.85859C73.2513 6.69361 73.3507 6.6175 73.6395 6.56207L73.8595 6.51984C74.4094 6.41428 74.5511 6.55815 74.6748 6.5344C74.7986 6.51064 74.8769 6.32454 75.4268 6.21897L75.6468 6.17674C75.9355 6.12132 76.0561 6.1552 76.0878 6.32019C76.1538 6.66391 75.5368 6.19786 75.7744 7.43527L76.3339 10.35C76.5899 11.6837 77.0159 12.3432 77.4833 12.2535C77.8958 12.1743 78.1181 11.4759 77.9218 10.2306L77.328 7.13703C77.0905 5.89962 76.69 6.56098 76.624 6.21726C76.5923 6.05227 76.6917 5.97616 76.9805 5.92074L77.2005 5.87851C77.7504 5.77294 77.8921 5.91681 78.0158 5.89306C78.1396 5.86931 78.2179 5.68321 78.7678 5.57764L78.9878 5.53541C79.2766 5.47999 79.3971 5.51387 79.4288 5.67886C79.4948 6.02258 78.8778 5.55652 79.1154 6.79393L79.7989 10.3549C79.9863 11.3311 80.437 10.931 80.5029 11.2747C80.5584 11.5634 79.9566 11.6219 79.3462 12.0812C78.711 12.5595 78.9314 12.8166 78.6427 12.872C78.464 12.9063 78.4127 12.7879 78.3837 12.6366L78.3098 12.2517C78.0177 12.7354 77.5978 13.0726 77.0341 13.1808C75.9342 13.3919 74.9213 12.6455 74.5597 10.7619L73.987 7.77837C73.7495 6.54096 73.349 7.20232 73.283 6.85859Z" fill="#99958F"/>
<path d="M67.4984 11.5472C66.9614 9.22856 68.0274 7.68834 69.5277 7.34089C71.028 6.99345 72.6625 7.90826 73.1995 10.2269C73.7365 12.5455 72.6705 14.0857 71.1702 14.4332C69.6699 14.7806 68.0354 13.8658 67.4984 11.5472ZM69.3124 11.1271C69.7293 12.9274 70.4121 13.8902 71.0123 13.7512C71.6124 13.6123 71.8025 12.4473 71.3855 10.647C70.9686 8.84664 70.2858 7.88387 69.6856 8.02285C69.0855 8.16183 68.8955 9.32674 69.3124 11.1271Z" fill="#99958F"/>
<path d="M61.5589 16.6866C61.464 16.3497 62.1183 16.7617 61.7766 15.5489L59.9958 9.22903C59.654 8.01626 59.3111 8.70923 59.2162 8.37235C59.1365 8.08937 59.7311 7.98 60.3003 7.47054C60.8926 6.94002 60.6511 6.7026 60.988 6.60767C61.1093 6.5735 61.1704 6.68718 61.2122 6.83541L63.5283 15.0553C63.8701 16.2681 64.213 15.5751 64.3079 15.912C64.3535 16.0737 64.2609 16.158 63.9779 16.2377L63.7623 16.2985C63.2233 16.4504 63.0699 16.319 62.9486 16.3532C62.8273 16.3874 62.7651 16.5795 62.2261 16.7313L62.0105 16.7921C61.7275 16.8718 61.6045 16.8483 61.5589 16.6866Z" fill="#99958F"/>
<path d="M58.3603 17.6381C58.2602 17.3028 58.9207 17.7046 58.5602 16.4972L56.6816 10.2057C56.3211 8.99838 55.989 9.69659 55.8889 9.36122C55.8048 9.07951 56.3976 8.96093 56.9588 8.4427C57.5428 7.90305 57.2977 7.66941 57.6331 7.56927C57.7538 7.53322 57.8167 7.64594 57.8608 7.7935L60.3042 15.9765C60.6647 17.1838 60.9968 16.4856 61.0969 16.821C61.145 16.982 61.0537 17.0677 60.772 17.1518L60.5573 17.2159C60.0207 17.3761 59.8654 17.2472 59.7446 17.2832C59.6239 17.3193 59.5646 17.5123 59.0281 17.6725L58.8134 17.7366C58.5317 17.8207 58.4084 17.7991 58.3603 17.6381Z" fill="#99958F"/>
<path d="M54.5577 14.5421L54.337 13.8778C54.1648 13.3596 53.6699 12.4914 53.165 12.6591C52.8594 12.7606 52.828 13.1546 53.0487 13.8189C53.2738 14.4965 53.2822 14.9658 53.0829 15.032C53.0431 15.0452 52.9988 15.0452 52.9324 15.023L51.6711 14.5569C51.5339 14.4992 51.4499 14.3796 51.4058 14.2467C51.1984 13.6223 51.7884 12.3788 53.1303 11.933C54.4456 11.496 55.6669 12.1082 56.0642 13.304L57.2603 16.9045C57.6576 18.1002 57.9682 17.3922 58.0785 17.7243C58.1315 17.8838 58.0429 17.9722 57.7638 18.0649L57.5513 18.1355C57.0198 18.3121 56.8606 18.188 56.741 18.2277C56.6347 18.263 56.515 18.4798 56.1031 18.6166C55.9835 18.6564 55.8951 18.5677 55.8553 18.4482L55.6876 17.9433C55.4524 18.4787 55.1731 18.9256 54.4556 19.164C53.5256 19.4729 52.7601 19.1224 52.4687 18.2455C51.9523 16.6911 53.7197 15.7498 54.5577 14.5421ZM54.9572 17.8319C55.2761 17.7259 55.4002 17.5667 55.4713 17.2923L54.7475 15.1134C54.4103 15.8302 53.7943 16.4627 54.1032 17.3927C54.2754 17.9109 54.5985 17.951 54.9572 17.8319Z" fill="#99958F"/>
<path d="M40.9486 14.2059C41.4799 13.6143 41.2142 13.4044 41.4868 13.2945C41.6556 13.2265 41.7287 13.3329 41.7863 13.4757L42.9799 16.4361C43.1734 15.9052 43.5206 15.4935 44.053 15.2789C45.0918 14.8601 46.2293 15.3977 46.9465 17.1766L48.1348 20.1241C48.606 21.2927 48.8718 20.5666 49.0027 20.8912C49.0655 21.047 48.9825 21.1409 48.7099 21.2508L48.5021 21.3345C47.9827 21.5439 47.816 21.43 47.6992 21.4771C47.5823 21.5242 47.5413 21.7219 47.0219 21.9313L46.8141 22.0151C46.5415 22.125 46.4167 22.115 46.3538 21.9592C46.223 21.6345 46.918 21.9732 46.4469 20.8046L45.2847 17.9221C44.7769 16.6626 44.232 16.0973 43.7906 16.2753C43.401 16.4324 43.3172 17.1605 43.7494 18.3448L44.9796 21.3962C45.4508 22.5648 45.7166 21.8387 45.8474 22.1633C45.9103 22.3191 45.8273 22.413 45.5547 22.5229L45.3469 22.6066C44.8275 22.816 44.6608 22.7021 44.544 22.7492C44.4271 22.7963 44.3861 22.994 43.8667 23.2034L43.6589 23.2872C43.3863 23.3971 43.2614 23.3871 43.1986 23.2313C43.0677 22.9066 43.7628 23.2453 43.2917 22.0767L40.8365 15.987C40.4648 15.0651 40.0995 15.5445 39.9686 15.2199C39.8587 14.9472 40.438 14.774 40.9486 14.2059Z" fill="#99958F"/>
<path d="M35.8885 18.9473C36.0507 18.7966 36.3461 18.6007 36.5997 18.1778C37.0675 17.3805 36.6155 16.894 36.9978 16.72C37.1762 16.6389 37.2538 16.742 37.3176 16.8822L37.851 18.0545L38.6538 17.6893C39.0361 17.5154 39.326 18.1525 38.9437 18.3265L38.1408 18.6917L39.4974 21.6736C40.1351 23.0754 40.5177 23.9164 40.9 23.7425C41.2059 23.6034 40.9509 23.2118 40.6958 22.6511C40.4465 22.1032 40.4162 21.5633 40.6073 21.4763C40.6583 21.4531 40.7209 21.4554 40.8008 21.4959L42.1868 22.142C42.8149 22.4407 42.7064 23.6898 41.1389 24.4029C40.3361 24.7681 39.035 25.0524 37.9335 22.6312L36.7103 19.9423C36.6117 19.7257 36.5236 19.5658 36.4332 19.4685L36.2421 19.5555C35.8853 19.7178 35.5989 19.156 35.8885 18.9473Z" fill="#99958F"/>
<path d="M35.622 25.629L33.9422 22.2584C33.3802 21.1307 33.1726 21.8755 33.0165 21.5622C32.8853 21.2991 33.4491 21.0807 33.9132 20.474C34.3961 19.8422 34.1147 19.654 34.4279 19.4979C34.5407 19.4417 34.6219 19.542 34.6906 19.6798L37.2509 24.8172C37.8129 25.9449 38.0205 25.2002 38.1766 25.5134C38.2515 25.6638 38.1763 25.7639 37.9131 25.895L37.7126 25.9949C37.2114 26.2447 37.0363 26.1443 36.9235 26.2005C36.8107 26.2567 36.7854 26.457 36.2842 26.7068L36.0837 26.8067C35.8206 26.9378 35.6954 26.9377 35.6204 26.7873C35.4643 26.474 36.184 26.7567 35.622 25.629ZM32.5648 17.4544C33.1412 17.1671 33.7232 17.362 34.0105 17.9384C34.304 18.5273 34.1091 19.1093 33.5327 19.3966C32.9438 19.6901 32.3618 19.4952 32.0683 18.9063C31.781 18.3299 31.9759 17.7479 32.5648 17.4544Z" fill="#99958F"/>
<path d="M24.3288 24.9861L24.5245 24.8771C25.0138 24.6047 25.1934 24.697 25.3035 24.6357C25.4136 24.5745 25.4297 24.3732 25.919 24.1008L26.1147 23.9919C26.3716 23.8489 26.4967 23.8433 26.5784 23.9901C26.7487 24.2959 26.0319 24.1021 26.7846 24.9649L29.5504 28.12L28.1874 24.3763L27.9438 24.1113C27.3109 23.4061 27.2135 24.0372 27.0433 23.7313C26.9615 23.5846 27.0322 23.4811 27.289 23.3381L27.4848 23.2292C27.9741 22.9568 28.1536 23.0491 28.2637 22.9878C28.3738 22.9266 28.39 22.7253 28.8793 22.4529L29.075 22.344C29.3318 22.201 29.4569 22.1954 29.5387 22.3422C29.7089 22.648 28.9921 22.4542 29.7448 23.317L32.5107 26.4721L31.134 22.7039C30.706 21.5321 30.3845 22.336 30.1938 21.9935C30.0985 21.8223 30.4233 21.6575 30.7046 21.5008L30.8025 21.4464C30.9982 21.3374 31.1166 21.4638 31.1533 21.4433C31.2023 21.4161 31.1572 21.2489 31.3407 21.1467L31.512 21.0514C31.7933 20.8948 31.9429 20.8756 32.0042 20.9857C32.1948 21.3282 31.3176 21.1916 31.7456 22.3634L33.6075 27.4638C33.9191 27.7069 34.048 27.3628 34.1706 27.583C34.2523 27.7298 34.1817 27.8332 33.9248 27.9762L33.7291 28.0851C33.3621 28.2894 33.1676 28.2855 33.0493 28.3033C33.0181 28.3047 32.9746 28.3129 32.9501 28.3265C32.9256 28.3401 32.8958 28.3728 32.8781 28.3986C32.8007 28.4898 32.7015 28.6571 32.3346 28.8614L32.1389 28.9704C31.9309 29.0861 31.8126 29.1039 31.7283 29.0387C31.7024 29.021 31.6888 28.9966 31.6752 28.9721C31.5526 28.7519 31.913 28.8237 31.8773 28.443L29.4138 25.7445L30.6473 29.1117C30.9589 29.3548 31.0878 29.0107 31.2103 29.2309C31.224 29.2553 31.2376 29.2798 31.239 29.3111C31.2499 29.4171 31.1725 29.5083 30.9645 29.6241L30.7688 29.733C30.2795 30.0054 30.1 29.9131 29.9899 29.9744C29.8798 30.0357 29.8636 30.2369 29.3743 30.5093L29.1786 30.6183C28.9217 30.7613 28.7966 30.7668 28.7149 30.62C28.5924 30.3998 28.9528 30.4716 28.9171 30.0909L24.9835 25.7592C24.3506 25.054 24.2533 25.6851 24.083 25.3792C24.0013 25.2325 24.0719 25.1291 24.3288 24.9861Z" fill="#99958F"/>
<path d="M16.6034 30.2004C16.7365 30.0235 16.9928 29.7787 17.168 29.3177C17.4882 28.4505 16.9576 28.0511 17.3033 27.8126C17.4647 27.7013 17.5592 27.7892 17.6467 27.9159L18.3781 28.9761L19.1041 28.4753C19.4498 28.2368 19.8473 28.813 19.5016 29.0515L18.7755 29.5523L20.6357 32.249C21.5102 33.5166 22.0349 34.2772 22.3806 34.0387C22.6572 33.8479 22.3372 33.5074 21.9874 33.0003C21.6456 32.5048 21.5208 31.9786 21.6936 31.8594C21.7397 31.8276 21.8017 31.8188 21.8876 31.8447L23.3656 32.2367C24.0364 32.4203 24.1494 33.6689 22.732 34.6467C22.006 35.1475 20.7752 35.6564 19.2648 33.4668L17.5874 31.0352C17.4523 30.8393 17.3374 30.6975 17.2313 30.6176L17.0585 30.7368C16.7358 30.9594 16.355 30.4567 16.6034 30.2004Z" fill="#99958F"/>
<path d="M12.149 34.2722C12.4963 33.5569 12.183 33.4286 12.4147 33.2476C12.5581 33.1356 12.6577 33.2177 12.7525 33.3391L12.9938 33.6481C13.0332 33.0844 13.2533 32.5928 13.7057 32.2395C14.5885 31.5502 15.8303 31.7529 17.0107 33.2647L18.9666 35.7695C19.742 36.7626 19.797 35.9914 20.0124 36.2672C20.1158 36.3997 20.062 36.5127 19.8303 36.6937L19.6538 36.8315C19.2124 37.1762 19.0207 37.1127 18.9214 37.1902C18.8221 37.2678 18.8372 37.4691 18.3958 37.8138L18.2193 37.9516C17.9875 38.1326 17.8648 38.1574 17.7614 38.025C17.546 37.7491 18.3075 37.8827 17.5321 36.8896L15.6193 34.4399C14.7835 33.3696 14.1037 32.9767 13.7286 33.2697C13.3975 33.5282 13.518 34.2512 14.2604 35.2701L16.2852 37.8632C17.0606 38.8563 17.1157 38.0851 17.3311 38.361C17.4345 38.4934 17.3806 38.6065 17.1489 38.7874L16.9724 38.9253C16.531 39.2699 16.3393 39.2064 16.24 39.284C16.1407 39.3615 16.1558 39.5629 15.7144 39.9075L15.5379 40.0454C15.3062 40.2263 15.1834 40.2511 15.08 40.1187C14.8646 39.8428 15.6262 39.9765 14.8507 38.9834L12.5329 36.0151C11.9212 35.2316 11.7025 35.7932 11.4871 35.5173C11.3061 35.2856 11.8151 34.9592 12.149 34.2722Z" fill="#99958F"/>
<path d="M8.00826 36.9875C8.90971 36.1684 10.3544 36.0096 11.1264 36.8592C11.9737 37.7918 11.6287 39.4105 10.7479 40.2108C10.3645 40.5591 10.0142 40.6316 9.70814 40.607C10.8577 41.8513 11.8577 42.2857 12.6556 41.5608C13.3809 40.9017 13.1786 39.9505 12.9302 39.344C12.8502 39.1519 12.8766 39.0144 12.9491 38.9485C13.0423 38.8637 13.2184 38.9118 13.3568 39.1266C13.788 39.8509 13.9816 41.3963 12.8314 42.4414C11.6813 43.4864 9.80818 43.4859 8.20766 41.7245C6.60714 39.963 6.88922 38.0043 8.00826 36.9875ZM10.2875 39.8914C10.6605 39.5525 10.5608 38.9432 9.91121 38.2282C9.29925 37.5547 8.68623 37.3172 8.40647 37.5714C8.0231 37.9198 8.40705 39.0085 9.28542 40.121C9.62914 40.187 10.0388 40.1174 10.2875 39.8914Z" fill="#99958F"/>
<path d="M7.2452 44.9402C5.8811 43.6728 3.30901 46.1944 0.991067 44.0407C-0.301239 42.8401 -0.267832 41.3232 0.732737 40.2463C1.96201 38.9232 3.64371 39.1289 4.31038 39.7483C4.45397 39.8817 4.56897 40.0458 4.58577 40.2334L4.72236 41.7936C4.72527 41.8727 4.71792 41.9424 4.6798 41.9834C4.5178 42.1577 3.92213 41.8527 3.19393 41.1762C2.48624 40.5186 1.86343 40.284 1.50132 40.6737C1.08203 41.125 1.45038 41.9832 1.97346 42.4692C2.62987 43.0791 3.42129 43.05 4.25673 42.8707C5.5436 42.5757 6.95806 41.9789 8.18883 43.1224C9.28626 44.142 9.42285 45.7022 8.1364 47.0868C7.02148 48.2868 5.19233 48.6512 4.33079 47.8508C4.14617 47.6792 3.96891 47.4381 3.86714 47.0951L3.45494 45.8522C3.37732 45.6272 3.40155 45.4777 3.46825 45.4059C3.66837 45.1905 4.30216 45.4545 4.80472 45.9215C5.7278 46.7791 6.90162 47.1817 7.50196 46.5356C7.98795 46.0125 7.61443 45.2833 7.2452 44.9402Z" fill="#99958F"/>
</svg>
